<svg width="42" height="44" viewBox="0 0 42 44" fill="none" xmlns="http://www.w3.org/2000/svg">
<path fill-rule="evenodd" clip-rule="evenodd" d="M17.5821 6.59574C17.7283 10.2237 17.9477 14.1438 18.0695 15.3071C18.1914 16.4704 18.1889 17.4227 18.0631 17.4227C17.9378 17.4227 14.5993 15.3016 10.6441 12.7096C2.55143 7.40565 3.2751 7.97463 3.2751 7.97463L0.0772706 13.8351L7.69986 17.7443C11.8923 19.8948 15.3254 21.766 15.3284 21.9028C15.3319 22.0397 11.8844 23.898 7.66717 26.032L0 29.9123L1.56474 32.7522C2.42512 34.3143 3.19486 35.6787 3.2751 35.7848C3.35535 35.8908 6.49275 33.9643 10.2468 31.5033C14.0004 29.0422 17.3478 26.8718 17.6852 26.6802C18.1448 26.4188 18.2419 26.8678 18.0735 28.4727C17.9497 29.6505 17.7283 33.5825 17.5821 37.2099L17.3156 43.8057H24.2408C24.2334 43.1899 24.0229 38.2115 23.7732 34.1122C23.5236 30.0129 23.3963 26.5816 23.4904 26.4865C23.585 26.3919 26.9171 28.4941 30.8955 31.1578C34.874 33.8215 38.2031 35.9092 38.2933 35.7967C38.3829 35.6842 39.1749 34.3098 40.0531 32.7423L41.6491 29.8929L33.9423 26.0295C29.7038 23.905 26.2355 22.0477 26.2355 21.9028C26.2355 21.758 29.6968 19.9042 33.9279 17.7831C42.5382 13.4673 41.6491 13.8351 41.6491 13.8351L38.1174 7.97463L32.3003 11.7822C29.101 13.8764 25.7387 16.0364 24.8283 16.5819L23.1734 17.5745L23.4513 14.885C23.6038 13.406 23.8663 9.45207 24.0348 6.09795L24.3409 0H20.8285H17.3156L17.5821 6.59574Z" fill="#BF2B18"/>
</svg>
