<svg width="400" height="157" viewBox="0 0 400 157" fill="none" xmlns="http://www.w3.org/2000/svg">
<g clip-path="url(#clip0)">
<path d="M91.9975 45.2526C90.7788 43.9183 89.1905 43.9241 87.5386 43.9241C85.8867 43.9241 84.3272 43.9241 82.7216 43.9241C81.6928 43.9125 80.6966 44.2849 79.9276 44.9684C79.1587 45.652 78.6721 46.5976 78.5629 47.6206C78.4301 49.0242 78.5629 50.5086 78.5629 51.8832C78.5629 53.2578 78.3377 55.0888 79.1405 56.4288C79.4611 56.9721 79.9023 57.4345 80.4301 57.78C80.9579 58.1256 81.5582 58.345 82.1844 58.4214C82.825 58.459 83.4672 58.459 84.1077 58.4214H89.023C90.1068 58.4049 91.1411 57.9646 91.9043 57.1949C92.6675 56.4251 93.0991 55.3872 93.1065 54.3033C93.1354 52.7611 93.1065 51.2132 93.1065 49.6826C93.1065 48.152 93.1643 46.5348 91.9975 45.2526ZM92.6791 53.5755C92.7281 54.2628 92.6538 54.9533 92.4596 55.6144C92.1975 56.3248 91.7258 56.9388 91.1069 57.3751C90.488 57.8114 89.7512 58.0494 88.9941 58.0576H85.3842C84.1308 58.0576 82.5829 58.2713 81.3758 57.8439C80.7237 57.6059 80.1511 57.1905 79.7224 56.6446C79.2938 56.0986 79.0262 55.4437 78.9499 54.7538C78.9095 54.3321 78.9499 53.899 78.9499 53.4773V48.7527C78.9198 48.2054 78.9567 47.6565 79.0597 47.1181C79.2195 46.4839 79.5441 45.9031 80.0005 45.4345C80.4569 44.9659 81.0289 44.6262 81.6588 44.4497C82.8775 44.1147 84.3677 44.3169 85.6095 44.3169C86.8513 44.3169 88.0757 44.236 89.2944 44.3169C89.9486 44.3713 90.5768 44.5976 91.1154 44.9729C91.6539 45.3481 92.0838 45.8591 92.3614 46.4539C92.6215 47.0966 92.736 47.789 92.6964 48.4812L92.6791 53.5755Z" fill="black"/>
<path d="M109.833 45.2526C108.615 43.9183 107.026 43.9241 105.375 43.9241C103.723 43.9241 102.163 43.9241 100.557 43.9241C99.5287 43.9125 98.5325 44.2849 97.7636 44.9684C96.9946 45.652 96.508 46.5976 96.3989 47.6206C96.266 49.0242 96.3989 50.5086 96.3989 51.8832C96.3989 53.2578 96.1679 55.0888 96.9765 56.4288C97.297 56.9721 97.7382 57.4345 98.2661 57.78C98.7939 58.1256 99.3941 58.345 100.02 58.4214C100.661 58.4589 101.303 58.4589 101.944 58.4214H106.859C107.943 58.4049 108.977 57.9646 109.74 57.1949C110.503 56.4251 110.935 55.3872 110.942 54.3033C110.971 52.7611 110.942 51.2132 110.942 49.6826C110.942 48.152 111 46.5348 109.833 45.2526ZM110.515 53.5755C110.564 54.2628 110.49 54.9533 110.296 55.6144C110.033 56.3248 109.562 56.9388 108.943 57.3751C108.324 57.8114 107.587 58.0494 106.83 58.0576H103.232C101.978 58.0576 100.43 58.2713 99.2233 57.8439C98.5712 57.6059 97.9986 57.1905 97.5699 56.6446C97.1413 56.0986 96.8737 55.4437 96.7974 54.7538C96.757 54.3321 96.7974 53.899 96.7974 53.4773V48.7527C96.7673 48.2054 96.8042 47.6565 96.9072 47.1181C97.067 46.4839 97.3916 45.9031 97.848 45.4345C98.3044 44.9659 98.8764 44.6262 99.5063 44.4497C100.731 44.1147 102.215 44.3169 103.457 44.3169C104.699 44.3169 105.923 44.236 107.142 44.3169C107.796 44.3707 108.425 44.5968 108.963 44.9721C109.502 45.3475 109.932 45.8587 110.209 46.4539C110.469 47.0966 110.583 47.789 110.544 48.4812L110.515 53.5755Z" fill="black"/>
<path d="M127.669 45.2526C126.451 43.9183 124.862 43.9241 123.21 43.9241C121.559 43.9241 119.999 43.9241 118.393 43.9241C117.365 43.9125 116.368 44.2849 115.599 44.9684C114.831 45.652 114.344 46.5976 114.235 47.6206C114.102 49.0242 114.235 50.5086 114.235 51.8832C114.235 53.2578 114.004 55.0888 114.812 56.4288C115.133 56.9721 115.574 57.4345 116.102 57.78C116.63 58.1256 117.23 58.345 117.856 58.4214C118.499 58.459 119.143 58.459 119.785 58.4214H124.66C125.743 58.4034 126.776 57.9624 127.538 57.1929C128.3 56.4233 128.731 55.3862 128.738 54.3033C128.773 52.7611 128.738 51.2132 128.738 49.6826C128.738 48.152 128.836 46.5348 127.669 45.2526ZM128.351 53.5755C128.399 54.2624 128.327 54.9524 128.137 55.6144C127.874 56.3239 127.402 56.937 126.783 57.3731C126.165 57.8091 125.429 58.0478 124.672 58.0576H121.068C119.82 58.0576 118.266 58.2713 117.059 57.8439C116.407 57.6059 115.834 57.1905 115.406 56.6446C114.977 56.0986 114.71 55.4437 114.633 54.7538C114.593 54.3321 114.633 53.899 114.633 53.4773V48.7527C114.603 48.2054 114.64 47.6565 114.743 47.1181C114.903 46.4839 115.227 45.9031 115.684 45.4345C116.14 44.9659 116.712 44.6262 117.342 44.4497C118.567 44.1147 120.051 44.3169 121.299 44.3169C122.546 44.3169 123.759 44.236 124.978 44.3169C125.632 44.3707 126.261 44.5968 126.799 44.9721C127.338 45.3475 127.768 45.8587 128.045 46.4539C128.305 47.0966 128.419 47.789 128.38 48.4812L128.351 53.5755Z" fill="black"/>
<path d="M145.505 45.2526C144.287 43.9183 142.698 43.9241 141.046 43.9241C139.395 43.9241 137.835 43.9241 136.229 43.9241C135.201 43.9125 134.204 44.2849 133.435 44.9684C132.666 45.652 132.18 46.5976 132.071 47.6206C131.938 49.0242 132.071 50.5086 132.071 51.8832C132.071 53.2578 131.84 55.0888 132.648 56.4288C132.969 56.9721 133.41 57.4345 133.938 57.78C134.466 58.1256 135.066 58.345 135.692 58.4214C136.335 58.459 136.979 58.459 137.621 58.4214H142.537C143.619 58.4034 144.652 57.9624 145.414 57.1929C146.176 56.4233 146.607 55.3862 146.614 54.3033C146.649 52.7611 146.614 51.2132 146.614 49.6826C146.614 48.152 146.672 46.5348 145.505 45.2526ZM146.187 53.5755C146.235 54.2624 146.162 54.9524 145.973 55.6144C145.71 56.3239 145.238 56.937 144.619 57.3731C144 57.8091 143.264 58.0478 142.508 58.0576H138.904C137.656 58.0576 136.102 58.2713 134.901 57.8439C134.247 57.6074 133.673 57.1926 133.243 56.6464C132.814 56.1002 132.545 55.4446 132.469 54.7538C132.429 54.3321 132.469 53.899 132.469 53.4773V48.7527C132.439 48.2054 132.476 47.6565 132.579 47.1181C132.739 46.4832 133.065 45.9019 133.522 45.4333C133.98 44.9646 134.553 44.6253 135.184 44.4497C136.403 44.1147 137.887 44.3169 139.135 44.3169C140.382 44.3169 141.595 44.236 142.814 44.3169C143.468 44.3707 144.097 44.5968 144.635 44.9721C145.174 45.3475 145.604 45.8587 145.881 46.4539C146.141 47.0966 146.255 47.789 146.216 48.4812L146.187 53.5755Z" fill="black"/>
<path d="M163.361 45.2526C162.142 43.9183 160.554 43.9241 158.902 43.9241C157.25 43.9241 155.691 43.9241 154.085 43.9241C153.056 43.9125 152.06 44.2849 151.291 44.9684C150.522 45.652 150.035 46.5976 149.926 47.6206C149.793 49.0242 149.926 50.5086 149.926 51.8832C149.926 53.2578 149.695 55.0888 150.504 56.4288C150.824 56.9721 151.266 57.4345 151.793 57.78C152.321 58.1256 152.921 58.345 153.548 58.4214C154.19 58.459 154.834 58.459 155.477 58.4214H160.392C161.475 58.4048 162.509 57.9644 163.271 57.1945C164.034 56.4246 164.464 55.3867 164.47 54.3033C164.504 52.7611 164.47 51.2132 164.47 49.6826C164.47 48.152 164.516 46.5348 163.361 45.2526ZM164.042 53.5755C164.09 54.2624 164.018 54.9524 163.829 55.6144C163.565 56.3239 163.093 56.937 162.475 57.3731C161.856 57.8091 161.12 58.0478 160.363 58.0576H156.759C155.511 58.0576 153.958 58.2713 152.756 57.8439C152.103 57.6074 151.529 57.1926 151.099 56.6464C150.669 56.1002 150.401 55.4446 150.325 54.7538C150.284 54.3321 150.325 53.899 150.325 53.4773V48.7527C150.295 48.2054 150.332 47.6565 150.435 47.1181C150.595 46.4832 150.92 45.9019 151.378 45.4333C151.835 44.9646 152.408 44.6253 153.039 44.4497C154.258 44.1147 155.742 44.3169 156.99 44.3169C158.238 44.3169 159.451 44.236 160.669 44.3169C161.324 44.3707 161.952 44.5968 162.491 44.9721C163.029 45.3475 163.459 45.8587 163.736 46.4539C163.996 47.0966 164.111 47.789 164.071 48.4812L164.042 53.5755Z" fill="black"/>
<path d="M168.28 56.4305C168.601 56.9733 169.042 57.4352 169.57 57.7806C170.098 58.1261 170.698 58.3459 171.324 58.4232C171.966 58.4607 172.61 58.4607 173.253 58.4232H178.168C179.251 58.4066 180.285 57.9661 181.047 57.1963C181.81 56.4264 182.24 55.3884 182.246 54.305C182.28 52.7629 182.246 51.215 182.246 49.6844C182.246 48.1538 182.344 46.5192 181.177 45.237C180.01 43.9547 178.37 43.9085 176.724 43.9085C175.078 43.9085 173.507 43.9085 171.907 43.9085C170.877 43.8955 169.88 44.2672 169.109 44.9509C168.339 45.6346 167.852 46.581 167.743 47.6051C167.61 49.0086 167.743 50.493 167.743 51.8676C167.743 53.2423 167.494 55.0905 168.28 56.4305ZM168.222 47.1199C168.382 46.4849 168.708 45.9036 169.165 45.435C169.623 44.9664 170.196 44.6271 170.827 44.4515C172.046 44.1165 173.53 44.3186 174.778 44.3186C176.025 44.3186 177.244 44.2378 178.457 44.3186C179.111 44.3725 179.74 44.5985 180.278 44.9739C180.817 45.3492 181.247 45.8605 181.524 46.4557C181.784 47.0984 181.898 47.7908 181.859 48.483V53.5657C181.907 54.2526 181.834 54.9426 181.645 55.6046C181.382 56.3141 180.909 56.9272 180.291 57.3632C179.672 57.7993 178.936 58.038 178.18 58.0478H174.564C173.316 58.0478 171.763 58.2615 170.561 57.8341C169.908 57.5979 169.334 57.183 168.905 56.6367C168.477 56.0904 168.21 55.4346 168.135 54.744C168.112 54.3188 168.112 53.8927 168.135 53.4675V48.7429C168.099 48.2004 168.128 47.6554 168.222 47.1199V47.1199Z" fill="black"/>
<path d="M186.116 56.4305C186.438 56.974 186.88 57.4363 187.409 57.7818C187.937 58.1273 188.538 58.3467 189.165 58.4231C189.806 58.4607 190.448 58.4607 191.089 58.4231H196.004C197.087 58.4051 198.121 57.9643 198.884 57.1949C199.647 56.4255 200.079 55.3884 200.087 54.305C200.087 52.7628 200.087 51.2149 200.087 49.6843C200.087 48.1537 200.18 46.5191 199.013 45.2369C197.846 43.9547 196.206 43.9085 194.56 43.9085C192.914 43.9085 191.349 43.9085 189.743 43.9085C188.714 43.8968 187.717 44.2689 186.947 44.9523C186.177 45.6358 185.689 46.5815 185.579 47.605C185.446 49.0085 185.579 50.4929 185.579 51.8675C185.579 53.2422 185.307 55.0905 186.116 56.4305ZM186.058 47.1198C186.218 46.4849 186.544 45.9036 187.001 45.435C187.459 44.9663 188.032 44.627 188.663 44.4514C189.882 44.1164 191.366 44.3186 192.614 44.3186C193.861 44.3186 195.08 44.2377 196.293 44.3186C196.947 44.3724 197.576 44.5985 198.114 44.9738C198.653 45.3492 199.083 45.8604 199.36 46.4556C199.62 47.0983 199.734 47.7907 199.695 48.4829V53.5656C199.743 54.2525 199.67 54.9425 199.481 55.6045C199.218 56.3145 198.746 56.928 198.128 57.3642C197.509 57.8004 196.772 58.0387 196.016 58.0477H192.417C191.164 58.0477 189.61 58.2614 188.409 57.834C187.757 57.5961 187.184 57.1807 186.755 56.6347C186.327 56.0887 186.059 55.4339 185.983 54.7439C185.96 54.3188 185.96 53.8926 185.983 53.4675V48.7428C185.942 48.2008 185.968 47.6558 186.058 47.1198V47.1198Z" fill="black"/>
<path d="M91.9975 64.2847C90.7788 62.9448 89.1905 62.9563 87.5386 62.9563C85.8867 62.9563 84.3272 62.9563 82.7216 62.9563C81.6928 62.9448 80.6966 63.3171 79.9276 64.0006C79.1587 64.6842 78.6721 65.6298 78.5629 66.6529C78.4301 68.0506 78.5629 69.5408 78.5629 70.9154C78.5629 72.4056 78.3377 74.121 79.1405 75.461C79.4624 76.0027 79.9041 76.4635 80.4317 76.8079C80.9594 77.1523 81.5589 77.3713 82.1844 77.4479C82.8243 77.497 83.4665 77.5085 84.1077 77.4825H89.023C90.1068 77.466 91.1411 77.0257 91.9043 76.256C92.6675 75.4862 93.0991 74.4483 93.1065 73.3644C93.1354 71.8165 93.1065 70.2743 93.1065 68.7437C93.1065 67.2131 93.1643 65.567 91.9975 64.2847ZM92.6791 72.6077C92.7281 73.295 92.6538 73.9855 92.4596 74.6466C92.1975 75.357 91.7258 75.971 91.1069 76.4073C90.488 76.8436 89.7512 77.0816 88.9941 77.0898H85.3842C84.1308 77.0898 82.5829 77.3035 81.3758 76.8761C80.7241 76.6376 80.1518 76.222 79.7232 75.6762C79.2947 75.1303 79.0269 74.4757 78.9499 73.786C78.9095 73.3644 78.9499 72.9312 78.9499 72.5096V67.7849C78.9201 67.2357 78.9569 66.6849 79.0597 66.1446C79.2211 65.5111 79.5463 64.9311 80.0024 64.4628C80.4586 63.9945 81.0298 63.6543 81.6588 63.4762C82.8775 63.1412 84.3677 63.3433 85.6095 63.3433C86.8513 63.3433 88.0757 63.2625 89.2944 63.3433C89.9487 63.4 90.5765 63.6279 91.1149 64.004C91.6532 64.3801 92.0831 64.8913 92.3614 65.4861C92.6215 66.1288 92.736 66.8212 92.6964 67.5135L92.6791 72.6077Z" fill="black"/>
<path d="M109.833 64.2847C108.615 62.9448 107.026 62.9563 105.375 62.9563C103.723 62.9563 102.163 62.9563 100.557 62.9563C99.5287 62.9448 98.5325 63.3171 97.7636 64.0006C96.9946 64.6842 96.508 65.6298 96.3989 66.6529C96.266 68.0506 96.3989 69.5408 96.3989 70.9154C96.3989 72.4056 96.1679 74.121 96.9765 75.461C97.2983 76.0027 97.74 76.4635 98.2677 76.8079C98.7953 77.1523 99.3949 77.3713 100.02 77.4479C100.66 77.4969 101.302 77.5085 101.944 77.4825H106.859C107.943 77.466 108.977 77.0257 109.74 76.256C110.503 75.4862 110.935 74.4483 110.942 73.3644C110.971 71.8165 110.942 70.2743 110.942 68.7437C110.942 67.2131 111 65.567 109.833 64.2847ZM110.515 72.6077C110.564 73.295 110.49 73.9855 110.296 74.6466C110.033 75.357 109.562 75.971 108.943 76.4073C108.324 76.8436 107.587 77.0816 106.83 77.0898H103.232C101.978 77.0898 100.43 77.3035 99.2233 76.8761C98.5715 76.6376 97.9993 76.222 97.5707 75.6762C97.1422 75.1303 96.8744 74.4757 96.7974 73.786C96.757 73.3644 96.7974 72.9312 96.7974 72.5096V67.7849C96.7676 67.2357 96.8044 66.6849 96.9072 66.1446C97.0686 65.5111 97.3937 64.9311 97.8499 64.4628C98.306 63.9945 98.8773 63.6543 99.5063 63.4762C100.731 63.1412 102.215 63.3433 103.457 63.3433C104.699 63.3433 105.923 63.2625 107.142 63.3433C107.796 63.3995 108.424 63.6271 108.963 64.0033C109.501 64.3795 109.931 64.8909 110.209 65.4861C110.469 66.1288 110.583 66.8212 110.544 67.5135L110.515 72.6077Z" fill="black"/>
<path d="M127.669 64.2847C126.451 62.9448 124.862 62.9563 123.21 62.9563C121.559 62.9563 119.999 62.9563 118.393 62.9563C117.365 62.9448 116.368 63.3171 115.599 64.0006C114.831 64.6842 114.344 65.6298 114.235 66.6529C114.102 68.0506 114.235 69.5408 114.235 70.9154C114.235 72.4056 114.004 74.121 114.812 75.461C115.134 76.0027 115.576 76.4635 116.104 76.8079C116.631 77.1523 117.231 77.3713 117.856 77.4479C118.498 77.497 119.142 77.5085 119.785 77.4825H124.66C125.743 77.4645 126.776 77.0235 127.538 76.254C128.3 75.4844 128.731 74.4473 128.738 73.3644C128.773 71.8165 128.738 70.2743 128.738 68.7437C128.738 67.2131 128.836 65.567 127.669 64.2847ZM128.351 72.6077C128.399 73.2946 128.326 73.9845 128.137 74.6466C127.874 75.3561 127.402 75.9692 126.783 76.4053C126.165 76.8414 125.429 77.08 124.672 77.0898H121.068C119.82 77.0898 118.266 77.3035 117.059 76.8761C116.407 76.6376 115.835 76.222 115.407 75.6762C114.978 75.1303 114.71 74.4757 114.633 73.786C114.593 73.3644 114.633 72.9312 114.633 72.5096V67.7849C114.604 67.2357 114.64 66.6849 114.743 66.1446C114.905 65.5111 115.23 64.9311 115.686 64.4628C116.142 63.9945 116.713 63.6543 117.342 63.4762C118.567 63.1412 120.051 63.3433 121.299 63.3433C122.546 63.3433 123.759 63.2625 124.978 63.3433C125.632 63.3995 126.26 63.6271 126.799 64.0033C127.337 64.3795 127.767 64.8909 128.045 65.4861C128.305 66.1288 128.419 66.8212 128.38 67.5135L128.351 72.6077Z" fill="black"/>
<path d="M145.505 64.2847C144.287 62.9448 142.698 62.9563 141.046 62.9563C139.395 62.9563 137.835 62.9563 136.229 62.9563C135.201 62.9448 134.204 63.3171 133.435 64.0006C132.666 64.6842 132.18 65.6298 132.071 66.6529C131.938 68.0506 132.071 69.5408 132.071 70.9154C132.071 72.4056 131.84 74.121 132.648 75.461C132.964 75.9957 133.397 76.452 133.914 76.7961C134.431 77.1401 135.019 77.3629 135.634 77.4479C136.276 77.497 136.92 77.5085 137.564 77.4825H142.479C143.562 77.4645 144.594 77.0235 145.356 76.254C146.118 75.4844 146.549 74.4473 146.557 73.3644C146.591 71.8165 146.557 70.2743 146.557 68.7437C146.557 67.2131 146.672 65.567 145.505 64.2847ZM146.187 72.6077C146.235 73.2946 146.162 73.9845 145.973 74.6466C145.71 75.3561 145.238 75.9692 144.619 76.4053C144 76.8414 143.264 77.08 142.508 77.0898H138.904C137.656 77.0898 136.102 77.3035 134.901 76.8761C134.248 76.6385 133.675 76.2233 133.245 75.6774C132.815 75.1314 132.547 74.4764 132.469 73.786C132.429 73.3644 132.469 72.9312 132.469 72.5096V67.7849C132.439 67.2357 132.476 66.6849 132.579 66.1446C132.741 65.5104 133.067 64.93 133.524 64.4616C133.981 63.9932 134.554 63.6534 135.184 63.4762C136.403 63.1412 137.887 63.3433 139.135 63.3433C140.382 63.3433 141.595 63.2625 142.814 63.3433C143.468 63.3995 144.096 63.6271 144.635 64.0033C145.173 64.3795 145.603 64.8909 145.881 65.4861C146.141 66.1288 146.255 66.8212 146.216 67.5135L146.187 72.6077Z" fill="black"/>
<path d="M163.361 64.2847C162.142 62.9448 160.554 62.9563 158.902 62.9563C157.25 62.9563 155.691 62.9563 154.085 62.9563C153.056 62.9448 152.06 63.3171 151.291 64.0006C150.522 64.6842 150.035 65.6298 149.926 66.6529C149.793 68.0506 149.926 69.5408 149.926 70.9154C149.926 72.4056 149.695 74.121 150.504 75.461C150.826 76.0027 151.267 76.4635 151.795 76.8079C152.323 77.1523 152.922 77.3713 153.548 77.4479C154.19 77.497 154.834 77.5085 155.477 77.4825H160.392C161.475 77.4659 162.509 77.0255 163.271 76.2556C164.034 75.4857 164.464 74.4478 164.47 73.3644C164.504 71.8165 164.47 70.2743 164.47 68.7437C164.47 67.2131 164.516 65.567 163.361 64.2847ZM164.042 72.6077C164.09 73.2946 164.018 73.9845 163.829 74.6466C163.565 75.3561 163.093 75.9692 162.475 76.4053C161.856 76.8414 161.12 77.08 160.363 77.0898H156.759C155.511 77.0898 153.958 77.3035 152.756 76.8761C152.104 76.6385 151.53 76.2233 151.101 75.6774C150.671 75.1314 150.402 74.4764 150.325 73.786C150.284 73.3644 150.325 72.9312 150.325 72.5096V67.7849C150.295 67.2357 150.332 66.6849 150.435 66.1446C150.596 65.5104 150.922 64.93 151.38 64.4616C151.837 63.9932 152.409 63.6534 153.039 63.4762C154.258 63.1412 155.742 63.3433 156.99 63.3433C158.238 63.3433 159.451 63.2625 160.669 63.3433C161.324 63.3995 161.952 63.6271 162.49 64.0033C163.029 64.3795 163.458 64.8909 163.736 65.4861C163.996 66.1288 164.111 66.8212 164.071 67.5135L164.042 72.6077Z" fill="black"/>
<path d="M168.28 75.4613C168.602 76.0027 169.044 76.4633 169.571 76.8076C170.099 77.152 170.698 77.3711 171.324 77.4482C171.965 77.4973 172.61 77.5088 173.253 77.4828H178.168C179.251 77.4662 180.285 77.0258 181.047 76.2559C181.81 75.486 182.24 74.4481 182.246 73.3647C182.28 71.8168 182.246 70.2746 182.246 68.744C182.246 67.2134 182.344 65.5846 181.177 64.3024C180.01 63.0202 178.37 62.974 176.724 62.974C175.078 62.974 173.507 62.974 171.907 62.974C170.877 62.961 169.88 63.3326 169.109 64.0163C168.339 64.7 167.852 65.6464 167.743 66.6705C167.61 68.0682 167.743 69.5584 167.743 70.933C167.725 72.4059 167.494 74.1213 168.28 75.4613ZM168.222 66.1449C168.384 65.5107 168.71 64.9303 169.167 64.4619C169.624 63.9935 170.197 63.6537 170.827 63.4765C172.046 63.1415 173.53 63.3436 174.778 63.3436C176.025 63.3436 177.244 63.2628 178.457 63.3436C179.111 63.3998 179.739 63.6274 180.278 64.0036C180.816 64.3798 181.246 64.8912 181.524 65.4864C181.778 66.1305 181.886 66.8228 181.841 67.5138V72.5965C181.889 73.2834 181.817 73.9733 181.628 74.6354C181.364 75.3448 180.892 75.9579 180.274 76.394C179.655 76.8301 178.919 77.0687 178.162 77.0785H174.564C173.316 77.0785 171.763 77.2922 170.561 76.8648C169.908 76.6281 169.335 76.213 168.906 75.6668C168.477 75.1206 168.21 74.4651 168.135 73.7748C168.112 73.3496 168.112 72.9235 168.135 72.4983V67.7737C168.099 67.2292 168.128 66.6824 168.222 66.1449Z" fill="black"/>
<path d="M91.9975 83.3103C90.7788 81.9761 89.1905 81.9876 87.5386 81.9876C85.8867 81.9876 84.3272 81.9876 82.7216 81.9876C81.6924 81.9748 80.6955 82.3467 79.9263 83.0304C79.157 83.7142 78.6708 84.6606 78.5629 85.6842C78.4301 87.0819 78.5629 88.5374 78.5629 89.9467C78.5629 91.356 78.3377 93.1465 79.1405 94.4865C79.4611 95.0299 79.9023 95.4922 80.4301 95.8378C80.9579 96.1833 81.5582 96.4028 82.1844 96.4792C82.8244 96.5263 83.4666 96.536 84.1077 96.5081H89.023C90.1073 96.493 91.1424 96.0531 91.9059 95.2831C92.6695 94.5131 93.1005 93.4743 93.1065 92.3899C93.1354 90.8478 93.1065 89.2998 93.1065 87.7692C93.1065 86.2386 93.1643 84.5983 91.9975 83.3103ZM92.6791 91.6391C92.7274 92.3244 92.6531 93.0129 92.4596 93.6721C92.1984 94.3836 91.7271 94.9988 91.1082 95.4362C90.4892 95.8736 89.7519 96.1125 88.9941 96.1211H85.3842C84.1308 96.1211 82.5829 96.3348 81.3758 95.9074C80.724 95.6673 80.1518 95.2506 79.7234 94.7038C79.295 94.157 79.0272 93.5018 78.9499 92.8115C78.9095 92.3957 78.9499 91.9567 78.9499 91.5351V86.8104C78.9198 86.2631 78.9567 85.7143 79.0597 85.1759C79.2206 84.5421 79.5455 83.9619 80.0018 83.4935C80.458 83.0251 81.0295 82.685 81.6588 82.5075C82.8775 82.1725 84.3677 82.3746 85.6095 82.3746C86.8513 82.3746 88.0757 82.2937 89.2944 82.3746C89.949 82.4302 90.5774 82.6576 91.1159 83.0338C91.6544 83.4101 92.0841 83.9219 92.3614 84.5174C92.6216 85.1581 92.7361 85.8486 92.6964 86.539L92.6791 91.6391Z" fill="black"/>
<path d="M109.833 83.3103C108.615 81.9761 107.026 81.9876 105.375 81.9876C103.723 81.9876 102.163 81.9876 100.557 81.9876C99.5283 81.9748 98.5315 82.3467 97.7622 83.0304C96.993 83.7142 96.5068 84.6606 96.3989 85.6842C96.266 87.0819 96.3989 88.5374 96.3989 89.9467C96.3989 91.356 96.1679 93.1465 96.9765 94.4865C97.297 95.0299 97.7382 95.4922 98.2661 95.8378C98.7939 96.1833 99.3941 96.4028 100.02 96.4792C100.66 96.5263 101.303 96.5359 101.944 96.5081H106.859C107.943 96.493 108.978 96.0531 109.742 95.2831C110.505 94.5131 110.936 93.4743 110.942 92.3899C110.971 90.8478 110.942 89.2998 110.942 87.7692C110.942 86.2386 111 84.5983 109.833 83.3103ZM110.515 91.6391C110.563 92.3244 110.489 93.0129 110.296 93.6721C110.034 94.3836 109.563 94.9988 108.944 95.4362C108.325 95.8736 107.588 96.1125 106.83 96.1211H103.232C101.978 96.1211 100.43 96.3348 99.2233 95.9074C98.5715 95.6673 97.9993 95.2506 97.5709 94.7038C97.1425 94.157 96.8747 93.5018 96.7974 92.8115C96.757 92.3957 96.7974 91.9567 96.7974 91.5351V86.8104C96.7673 86.2631 96.8042 85.7143 96.9072 85.1759C97.0681 84.5421 97.393 83.9619 97.8493 83.4935C98.3055 83.0251 98.877 82.685 99.5063 82.5075C100.731 82.1725 102.215 82.3746 103.457 82.3746C104.699 82.3746 105.923 82.2937 107.142 82.3746C107.797 82.4296 108.425 82.6568 108.964 83.0331C109.503 83.4094 109.932 83.9215 110.209 84.5174C110.469 85.1581 110.584 85.8486 110.544 86.539L110.515 91.6391Z" fill="black"/>
<path d="M127.669 83.3103C126.451 81.9761 124.862 81.9876 123.21 81.9876C121.559 81.9876 119.999 81.9876 118.393 81.9876C117.364 81.9748 116.367 82.3467 115.598 83.0304C114.829 83.7142 114.343 84.6606 114.235 85.6842C114.102 87.0819 114.235 88.5374 114.235 89.9467C114.235 91.356 114.004 93.1465 114.812 94.4865C115.133 95.0299 115.574 95.4922 116.102 95.8378C116.63 96.1833 117.23 96.4028 117.856 96.4792C118.498 96.5264 119.142 96.536 119.785 96.5081H124.66C125.744 96.4929 126.778 96.0529 127.541 95.2828C128.304 94.5126 128.733 93.4738 128.738 92.3899C128.773 90.8478 128.738 89.2998 128.738 87.7692C128.738 86.2386 128.836 84.5983 127.669 83.3103ZM128.351 91.6391C128.399 92.324 128.326 93.012 128.137 93.6721C127.875 94.3827 127.403 94.997 126.784 95.4342C126.166 95.8714 125.429 96.1109 124.672 96.1211H121.068C119.82 96.1211 118.266 96.3348 117.059 95.9074C116.407 95.6673 115.835 95.2506 115.407 94.7038C114.978 94.157 114.711 93.5018 114.633 92.8115C114.593 92.3957 114.633 91.9567 114.633 91.5351V86.8104C114.603 86.2631 114.64 85.7143 114.743 85.1759C114.904 84.5421 115.229 83.9619 115.685 83.4935C116.141 83.0251 116.713 82.685 117.342 82.5075C118.567 82.1725 120.051 82.3746 121.299 82.3746C122.546 82.3746 123.759 82.2937 124.978 82.3746C125.633 82.4296 126.261 82.6568 126.8 83.0331C127.338 83.4094 127.768 83.9215 128.045 84.5174C128.305 85.1581 128.419 85.8486 128.38 86.539L128.351 91.6391Z" fill="black"/>
<path d="M145.505 83.3103C144.287 81.9761 142.698 81.9876 141.046 81.9876C139.395 81.9876 137.835 81.9876 136.229 81.9876C135.2 81.9748 134.203 82.3467 133.434 83.0304C132.665 83.7142 132.179 84.6606 132.071 85.6842C131.938 87.0819 132.071 88.5374 132.071 89.9467C132.071 91.356 131.84 93.1465 132.648 94.4865C132.969 95.0299 133.41 95.4922 133.938 95.8378C134.466 96.1833 135.066 96.4028 135.692 96.4792C136.334 96.5264 136.978 96.536 137.621 96.5081H142.537C143.62 96.4929 144.655 96.0529 145.417 95.2828C146.18 94.5126 146.61 93.4738 146.614 92.3899C146.649 90.8478 146.614 89.2998 146.614 87.7692C146.614 86.2386 146.672 84.5983 145.505 83.3103ZM146.187 91.6391C146.235 92.324 146.162 93.012 145.973 93.6721C145.711 94.3827 145.239 94.997 144.62 95.4342C144.002 95.8714 143.265 96.1109 142.508 96.1211H138.904C137.656 96.1211 136.102 96.3348 134.901 95.9074C134.248 95.6687 133.674 95.2525 133.244 94.7056C132.815 94.1587 132.546 93.5027 132.469 92.8115C132.429 92.3957 132.469 91.9567 132.469 91.5351V86.8104C132.439 86.2631 132.476 85.7143 132.579 85.1759C132.74 84.5412 133.066 83.9602 133.523 83.4917C133.98 83.0231 134.553 82.6836 135.184 82.5075C136.403 82.1725 137.887 82.3746 139.135 82.3746C140.382 82.3746 141.595 82.2937 142.814 82.3746C143.469 82.4296 144.097 82.6568 144.636 83.0331C145.174 83.4094 145.604 83.9215 145.881 84.5174C146.141 85.1581 146.255 85.8486 146.216 86.539L146.187 91.6391Z" fill="black"/>
<path d="M163.361 83.3103C162.142 81.9761 160.554 81.9876 158.902 81.9876C157.25 81.9876 155.691 81.9876 154.085 81.9876C153.056 81.9748 152.059 82.3467 151.29 83.0304C150.52 83.7142 150.034 84.6606 149.926 85.6842C149.793 87.0819 149.926 88.5374 149.926 89.9467C149.926 91.356 149.695 93.1465 150.504 94.4865C150.824 95.0299 151.266 95.4922 151.793 95.8378C152.321 96.1833 152.921 96.4028 153.548 96.4792C154.19 96.5264 154.834 96.536 155.477 96.5081H160.392C161.476 96.4929 162.51 96.0529 163.273 95.2828C164.036 94.5126 164.465 93.4738 164.47 92.3899C164.504 90.8478 164.47 89.2998 164.47 87.7692C164.47 86.2386 164.516 84.5983 163.361 83.3103ZM164.042 91.6391C164.09 92.324 164.018 93.012 163.829 93.6721C163.566 94.3827 163.094 94.997 162.476 95.4342C161.857 95.8714 161.121 96.1109 160.363 96.1211H156.759C155.511 96.1211 153.958 96.3348 152.756 95.9074C152.103 95.6687 151.529 95.2525 151.1 94.7056C150.67 94.1587 150.402 93.5027 150.325 92.8115C150.284 92.3957 150.325 91.9567 150.325 91.5351V86.8104C150.295 86.2631 150.332 85.7143 150.435 85.1759C150.595 84.5412 150.921 83.9602 151.378 83.4917C151.836 83.0231 152.409 82.6836 153.039 82.5075C154.258 82.1725 155.742 82.3746 156.99 82.3746C158.238 82.3746 159.451 82.2937 160.669 82.3746C161.324 82.4296 161.953 82.6568 162.491 83.0331C163.03 83.4094 163.459 83.9215 163.736 84.5174C163.996 85.1581 164.111 85.8486 164.071 86.539L164.042 91.6391Z" fill="black"/>
<path d="M91.9975 102.342C90.7788 101.008 89.1905 101.014 87.5386 101.014C85.8867 101.014 84.3272 101.014 82.7216 101.014C81.6931 101.004 80.6977 101.376 79.929 102.06C79.1603 102.743 78.6733 103.688 78.5629 104.71C78.4301 106.114 78.5629 107.598 78.5629 108.973C78.5629 110.463 78.3377 112.179 79.1405 113.519C79.4611 114.062 79.9023 114.524 80.4301 114.87C80.9579 115.215 81.5582 115.435 82.1844 115.511C82.825 115.549 83.4672 115.549 84.1077 115.511H89.023C90.0972 115.486 91.1196 115.044 91.874 114.279C92.6284 113.513 93.0559 112.485 93.0661 111.41C93.0949 109.868 93.0661 108.32 93.0661 106.79C93.0661 105.259 93.1643 103.625 91.9975 102.342ZM92.6791 110.665C92.7281 111.353 92.6538 112.043 92.4596 112.704C92.197 113.415 91.7254 114.029 91.1067 114.466C90.4881 114.903 89.7515 115.143 88.9941 115.153H85.3842C84.1308 115.153 82.5829 115.367 81.3758 114.934C80.7237 114.696 80.1511 114.28 79.7224 113.734C79.2938 113.188 79.0262 112.533 78.9499 111.844C78.9095 111.422 78.9499 110.989 78.9499 110.567V105.842C78.9198 105.295 78.9567 104.746 79.0597 104.208C79.2195 103.574 79.5441 102.993 80.0005 102.524C80.4569 102.056 81.0289 101.716 81.6588 101.539C82.8775 101.204 84.3677 101.407 85.6095 101.407C86.8513 101.407 88.0757 101.326 89.2944 101.407C89.9483 101.462 90.5759 101.689 91.1143 102.064C91.6527 102.439 92.0828 102.95 92.3614 103.544C92.6215 104.186 92.736 104.879 92.6964 105.571L92.6791 110.665Z" fill="black"/>
<path d="M109.833 102.342C108.615 101.008 107.026 101.014 105.375 101.014C103.723 101.014 102.163 101.014 100.557 101.014C99.529 101.004 98.5336 101.376 97.7649 102.06C96.9962 102.743 96.5093 103.688 96.3989 104.71C96.266 106.114 96.3989 107.598 96.3989 108.973C96.3989 110.463 96.1679 112.179 96.9765 113.519C97.297 114.062 97.7382 114.524 98.2661 114.87C98.7939 115.215 99.3941 115.435 100.02 115.511C100.661 115.549 101.303 115.549 101.944 115.511H106.859C107.943 115.496 108.978 115.056 109.742 114.286C110.505 113.516 110.936 112.477 110.942 111.393C110.971 109.851 110.942 108.303 110.942 106.772C110.942 105.242 111 103.625 109.833 102.342ZM110.515 110.665C110.564 111.353 110.49 112.043 110.296 112.704C110.033 113.415 109.561 114.029 108.943 114.466C108.324 114.903 107.587 115.143 106.83 115.153H103.232C101.978 115.153 100.43 115.367 99.2233 114.934C98.5712 114.696 97.9986 114.28 97.5699 113.734C97.1413 113.188 96.8737 112.533 96.7974 111.844C96.757 111.422 96.7974 110.989 96.7974 110.567V105.842C96.7673 105.295 96.8042 104.746 96.9072 104.208C97.067 103.574 97.3916 102.993 97.848 102.524C98.3044 102.056 98.8764 101.716 99.5063 101.539C100.731 101.204 102.215 101.407 103.457 101.407C104.699 101.407 105.923 101.326 107.142 101.407C107.796 101.461 108.424 101.687 108.963 102.063C109.501 102.438 109.931 102.949 110.209 103.544C110.469 104.186 110.583 104.879 110.544 105.571L110.515 110.665Z" fill="black"/>
<path d="M127.669 102.342C126.451 101.008 124.862 101.014 123.21 101.014C121.559 101.014 119.999 101.014 118.393 101.014C117.365 101.004 116.37 101.376 115.601 102.06C114.832 102.743 114.345 103.688 114.235 104.71C114.102 106.114 114.235 107.598 114.235 108.973C114.235 110.463 114.004 112.179 114.812 113.519C115.133 114.062 115.574 114.524 116.102 114.87C116.63 115.215 117.23 115.435 117.856 115.511C118.499 115.549 119.143 115.549 119.785 115.511H124.66C125.743 115.495 126.777 115.054 127.539 114.284C128.302 113.514 128.732 112.476 128.738 111.393C128.773 109.851 128.738 108.303 128.738 106.772C128.738 105.242 128.836 103.625 127.669 102.342ZM128.351 110.665C128.399 111.352 128.327 112.042 128.137 112.704C127.873 113.414 127.401 114.027 126.783 114.464C126.165 114.901 125.429 115.141 124.672 115.153H121.068C119.82 115.153 118.266 115.367 117.059 114.934C116.407 114.696 115.834 114.28 115.406 113.734C114.977 113.188 114.71 112.533 114.633 111.844C114.593 111.422 114.633 110.989 114.633 110.567V105.842C114.603 105.295 114.64 104.746 114.743 104.208C114.903 103.574 115.227 102.993 115.684 102.524C116.14 102.056 116.712 101.716 117.342 101.539C118.567 101.204 120.051 101.407 121.299 101.407C122.546 101.407 123.759 101.326 124.978 101.407C125.632 101.461 126.26 101.687 126.799 102.063C127.337 102.438 127.767 102.949 128.045 103.544C128.305 104.186 128.419 104.879 128.38 105.571L128.351 110.665Z" fill="black"/>
<path d="M145.505 102.342C144.287 101.008 142.698 101.014 141.046 101.014C139.395 101.014 137.835 101.014 136.229 101.014C135.201 101.004 134.205 101.376 133.437 102.06C132.668 102.743 132.181 103.688 132.071 104.71C131.938 106.114 132.071 107.598 132.071 108.973C132.071 110.463 131.84 112.179 132.648 113.519C132.963 114.055 133.395 114.513 133.912 114.858C134.43 115.203 135.018 115.426 135.634 115.511C136.277 115.549 136.921 115.549 137.564 115.511H142.479C143.562 115.495 144.596 115.054 145.358 114.284C146.12 113.514 146.551 112.476 146.557 111.393C146.591 109.851 146.557 108.303 146.557 106.772C146.557 105.242 146.672 103.625 145.505 102.342ZM146.187 110.665C146.235 111.352 146.162 112.042 145.973 112.704C145.709 113.414 145.237 114.027 144.619 114.464C144.001 114.901 143.265 115.141 142.508 115.153H138.904C137.656 115.153 136.102 115.367 134.901 114.934C134.247 114.697 133.673 114.282 133.243 113.736C132.814 113.19 132.545 112.534 132.469 111.844C132.429 111.422 132.469 110.989 132.469 110.567V105.842C132.439 105.295 132.476 104.746 132.579 104.208C132.739 103.573 133.065 102.992 133.522 102.523C133.98 102.054 134.553 101.715 135.184 101.539C136.403 101.204 137.887 101.407 139.135 101.407C140.382 101.407 141.595 101.326 142.814 101.407C143.468 101.461 144.096 101.687 144.635 102.063C145.173 102.438 145.603 102.949 145.881 103.544C146.141 104.186 146.255 104.879 146.216 105.571L146.187 110.665Z" fill="black"/>
<path d="M163.361 102.342C162.142 101.008 160.554 101.014 158.902 101.014C157.25 101.014 155.691 101.014 154.085 101.014C153.056 101.004 152.061 101.376 151.292 102.06C150.524 102.743 150.037 103.688 149.926 104.71C149.793 106.114 149.926 107.598 149.926 108.973C149.926 110.463 149.695 112.179 150.504 113.519C150.824 114.062 151.266 114.524 151.793 114.87C152.321 115.215 152.921 115.435 153.548 115.511C154.19 115.549 154.834 115.549 155.477 115.511H160.392C161.476 115.496 162.51 115.056 163.273 114.286C164.036 113.516 164.465 112.477 164.47 111.393C164.504 109.851 164.47 108.303 164.47 106.772C164.47 105.242 164.516 103.625 163.361 102.342ZM164.042 110.665C164.09 111.352 164.018 112.042 163.829 112.704C163.565 113.414 163.093 114.027 162.474 114.464C161.856 114.901 161.12 115.141 160.363 115.153H156.759C155.511 115.153 153.958 115.367 152.756 114.934C152.103 114.697 151.529 114.282 151.099 113.736C150.669 113.19 150.401 112.534 150.325 111.844C150.284 111.422 150.325 110.989 150.325 110.567V105.842C150.295 105.295 150.332 104.746 150.435 104.208C150.595 103.573 150.92 102.992 151.378 102.523C151.835 102.054 152.408 101.715 153.039 101.539C154.258 101.204 155.742 101.407 156.99 101.407C158.238 101.407 159.451 101.326 160.669 101.407C161.323 101.461 161.952 101.687 162.49 102.063C163.029 102.438 163.459 102.949 163.736 103.544C163.996 104.186 164.111 104.879 164.071 105.571L164.042 110.665Z" fill="black"/>
<path d="M181.177 102.342C179.958 101.008 178.37 101.014 176.724 101.014C175.078 101.014 173.507 101.014 171.907 101.014C170.878 101.002 169.881 101.374 169.111 102.058C168.341 102.741 167.853 103.687 167.743 104.71C167.61 106.114 167.743 107.598 167.743 108.973C167.743 110.463 167.512 112.179 168.32 113.519C168.641 114.061 169.083 114.523 169.611 114.869C170.138 115.214 170.738 115.434 171.364 115.511C172.007 115.549 172.651 115.549 173.293 115.511H178.208C179.282 115.486 180.304 115.044 181.057 114.278C181.811 113.513 182.237 112.484 182.246 111.41C182.28 109.868 182.246 108.32 182.246 106.79C182.246 105.259 182.344 103.625 181.177 102.342ZM181.841 110.665C181.889 111.352 181.817 112.042 181.628 112.704C181.364 113.414 180.892 114.027 180.273 114.464C179.655 114.901 178.919 115.141 178.162 115.153H174.564C173.316 115.153 171.763 115.367 170.561 114.934C169.908 114.697 169.334 114.283 168.905 113.736C168.477 113.19 168.21 112.534 168.135 111.844C168.112 111.418 168.112 110.992 168.135 110.567V105.843C168.105 105.295 168.142 104.746 168.245 104.208C168.405 103.573 168.731 102.992 169.188 102.523C169.646 102.054 170.219 101.715 170.85 101.54C172.069 101.205 173.553 101.407 174.801 101.407C176.048 101.407 177.267 101.326 178.48 101.407C179.134 101.461 179.762 101.687 180.301 102.063C180.839 102.438 181.269 102.949 181.547 103.544C181.807 104.186 181.921 104.879 181.882 105.571L181.841 110.665Z" fill="black"/>
<path d="M199.013 102.342C197.794 101.008 196.206 101.014 194.56 101.014C192.914 101.014 191.349 101.014 189.743 101.014C188.714 101.003 187.718 101.376 186.948 102.059C186.178 102.742 185.69 103.687 185.579 104.71C185.446 106.114 185.579 107.598 185.579 108.973C185.579 110.463 185.348 112.179 186.156 113.519C186.478 114.062 186.92 114.524 187.449 114.87C187.978 115.215 188.579 115.435 189.206 115.511C189.846 115.549 190.489 115.549 191.129 115.511H196.044C197.128 115.495 198.163 115.054 198.926 114.285C199.689 113.515 200.12 112.477 200.128 111.393C200.128 109.851 200.128 108.303 200.128 106.772C200.128 105.242 200.18 103.625 199.013 102.342ZM199.695 110.665C199.743 111.352 199.67 112.042 199.481 112.704C199.218 113.414 198.746 114.028 198.127 114.465C197.509 114.902 196.773 115.142 196.016 115.153H192.417C191.164 115.153 189.61 115.367 188.409 114.934C187.757 114.696 187.184 114.28 186.755 113.734C186.327 113.188 186.059 112.533 185.983 111.844C185.96 111.418 185.96 110.992 185.983 110.567V105.842C185.953 105.295 185.99 104.746 186.093 104.208C186.253 103.573 186.578 102.992 187.036 102.523C187.493 102.054 188.067 101.715 188.698 101.539C189.916 101.204 191.401 101.407 192.648 101.407C193.896 101.407 195.114 101.326 196.327 101.407C196.982 101.461 197.61 101.687 198.148 102.063C198.687 102.438 199.117 102.949 199.394 103.544C199.655 104.186 199.769 104.879 199.729 105.571L199.695 110.665Z" fill="black"/>
<path d="M91.9975 121.373C90.7788 120.038 89.1905 120.044 87.5386 120.044C85.8867 120.044 84.3272 120.044 82.7216 120.044C81.6928 120.033 80.6966 120.405 79.9276 121.089C79.1587 121.772 78.6721 122.718 78.5629 123.741C78.4301 125.144 78.5629 126.6 78.5629 128.003C78.5629 129.407 78.3377 131.209 79.1405 132.549C79.4611 133.092 79.9023 133.555 80.4301 133.9C80.9579 134.246 81.5582 134.465 82.1844 134.542C82.8244 134.589 83.4666 134.598 84.1077 134.57H89.023C90.0968 134.544 91.1183 134.101 91.8724 133.336C92.6265 132.571 93.0544 131.544 93.0661 130.47C93.0949 128.927 93.0661 127.38 93.0661 125.849C93.0661 124.318 93.1643 122.655 91.9975 121.373ZM92.6791 129.696C92.7281 130.383 92.6538 131.073 92.4596 131.734C92.1975 132.445 91.7258 133.059 91.1069 133.495C90.488 133.931 89.7512 134.169 88.9941 134.178H85.3842C84.1308 134.178 82.5829 134.391 81.3758 133.964C80.7237 133.726 80.1511 133.311 79.7224 132.765C79.2938 132.219 79.0262 131.564 78.9499 130.874C78.9095 130.452 78.9499 130.019 78.9499 129.597V124.873C78.9198 124.326 78.9567 123.777 79.0597 123.238C79.2195 122.604 79.5441 122.023 80.0005 121.555C80.4569 121.086 81.0289 120.746 81.6588 120.57C82.8775 120.235 84.3677 120.437 85.6095 120.437C86.8513 120.437 88.0757 120.356 89.2944 120.437C89.9486 120.491 90.5768 120.718 91.1154 121.093C91.6539 121.468 92.0838 121.979 92.3614 122.574C92.6215 123.217 92.736 123.909 92.6964 124.601L92.6791 129.696Z" fill="black"/>
<path d="M109.833 121.373C108.615 120.038 107.026 120.044 105.375 120.044C103.723 120.044 102.163 120.044 100.557 120.044C99.5287 120.033 98.5325 120.405 97.7636 121.089C96.9946 121.772 96.508 122.718 96.3989 123.741C96.266 125.144 96.3989 126.6 96.3989 128.003C96.3989 129.407 96.1679 131.209 96.9765 132.549C97.297 133.092 97.7382 133.555 98.2661 133.9C98.7939 134.246 99.3941 134.465 100.02 134.542C100.66 134.589 101.303 134.598 101.944 134.57H106.859C107.943 134.554 108.977 134.114 109.74 133.344C110.503 132.574 110.935 131.536 110.942 130.452C110.971 128.91 110.942 127.362 110.942 125.832C110.942 124.301 111 122.655 109.833 121.373ZM110.515 129.696C110.564 130.383 110.49 131.073 110.296 131.734C110.033 132.445 109.562 133.059 108.943 133.495C108.324 133.931 107.587 134.169 106.83 134.178H103.232C101.978 134.178 100.43 134.391 99.2233 133.964C98.5712 133.726 97.9986 133.311 97.5699 132.765C97.1413 132.219 96.8737 131.564 96.7974 130.874C96.757 130.452 96.7974 130.019 96.7974 129.597V124.873C96.7673 124.326 96.8042 123.777 96.9072 123.238C97.067 122.604 97.3916 122.023 97.848 121.555C98.3044 121.086 98.8764 120.746 99.5063 120.57C100.731 120.235 102.215 120.437 103.457 120.437C104.699 120.437 105.923 120.356 107.142 120.437C107.796 120.491 108.425 120.717 108.963 121.092C109.502 121.468 109.932 121.979 110.209 122.574C110.469 123.217 110.583 123.909 110.544 124.601L110.515 129.696Z" fill="black"/>
<path d="M489.197 -8.99311C476.49 -7.27192 463.783 -5.52762 451.077 -3.76021L410.374 1.88277C397.667 3.64632 384.976 5.37907 372.3 7.08101C368.422 7.60854 364.549 8.12837 360.679 8.6405C360.624 8.58556 360.558 8.54241 360.485 8.51362C360.413 8.48483 360.335 8.47102 360.257 8.47301C349.453 8.49611 338.658 8.04558 327.872 7.12145C324.828 6.85576 321.779 6.54386 318.741 6.21464C318.377 6.17421 318.123 6.53808 318.1 6.85575C318.036 7.73367 317.978 8.58852 317.921 9.48378C310.758 8.87154 303.579 8.40946 296.4 8.138C288.891 7.85499 281.383 7.7279 273.874 8.18996C269.201 8.47876 264.228 8.82533 259.885 10.7429C255.9 12.4757 251.926 14.2892 247.952 16.0682L229.897 24.1544L216.555 30.167C216.41 30.2306 216.237 30.2941 216.046 30.3634C214.939 29.8944 213.754 29.6321 212.552 29.5894V29.5894C211.593 27.1058 208.226 25.9911 206.095 27.7123C205.5 28.2078 205.045 28.8512 204.778 29.5779H200.122C199.158 27.1 195.796 25.9911 193.671 27.7123C193.074 28.2075 192.618 28.8508 192.348 29.5779H187.728C186.757 27.1 183.401 25.9911 181.276 27.7123C180.677 28.2058 180.221 28.8497 179.953 29.5779H175.298C174.333 27.1 170.978 25.9911 168.852 27.7123C168.254 28.2058 167.797 28.8497 167.529 29.5779H162.839C161.875 27.1 158.519 25.9911 156.388 27.7123C155.793 28.2078 155.339 28.8512 155.071 29.5779H150.416C149.451 27.1 146.095 25.9911 143.964 27.7123C143.369 28.2078 142.915 28.8512 142.647 29.5779H137.992C137.027 27.1 133.672 25.9911 131.54 27.7123C130.943 28.2061 130.489 28.8501 130.223 29.5779H125.568C124.603 27.1 121.242 25.9911 119.116 27.7123C118.52 28.2075 118.064 28.8508 117.794 29.5779H113.144C112.174 27.1 108.818 25.9911 106.693 27.7123C106.094 28.2058 105.638 28.8497 105.37 29.5779H100.715C99.7501 27.1 96.3943 25.9911 94.263 27.7123C93.668 28.2078 93.2138 28.8512 92.9462 29.5779H88.2735C87.3089 27.1 83.9532 25.9911 81.8219 27.7123C81.2268 28.2078 80.7727 28.8512 80.505 29.5779H75.8497C74.8851 27.1 71.5294 25.9911 69.3981 27.7123C68.8031 28.2078 68.3489 28.8512 68.0812 29.5779H62.5249C62.1206 29.5779 61.7105 29.5779 61.3062 29.5779C59.3306 29.6886 57.434 30.3913 55.8631 31.5944C54.2922 32.7976 53.1197 34.4456 52.498 36.324C51.8222 38.4149 52.0302 40.783 52.0302 42.9547V136.442C52.0123 137.746 52.256 139.041 52.747 140.249C53.2379 141.457 53.9661 142.554 54.8885 143.476C55.811 144.398 56.9088 145.126 58.1173 145.616C59.3257 146.106 60.6202 146.349 61.9242 146.331H212.298C214.285 146.315 216.221 145.7 217.853 144.567C219.486 143.433 220.738 141.834 221.447 139.977C221.893 138.677 222.101 137.308 222.059 135.934V91.0616C223.792 91.0616 225.484 90.998 227.2 90.9287C227.25 91.0277 227.327 91.1102 227.423 91.1662C227.519 91.2222 227.629 91.2494 227.74 91.2445C227.851 91.2396 227.958 91.2029 228.049 91.1387C228.139 91.0745 228.209 90.9856 228.251 90.8825C234.604 90.5822 240.923 89.9815 247.207 89.2768C251.273 88.8225 255.33 88.3007 259.377 87.7116C260.659 87.5268 261.97 87.3939 263.229 87.1051C269.23 85.7363 275.197 84.0439 281.053 82.161C284.616 81.1059 288.092 79.7774 291.45 78.1872C292.56 77.6857 293.588 77.0198 294.5 76.2119C295.057 75.5844 295.539 74.8944 295.938 74.1557C296.787 72.8446 297.67 71.5566 298.629 70.3264C300.784 67.554 303.579 64.5505 307.345 64.4812C310.539 64.4004 313.698 65.8154 316.725 66.6991C316.794 69.7141 316.887 72.7252 317.002 75.7325C317.004 75.819 317.026 75.9039 317.066 75.9809C317.063 76.0001 317.063 76.0195 317.066 76.0387C317.078 76.0656 317.093 76.0909 317.112 76.1137C317.167 76.1974 317.243 76.2653 317.332 76.3109C317.421 76.3564 317.52 76.3781 317.62 76.3737C327.843 76.1946 337.963 77.8465 348.14 78.476C351.062 78.6609 353.985 78.7475 356.907 78.6955C357.077 78.694 357.239 78.626 357.359 78.5061C357.479 78.3862 357.547 78.224 357.549 78.0544C357.549 77.8292 357.52 77.6039 357.508 77.3787L357.797 77.4595C361.066 78.3836 364.339 79.2789 367.616 80.1453C375.858 82.3343 384.129 84.4194 392.417 86.464C402.178 88.8668 411.955 91.2137 421.747 93.5048C431.781 95.8613 441.826 98.1716 451.879 100.436C461.209 102.519 470.553 104.548 479.909 106.523L483.011 107.176C483.82 107.338 484.166 106.108 483.352 105.94C479.066 105.051 474.782 104.142 470.501 103.214C465.68 102.182 460.867 101.129 456.061 100.055C446.05 97.8251 436.038 95.5456 426.027 93.216C416.231 90.9326 406.449 88.5992 396.68 86.2157C388.155 84.1287 379.645 81.982 371.151 79.7756C367.685 78.8669 364.235 77.9389 360.8 76.9916C359.68 76.6798 358.548 76.3794 357.416 76.0617C357.364 75.1607 357.312 74.2597 357.271 73.3587C357.079 69.4619 356.965 65.5594 356.93 61.651C356.792 49.2551 357.41 36.8622 358.779 24.5413C359.322 19.6627 359.984 14.8014 360.766 9.95737L370.169 8.70402C382.541 7.03673 394.912 5.34056 407.284 3.61552L447.264 -1.9235C459.89 -3.6755 472.518 -5.40825 485.148 -7.12175L487.73 -7.47407L489.526 -7.71666C490.352 -7.86683 490.006 -9.10285 489.197 -8.99311ZM205.979 28.3418C206.39 27.9119 206.904 27.5935 207.471 27.4167C208.039 27.2398 208.643 27.2104 209.225 27.3311C209.852 27.4459 210.441 27.7101 210.944 28.1012C211.447 28.4923 211.848 28.9988 212.113 29.5779C210.727 29.5779 209.341 29.5779 207.96 29.5779H205.182C205.372 29.1217 205.642 28.7031 205.979 28.3418V28.3418ZM193.555 28.3418C193.966 27.9114 194.479 27.5927 195.047 27.4159C195.615 27.239 196.219 27.2098 196.801 27.3311C197.428 27.4463 198.017 27.7107 198.52 28.1017C199.022 28.4928 199.424 28.9991 199.689 29.5779H192.758C192.948 29.1217 193.218 28.7031 193.555 28.3418V28.3418ZM181.132 28.3418C181.542 27.9114 182.056 27.5927 182.624 27.4159C183.192 27.239 183.795 27.2098 184.378 27.3311C185.004 27.4463 185.593 27.7107 186.096 28.1017C186.599 28.4928 187 28.9991 187.265 29.5779H180.334C180.525 29.1218 180.795 28.7033 181.132 28.3418ZM168.708 28.3418C169.118 27.911 169.631 27.592 170.2 27.4151C170.768 27.2382 171.371 27.2093 171.954 27.3311C172.58 27.4463 173.169 27.7107 173.672 28.1017C174.175 28.4928 174.576 28.9991 174.842 29.5779H167.911C168.099 29.1206 168.369 28.7017 168.708 28.3418V28.3418ZM156.284 28.3418C156.694 27.911 157.208 27.592 157.776 27.4151C158.344 27.2382 158.948 27.2093 159.53 27.3311C160.156 27.4463 160.746 27.7107 161.248 28.1017C161.751 28.4928 162.152 28.9991 162.418 29.5779H155.487C155.675 29.1206 155.945 28.7017 156.284 28.3418V28.3418ZM143.854 28.3418C144.265 27.9119 144.779 27.5935 145.347 27.4167C145.914 27.2398 146.518 27.2104 147.1 27.3311C147.727 27.4459 148.316 27.7101 148.819 28.1012C149.322 28.4923 149.723 28.9988 149.988 29.5779H143.057C143.247 29.1217 143.517 28.7031 143.854 28.3418V28.3418ZM131.43 28.3418C131.841 27.9114 132.355 27.5927 132.923 27.4159C133.491 27.239 134.094 27.2098 134.677 27.3311C135.303 27.4468 135.892 27.7113 136.394 28.1023C136.897 28.4933 137.298 28.9994 137.564 29.5779H130.633C130.823 29.1217 131.093 28.7031 131.43 28.3418V28.3418ZM119.007 28.3418C119.417 27.9114 119.931 27.5927 120.499 27.4159C121.067 27.239 121.67 27.2098 122.253 27.3311C122.879 27.4463 123.468 27.7107 123.971 28.1017C124.474 28.4928 124.875 28.9991 125.141 29.5779H118.21C118.4 29.1217 118.67 28.7031 119.007 28.3418V28.3418ZM106.583 28.3418C106.993 27.9114 107.507 27.5927 108.075 27.4159C108.643 27.239 109.247 27.2098 109.829 27.3311C110.455 27.4463 111.045 27.7107 111.547 28.1017C112.05 28.4928 112.451 28.9991 112.717 29.5779H105.786C105.974 29.1206 106.244 28.7017 106.583 28.3418V28.3418ZM94.1591 28.3418C94.5693 27.911 95.0828 27.592 95.6509 27.4151C96.2189 27.2382 96.8227 27.2093 97.4051 27.3311C98.0314 27.4463 98.6208 27.7107 99.1235 28.1017C99.6261 28.4928 100.027 28.9991 100.293 29.5779H93.362C93.5499 29.1206 93.8201 28.7017 94.1591 28.3418V28.3418ZM81.7353 28.3418C82.1433 27.9096 82.6557 27.5896 83.2232 27.4126C83.7906 27.2356 84.3941 27.2075 84.9755 27.3311C85.602 27.4459 86.1916 27.7101 86.6944 28.1012C87.1971 28.4923 87.5981 28.9988 87.8634 29.5779H80.9324C81.1221 29.1202 81.3942 28.7012 81.7353 28.3418V28.3418ZM69.3057 28.3418C69.7166 27.9119 70.2301 27.5935 70.798 27.4167C71.3658 27.2398 71.9693 27.2104 72.5517 27.3311C73.1782 27.4459 73.7678 27.7101 74.2705 28.1012C74.7733 28.4923 75.1743 28.9988 75.4396 29.5779H68.5086C68.6985 29.1217 68.9685 28.7031 69.3057 28.3418V28.3418ZM221.695 135.697C221.723 136.551 221.673 137.405 221.545 138.25C221.132 140.403 219.986 142.347 218.301 143.75C216.615 145.153 214.496 145.928 212.304 145.944H63.7205C61.1156 145.944 58.6493 145.834 56.3852 144.211C55.1487 143.322 54.1435 142.149 53.4541 140.792C52.7646 139.434 52.411 137.93 52.4229 136.408C52.4229 135.738 52.4229 135.073 52.4229 134.409V43.4399C52.4229 41.5627 52.2323 39.5181 52.5731 37.664C52.9849 35.5102 54.1312 33.5659 55.8165 32.1629C57.5018 30.7599 59.6216 29.9851 61.8144 29.9706H67.9888C67.8711 30.372 67.8127 30.7884 67.8155 31.2067C67.8265 31.8536 67.9987 32.4876 68.3164 33.0514C68.634 33.6151 69.0872 34.0908 69.6349 34.4353C70.2556 34.8489 70.9727 35.0949 71.7165 35.1496C72.4603 35.2042 73.2057 35.0656 73.8801 34.7473C74.1054 34.6375 73.909 34.3025 73.6838 34.4122C71.5005 35.4866 68.5202 34.0657 68.2314 31.5879C68.1723 31.0434 68.2274 30.4926 68.3931 29.9706H80.4126C80.2977 30.3726 80.2394 30.7886 80.2393 31.2067C80.2504 31.8536 80.4225 32.4876 80.7402 33.0514C81.0578 33.6151 81.511 34.0908 82.0587 34.4353C82.6794 34.8489 83.3965 35.0949 84.1403 35.1496C84.8842 35.2042 85.6295 35.0656 86.304 34.7473C86.5292 34.6375 86.3328 34.3025 86.1076 34.4122C83.9243 35.4866 80.944 34.0657 80.6552 31.5879C80.5961 31.0434 80.6512 30.4926 80.8169 29.9706H92.8364C92.7234 30.3729 92.667 30.7889 92.6689 31.2067C92.6788 31.8532 92.8499 32.4871 93.1665 33.0509C93.4832 33.6146 93.9355 34.0905 94.4825 34.4353C95.1032 34.8489 95.8203 35.0949 96.5641 35.1496C97.308 35.2042 98.0533 35.0656 98.7278 34.7473C98.953 34.6375 98.7566 34.3025 98.5314 34.4122C96.3481 35.4866 93.3678 34.0657 93.079 31.5879C93.0199 31.0434 93.075 30.4926 93.2407 29.9706H105.26C105.147 30.3729 105.091 30.7889 105.093 31.2067C105.104 31.853 105.275 32.4865 105.592 33.0501C105.908 33.6137 106.36 34.0897 106.906 34.4353C107.527 34.8489 108.244 35.0949 108.988 35.1496C109.732 35.2042 110.477 35.0656 111.152 34.7473C111.377 34.6375 111.152 34.3025 110.955 34.4122C108.772 35.4866 105.792 34.0657 105.503 31.5879C105.444 31.0434 105.499 30.4926 105.665 29.9706H117.673C117.555 30.372 117.496 30.7884 117.499 31.2067C117.51 31.853 117.682 32.4865 117.998 33.0501C118.315 33.6137 118.767 34.0897 119.313 34.4353C119.934 34.8489 120.651 35.0949 121.394 35.1496C122.138 35.2042 122.884 35.0656 123.558 34.7473C123.783 34.6375 123.558 34.3025 123.362 34.4122C121.184 35.4866 118.198 34.0657 117.909 31.5879C117.853 31.0434 117.908 30.4932 118.071 29.9706H130.096C129.979 30.372 129.92 30.7884 129.923 31.2067C129.934 31.8536 130.106 32.4876 130.424 33.0514C130.742 33.6151 131.195 34.0908 131.742 34.4353C132.363 34.8489 133.08 35.0949 133.824 35.1496C134.568 35.2042 135.313 35.0656 135.988 34.7473C136.213 34.6375 135.988 34.3025 135.791 34.4122C133.608 35.4866 130.622 34.0657 130.339 31.5879C130.281 31.0438 130.334 30.4936 130.495 29.9706H142.52C142.402 30.372 142.344 30.7884 142.347 31.2067C142.358 31.8536 142.53 32.4876 142.848 33.0514C143.165 33.6151 143.619 34.0908 144.166 34.4353C144.787 34.8489 145.504 35.0949 146.248 35.1496C146.992 35.2042 147.737 35.0656 148.411 34.7473C148.637 34.6375 148.411 34.3025 148.215 34.4122C146.032 35.4866 143.051 34.0657 142.763 31.5879C142.704 31.0434 142.759 30.4926 142.924 29.9706H154.944C154.832 30.3732 154.774 30.7888 154.771 31.2067C154.782 31.8536 154.954 32.4876 155.271 33.0514C155.589 33.6151 156.042 34.0908 156.59 34.4353C157.211 34.8489 157.928 35.0949 158.672 35.1496C159.415 35.2042 160.161 35.0656 160.835 34.7473C161.061 34.6375 160.835 34.3025 160.639 34.4122C158.456 35.4866 155.475 34.0657 155.186 31.5879C155.127 31.0434 155.182 30.4926 155.348 29.9706H167.368C167.255 30.3729 167.198 30.7889 167.2 31.2067C167.21 31.8532 167.381 32.4871 167.698 33.0509C168.015 33.6146 168.467 34.0905 169.014 34.4353C169.635 34.8489 170.352 35.0949 171.095 35.1496C171.839 35.2042 172.585 35.0656 173.259 34.7473C173.484 34.6375 173.288 34.3025 173.063 34.4122C170.879 35.4866 167.899 34.0657 167.61 31.5879C167.551 31.0434 167.606 30.4926 167.772 29.9706H179.792C179.679 30.3729 179.622 30.7889 179.624 31.2067C179.635 31.853 179.806 32.4865 180.123 33.0501C180.44 33.6137 180.891 34.0897 181.438 34.4353C182.058 34.8489 182.775 35.0949 183.519 35.1496C184.263 35.2042 185.008 35.0656 185.683 34.7473C185.908 34.6375 185.712 34.3025 185.487 34.4122C183.303 35.4866 180.323 34.0657 180.034 31.5879C179.975 31.0434 180.03 30.4926 180.196 29.9706H192.238C192.121 30.372 192.062 30.7884 192.065 31.2067C192.076 31.853 192.248 32.4865 192.564 33.0501C192.881 33.6137 193.333 34.0897 193.879 34.4353C194.501 34.8488 195.219 35.0948 195.963 35.1495C196.708 35.2041 197.454 35.0656 198.13 34.7473C198.349 34.6375 198.13 34.3025 197.928 34.4122C195.75 35.4866 192.764 34.0657 192.475 31.5879C192.419 31.0434 192.474 30.4932 192.637 29.9706H204.662C204.545 30.372 204.486 30.7884 204.489 31.2067C204.5 31.8536 204.672 32.4876 204.99 33.0514C205.308 33.6151 205.761 34.0908 206.308 34.4353C206.929 34.8489 207.646 35.0949 208.39 35.1496C209.134 35.2042 209.879 35.0656 210.554 34.7473C210.779 34.6375 210.554 34.3025 210.357 34.4122C208.174 35.4866 205.159 34.0657 204.905 31.5879C204.847 31.0438 204.9 30.4936 205.061 29.9706H212.078C213.25 29.9688 214.412 30.1782 215.509 30.5887C215.198 30.702 214.925 30.9025 214.724 31.1662C214.524 31.5274 214.345 31.8996 214.187 32.281C213.802 33.0742 213.43 33.8655 213.072 34.6548C210.376 40.4307 207.639 46.2065 204.859 51.9823C202.895 56.0716 200.931 60.1609 198.921 64.2213C197.72 62.9795 196.172 62.991 194.566 62.991C192.96 62.991 191.355 62.991 189.749 62.991C188.72 62.9794 187.723 63.3515 186.953 64.035C186.183 64.7184 185.695 65.664 185.585 66.6876C185.452 68.0853 185.585 69.5755 185.585 70.9502C185.585 72.4403 185.354 74.1557 186.162 75.4957C186.485 76.0379 186.928 76.4988 187.456 76.8433C187.985 77.1877 188.586 77.4064 189.212 77.4826C189.852 77.5317 190.494 77.5433 191.135 77.5173H196.05C196.577 77.5071 197.096 77.3974 197.581 77.1938L196.605 77.7714C195.271 78.58 193.913 79.3713 192.597 80.2088L192.487 80.2781C192.464 80.2861 192.442 80.2978 192.423 80.3127L192.36 80.359H192.331L190.829 81.9473H189.818C188.789 81.9356 187.792 82.3078 187.022 82.9912C186.252 83.6746 185.764 84.6203 185.654 85.6439C185.601 86.2681 185.58 86.8946 185.59 87.521L184.279 88.8841L182.264 91.0327C182.264 89.9411 182.264 88.8494 182.264 87.7578C182.264 86.1579 182.362 84.5984 181.195 83.3104C180.028 82.0224 178.388 81.9878 176.742 81.9878C175.096 81.9878 173.525 81.9878 171.925 81.9878C170.895 81.9748 169.898 82.3464 169.127 83.0301C168.357 83.7138 167.87 84.6602 167.76 85.6843C167.628 87.082 167.76 88.5376 167.76 89.9469C167.76 91.3562 167.529 93.1467 168.338 94.4867C168.659 95.0294 169.101 95.4913 169.628 95.8368C170.156 96.1822 170.756 96.4021 171.382 96.4793C172.024 96.5265 172.668 96.5361 173.311 96.5082H177.169L174.859 98.9802L173.9 100.003C173.81 100.094 173.753 100.213 173.738 100.34C173.723 100.468 173.75 100.596 173.817 100.706C173.883 100.816 173.984 100.901 174.103 100.947C174.223 100.993 174.355 100.998 174.478 100.961L183.939 98.2756L185.29 97.8944H185.325L190.113 96.5313H191.176H196.091C196.941 96.5219 197.768 96.2492 198.457 95.7506C199.146 95.252 199.663 94.5521 199.938 93.7473L200.359 93.6261C200.424 93.6078 200.484 93.5784 200.538 93.5394L203.241 91.8991L210.704 87.3593L217.075 83.4201C216.136 84.2963 215.286 85.2637 214.539 86.3081C213.683 87.5052 212.99 88.8104 212.477 90.1894C212.454 90.2763 212.453 90.3672 212.471 90.455C212.49 90.5427 212.529 90.6249 212.585 90.6949C212.641 90.765 212.713 90.821 212.794 90.8586C212.876 90.8962 212.965 90.9143 213.055 90.9114C215.939 91.0616 218.827 91.1193 221.718 91.0847L221.695 135.697ZM194.427 74.1037C195.839 74.9212 197.42 75.3997 199.048 75.5015C198.703 75.986 198.249 76.3823 197.722 76.6583C197.195 76.9342 196.611 77.0821 196.016 77.0899H192.418C191.164 77.0899 189.61 77.3036 188.409 76.8762C187.757 76.6377 187.185 76.2221 186.757 75.6762C186.328 75.1303 186.06 74.4758 185.983 73.7861C185.96 73.3609 185.96 72.9348 185.983 72.5096V67.785C185.953 67.2358 185.99 66.685 186.093 66.1447C186.255 65.5105 186.581 64.9301 187.038 64.4617C187.495 63.9933 188.068 63.6534 188.698 63.4762C189.917 63.1412 191.401 63.3434 192.649 63.3434C193.896 63.3434 195.115 63.2625 196.328 63.3434C197.261 63.4228 198.131 63.8494 198.765 64.539C197.802 66.4835 196.823 68.4203 195.825 70.3494C195.311 71.3429 194.797 72.3306 194.26 73.3067C194.177 73.4347 194.148 73.5904 194.179 73.7398C194.211 73.8891 194.3 74.02 194.427 74.1037V74.1037ZM199.782 75.4957C199.967 75.4957 200.157 75.4957 200.359 75.4495C199.782 75.8018 199.204 76.1542 198.627 76.4949C198.962 76.2159 199.247 75.8819 199.47 75.5073L199.782 75.4957ZM211.992 67.2825C212.597 67.3344 213.206 67.3344 213.811 67.2825L210.016 69.5928C210.721 68.8304 211.356 68.0911 211.992 67.2825ZM231.422 43.5034C233.258 42.7063 235.378 42.4811 237.353 42.2963L237.723 42.2674C238.012 42.2674 238.301 42.2154 238.584 42.1981L239.433 42.1403C241.096 42.0421 242.765 42.0017 244.435 41.9959C238.936 47.0036 233.461 52.0228 227.898 56.9726L227.413 57.4058L226.957 57.8159C225.761 58.8787 224.572 59.9414 223.37 60.9984C222.943 61.3796 222.504 61.755 222.059 62.1247L221.863 62.2864L221.672 62.4423L221.493 62.581L216.907 65.3765C216.56 65.5151 216.202 65.6364 215.844 65.7403C214.879 66.0281 213.877 66.176 212.87 66.1793C213.262 65.6768 213.649 65.1685 214.025 64.666C216.682 61.1312 219.108 57.4289 221.678 53.8364L221.868 53.5764C221.932 53.484 221.996 53.3916 222.065 53.305L222.741 52.3751C224.097 50.4979 225.564 48.7042 227.136 47.0036C228.355 45.7098 229.781 44.2254 231.422 43.5034V43.5034ZM250.06 42.0479C250.363 42.3739 250.773 42.5791 251.215 42.6255C251.691 42.6687 252.167 42.5507 252.567 42.2905L252.833 42.1287H252.948L255.045 42.1807L244.4 48.6612C239.664 51.5453 234.924 54.4332 230.18 57.325C229.868 57.325 229.556 57.325 229.25 57.2672L234.275 52.7274L246.133 42.0132C247.432 41.9959 248.743 42.019 250.06 42.0479V42.0479ZM251.031 40.0379C251.149 39.9534 251.272 39.8763 251.4 39.8069L253.422 38.5766L270.94 27.9202L279.806 22.5256C281.325 21.6014 282.827 20.608 284.38 19.7416C284.779 19.5221 285.281 19.4413 285.576 19.9207C286.003 20.7582 285.148 21.0758 284.588 21.4455L282.197 22.901L274.036 27.8682L255.68 39.0387L252.977 40.6848C252.827 40.7714 252.683 40.8696 252.532 40.9678C252.315 41.1171 252.087 41.2504 251.851 41.3663C251.748 41.4277 251.634 41.4649 251.515 41.4752C251.396 41.4854 251.276 41.4685 251.165 41.4256C251.053 41.3828 250.953 41.3151 250.872 41.2278C250.791 41.1404 250.73 41.0357 250.696 40.9216C250.651 40.7578 250.659 40.584 250.719 40.4252C250.78 40.2664 250.888 40.1308 251.031 40.0379V40.0379ZM295.406 31.9171C295.362 32.1456 295.304 32.3713 295.233 32.5928C295.16 32.8359 295.069 33.0733 294.962 33.3033C294.422 34.5157 293.531 35.538 292.403 36.2374L291.571 36.7457L286.2 40.009L276.866 45.6924L264.737 53.0624L261.849 54.7951L261.034 55.2861L260.208 55.7828C257.128 57.6426 254.061 59.5082 251.008 61.3796L236.886 69.9683L223.543 78.0891L222.059 79.0652L221.863 79.1807L221.672 79.2962L212.188 85.0721L203.935 90.097L201.358 91.6623C201.023 91.8702 200.648 92.055 200.307 92.2745C200.232 92.159 200.163 92.0435 200.094 91.928L199.915 91.6334L199.718 91.31C197.908 88.3412 196.102 85.3743 194.3 82.4094L194.196 82.2419L194.104 82.0859V82.0513C193.902 81.7163 193.7 81.3813 193.492 81.0463L195.698 79.7063L203.01 75.2589L213.8 68.6918L217.745 66.2891C218.824 65.8323 219.854 65.2652 220.817 64.5967C221.123 64.383 221.424 64.1693 221.718 63.9441L221.909 63.7939C221.978 63.7477 222.042 63.6957 222.105 63.6437L226.755 60.8136L230.515 58.5032L231.555 57.8679L232.952 57.0189L240.755 52.1845L240.807 52.1556L243.695 50.4228L253.549 44.4102L254.704 43.7171L256.783 42.4522L257.17 42.2154L258.008 41.7071L258.695 41.2855L267.324 36.0526L277.467 29.8782L283.872 25.9795L285.327 25.0958C286.816 24.1335 288.62 23.7877 290.358 24.1313C291.204 24.3064 292.007 24.6471 292.721 25.1339C293.435 25.6207 294.045 26.2439 294.517 26.9675C294.989 27.6912 295.313 28.5011 295.471 29.3506C295.628 30.2001 295.616 31.0723 295.435 31.9171H295.406ZM259.336 57.6946C258.38 59.4757 257.283 61.1773 256.056 62.7831C253.971 65.5747 251.376 67.9461 248.408 69.7719C245.494 71.5159 242.394 72.9301 239.167 73.9882C236.135 75.0221 233.022 75.721 229.96 76.6278C228.626 77.0263 227.28 77.4826 225.958 78.0198L234.679 72.7118L248.917 64.048L259.336 57.6946ZM185.307 96.6699L182.639 92.2918L185.527 89.1902C185.596 89.1151 185.666 89.0458 185.729 88.9707L185.92 88.7686L189.605 84.8468L191.915 82.3574L192.082 82.1784L192.267 81.982L192.504 81.7278L192.66 81.982L192.781 82.1784C192.816 82.2419 192.856 82.3054 192.897 82.3689L198.673 91.824L199.21 92.7077L188.773 95.688L188.242 95.8382L187.953 95.9191L187.687 95.9941C186.89 96.2252 186.099 96.4446 185.307 96.6699ZM168.223 85.176C168.383 84.5413 168.709 83.9603 169.166 83.4918C169.624 83.0232 170.197 82.6837 170.827 82.5076C172.046 82.1726 173.531 82.3747 174.778 82.3747C176.026 82.3747 177.244 82.2939 178.457 82.3747C179.112 82.4297 179.741 82.6569 180.279 83.0332C180.818 83.4095 181.247 83.9217 181.524 84.5176C181.784 85.1703 181.892 85.8732 181.842 86.5738V91.4774L181.507 91.8355L177.464 96.1443H174.576C173.328 96.1443 171.775 96.358 170.573 95.9306C169.92 95.6928 169.347 95.2768 168.918 94.7296C168.489 94.1823 168.222 93.5259 168.147 92.8348C168.124 92.4096 168.124 91.9835 168.147 91.5583V86.8337C168.104 86.2801 168.129 85.7234 168.223 85.176V85.176ZM181.767 93.2275C181.735 93.378 181.695 93.5265 181.646 93.6722C181.45 94.2233 181.127 94.7201 180.702 95.1218C180.278 95.5235 179.764 95.8185 179.202 95.9826L181.368 93.6722L181.767 93.2275ZM178.729 96.4562C179.503 96.3433 180.228 96.0114 180.82 95.4998C181.411 94.9881 181.844 94.3179 182.067 93.5683L184.164 97.0338L179.901 98.2467L176.066 99.2806L178.729 96.4562ZM186.058 85.176C186.219 84.5413 186.545 83.9603 187.002 83.4918C187.46 83.0232 188.033 82.6837 188.663 82.5076C189.245 82.3638 189.843 82.2997 190.442 82.317L185.949 87.0993V86.8106C185.918 86.2633 185.955 85.7144 186.058 85.176V85.176ZM195.456 94.9949L199.412 93.8744C199.124 94.5416 198.649 95.111 198.044 95.5139C197.439 95.9167 196.731 96.1357 196.004 96.1443H192.406C192.059 96.1443 191.69 96.1443 191.309 96.179L195.456 94.9949ZM228.574 58.2722L227.124 59.1559L227.188 59.0981L228.187 58.1971L228.574 58.2722ZM314.426 64.822C312.878 64.2982 311.298 63.8718 309.696 63.5455C308.251 63.2517 306.759 63.2733 305.323 63.6091C303.719 64.0713 302.244 64.8998 301.015 66.0291C299.165 67.7232 297.535 69.6422 296.163 71.7414C295.429 72.7926 294.69 74.1788 293.968 75.0856C293.67 75.4353 293.324 75.7406 292.94 75.9924C290.283 77.8407 287.008 78.9266 283.976 79.9836C277.397 82.2939 270.64 84.1075 263.876 85.7594C262.935 85.9904 262.01 86.1579 261.052 86.3023C257.64 86.8221 254.221 87.288 250.794 87.7001C243.349 88.6126 235.84 89.3635 228.326 89.7043C228.326 88.6646 228.389 87.6308 228.424 86.5911C228.424 86.4379 228.363 86.291 228.255 86.1827C228.147 86.0744 228 86.0135 227.846 86.0135L222.071 86.0597H221.695L217.542 86.0944C217.389 86.0944 217.242 86.1552 217.134 86.2635C217.026 86.3719 216.965 86.5188 216.965 86.6719C216.965 86.8251 217.026 86.9721 217.134 87.0804C217.242 87.1887 217.389 87.2495 217.542 87.2495H218.975H221.695H222.082L227.28 87.2091C227.28 88.0697 227.223 88.9419 227.2 89.7909C226.622 89.7909 226.102 89.8371 225.553 89.8486C224.398 89.891 223.243 89.916 222.088 89.9237H221.695C220.176 89.9237 218.663 89.9237 217.15 89.9237C216.052 89.9237 214.961 89.8718 213.863 89.814C215.452 86.1926 218.345 83.4606 221.695 81.4448C221.755 81.4001 221.819 81.3614 221.886 81.3293C221.949 81.2847 222.014 81.2442 222.082 81.208C223.858 80.1845 225.721 79.3205 227.65 78.6262C230.677 77.523 233.83 76.8935 236.891 75.9462C240.152 74.9987 243.322 73.7636 246.364 72.2555C249.333 70.8105 252.043 68.8864 254.386 66.5605C256.938 63.9032 259.067 60.8703 260.699 57.5676C260.855 57.2557 261.005 56.9437 261.144 56.6318L262.917 55.5518L275.503 47.8757L285.512 41.788L291.635 38.0626L292.877 37.3059C294.584 36.2808 295.845 34.6527 296.411 32.743C296.479 32.5195 296.534 32.2918 296.573 32.0615C296.573 31.9748 296.608 31.894 296.619 31.8073C296.631 31.7207 296.654 31.5417 296.66 31.4088C296.802 30.089 296.601 28.7549 296.078 27.5352C295.554 26.3155 294.724 25.2514 293.67 24.4456C292.615 23.6398 291.37 23.1194 290.055 22.9349C288.741 22.7503 287.401 22.9078 286.165 23.392C285.545 23.6526 284.95 23.9677 284.386 24.3334L279.413 27.3542L270.253 32.9279L258.198 40.2632L256.853 41.0833H256.737C256.027 41.0833 255.322 41.0833 254.612 41.0429L272.465 30.1786L281.648 24.5933C283.058 23.7327 284.536 22.9241 285.894 22.0115C286.301 21.7554 286.6 21.3591 286.736 20.8972C286.871 20.4354 286.832 19.9401 286.627 19.5048C286.608 19.4557 286.587 19.4075 286.564 19.3604C286.534 19.3101 286.501 19.2619 286.465 19.216C285.154 17.3504 282.705 19.4355 281.371 20.2557L273.1 25.2749L253.791 37.0172L251.21 38.5882C250.581 38.864 250.049 39.3229 249.685 39.9051C249.54 40.213 249.482 40.5544 249.517 40.8927L247.386 40.8465H246.531C246.254 40.8465 245.988 40.8465 245.711 40.8465C244.013 40.8465 242.309 40.8465 240.611 40.9331C240.334 40.9331 240.033 40.9332 239.779 40.9736C239.496 40.9736 239.202 41.0083 238.936 41.0314C237.619 41.1238 236.302 41.2566 234.997 41.453C233.264 41.7187 231.306 42.071 229.799 43.1106C229.435 43.3706 229.077 43.642 228.736 43.925C227.507 44.951 226.365 46.0774 225.322 47.2923C224.883 47.7948 224.45 48.3031 224.029 48.8172C223.353 49.6431 222.7 50.4864 222.059 51.347C221.99 51.4336 221.926 51.526 221.863 51.6127L221.672 51.8668C219.899 54.2811 218.207 56.7762 216.514 59.231C214.909 61.5413 213.291 63.8517 211.507 66.0753L211.091 66.5894L210.681 67.0803C209.692 68.2503 208.635 69.3611 207.516 70.4072C205.419 72.3479 202.82 74.1037 199.967 74.3232C199.903 74.329 199.839 74.329 199.776 74.3232C199.709 74.3319 199.641 74.3319 199.574 74.3232C198.92 74.3524 198.264 74.2902 197.627 74.1384C196.889 73.958 196.173 73.6925 195.496 73.3471C196.871 70.8288 198.176 68.2701 199.452 65.6941C199.487 65.6133 199.528 65.5382 199.568 65.4573C199.608 65.3765 199.632 65.3245 199.666 65.2552C200.92 62.708 202.15 60.1494 203.386 57.5964C206.428 51.3123 209.435 45.0147 212.408 38.7037L215.14 32.9279C215.353 32.579 215.531 32.2094 215.671 31.8247L215.833 31.738L216.919 31.2529L217.207 31.12L217.369 31.0507L226.362 27.0076L244.221 19.0312C249.015 16.8903 253.813 14.7475 258.614 12.6027C259.808 12.026 261.035 11.5188 262.288 11.0837C264.651 10.4067 267.075 9.96183 269.525 9.75523C276.508 8.99859 283.583 9.01592 290.595 9.17764C298.433 9.34514 306.271 9.75524 314.091 10.3848L317.845 10.6851C316.775 27.2849 316.355 43.9135 316.586 60.571C316.609 62.2267 316.64 63.8844 316.679 65.544C315.928 65.2841 315.177 65.053 314.426 64.822ZM355.66 62.3153C355.66 62.4943 355.66 62.6676 355.66 62.8466C355.71 66.2313 355.816 69.6179 355.977 73.0063C356.018 73.8958 356.064 74.7795 356.116 75.669C356.116 75.8885 356.116 76.108 356.157 76.3274C356.197 76.5469 356.157 76.7837 356.197 77.009C356.237 77.2342 356.197 77.292 356.197 77.4306C346.205 77.5346 336.317 75.9405 326.359 75.3225C323.644 75.155 320.93 75.0683 318.209 75.103C318.113 72.4076 318.032 69.7295 317.967 67.0688V66.4912C317.967 66.289 317.967 66.0927 317.967 65.9136C317.643 51.32 317.818 36.7264 318.492 22.1328C318.669 18.3593 318.879 14.5858 319.122 10.8122C319.122 10.6274 319.122 10.4368 319.162 10.2346C319.203 10.0325 319.162 9.85342 319.197 9.65705C319.237 8.98127 319.284 8.29972 319.336 7.62394C329.878 8.77911 340.467 9.47992 351.103 9.72635L352.835 9.76101L357.254 9.81297H359.564C359.541 9.91981 359.524 10.0278 359.512 10.1364C356.747 27.3882 355.458 44.8444 355.66 62.3153V62.3153Z" fill="black"/>
<path d="M325.66 65.3478C325.118 65.0083 324.486 64.8428 323.848 64.8738C323.209 64.9048 322.596 65.1307 322.09 65.5211C321.586 65.9023 321.173 66.3918 320.883 66.9535C320.803 67.1084 320.734 67.2686 320.675 67.4329C320.416 68.1221 320.348 68.8684 320.479 69.593C320.525 69.7557 320.633 69.8938 320.78 69.9771C320.927 70.0604 321.101 70.0822 321.264 70.0378C321.426 69.9893 321.562 69.8809 321.646 69.7348C321.73 69.5887 321.754 69.416 321.715 69.2523C321.651 68.8051 321.695 68.3491 321.842 67.9222C321.99 67.4953 322.237 67.1098 322.564 66.7975C322.856 66.4941 323.229 66.2799 323.638 66.1795C324.009 66.0979 324.397 66.1405 324.741 66.3008C325.137 66.5076 325.478 66.8046 325.736 67.1679C325.995 67.5312 326.165 67.9505 326.231 68.3917C326.296 68.8141 326.25 69.246 326.097 69.6451C325.944 70.0441 325.69 70.3964 325.359 70.6674C325.031 70.9575 324.633 71.1566 324.204 71.2449C323.802 71.3189 323.387 71.2622 323.02 71.0832C322.872 71.0017 322.698 70.9802 322.535 71.0232C322.371 71.0662 322.231 71.1704 322.142 71.3142C322.058 71.4616 322.035 71.6363 322.078 71.8005C322.121 71.9648 322.227 72.1054 322.373 72.1921C324.77 73.4166 327.658 71.2969 327.571 68.6978C327.545 68.027 327.357 67.3726 327.024 66.7896C326.691 66.2066 326.223 65.7121 325.66 65.3478V65.3478Z" fill="black"/>
<path d="M115.324 102.041L120.996 112.264C121.139 112.502 121.341 112.699 121.583 112.836C121.825 112.972 122.098 113.044 122.376 113.044C122.654 113.044 122.927 112.972 123.169 112.836C123.411 112.699 123.613 112.502 123.757 112.264C125.977 108.238 128.751 104.544 131.999 101.29C133.454 99.8347 131.19 97.5706 129.735 99.0318C126.288 102.483 123.346 106.403 120.996 110.676H123.757L118.085 100.435C117.085 98.6333 114.325 100.245 115.324 102.047V102.041Z" fill="#AE3925"/>
<path d="M126.028 93.7244C120.691 93.1469 115.417 96.3525 112.905 100.99C110.283 105.819 111.172 111.624 114.499 115.881C116.11 117.988 118.262 119.618 120.727 120.6C123.191 121.581 125.875 121.877 128.494 121.454C131.14 121.031 133.644 119.974 135.792 118.372C137.941 116.771 139.669 114.674 140.831 112.259C142.13 109.305 142.628 106.06 142.275 102.852C141.922 99.6443 140.731 96.5858 138.821 93.9844C138.301 93.2797 137.088 93.9844 137.666 94.6717C139.228 96.7814 140.288 99.22 140.764 101.802C141.24 104.383 141.121 107.039 140.415 109.568C139.694 111.941 138.4 114.1 136.646 115.854C134.892 117.608 132.733 118.903 130.359 119.623C128.069 120.369 125.619 120.481 123.27 119.948C120.921 119.414 118.76 118.254 117.017 116.591C113.5 113.212 111.732 107.997 113.413 103.307C115.238 98.1949 120.627 94.5157 126.074 95.1222C126.952 95.2204 126.946 93.8457 126.074 93.7475L126.028 93.7244Z" fill="#AE3925"/>
<path d="M184.341 97.2764L181.747 93.0195L175.359 99.8235L184.341 97.2764Z" fill="#AE3925"/>
</g>
<defs>
<clipPath id="clip0">
<rect width="400" height="157" fill="white"/>
</clipPath>
</defs>
</svg>
