<svg width="400" height="157" viewBox="0 0 400 157" fill="none" xmlns="http://www.w3.org/2000/svg">
<g clip-path="url(#clip0)">
<path d="M219.886 100.888C219.69 101.211 219.49 101.534 219.289 101.867H220.801C221.006 101.549 221.202 101.226 221.393 100.888H219.886ZM216.408 105.956C216.295 106.113 216.173 106.269 216.046 106.421C215.919 106.572 215.801 106.744 215.669 106.91C210.617 113.346 204.226 118.607 196.94 122.33C189.653 126.053 181.645 128.149 173.469 128.472C164.626 128.91 155.797 127.361 147.631 123.938C145.674 123.108 143.767 122.165 141.918 121.115C141.77 121.033 141.596 121.011 141.433 121.056C141.269 121.1 141.13 121.207 141.045 121.353C140.96 121.5 140.935 121.673 140.977 121.837C141.018 122.002 141.123 122.143 141.267 122.231C149.28 126.718 158.222 129.289 167.394 129.744C176.596 130.248 185.791 128.63 194.268 125.014C202.09 121.592 209.06 116.486 214.681 110.06C215.586 109.038 216.452 107.981 217.279 106.9C217.411 106.739 217.533 106.577 217.655 106.411L218.003 105.922L216.408 105.956ZM218.105 103.652C217.89 103.975 217.66 104.298 217.425 104.63H218.996C219.226 104.312 219.451 103.99 219.661 103.652H218.105ZM229.415 25.0531C230.694 23.4524 231.839 21.7492 232.839 19.9609C232.922 19.8132 232.943 19.639 232.898 19.4757C232.854 19.3125 232.747 19.1732 232.601 19.088C232.455 19.0027 232.281 18.9782 232.117 19.0198C231.953 19.0614 231.812 19.1657 231.724 19.3103C228.271 25.4653 223.141 30.5136 216.931 33.8678C215.466 31.9885 213.885 30.2028 212.196 28.5212C208.997 25.3368 205.348 22.2159 201.166 20.4598C197.331 18.8553 192.816 18.7037 189.225 21.0419C187.602 22.0694 186.366 23.6055 185.708 25.4102C185.09 27.3043 185.128 29.3515 185.816 31.2214C189.039 40.408 200.559 40.5156 208.444 38.5589C211.263 37.8544 213.994 36.8338 216.584 35.5163C216.863 35.8832 217.132 36.2549 217.401 36.6267C222.269 43.4482 225.661 51.2103 227.36 59.4169C228.05 62.7473 228.44 66.1328 228.525 69.5328C228.525 69.6943 228.525 69.8557 228.525 70.022C228.525 70.1883 228.525 70.3449 228.525 70.5112H229.806C229.806 70.3497 229.806 70.1883 229.806 70.022C229.806 69.8557 229.806 69.6992 229.806 69.5328C229.752 67.3084 229.571 65.0888 229.263 62.8851C228.028 54.2549 224.961 45.9888 220.267 38.6421C219.455 37.3637 218.595 36.1196 217.685 34.9097C222.202 32.4331 226.181 29.0825 229.39 25.0531H229.415ZM213.913 35.3255C210.172 36.9769 206.174 37.9698 202.095 38.2605C197.795 38.5442 192.894 37.9523 189.636 34.8364C186.911 32.234 185.439 27.8756 187.557 24.4563C189.563 21.2229 193.887 20.0538 197.467 20.6897C201.943 21.4871 205.783 24.3927 209.066 27.3521C211.497 29.527 213.736 31.9083 215.757 34.4695C215.126 34.7826 214.51 35.0712 213.889 35.3451L213.913 35.3255ZM223.423 94.265C223.276 94.5928 223.124 94.9205 222.968 95.2433C223.408 95.2433 223.833 95.2091 224.21 95.2091H224.411C224.557 94.883 224.699 94.5699 224.836 94.2699L223.423 94.265ZM224.856 90.8115C224.738 91.1344 224.611 91.4572 224.479 91.7898H225.873C226 91.4637 226.123 91.1376 226.24 90.8115H224.856Z" fill="#AE3925"/>
<path d="M180.44 96.4171L180.083 96.3193L179.946 96.2801L179.79 96.2361L179.746 95.7176L155.087 88.8057C153.103 88.3374 151.144 87.7692 149.217 87.1034C148.457 86.8357 147.79 86.3531 147.299 85.7142V85.7142C147.194 85.8798 147.111 86.0592 147.055 86.2473C146.784 85.9327 146.603 85.5508 146.531 85.1418C146.617 84.9965 146.715 84.859 146.825 84.7309C146.875 84.6672 146.928 84.6067 146.986 84.5499C147.021 84.2393 147.128 83.9411 147.299 83.6792C148.209 82.2117 150.132 81.5122 151.604 80.7834L157.606 77.8093L171.038 71.1566C171.132 71.1193 171.207 71.0481 171.25 70.9573C171.292 70.8665 171.299 70.7629 171.268 70.6674L173.225 70.418C173.279 70.9512 173.328 71.4843 173.377 72.0175C173.448 71.9695 173.529 71.9396 173.615 71.9302C173.7 71.9208 173.786 71.9323 173.866 71.9637L174.321 76.8554L173.66 77.0364C173.66 76.8749 173.636 76.7086 173.616 76.5472L152.846 82.2117L152.431 82.4172H152.382L151.804 82.7009C151.78 82.762 151.769 82.8276 151.773 82.8932C151.776 82.9588 151.793 83.023 151.823 83.0814C151.853 83.1399 151.896 83.1911 151.947 83.2318C151.999 83.2725 152.059 83.3016 152.122 83.3172L154.441 83.8064L155.478 83.5227L157.591 83.9532L156.554 84.232L179.388 88.8546C179.418 89.2068 179.442 89.5639 179.472 89.9161L179.961 90.0188C180.111 91.9755 180.261 93.9321 180.411 95.8888V96.0551C180.44 96.1823 180.44 96.2997 180.44 96.4171Z" fill="#AE3925"/>
<path d="M187.695 60.8115C186.402 59.8773 184.831 59.4083 183.238 59.4809H113.698C111.776 59.4809 109.854 59.4809 107.931 59.4809L107.75 59.4516C105.662 59.1239 103.553 58.8744 101.45 58.6689C96.2059 58.1504 90.9425 57.8765 85.684 57.6906C81.8001 57.5373 77.9128 57.4297 74.0223 57.3678C73.9392 56.3894 73.8511 55.4453 73.7631 54.4866C73.7583 54.4468 73.7501 54.4075 73.7386 54.3692C73.7332 54.3146 73.7168 54.2617 73.6906 54.2136C73.6644 54.1654 73.6289 54.123 73.586 54.0888C73.5432 54.0546 73.4939 54.0294 73.4411 54.0145C73.3884 53.9997 73.3332 53.9955 73.2788 54.0023C63.3683 54.736 53.4578 53.1854 43.5473 53.9191C43.3125 53.9191 43.0337 54.1246 43.0582 54.4083C43.0582 54.5844 43.1022 54.7654 43.1218 54.9415C42.344 54.7654 41.5711 54.604 40.8129 54.4523C37.604 53.7528 34.3902 53.0973 31.1715 52.4565C22.9877 50.8227 14.7893 49.3014 6.58114 47.8144C-2.72278 46.1382 -12.0365 44.5076 -21.36 42.9227C-30.2954 41.4193 -39.2422 39.9698 -48.2004 38.574C-55.2933 37.4734 -62.3862 36.407 -69.5182 35.4923L-71.4798 35.2184C-72.0961 35.1401 -72.0913 36.1086 -71.4798 36.1967C-68.9166 36.5098 -66.3533 36.8522 -63.795 37.2044C-59.6029 37.7914 -55.4156 38.4224 -51.2333 39.0583C-42.4837 40.4117 -33.7424 41.8156 -25.0091 43.27C-15.7639 44.8158 -6.52685 46.4137 2.70207 48.0638C11.0961 49.5672 19.4804 51.1293 27.8549 52.75C31.2334 53.4023 34.6103 54.0855 37.9855 54.7996C39.4188 55.1029 40.8471 55.4062 42.2755 55.7242L43.2245 55.9394C43.3076 56.6438 43.381 57.3482 43.4544 58.0575C43.7381 60.7446 43.9729 63.4334 44.1588 66.1238C44.1881 66.5102 44.2126 66.8967 44.2371 67.2831C44.8297 76.5062 44.8722 85.7564 44.3643 94.9845C44.2175 97.6456 44.0235 100.303 43.7821 102.958L43.7381 103.447L43.6941 103.936C43.6354 104.602 43.5669 105.262 43.4984 105.922C40.8471 106.411 38.191 106.866 35.5397 107.336C30.3056 108.262 25.0667 109.17 19.8228 110.061C14.0246 111.039 8.22801 112.017 2.43303 112.996C-3.56739 114.003 -9.57108 115.004 -15.578 115.999L-32.914 118.866L-48.5673 121.468C-52.8328 122.185 -57.0984 122.909 -61.3639 123.64C-64.2499 124.129 -67.1409 124.618 -70.0172 125.186L-70.2324 125.225C-70.7216 125.313 -71.1765 125.401 -71.651 125.499C-72.2625 125.616 -72.0032 126.55 -71.3917 126.428C-68.7943 125.914 -66.1821 125.45 -63.5651 125C-59.5083 124.295 -55.4531 123.604 -51.3996 122.926C-46.2927 122.065 -41.1826 121.21 -36.0691 120.362L-18.738 117.491L-0.550878 114.463C5.38106 113.485 11.3163 112.485 17.2547 111.465C22.6845 110.545 28.1126 109.609 33.539 108.657C36.9045 108.066 40.2699 107.465 43.6354 106.852C43.7251 106.933 43.8419 106.979 43.9631 106.979C52.1159 106.506 60.2686 106.39 68.4214 106.632C70.7335 106.7 73.0456 106.798 75.3577 106.925C75.4875 106.925 75.6119 106.874 75.7036 106.782C75.7954 106.69 75.8469 106.566 75.8469 106.436C75.8469 106.162 75.8469 105.883 75.8469 105.609C76.61 105.673 77.3731 105.746 78.1362 105.82C80.5527 106.059 83.067 106.23 85.4248 106.857C85.5764 106.896 85.7232 106.94 85.8699 106.989L86.0118 107.038L86.0802 107.072C86.1204 107.088 86.1582 107.109 86.1927 107.135C86.8531 107.835 87.4255 108.627 88.0711 109.342C90.5272 112.12 93.3378 114.564 96.431 116.611C101.231 119.754 106.8 121.522 112.534 121.722C116.821 121.784 121.09 121.151 125.174 119.849C127.17 119.247 129.137 118.562 131.118 117.892L144.266 113.543L150.66 111.425C150.731 111.405 150.796 111.369 150.852 111.32C150.907 111.271 150.95 111.21 150.978 111.142C151.007 111.074 151.019 111 151.015 110.926C151.01 110.852 150.989 110.781 150.953 110.716C150.318 109.304 149.278 108.113 147.964 107.292H180.137C182.441 107.292 185.063 107.605 187.108 106.358C187.923 105.86 188.618 105.189 189.143 104.392C189.668 103.594 190.011 102.69 190.145 101.745C190.202 101.273 190.225 100.797 190.214 100.321V66.5689C190.214 66.295 190.214 66.0162 190.214 65.7423C190.184 64.7853 189.943 63.8467 189.508 62.9941C189.072 62.1415 188.453 61.3961 187.695 60.8115V60.8115ZM74.8637 105.932C66.874 105.505 58.8761 105.423 50.8701 105.687L49.5788 105.736C48.4537 105.776 47.3286 105.829 46.2035 105.883L44.4768 105.981C44.4768 105.898 44.4768 105.81 44.5012 105.727C44.5648 105.135 44.6186 104.543 44.6773 103.951L44.7213 103.462L44.7654 102.973C45.8764 90.6311 45.9974 78.2205 45.1274 65.8597C45.1274 65.8597 45.1274 65.8205 45.1274 65.801V65.6249C44.9578 63.1529 44.7409 60.6892 44.4768 58.2336C44.4083 57.539 44.3349 56.8492 44.2517 56.1546C44.2517 55.9834 44.2175 55.8171 44.193 55.6655C44.1686 55.5138 44.1588 55.323 44.1343 55.1469C44.1343 55.0442 44.1099 54.9415 44.0952 54.8388C53.6828 54.2077 63.2705 55.6361 72.8581 54.9904C72.9315 55.7731 73 56.5557 73.0685 57.3433C73.0685 57.5047 73.0978 57.6661 73.1076 57.8325C73.1174 57.9988 73.1418 58.1553 73.1516 58.3216C74.2017 70.5312 74.7871 82.7603 74.9077 95.009C74.9371 98.1918 74.9371 101.376 74.9077 104.562C74.9077 104.724 74.9077 104.89 74.9077 105.052C74.9077 105.213 74.9077 105.37 74.9077 105.541C74.9077 105.712 74.8686 105.8 74.8637 105.932ZM147.583 108.202C148.538 108.838 149.324 109.698 149.872 110.706C142.303 113.211 134.737 115.715 127.175 118.22C123.484 119.532 119.641 120.37 115.738 120.715C110.316 121.1 104.89 120.017 100.031 117.579C96.9079 115.966 94.0331 113.912 91.4953 111.479C90.0026 110.064 88.6008 108.556 87.2983 106.964C87.0578 106.602 86.7182 106.317 86.3199 106.142C85.6106 105.887 84.8759 105.708 84.1285 105.609C82.8371 105.384 81.5359 105.228 80.2396 105.081C78.7721 104.915 77.3046 104.773 75.8371 104.646C75.9741 91.7088 75.5893 78.7785 74.6827 65.8548C74.5066 63.3405 74.3093 60.8278 74.0908 58.3167C76.5268 58.3624 78.9629 58.4211 81.3989 58.4928C86.7797 58.6543 92.1606 58.8842 97.5414 59.2951C99.8747 59.4761 102.208 59.6913 104.532 59.975L105.275 60.0679C104.38 60.4648 103.587 61.0598 102.956 61.8081C102.324 62.5564 101.871 63.4383 101.631 64.3873C101.631 64.4509 101.597 64.5145 101.587 64.5829C101.585 64.6024 101.585 64.6221 101.587 64.6416V64.7052C101.576 64.7503 101.568 64.7961 101.562 64.8422V64.8422C101.56 64.8797 101.56 64.9172 101.562 64.9547L101.533 65.1699C101.533 65.2873 101.509 65.4047 101.499 65.5172V65.5466C101.499 65.5466 101.499 65.5906 101.499 65.6102C101.401 66.7157 101.499 67.8701 101.464 68.9512C101.44 70.4823 101.401 72.0134 101.357 73.5444C101.269 76.4061 101.161 79.2726 101.186 82.1391C101.186 84.0566 101.283 85.979 101.489 87.877C101.606 88.9923 101.763 90.1027 101.978 91.1984C102.115 91.9322 102.278 92.661 102.467 93.385C102.604 93.9377 102.761 94.4856 102.956 95.0286C102.805 94.9454 102.648 94.872 102.467 94.7987L101.978 94.5639L101.489 94.3437C100.113 93.7262 98.6959 93.2048 97.2479 92.7833C94.231 91.9023 91.0956 91.4947 87.9537 91.5751C87.824 91.5751 87.6996 91.6266 87.6079 91.7183C87.5161 91.8101 87.4646 91.9345 87.4646 92.0642C87.4646 92.194 87.5161 92.3184 87.6079 92.4101C87.6996 92.5019 87.824 92.5534 87.9537 92.5534H88.5945C93.0472 92.5567 97.4446 93.5403 101.474 95.4346C101.636 95.5031 101.797 95.5813 101.963 95.6596C102.13 95.7379 102.291 95.8161 102.453 95.8993C102.761 96.0509 103.064 96.2123 103.367 96.3884C103.587 96.5058 103.803 96.6232 104.013 96.7504C104.223 96.8776 104.453 96.9999 104.669 97.132C105.951 97.9053 107.179 98.7667 108.342 99.7099C108.344 99.8168 108.388 99.9185 108.464 99.9936C108.402 99.9168 108.365 99.823 108.357 99.7245C108.523 99.8517 108.689 99.9887 108.846 100.131C108.716 100.141 108.587 100.102 108.484 100.023C108.527 100.065 108.578 100.098 108.635 100.12C108.691 100.142 108.751 100.152 108.812 100.15H108.866C110.678 101.656 112.318 103.357 113.757 105.223C113.924 105.433 114.08 105.648 114.246 105.864C114.364 106.03 114.486 106.196 114.599 106.353L114.706 106.499L114.931 106.837C115.044 106.994 115.146 107.155 115.249 107.326L115.274 107.36C116.815 109.748 118.006 112.344 118.81 115.07L118.977 115.676C119.023 115.785 119.108 115.873 119.214 115.925C119.321 115.976 119.443 115.987 119.557 115.955C119.671 115.923 119.77 115.851 119.835 115.752C119.9 115.654 119.927 115.534 119.911 115.417C119.14 112.561 117.951 109.835 116.384 107.326C116.301 107.179 116.208 107.033 116.115 106.886C116.81 107.057 117.514 107.204 118.218 107.326C121.75 107.919 125.343 108.067 128.912 107.766C130.164 107.669 131.411 107.522 132.654 107.326L133.632 107.17C134.121 107.082 134.64 106.969 135.143 106.847C135.823 106.685 136.508 106.504 137.193 106.358C137.545 106.279 137.902 106.211 138.259 106.157C139.719 105.972 141.201 106.04 142.637 106.358C142.955 106.421 143.269 106.49 143.582 106.563C143.895 106.636 144.291 106.739 144.638 106.842C145.105 106.979 145.564 107.142 146.013 107.331C146.563 107.57 147.089 107.862 147.583 108.202V108.202ZM189.245 66.6619V100.209C189.245 100.483 189.245 100.762 189.245 101.04C189.207 102.03 188.905 102.992 188.37 103.825C187.835 104.659 187.087 105.334 186.203 105.78C185.188 106.229 184.081 106.425 182.974 106.353H146.145C145.733 106.184 145.311 106.038 144.883 105.917C143.262 105.426 141.585 105.147 139.893 105.086C138.211 105.052 136.665 105.531 135.041 105.883C134.212 106.066 133.381 106.229 132.546 106.372H118.36C117.847 106.284 117.333 106.186 116.824 106.074C116.316 105.961 115.753 105.829 115.2 105.678C113.768 103.66 112.116 101.808 110.274 100.155H116.673C116.802 100.155 116.927 100.103 117.019 100.012C117.11 99.92 117.162 99.7956 117.162 99.6659V91.7316C117.162 91.6019 117.11 91.4774 117.019 91.3857C116.927 91.294 116.802 91.2424 116.673 91.2424H108.768C108.638 91.2424 108.514 91.294 108.422 91.3857C108.33 91.4774 108.279 91.6019 108.279 91.7316V98.4576C106.949 97.4328 105.544 96.509 104.077 95.6938C103.228 93.1803 102.664 90.5797 102.394 87.9406V74.9875C102.394 72.5417 102.394 70.0958 102.394 67.65C102.394 67.5717 102.394 67.4886 102.394 67.4103V67.0141C102.394 66.7353 102.394 66.4613 102.394 66.1923C102.397 65.7893 102.429 65.3871 102.492 64.9889C102.492 64.9205 102.492 64.8569 102.531 64.7884C102.57 64.7199 102.57 64.627 102.594 64.5438C102.619 64.4606 102.638 64.3922 102.663 64.3188C102.723 64.151 102.795 63.9876 102.878 63.8296C103.259 63.1286 103.809 62.5335 104.478 62.098C105.554 61.4501 106.731 60.9887 107.961 60.7332C108.198 60.6926 108.424 60.5989 108.621 60.4593H180.01C182.103 60.4593 184.701 60.1218 186.569 61.2224C187.385 61.7127 188.06 62.4044 188.531 63.231C189.003 64.0576 189.253 64.9914 189.26 65.9428C189.245 66.1727 189.245 66.4173 189.245 66.6619ZM109.252 99.1669V92.2159H116.203V99.1669H109.252Z" fill="black"/>
<path d="M185.332 69.161C185.353 68.4028 185.224 67.6479 184.95 66.9404C184.676 66.2329 184.265 65.5871 183.739 65.0406C183.213 64.4941 182.583 64.0579 181.886 63.7575C181.19 63.4571 180.441 63.2985 179.682 63.291C178.151 63.291 176.62 63.291 175.094 63.291H147.177C146.194 63.2965 145.229 63.5573 144.376 64.0478C143.524 64.5382 142.814 65.2416 142.315 66.089C141.336 67.7375 141.561 69.6893 141.561 71.5188V98.6821C141.571 99.8052 141.914 100.9 142.547 101.828C143.18 102.755 144.075 103.474 145.118 103.892C145.94 104.187 146.812 104.32 147.686 104.283H179.31C180.306 104.313 181.295 104.114 182.201 103.701C183.14 103.235 183.932 102.517 184.487 101.627C185.043 100.737 185.34 99.7112 185.347 98.6625C185.41 94.0693 185.347 89.4662 185.347 84.8681L185.332 69.161ZM184.354 71.2253V98.5941C184.36 99.4596 184.128 100.31 183.683 101.052C183.238 101.795 182.596 102.4 181.829 102.801C180.43 103.525 178.611 103.29 177.08 103.29H150.557C149.229 103.363 147.897 103.35 146.57 103.251C145.46 103.094 144.443 102.544 143.703 101.702C142.964 100.859 142.551 99.7789 142.54 98.6576V69.523C142.502 68.7776 142.593 68.0313 142.809 67.3168C143.141 66.4168 143.741 65.6402 144.528 65.0918C145.315 64.5433 146.252 64.2495 147.211 64.2498C148.615 64.2498 150.024 64.2498 151.428 64.2498H179.565C180.257 64.231 180.945 64.3631 181.581 64.6368C182.217 64.9104 182.786 65.3192 183.248 65.8347C184.588 67.3755 184.378 69.3371 184.378 71.2253H184.354Z" fill="black"/>
<path d="M180.311 90.4931C180.315 90.3826 180.282 90.2742 180.216 90.1853C180.15 90.0965 180.056 90.0326 179.949 90.0039L179.46 89.9012L154.337 84.8187L156.543 84.2171L157.58 83.9383L158.622 83.6545L174.441 79.3401C174.546 79.3096 174.638 79.2449 174.702 79.1562C174.766 79.0676 174.798 78.9601 174.794 78.8509C174.74 78.2933 174.691 77.7307 174.637 77.1731C174.49 75.5752 174.34 73.9756 174.187 72.3744C174.18 72.2778 174.145 72.1853 174.086 72.1086C174.027 72.032 173.946 71.9747 173.854 71.9439C173.775 71.9125 173.688 71.901 173.603 71.9104C173.518 71.9198 173.436 71.9497 173.365 71.9977C173.308 72.0404 173.262 72.098 173.235 72.1644C173.207 72.2307 173.198 72.3033 173.209 72.3744C173.339 73.7506 173.468 75.1284 173.595 76.5078C173.595 76.6693 173.629 76.8356 173.639 76.997C173.649 77.1584 173.674 77.3247 173.688 77.4862C173.718 77.8237 173.752 78.1563 173.781 78.4938L156.499 83.2045L155.457 83.4882L154.42 83.7719L152.101 84.403C152.002 84.4339 151.914 84.496 151.853 84.58C151.791 84.6641 151.757 84.7657 151.757 84.8701C151.757 84.9745 151.791 85.0761 151.853 85.1602C151.914 85.2443 152.002 85.3063 152.101 85.3373L179.367 90.8502L179.734 95.6782L179.778 96.1967C179.778 96.3679 179.803 96.5342 179.813 96.6859C179.842 97.0381 179.866 97.3854 179.896 97.7376L155.075 90.7817C153.119 90.2338 151.089 89.8033 149.205 89.0794C148.173 88.6734 147.063 87.8809 146.97 86.8341C146.95 86.6181 146.973 86.4002 147.038 86.1933C147.095 86.0052 147.177 85.8258 147.283 85.6601C148.193 84.1926 150.11 83.498 151.583 82.7691L151.778 82.6713L152.356 82.3876H152.405L152.82 82.1821L157.585 79.8195L171.017 73.1668C171.575 72.888 171.086 72.0564 170.528 72.3304L157.864 78.6063L151.505 81.7419C149.944 82.5148 148.134 83.2094 146.941 84.5252C146.883 84.582 146.829 84.6425 146.779 84.7062C146.522 85.0178 146.319 85.3699 146.178 85.7482C145.984 86.2502 145.938 86.7968 146.044 87.3243C146.149 87.8517 146.403 88.3383 146.774 88.7272C147.943 89.9843 149.822 90.3512 151.397 90.7914L164.957 94.5923L180.272 98.8871C180.346 98.9062 180.423 98.9078 180.497 98.8919C180.572 98.876 180.641 98.843 180.7 98.7955C180.76 98.7481 180.807 98.6874 180.839 98.6184C180.871 98.5494 180.886 98.4739 180.884 98.398C180.84 97.8305 180.796 97.2631 180.757 96.6957C180.616 94.6444 180.468 92.5769 180.311 90.4931Z" fill="black"/>
<path d="M137.882 67.4199H129.958C129.828 67.4199 129.704 67.4715 129.612 67.5632C129.52 67.6549 129.469 67.7794 129.469 67.9091V75.8189C129.468 75.9328 129.509 76.0429 129.586 76.1271V76.1564L129.616 76.1809C129.699 76.2589 129.809 76.3026 129.924 76.3032H137.882C138.012 76.3032 138.137 76.2516 138.228 76.1599C138.32 76.0682 138.372 75.9437 138.372 75.814V67.9042C138.37 67.7753 138.318 67.6521 138.227 67.5615C138.135 67.4708 138.011 67.4199 137.882 67.4199ZM130.956 75.3297H130.467V68.3885H137.393V75.3297H130.956Z" fill="black"/>
<path d="M137.883 79.3311H129.958C129.828 79.3311 129.704 79.3826 129.612 79.4743C129.52 79.5661 129.469 79.6905 129.469 79.8202V87.7398C129.467 87.7964 129.477 87.8527 129.497 87.9056C129.517 87.9585 129.547 88.0068 129.586 88.048V88.0822L129.616 88.1067C129.7 88.1834 129.81 88.2253 129.924 88.2241H137.883C138.012 88.2241 138.137 88.1725 138.228 88.0808C138.32 87.9891 138.372 87.8646 138.372 87.7349V79.8153C138.37 79.6864 138.318 79.5633 138.227 79.4726C138.135 79.3819 138.011 79.331 137.883 79.3311V79.3311ZM130.941 87.2506H130.452V80.2996H137.393V87.2506H130.941Z" fill="black"/>
<path d="M137.882 91.2471H129.958C129.828 91.2471 129.704 91.2986 129.612 91.3903C129.52 91.4821 129.469 91.6065 129.469 91.7362V99.6558C129.468 99.7697 129.509 99.8798 129.586 99.964V99.9982H129.616C129.656 100.038 129.704 100.069 129.757 100.09C129.81 100.111 129.867 100.122 129.924 100.121H137.882C138.012 100.121 138.137 100.069 138.228 99.9772C138.32 99.8855 138.372 99.7611 138.372 99.6314V91.7313C138.37 91.6025 138.318 91.4793 138.227 91.3886C138.135 91.2979 138.011 91.2471 137.882 91.2471ZM130.941 99.1667H130.452V92.2156H137.393V99.1667H130.941Z" fill="black"/>
<path d="M127.292 67.4199H119.372C119.242 67.4199 119.118 67.4715 119.026 67.5632C118.934 67.6549 118.883 67.7794 118.883 67.9091V75.8189C118.882 75.9328 118.924 76.0429 119 76.1271L119.025 76.1564L119.054 76.1809C119.139 76.2601 119.251 76.3039 119.367 76.3032H127.287C127.416 76.3032 127.541 76.2516 127.633 76.1599C127.724 76.0682 127.776 75.9437 127.776 75.814V67.9042C127.775 67.7762 127.723 67.6537 127.633 67.5632C127.542 67.4726 127.42 67.4212 127.292 67.4199ZM120.35 75.3297H119.861V68.3885H126.812V75.3297H120.35Z" fill="black"/>
<path d="M127.292 79.3311H119.372C119.242 79.3311 119.118 79.3826 119.026 79.4743C118.935 79.5661 118.883 79.6905 118.883 79.8202V87.7398C118.881 87.7964 118.891 87.8527 118.911 87.9056C118.931 87.9585 118.962 88.0068 119 88.048L119.025 88.0822L119.054 88.1067C119.14 88.1841 119.252 88.2261 119.367 88.2241H127.287C127.417 88.2241 127.541 88.1725 127.633 88.0808C127.724 87.9891 127.776 87.8646 127.776 87.7349V79.8153C127.775 79.6873 127.723 79.5648 127.633 79.4743C127.542 79.3838 127.42 79.3323 127.292 79.3311V79.3311ZM120.35 87.2506H119.861V80.2996H126.812V87.2506H120.35Z" fill="black"/>
<path d="M127.292 91.2471H119.372C119.242 91.2471 119.118 91.2986 119.026 91.3903C118.934 91.4821 118.883 91.6065 118.883 91.7362V99.6558C118.882 99.7697 118.924 99.8798 119 99.964L119.025 99.9982H119.054C119.096 100.038 119.145 100.07 119.198 100.091C119.252 100.112 119.309 100.122 119.367 100.121H127.287C127.416 100.121 127.541 100.069 127.633 99.9773C127.724 99.8855 127.776 99.7611 127.776 99.6314V91.7313C127.775 91.6033 127.723 91.4809 127.633 91.3903C127.542 91.2998 127.42 91.2483 127.292 91.2471V91.2471ZM120.35 99.1667H119.861V92.2156H126.812V99.1667H120.35Z" fill="black"/>
<path d="M116.686 67.4199H108.767C108.637 67.4199 108.512 67.4715 108.421 67.5632C108.329 67.6549 108.277 67.7794 108.277 67.9091V75.8189C108.276 75.9328 108.318 76.0429 108.395 76.1271V76.1564L108.429 76.1809C108.512 76.2598 108.623 76.3036 108.737 76.3032H116.657C116.786 76.3032 116.911 76.2516 117.003 76.1599C117.094 76.0682 117.146 75.9437 117.146 75.814V67.9042C117.145 67.7802 117.097 67.6613 117.012 67.5714C116.926 67.4815 116.81 67.4274 116.686 67.4199ZM109.75 75.3297H109.261V68.3885H116.212V75.3297H109.75Z" fill="black"/>
<path d="M116.686 79.3311H108.767C108.637 79.3311 108.513 79.3826 108.421 79.4743C108.329 79.5661 108.278 79.6905 108.278 79.8202V87.7398C108.276 87.7964 108.285 87.8527 108.306 87.9056C108.326 87.9585 108.356 88.0068 108.395 88.048V88.0822L108.429 88.1067C108.513 88.1843 108.623 88.2263 108.737 88.2241H116.657C116.787 88.2241 116.911 88.1725 117.003 88.0808C117.095 87.9891 117.146 87.8646 117.146 87.7349V79.8153C117.145 79.6914 117.097 79.5724 117.012 79.4825C116.926 79.3926 116.81 79.3385 116.686 79.3311V79.3311ZM109.75 87.2506H109.261V80.2996H116.212V87.2506H109.75Z" fill="black"/>
<path d="M70.4478 59.5043C70.5124 59.8294 70.5019 60.165 70.4171 60.4854C70.3324 60.8059 70.1755 61.1027 69.9586 61.3533C69.7791 61.6043 69.5251 61.7923 69.2327 61.8907C68.9403 61.989 68.6243 61.9927 68.3297 61.9012C68.019 61.775 67.7434 61.5757 67.5263 61.3202C67.3091 61.0647 67.1568 60.7606 67.0823 60.4337C67.0008 60.1185 67.0031 59.7875 67.0889 59.4735C67.1747 59.1595 67.3411 58.8733 67.5715 58.6434C67.7603 58.4555 67.9848 58.3075 68.2318 58.208C68.6623 58.208 69.0977 58.208 69.5281 58.208C69.5779 58.2202 69.63 58.2202 69.6798 58.208V58.208C69.7486 58.2001 69.8147 58.176 69.8725 58.1378C69.9303 58.0995 69.9782 58.0482 70.0124 57.9879C70.0572 57.909 70.0792 57.8193 70.076 57.7286C70.0783 57.6459 70.057 57.5642 70.0145 57.4932C69.9721 57.4222 69.9103 57.3647 69.8363 57.3275C69.763 57.2939 69.6879 57.2646 69.6113 57.2395V57.2395C69.1225 57.0855 68.5983 57.0855 68.1095 57.2395C67.7745 57.3421 67.4623 57.5082 67.1899 57.7286V57.7286C67.0082 57.8718 66.844 58.036 66.7008 58.2178C66.4626 58.4991 66.284 58.8258 66.1755 59.178C66.0671 59.5303 66.0311 59.9009 66.0697 60.2674C66.124 60.7686 66.2987 61.2492 66.579 61.6683C66.8592 62.0874 67.2366 62.4324 67.6791 62.6741C68.1142 62.8948 68.6064 62.9775 69.0897 62.9111C69.5731 62.8446 70.0247 62.6322 70.3842 62.3023C70.8038 61.9275 71.1157 61.4474 71.2877 60.9116C71.4597 60.3758 71.4855 59.8039 71.3625 59.2548C71.2353 58.6434 70.301 58.8977 70.4478 59.5043Z" fill="black"/>
<path d="M210.543 95.2286H216.574H216.687C217.045 95.2051 217.392 95.0948 217.699 94.9072C218.005 94.7196 218.261 94.4604 218.445 94.1519C218.629 93.8433 218.735 93.4947 218.754 93.1361C218.773 92.7774 218.705 92.4195 218.555 92.0931C218.1 91.1392 217.181 90.8408 216.203 90.8408H209.887C209.217 90.8408 208.542 90.8408 207.872 90.8408C207.551 90.8411 207.233 90.9111 206.941 91.0458C206.649 91.1806 206.39 91.377 206.181 91.6215C205.973 91.866 205.819 92.1528 205.732 92.4622C205.645 92.7716 205.626 93.0963 205.676 93.4138C206.067 95.7031 208.86 95.2286 210.543 95.2286ZM207.236 91.961C207.73 91.7885 208.258 91.7349 208.777 91.8045H214.471C215.146 91.8045 215.821 91.8045 216.501 91.8045C216.8 91.8323 217.08 91.9686 217.286 92.1879C217.492 92.4072 217.61 92.6942 217.619 92.9949C217.628 93.2957 217.527 93.5893 217.335 93.8205C217.142 94.0517 216.872 94.2046 216.574 94.2503C213.693 94.2503 210.797 94.3188 207.911 94.2503C206.688 94.2307 206.057 92.6116 207.236 91.961Z" fill="black"/>
<path d="M219.316 93.4285C219.619 95.2188 221.38 95.3264 222.94 95.2873C223.381 95.2873 223.806 95.253 224.183 95.253H230.214H230.322C230.681 95.2302 231.029 95.1205 231.335 94.9332C231.642 94.7459 231.899 94.4868 232.084 94.1782C232.268 93.8695 232.374 93.5207 232.394 93.1616C232.413 92.8026 232.345 92.4443 232.195 92.1175C231.74 91.1636 230.821 90.8652 229.842 90.8652H223.527C222.857 90.8652 222.182 90.8652 221.507 90.8652C221.187 90.8656 220.87 90.9353 220.579 91.0696C220.288 91.2038 220.03 91.3994 219.822 91.6429C219.614 91.8864 219.461 92.172 219.373 92.4802C219.286 92.7885 219.266 93.1119 219.316 93.4285V93.4285ZM220.876 91.961C221.37 91.7884 221.898 91.7348 222.417 91.8044H228.111C228.786 91.8044 229.461 91.8044 230.136 91.8044C231.76 91.8436 231.863 94.1867 230.214 94.2502C228.414 94.2502 226.614 94.2747 224.833 94.2796H223.42C222.808 94.2796 222.192 94.2796 221.576 94.2551C220.328 94.2307 219.697 92.6115 220.876 91.961V91.961Z" fill="black"/>
<path d="M243.487 90.8311H237.181C236.511 90.8311 235.836 90.8311 235.161 90.8311C234.84 90.8312 234.522 90.9011 234.23 91.0359C233.939 91.1708 233.68 91.3673 233.472 91.6119C233.263 91.8565 233.11 92.1434 233.024 92.4528C232.937 92.7623 232.919 93.0868 232.97 93.4041C233.361 95.7031 236.154 95.2286 237.861 95.2286H243.893H244.005C244.363 95.2051 244.711 95.0948 245.017 94.9072C245.323 94.7196 245.579 94.4604 245.763 94.1519C245.947 93.8434 246.053 93.4948 246.073 93.1361C246.092 92.7775 246.024 92.4195 245.874 92.0931C245.385 91.1294 244.465 90.8311 243.487 90.8311ZM243.858 94.2552C240.972 94.2552 238.081 94.3237 235.195 94.2552C233.972 94.2259 233.341 92.6067 234.52 91.9512C235.014 91.7787 235.542 91.7251 236.061 91.7947H241.755C242.43 91.7947 243.105 91.7947 243.78 91.7947C245.404 91.8387 245.497 94.1818 243.858 94.2601V94.2552Z" fill="black"/>
<path d="M259.623 92.4499C259.588 92.3254 259.542 92.2043 259.486 92.0879C259.449 92.0124 259.408 91.9389 259.364 91.8678C259.224 91.6386 259.037 91.4418 258.816 91.2906C258.321 90.9691 257.738 90.8101 257.148 90.8357H250.818C250.148 90.8357 249.473 90.8357 248.798 90.8357C248.476 90.8359 248.159 90.9058 247.867 91.0406C247.576 91.1754 247.317 91.3719 247.108 91.6165C246.9 91.8611 246.747 92.1481 246.66 92.4575C246.574 92.7669 246.555 93.0914 246.606 93.4087C246.998 95.7078 249.791 95.2333 251.498 95.2333H257.529H257.637C257.958 95.2116 258.271 95.1205 258.554 94.9663C258.837 94.8121 259.084 94.5984 259.276 94.3399C259.468 94.0814 259.603 93.7843 259.669 93.469C259.736 93.1537 259.733 92.8278 259.662 92.5135L259.623 92.4499ZM257.505 94.2647H253.151C251.718 94.2647 250.28 94.2647 248.842 94.2403C247.619 94.2109 246.988 92.5918 248.167 91.9363C248.661 91.7638 249.189 91.7102 249.708 91.7798H255.578C256.067 91.7798 256.59 91.7798 257.094 91.7798H257.446C257.631 91.7752 257.814 91.8114 257.983 91.8858C258.152 91.9602 258.303 92.071 258.424 92.2102C258.591 92.3847 258.701 92.6047 258.742 92.8422C258.783 93.0798 258.752 93.3241 258.653 93.544C258.555 93.7639 258.393 93.9495 258.188 94.077C257.984 94.2044 257.746 94.2681 257.505 94.2598V94.2647Z" fill="black"/>
<path d="M241.988 100.888C241.552 100.888 241.112 100.888 240.677 100.888H212.535C210.882 100.888 209.223 100.839 207.575 100.888C207.273 100.881 206.974 100.946 206.702 101.077C206.43 101.208 206.193 101.401 206.01 101.641C205.857 101.848 205.748 102.083 205.69 102.333C205.631 102.583 205.625 102.842 205.671 103.095C205.717 103.347 205.814 103.588 205.956 103.801C206.099 104.015 206.283 104.197 206.499 104.337C207.063 104.601 207.691 104.7 208.309 104.62H241.983H242.1C242.581 104.585 243.03 104.365 243.352 104.006C243.675 103.647 243.845 103.177 243.828 102.695C243.811 102.213 243.607 101.757 243.261 101.421C242.914 101.086 242.451 100.898 241.968 100.898L241.988 100.888ZM241.988 103.652H208.211C207.595 103.652 206.797 103.75 206.626 102.942C206.406 101.915 207.414 101.852 208.094 101.852H237.996C239.307 101.852 240.677 101.749 241.988 101.852C242.106 101.851 242.223 101.873 242.333 101.917C242.442 101.962 242.542 102.027 242.626 102.11C242.711 102.193 242.778 102.292 242.824 102.4C242.87 102.509 242.894 102.626 242.895 102.744C242.896 102.863 242.874 102.98 242.829 103.089C242.785 103.199 242.72 103.299 242.637 103.383C242.554 103.467 242.455 103.534 242.346 103.58C242.237 103.627 242.121 103.651 242.002 103.652H241.988Z" fill="black"/>
<path d="M213.031 87.2703C213.95 87.329 214.894 87.2703 215.814 87.2703H218.563H218.675C219.352 87.2299 219.986 86.9272 220.443 86.4266C220.899 85.926 221.143 85.267 221.121 84.5897C221.121 83.6749 221.146 82.7602 221.121 81.8504C221.115 81.1666 220.839 80.5129 220.354 80.0312C219.868 79.5495 219.213 79.2786 218.529 79.2774C217.658 79.2774 216.782 79.2774 215.912 79.2774C215.041 79.2774 214.112 79.2774 213.216 79.2774C212.532 79.2747 211.874 79.5417 211.385 80.0205C210.896 80.4993 210.616 81.1515 210.604 81.8357C210.604 82.7358 210.604 83.6407 210.604 84.5457C210.573 85.2266 210.81 85.8927 211.263 86.4018C211.716 86.9108 212.351 87.2225 213.031 87.2703V87.2703ZM211.563 84.2326V82.7651C211.563 81.7868 211.514 80.7008 212.649 80.3193C213.294 80.1957 213.953 80.1693 214.606 80.241H217.619C218.387 80.241 219.204 80.1383 219.761 80.7938C220.319 81.4493 220.143 82.858 220.143 83.7288C220.143 84.0956 220.172 84.4723 220.143 84.8392C220.108 85.2376 219.925 85.6086 219.631 85.8799C219.338 86.1512 218.953 86.3034 218.553 86.3067H213.774C212.933 86.3067 212.067 86.248 211.685 85.3283C211.574 84.9746 211.535 84.6017 211.573 84.2326H211.563Z" fill="black"/>
<path d="M250.948 74.4633C250.351 73.8763 249.666 73.123 248.845 72.8686H248.781C247.964 72.6485 247.274 73.123 246.687 73.6562C246.56 73.7687 246.433 73.8861 246.316 74.0035C245.553 74.7421 244.895 75.5814 244.359 76.4983V76.5276C244.306 76.6248 244.292 76.7385 244.32 76.8456C244.343 76.9387 244.394 77.0228 244.465 77.0874C244.536 77.152 244.625 77.1942 244.72 77.2088C244.815 77.2234 244.912 77.2098 244.999 77.1695C245.086 77.1293 245.16 77.0642 245.21 76.9825C245.582 76.3461 246.018 75.7495 246.511 75.202L246.58 75.1286C246.795 74.8938 247.015 74.6737 247.25 74.4633C247.353 74.3704 247.46 74.2579 247.583 74.16C247.754 73.9845 247.968 73.8564 248.204 73.7883C248.869 73.6415 249.554 74.478 249.984 74.8791C250.543 75.3632 251.022 75.9328 251.403 76.5667C251.779 77.1866 251.905 77.9265 251.755 78.6359C251.52 79.2778 251.085 79.8268 250.513 80.2012C249.994 80.6317 249.534 81.0866 249.045 81.5611C248.853 81.7603 248.641 81.9404 248.414 82.0992C248.091 82.3378 247.705 82.4741 247.304 82.4905H247.274C245.807 82.5297 244.77 81.3752 243.958 80.2453L243.537 79.6338C243.491 79.5602 243.424 79.5013 243.345 79.464C243.266 79.4268 243.179 79.4127 243.092 79.4235C243.009 79.4203 242.927 79.4402 242.855 79.4807C242.782 79.5213 242.723 79.5811 242.682 79.6534C242.642 79.7258 242.622 79.808 242.625 79.8908C242.629 79.9737 242.655 80.054 242.701 80.123C242.789 80.255 242.882 80.392 242.98 80.5241C243.116 80.7197 243.253 80.9105 243.4 81.1013C243.537 81.2774 243.679 81.4535 243.826 81.6247C244.078 81.9243 244.356 82.2009 244.657 82.4514C244.933 82.6868 245.235 82.8887 245.557 83.0531H245.582C245.937 83.2317 246.319 83.3522 246.712 83.4102C247.338 83.5132 247.981 83.4192 248.551 83.1411C248.739 83.0496 248.918 82.9398 249.084 82.8134C249.306 82.6425 249.518 82.4596 249.72 82.2655C250.141 81.8644 250.537 81.4339 250.987 81.0671C251.665 80.6028 252.215 79.9754 252.587 79.2425C252.9 78.3849 252.874 77.4398 252.513 76.601C252.144 75.7885 251.611 75.0609 250.948 74.4633Z" fill="black"/>
<path d="M443.456 123.722C440.218 123.236 436.981 122.739 433.746 122.23C430.041 121.649 426.338 121.054 422.637 120.444C414.996 119.192 407.364 117.899 399.739 116.565C392.239 115.261 384.738 113.911 377.238 112.515C370.707 111.297 364.182 110.069 357.671 108.729C355.062 108.197 352.453 107.65 349.844 107.085L347.193 106.513C347.115 105.838 347.041 105.163 346.973 104.483C346.663 101.548 346.41 98.613 346.215 95.678C345.589 86.285 345.535 76.8626 346.053 67.463C346.255 63.804 346.546 60.1549 346.924 56.5155C349.184 56.0899 351.449 55.6692 353.709 55.2339C362.974 53.4533 372.235 51.6516 381.493 49.8286L411.45 43.9586C420.975 42.09 430.501 40.2312 440.027 38.3821L441.93 38.0153L443.255 37.756C443.867 37.6386 443.607 36.7043 443.001 36.8217C433.452 38.6642 423.907 40.5247 414.365 42.4031L383.797 48.4002C374.259 50.2754 364.713 52.1358 355.162 53.9816C352.373 54.5197 349.585 55.0545 346.797 55.5861C346.714 55.5144 346.608 55.476 346.498 55.4785C338.346 55.9513 330.193 56.0671 322.04 55.8258C319.728 55.7573 317.416 55.6594 315.104 55.5323C314.974 55.5323 314.85 55.5838 314.758 55.6755C314.666 55.7673 314.615 55.8917 314.615 56.0214C314.615 57.3617 314.585 58.6972 314.58 60.0375L301.691 58.7754C297.929 56.6182 293.654 55.5127 289.374 55.0089C284.698 54.4587 279.965 54.627 275.34 55.5078C274.64 55.6448 273.941 55.7915 273.246 55.9676L268.266 55.4785L260.122 54.6811C257.5 54.4219 254.858 54.0403 252.227 53.9376C250.172 53.8593 248.269 54.4268 247.051 56.1584C245.926 57.7531 245.584 59.7782 245.329 61.6615C244.941 64.2704 244.579 66.8956 244.243 69.5371H224.833C219.77 69.5371 214.708 69.5371 209.64 69.5371C208.879 69.5255 208.125 69.668 207.421 69.956C206.717 70.2439 206.079 70.6713 205.544 71.2124C205.01 71.7535 204.591 72.3972 204.312 73.1046C204.033 73.8121 203.9 74.5686 203.922 75.3288V83.2043C203.922 89.2504 203.843 95.3063 203.922 101.352C203.918 102.512 204.277 103.644 204.946 104.591C205.616 105.538 206.564 106.252 207.659 106.635C208.423 106.863 209.22 106.96 210.017 106.924H256.932C257.974 106.9 258.989 106.593 259.867 106.034L264.72 110.104C265.561 110.808 266.393 111.517 267.239 112.212C267.767 112.647 268.384 113.078 269.108 112.887C270.477 112.525 270.521 110.686 270.389 109.57C270.087 106.979 269.445 104.438 268.481 102.013L275.281 103.7C275.366 103.726 275.456 103.729 275.542 103.707C275.629 103.686 275.707 103.641 275.77 103.578C276.746 102.405 277.25 100.91 277.184 99.3859L297.005 98.8967L315.886 98.4076C316.121 101.613 316.39 104.812 316.694 108.005C316.69 108.039 316.69 108.074 316.694 108.108V108.108C316.699 108.165 316.716 108.221 316.744 108.272C316.772 108.322 316.81 108.367 316.856 108.402C316.902 108.437 316.955 108.462 317.011 108.475C317.067 108.488 317.126 108.49 317.183 108.479C327.088 107.751 336.999 109.301 346.909 108.568C347.144 108.568 347.428 108.362 347.398 108.078C347.398 107.897 347.354 107.721 347.335 107.54L347.487 107.575C349.981 108.132 352.483 108.669 354.99 109.184C361.315 110.49 367.66 111.713 374.004 112.906C381.433 114.305 388.872 115.657 396.32 116.962C404.039 118.321 411.764 119.642 419.496 120.924C426.594 122.093 433.682 123.238 440.805 124.314L443.25 124.681C443.808 124.734 444.067 123.815 443.456 123.722ZM245.657 66.0004C245.97 63.7356 246.146 61.3974 246.758 59.1814C247.247 57.3079 248.225 55.5127 250.28 55.0529C251.396 54.8743 252.534 54.8743 253.65 55.0529L257.661 55.4442L265.439 56.2073L270.653 56.6965C270.027 56.8921 269.406 57.1074 268.795 57.3422C266.763 58.1638 264.801 59.1452 262.925 60.2772C258.894 62.5811 254.702 64.6161 250.813 67.1548C249.683 67.8911 248.592 68.6863 247.545 69.5371H245.207C245.334 68.3533 245.501 67.1695 245.657 65.9857V66.0004ZM259.535 105.099C259.397 105.2 259.253 105.291 259.104 105.373C258.438 105.74 257.693 105.938 256.932 105.951H221.8C220.538 105.951 219.281 105.951 218.019 105.951H216.41C214.077 105.951 211.743 105.951 209.41 105.951C208.207 105.936 207.057 105.451 206.207 104.599C205.357 103.746 204.876 102.595 204.866 101.391C204.866 100.77 204.866 100.144 204.866 99.5229V78.8067C204.866 76.6006 204.425 73.7683 206.03 72.0073C206.493 71.5129 207.056 71.1231 207.682 70.8641C208.308 70.6051 208.982 70.4829 209.659 70.5056H246.381C245.892 70.9507 245.373 71.4155 244.914 71.8948C244.728 72.0807 244.542 72.2715 244.361 72.4623C244.18 72.653 243.984 72.8585 243.803 73.0542C242.879 74.0603 242.02 75.1239 241.23 76.2386C240.115 77.8186 239.273 79.4475 239.968 81.3944C240.628 83.0687 241.879 84.4422 243.485 85.2539C245.131 86.1853 247.039 86.5416 248.91 86.2665C249.27 86.2045 249.625 86.1162 249.972 86.0024C250.776 85.726 251.558 85.3875 252.31 84.9898L252.735 84.7745L253.176 84.5544L253.665 84.3098L256.111 83.1261C256.392 83.0488 256.657 82.9212 256.893 82.7494V82.7494C258.405 82.0401 259.921 81.3455 261.467 80.7194V85.3371C261.467 85.4985 261.467 85.6648 261.467 85.8263C261.467 87.5285 261.467 89.2504 261.467 90.9331V91.4516C261.467 91.618 261.467 91.7892 261.467 91.9408C261.467 92.0925 261.467 92.1463 261.467 92.249V93.7458C261.467 95.5818 261.467 97.4162 261.467 99.2489C261.467 99.4104 261.467 99.5767 261.467 99.7381C261.467 99.8995 261.467 100.066 261.467 100.227C261.467 100.604 261.467 100.981 261.467 101.357C261.463 102.005 261.323 102.645 261.055 103.235C260.787 103.826 260.397 104.352 259.911 104.781C259.792 104.89 259.666 104.991 259.535 105.085V105.099ZM266.608 79.0073C267.677 79.9621 268.874 80.7638 270.164 81.3895C271.94 82.27 273.809 82.9402 275.579 83.8354C277.247 84.6718 279.003 85.7235 279.982 87.3378C280.813 88.6634 281.391 90.6054 280.442 92.024C279.38 93.6089 277.184 93.4915 275.511 93.3936L274.572 93.3252L273.882 93.2713L273.182 93.2175C269.538 92.924 265.884 92.474 262.421 91.2902V80.328C263.399 79.9612 264.377 79.6236 265.356 79.3497C265.776 79.216 266.194 79.097 266.608 78.9926V79.0073ZM269.21 108.005C269.364 108.755 269.462 109.515 269.504 110.28C269.504 110.769 269.479 111.493 269.083 111.83C268.516 112.319 267.616 111.243 267.195 110.896L264.96 109.022L260.665 105.412C261.592 104.569 262.195 103.429 262.372 102.189C262.436 101.624 262.459 101.055 262.44 100.487L267.332 101.7C268.194 103.719 268.824 105.829 269.21 107.99V108.005ZM275.227 102.678L268.031 100.893L267.43 100.746L266.828 100.594L262.426 99.5082V92.2783C266.06 93.4768 269.92 93.8926 273.725 94.1959L274.087 94.2252C274.136 94.279 274.18 94.3328 274.224 94.3915C275.152 95.5699 275.792 96.9484 276.093 98.4174C276.122 98.5772 276.147 98.7402 276.166 98.9065C276.166 99.068 276.196 99.2294 276.201 99.3957C276.273 100.566 275.928 101.724 275.227 102.663V102.678ZM312.585 97.5026L285.04 98.207L277.086 98.4076C276.918 97.2923 276.541 96.2187 275.976 95.2427C275.799 94.9394 275.609 94.641 275.408 94.3573C276.876 94.4747 278.343 94.4943 279.654 93.9024C280.402 93.5556 281.021 92.9816 281.423 92.2622C281.826 91.5428 281.99 90.7147 281.894 89.8961C281.552 85.8067 277.688 83.6544 274.327 82.1869C272.263 81.2819 269.704 80.2742 267.748 78.7627C268.681 78.5734 269.635 78.5125 270.585 78.5817C273.075 78.8018 275.433 80.2155 277.634 81.2868C279.982 82.4266 282.364 83.3462 284.971 83.5467C287.504 83.737 290.047 83.3472 292.407 82.407C293.539 81.9555 294.617 81.3779 295.62 80.6851C295.696 80.632 295.755 80.5595 295.793 80.4754C295.83 80.3913 295.845 80.2986 295.834 80.2071C295.824 80.1156 295.789 80.0285 295.733 79.9552C295.677 79.8818 295.603 79.8247 295.518 79.79C295.454 79.7669 295.386 79.7601 295.319 79.7704C295.253 79.7807 295.19 79.8076 295.136 79.8487C293.072 81.265 290.699 82.1681 288.216 82.4829C285.732 82.7977 283.21 82.5151 280.857 81.6586C278.441 80.7683 276.23 79.4035 273.833 78.4692C272.102 77.7368 270.21 77.4703 268.345 77.6963C267.831 77.7648 267.322 77.8529 266.818 77.9654C266.652 77.9947 266.486 78.0339 266.329 78.0779C266.173 78.1219 265.977 78.1562 265.801 78.2051C264.661 78.5043 263.539 78.8685 262.44 79.2959L261.951 79.4818L261.462 79.6775C260.244 80.1666 259.045 80.7145 257.872 81.2526L257.211 81.5607L256.345 81.9667L255.763 82.2407L255.616 82.3141L255.005 82.6076L253.66 83.2532L252.633 83.7424L252.197 83.9528L252.006 84.0408L251.767 84.1533C250.837 84.6463 249.852 85.0257 248.832 85.2833C248.329 85.4013 247.812 85.4474 247.296 85.4203C244.219 85.2637 239.675 82.4853 240.814 78.8459C241.127 77.8675 241.871 76.9626 242.487 76.131C242.835 75.6418 243.201 75.2016 243.578 74.7516C243.759 74.5314 243.95 74.3113 244.136 74.0912L244.679 73.4944C245.654 72.4443 246.702 71.4636 247.814 70.5594C248.01 70.3931 248.215 70.2317 248.416 70.0703C248.617 69.9088 248.832 69.7425 249.047 69.5811C249.262 69.4197 249.34 69.361 249.487 69.2533C252.941 66.7488 256.761 64.8068 260.493 62.7621C262.528 61.6468 264.5 60.3848 266.584 59.3673C268.467 58.46 270.432 57.7344 272.454 57.2003L273.275 56.9851C273.764 56.8628 274.254 56.7503 274.743 56.6476C275.297 56.5269 275.855 56.4193 276.416 56.3247C283.876 55.498 289.706 55.9089 298.996 58.5357C299.416 58.7216 299.837 58.9222 300.243 59.1423C300.576 59.3135 300.908 59.4945 301.221 59.6804C301.255 59.7007 301.291 59.7171 301.329 59.7293C301.373 59.7341 301.417 59.7341 301.461 59.7293L312.516 60.7761L314.585 60.9767C314.536 72.8536 314.928 84.7224 315.759 96.583L315.818 97.4048L312.585 97.5026ZM317.594 107.472C317.31 104.439 317.057 101.403 316.835 98.3636C316.835 98.2021 316.811 98.0407 316.796 97.8744C316.782 97.7081 316.796 97.5515 316.762 97.3852C316.048 87.416 315.642 77.4322 315.544 67.4337C315.524 65.3172 315.524 63.1975 315.544 61.0745V60.5853C315.544 60.4239 315.544 60.2625 315.544 60.0962C315.544 58.8928 315.555 57.6927 315.578 56.4959C323.565 56.9199 331.554 56.9998 339.547 56.7356L340.897 56.6867C341.998 56.6476 343.104 56.5986 344.204 56.5399C344.786 56.5155 345.364 56.4812 345.946 56.447C345.946 56.5253 345.946 56.6035 345.921 56.6818C344.583 69.821 344.372 83.0507 345.29 96.2259C345.29 96.3384 345.29 96.4509 345.29 96.5634C345.473 99.1397 345.699 101.713 345.97 104.282C346.034 104.948 346.107 105.618 346.19 106.283C346.19 106.449 346.22 106.611 346.244 106.772C346.269 106.934 346.278 107.11 346.303 107.261C346.327 107.413 346.303 107.472 346.337 107.579C336.759 108.24 327.191 106.811 317.594 107.457V107.472Z" fill="black"/>
<path d="M322.734 99.7876C322.299 99.5662 321.806 99.4832 321.323 99.5496C320.839 99.6161 320.388 99.8289 320.028 100.159C319.608 100.534 319.295 101.014 319.123 101.55C318.951 102.086 318.926 102.658 319.05 103.207C319.192 103.813 320.126 103.559 319.984 102.948C319.918 102.623 319.927 102.288 320.012 101.968C320.097 101.648 320.255 101.352 320.474 101.103C320.653 100.854 320.906 100.666 321.197 100.568C321.489 100.47 321.804 100.465 322.098 100.556C322.409 100.681 322.685 100.88 322.902 101.136C323.119 101.391 323.271 101.696 323.345 102.023C323.428 102.337 323.427 102.668 323.341 102.982C323.255 103.295 323.088 103.58 322.856 103.809C322.638 104.058 322.351 104.237 322.032 104.324C321.713 104.411 321.375 104.402 321.061 104.298C320.949 104.233 320.817 104.215 320.693 104.247C320.568 104.279 320.461 104.359 320.395 104.469C320.331 104.581 320.314 104.713 320.347 104.838C320.38 104.962 320.46 105.069 320.571 105.134C322.455 105.966 324.592 104.244 324.358 102.238C324.309 101.728 324.135 101.237 323.852 100.81C323.569 100.382 323.185 100.031 322.734 99.7876V99.7876Z" fill="black"/>
</g>
<defs>
<clipPath id="clip0">
<rect width="400" height="157" fill="white"/>
</clipPath>
</defs>
</svg>
