<svg width="59" height="59" viewBox="0 0 59 59" fill="none" xmlns="http://www.w3.org/2000/svg">
<path d="M26.3719 7.84668H12.4922C12.0132 7.84668 11.625 8.22508 11.625 8.69182C11.625 9.15856 12.0132 9.53696 12.4922 9.53696H26.3719C26.8509 9.53696 27.2391 9.15856 27.2391 8.69182C27.2391 8.22508 26.8508 7.84668 26.3719 7.84668Z" fill="#1A1449"/>
<path d="M26.3719 12.2686H12.4922C12.0132 12.2686 11.625 12.647 11.625 13.1137C11.625 13.5804 12.0132 13.9588 12.4922 13.9588H26.3719C26.8509 13.9588 27.2391 13.5804 27.2391 13.1137C27.2391 12.647 26.8508 12.2686 26.3719 12.2686Z" fill="#1A1449"/>
<path d="M39.2756 29.7817C35.2234 25.8325 28.6303 25.8325 24.578 29.7817C20.5261 33.7308 20.5261 40.1564 24.578 44.1056C26.6041 46.0801 29.2654 47.0674 31.9269 47.0674C34.5883 47.0674 37.2496 46.0802 39.2758 44.1056C41.2387 42.1926 42.3197 39.6491 42.3197 36.9437C42.3197 34.2382 41.2386 31.6947 39.2756 29.7817ZM38.0492 42.9104C36.3611 44.5556 34.1445 45.3781 31.9269 45.3778C29.7099 45.3776 27.4922 44.5551 25.8046 42.9104C22.4288 39.6203 22.4288 34.2669 25.8046 30.9768C27.44 29.383 29.6142 28.5053 31.9269 28.5053C34.2396 28.5053 36.4139 29.383 38.0492 30.9768C39.6847 32.5707 40.5853 34.6896 40.5853 36.9435C40.5853 39.1975 39.6846 41.3166 38.0492 42.9104Z" fill="#E0321C"/>
<path d="M40.5301 51.4863H9.14533C8.07858 51.4863 7.21093 50.6406 7.21093 49.6011V3.80207C7.21093 2.76255 8.07869 1.91685 9.14533 1.91685H34.4972V11.0501C34.4972 12.6536 35.8358 13.9583 37.4812 13.9583H46.8526V45.444C46.8526 45.9107 47.2408 46.2891 47.7198 46.2891C48.1988 46.2891 48.587 45.9107 48.587 45.444V13.1131C48.587 12.8889 48.4956 12.6739 48.3331 12.5155L35.9776 0.474133C35.8148 0.315584 35.5943 0.226562 35.3644 0.226562H9.14533C7.12236 0.226562 5.47656 1.83053 5.47656 3.80207V49.601C5.47656 51.5725 7.12236 53.1765 9.14533 53.1765H40.5301C41.0092 53.1765 41.3973 52.7981 41.3973 52.3313C41.3973 51.8646 41.009 51.4863 40.5301 51.4863ZM36.2316 11.0501V3.11199L45.6263 12.2679H37.4812C36.7922 12.2679 36.2316 11.7216 36.2316 11.0501Z" fill="#1A1449"/>
<path d="M52.816 53.387L46.6569 47.3845C45.8582 46.606 44.5854 46.5648 43.736 47.2604L41.9689 45.5381C46.5773 40.4289 46.3794 32.6147 41.3754 27.7377C36.1653 22.66 27.6879 22.66 22.4778 27.7377C17.2678 32.8155 17.2678 41.0772 22.4778 46.1548C25.0017 48.6145 28.3574 49.9692 31.9267 49.9692C35.2055 49.9692 38.3037 48.8262 40.7427 46.7336L42.5097 48.4556C41.7961 49.2832 41.8385 50.5238 42.637 51.3022L48.7962 57.3047C49.2048 57.703 49.748 57.9222 50.326 57.9222C50.9039 57.9222 51.4471 57.703 51.8558 57.3047L52.816 56.3689C53.2246 55.9706 53.4496 55.4412 53.4496 54.878C53.4496 54.3148 53.2246 53.7852 52.816 53.387ZM23.7043 44.9597C19.1704 40.5412 19.1704 33.3515 23.7043 28.9329C25.9711 26.7236 28.9488 25.6189 31.9266 25.6189C34.9044 25.6189 37.8821 26.7236 40.1489 28.9329C44.6827 33.3515 44.6827 40.5411 40.1489 44.9597C37.9527 47.1001 35.0326 48.279 31.9266 48.279C28.8206 48.279 25.9006 47.1001 23.7043 44.9597ZM51.5896 55.1735L50.6292 56.1095C50.5199 56.2161 50.3922 56.232 50.3259 56.232C50.2596 56.232 50.1318 56.2161 50.0225 56.1095L43.8633 50.1069C43.696 49.9439 43.696 49.6785 43.8633 49.5154L44.8235 48.5796C44.9072 48.498 45.0171 48.4573 45.127 48.4573C45.2369 48.4573 45.3468 48.4981 45.4304 48.5796L51.5896 54.5822C51.6988 54.6888 51.7153 54.8132 51.7153 54.8779C51.7153 54.9426 51.699 55.067 51.5896 55.1735Z" fill="#E0321C"/>
</svg>
