<svg width="59" height="59" viewBox="0 0 59 59" fill="none" xmlns="http://www.w3.org/2000/svg">
<path d="M30.0809 10.3142H16.0011C15.5432 10.3142 15.1719 10.6854 15.1719 11.1435C15.1719 11.6015 15.5432 11.9727 16.0011 11.9727H30.081C30.539 11.9727 30.9103 11.6015 30.9103 11.1435C30.9103 10.6854 30.5389 10.3142 30.0809 10.3142Z" fill="#1A1449"/>
<path d="M30.0809 14.9148H16.0011C15.5432 14.9148 15.1719 15.286 15.1719 15.7441C15.1719 16.2021 15.5432 16.5733 16.0011 16.5733H30.081C30.539 16.5733 30.9103 16.2021 30.9103 15.7441C30.9103 15.286 30.5389 14.9148 30.0809 14.9148Z" fill="#1A1449"/>
<path d="M53.9307 20.3078H10.1223C7.99626 20.3078 6.26654 22.0375 6.26654 24.1635V53.2891C6.26654 54.2354 5.49666 55.0053 4.55042 55.0053C3.60407 55.0053 2.8343 54.2354 2.8343 53.2891V13.8081C2.8343 12.5966 3.82001 11.611 5.0315 11.611H8.93819V17.2788C8.93819 17.7369 9.30947 18.108 9.76745 18.108C10.2254 18.108 10.5967 17.7369 10.5967 17.2788V6.05217C10.5967 4.9424 11.4997 4.03951 12.6095 4.03951H38.3774V13.5965C38.3774 15.2379 39.7127 16.5732 41.354 16.5732H50.911V17.2788C50.911 17.7369 51.2823 18.108 51.7403 18.108C52.1982 18.108 52.5695 17.7369 52.5695 17.2788V15.744C52.5695 15.5241 52.4822 15.3132 52.3266 15.1575L39.793 2.62391C39.6375 2.46845 39.4266 2.3811 39.2067 2.3811H12.6094C10.585 2.3811 8.93808 4.02801 8.93808 6.05228V9.95245H5.0315C2.9055 9.95245 1.17578 11.6821 1.17578 13.8081V53.2891C1.17578 55.1495 2.68912 56.6631 4.54998 56.6638H4.55053H53.9308C56.0568 56.6638 57.7866 54.934 57.7866 52.8082V24.1635C57.7864 22.0375 56.0567 20.3078 53.9307 20.3078ZM40.0358 13.5965V5.2123L49.7382 14.9147H41.3539C40.6272 14.9147 40.0358 14.3234 40.0358 13.5965ZM56.1279 52.8082C56.1279 54.0197 55.1422 55.0053 53.9307 55.0053H7.45536C7.75368 54.5022 7.92517 53.9154 7.92517 53.2891V24.1635C7.92517 22.952 8.91088 21.9663 10.1224 21.9663H53.9308C55.1423 21.9663 56.128 22.952 56.128 24.1635V52.8082H56.1279Z" fill="#1A1449"/>
<path d="M49.7545 25.948H37.4056C36.1674 25.948 35.1602 26.9553 35.1602 28.1934V31.1783C35.1602 32.4163 36.1674 33.4237 37.4056 33.4237H44.8378C45.2958 33.4237 45.6671 33.0525 45.6671 32.5944C45.6671 32.1364 45.2958 31.7652 44.8378 31.7652H37.4056C37.0819 31.7652 36.8187 31.5019 36.8187 31.1783V28.1934C36.8187 27.8698 37.0819 27.6065 37.4056 27.6065H49.7545C50.0782 27.6065 50.3414 27.8698 50.3414 28.1934V31.1783C50.3414 31.5019 50.0782 31.7652 49.7545 31.7652H48.6963C48.2383 31.7652 47.867 32.1364 47.867 32.5944C47.867 33.0525 48.2383 33.4237 48.6963 33.4237H49.7545C50.9927 33.4237 52 32.4164 52 31.1783V28.1934C52 26.9553 50.9926 25.948 49.7545 25.948Z" fill="#BF2B18"/>
</svg>
