<svg width="59" height="59" viewBox="0 0 59 59" fill="none" xmlns="http://www.w3.org/2000/svg">
<path d="M13.7444 26.6436H46.0868C46.5411 26.6436 46.9093 26.2755 46.9093 25.8211C46.9093 25.3667 46.5411 24.9985 46.0868 24.9985H13.7444C13.2902 24.9985 12.9219 25.3667 12.9219 25.8211C12.9219 26.2755 13.29 26.6436 13.7444 26.6436Z" fill="#1A1449"/>
<path d="M13.7444 34.0606H46.0868C46.5411 34.0606 46.9093 33.6924 46.9093 33.2381C46.9093 32.7837 46.5411 32.4155 46.0868 32.4155H13.7444C13.2902 32.4155 12.9219 32.7837 12.9219 33.2381C12.9219 33.6924 13.29 34.0606 13.7444 34.0606Z" fill="#1A1449"/>
<path d="M13.7444 41.4783H46.0868C46.5411 41.4783 46.9093 41.1102 46.9093 40.6558C46.9093 40.2014 46.5411 39.8333 46.0868 39.8333H13.7444C13.2902 39.8333 12.9219 40.2014 12.9219 40.6558C12.9219 41.1102 13.29 41.4783 13.7444 41.4783Z" fill="#1A1449"/>
<path d="M13.7444 48.8953H29.9155C30.3699 48.8953 30.738 48.5272 30.738 48.0728C30.738 47.6184 30.3699 47.2502 29.9155 47.2502H13.7444C13.2902 47.2502 12.9219 47.6184 12.9219 48.0728C12.9219 48.5272 13.29 48.8953 13.7444 48.8953Z" fill="#1A1449"/>
<path d="M51.9358 14.5183L39.1314 1.71399C38.9771 1.55979 38.768 1.47314 38.5498 1.47314H11.3784C9.32387 1.47314 7.65234 3.14456 7.65234 5.19917V11.2706C7.65234 11.7249 8.02063 12.0931 8.47489 12.0931C8.92916 12.0931 9.29744 11.7249 9.29744 11.2706V5.19917C9.29744 4.05177 10.231 3.11824 11.3784 3.11824H37.7273V12.9062C37.7273 14.5694 39.0804 15.9226 40.7436 15.9226H50.5316V43.4414C50.5316 43.8957 50.8998 44.2639 51.3542 44.2639C51.8085 44.2639 52.1767 43.8957 52.1767 43.4414V15.1C52.1767 14.8819 52.0901 14.6727 51.9358 14.5183ZM39.3724 12.9062V4.28143L49.3684 14.2775H40.7436C39.9874 14.2775 39.3724 13.6624 39.3724 12.9062Z" fill="#1A1449"/>
<path d="M51.3541 46.9324C50.8997 46.9324 50.5315 47.3006 50.5315 47.7549V53.8995C50.5315 55.0469 49.5981 55.9804 48.4507 55.9804H11.3783C10.2309 55.9804 9.29744 55.0469 9.29744 53.8995V15.5591C9.29744 15.1047 8.92916 14.7366 8.47489 14.7366C8.02063 14.7366 7.65234 15.1047 7.65234 15.5591V53.8996C7.65234 55.9541 9.32376 57.6256 11.3783 57.6256H48.4507C50.5051 57.6256 52.1766 55.9542 52.1766 53.8996V47.7549C52.1766 47.3006 51.8083 46.9324 51.3541 46.9324Z" fill="#1A1449"/>
<path d="M20.0229 19.8809C23.9384 19.8809 27.1239 16.6955 27.1239 12.7799C27.1239 8.86441 23.9384 5.67896 20.0229 5.67896C16.1074 5.67896 12.9219 8.86441 12.9219 12.7799C12.9219 16.6955 16.1074 19.8809 20.0229 19.8809ZM18.738 11.3984C18.738 10.6899 19.3144 10.1136 20.0229 10.1136C20.7314 10.1136 21.3077 10.6899 21.3077 11.3984C21.3077 12.1069 20.7314 12.6832 20.0229 12.6832C19.3145 12.6832 18.738 12.1069 18.738 11.3984ZM20.0229 14.3283C21.6415 14.3283 23.1527 15.1175 24.0843 16.4192C23.9461 16.5732 23.7995 16.7194 23.6448 16.8569C23.6401 16.8611 23.6354 16.8653 23.6308 16.8694C23.6266 16.8732 23.6223 16.8768 23.6182 16.8805C22.6409 17.7351 21.3767 18.2266 20.0603 18.2357C20.0595 18.2357 20.0587 18.2357 20.058 18.2357C20.0462 18.2357 20.0346 18.2358 20.0229 18.2358C20.0111 18.2358 19.9995 18.2359 19.9878 18.2357C19.987 18.2357 19.9862 18.2357 19.9855 18.2357C18.6698 18.2266 17.4064 17.7356 16.4292 16.8819C16.424 16.8773 16.4186 16.8726 16.4133 16.868C16.4095 16.8646 16.4056 16.8612 16.4017 16.8578C16.2468 16.7201 16.0999 16.5736 15.9615 16.4194C16.893 15.1175 18.4042 14.3283 20.0229 14.3283ZM20.0229 7.32405C23.0313 7.32405 25.4788 9.77151 25.4788 12.7799C25.4788 13.5544 25.3166 14.2916 25.0244 14.9596C24.3069 14.1379 23.4002 13.5083 22.391 13.1217C22.7442 12.6377 22.9528 12.0421 22.9528 11.3984C22.9528 9.78292 21.6385 8.46849 20.0229 8.46849C18.4074 8.46849 17.093 9.78281 17.093 11.3984C17.093 12.042 17.3016 12.6377 17.6547 13.1217C16.6456 13.5083 15.7389 14.1378 15.0215 14.9595C14.7293 14.2916 14.5671 13.5544 14.5671 12.7799C14.5671 9.77151 17.0145 7.32405 20.0229 7.32405Z" fill="#BF2B18"/>
</svg>
