<svg width="51" height="51" viewBox="0 0 51 51" fill="none" xmlns="http://www.w3.org/2000/svg">
<mask id="mask0" mask-type="alpha" maskUnits="userSpaceOnUse" x="0" y="0" width="51" height="51">
<path fill-rule="evenodd" clip-rule="evenodd" d="M1.10938 25.1064C1.10938 11.5754 12.1093 0.606445 25.6783 0.606445C39.2473 0.606445 50.2472 11.5754 50.2472 25.1064C50.2472 38.6373 39.2473 49.6064 25.6783 49.6064C12.1093 49.6064 1.10938 38.6373 1.10938 25.1064Z" fill="white" stroke="white"/>
</mask>
<g mask="url(#mask0)">
<path fill-rule="evenodd" clip-rule="evenodd" d="M1.10938 25.1064C1.10938 11.5754 12.1093 0.606445 25.6783 0.606445C39.2473 0.606445 50.2472 11.5754 50.2472 25.1064C50.2472 38.6373 39.2473 49.6064 25.6783 49.6064C12.1093 49.6064 1.10938 38.6373 1.10938 25.1064Z" fill="#1A1449" stroke="black"/>
<path fill-rule="evenodd" clip-rule="evenodd" d="M25.675 12.04C22.1163 12.04 21.6697 12.0556 20.272 12.119C18.877 12.1827 17.9248 12.4029 17.0916 12.726C16.2298 13.0598 15.4987 13.5062 14.7704 14.2328C14.0415 14.9591 13.5938 15.6881 13.258 16.5473C12.9331 17.3784 12.712 18.3282 12.6492 19.7187C12.5867 21.1125 12.5703 21.5581 12.5703 25.1068C12.5703 28.6555 12.5861 29.0995 12.6495 30.4933C12.7136 31.8844 12.9345 32.8339 13.2583 33.6647C13.5932 34.5242 14.0409 35.2532 14.7695 35.9795C15.4976 36.7063 16.2287 37.1538 17.09 37.4876C17.9237 37.8107 18.8762 38.0309 20.2709 38.0946C21.6686 38.1581 22.115 38.1736 25.6734 38.1736C29.2324 38.1736 29.6777 38.1581 31.0754 38.0946C32.4704 38.0309 33.4237 37.8107 34.2574 37.4876C35.1189 37.1538 35.8489 36.7063 36.577 35.9795C37.3059 35.2532 37.7536 34.5241 38.0894 33.665C38.4115 32.8339 38.6326 31.8841 38.6982 30.4936C38.7609 29.0998 38.7773 28.6555 38.7773 25.1068C38.7773 21.5581 38.7609 21.1127 38.6982 19.7189C38.6326 18.3279 38.4115 17.3784 38.0894 16.5475C37.7536 15.6881 37.3059 14.9591 36.577 14.2328C35.8481 13.506 35.1192 13.0595 34.2566 12.726C33.4212 12.4029 32.4685 12.1827 31.0735 12.119C29.6758 12.0556 29.2308 12.04 25.671 12.04H25.675ZM24.5003 14.3939C24.8492 14.3933 25.2385 14.3939 25.6758 14.3939C29.1744 14.3939 29.5891 14.4064 30.9707 14.469C32.2483 14.5273 32.9417 14.7402 33.4036 14.919C34.0151 15.1558 34.4511 15.439 34.9094 15.8963C35.3681 16.3536 35.652 16.7892 35.89 17.399C36.0694 17.859 36.2831 18.5505 36.3413 19.8245C36.4041 21.202 36.4177 21.6157 36.4177 25.1029C36.4177 28.5901 36.4041 29.0039 36.3413 30.3814C36.2828 31.6554 36.0694 32.3468 35.89 32.8069C35.6525 33.4167 35.3681 33.8509 34.9094 34.3079C34.4508 34.7653 34.0154 35.0484 33.4036 35.2852C32.9423 35.4649 32.2483 35.6772 30.9707 35.7355C29.5894 35.7981 29.1744 35.8117 25.6758 35.8117C22.1769 35.8117 21.7622 35.7981 20.3809 35.7355C19.1033 35.6767 18.4099 35.4638 17.9477 35.285C17.3362 35.0481 16.8994 34.765 16.4408 34.3077C15.9822 33.8503 15.6982 33.4159 15.4602 32.8058C15.2808 32.3457 15.0671 31.6543 15.0089 30.3803C14.9462 29.0028 14.9336 28.589 14.9336 25.0997C14.9336 21.6103 14.9462 21.1987 15.0089 19.8212C15.0674 18.5472 15.2808 17.8558 15.4602 17.3952C15.6977 16.7854 15.9822 16.3498 16.4408 15.8925C16.8994 15.4352 17.3362 15.152 17.9477 14.9147C18.4096 14.735 19.1033 14.5227 20.3809 14.4641C21.5897 14.4097 22.0581 14.3933 24.5003 14.3906V14.3939ZM32.671 16.564C31.8029 16.564 31.0986 17.2655 31.0986 18.1315C31.0986 18.9972 31.8029 19.6995 32.671 19.6995C33.5391 19.6995 34.2435 18.9972 34.2435 18.1315C34.2435 17.2658 33.5391 16.5635 32.671 16.5635V16.564ZM25.6784 18.3965C21.9622 18.3965 18.9492 21.401 18.9492 25.1068C18.9492 28.8126 21.9622 31.8158 25.6784 31.8158C29.3947 31.8158 32.4066 28.8126 32.4066 25.1068C32.4066 21.401 29.3944 18.3965 25.6782 18.3965H25.6784ZM25.6773 20.7505C28.0894 20.7505 30.0451 22.7004 30.0451 25.1061C30.0451 27.5115 28.0894 29.4617 25.6773 29.4617C23.2648 29.4617 21.3094 27.5115 21.3094 25.1061C21.3094 22.7004 23.2648 20.7505 25.6773 20.7505Z" fill="white"/>
<path d="M20.272 12.119L20.2493 11.6195L20.2492 11.6195L20.272 12.119ZM17.0916 12.726L17.2722 13.1923L17.2724 13.1922L17.0916 12.726ZM14.7704 14.2328L15.1233 14.587L15.1235 14.5868L14.7704 14.2328ZM13.258 16.5473L13.7237 16.7293L13.7237 16.7293L13.258 16.5473ZM12.6492 19.7187L12.1497 19.6961L12.1497 19.6963L12.6492 19.7187ZM12.6495 30.4933L12.15 30.516L12.15 30.5164L12.6495 30.4933ZM13.2583 33.6647L12.7924 33.8463L12.7924 33.8463L13.2583 33.6647ZM14.7695 35.9795L15.1228 35.6256L15.1225 35.6253L14.7695 35.9795ZM17.09 37.4876L17.2707 37.0214L17.2706 37.0214L17.09 37.4876ZM20.2709 38.0946L20.2481 38.5941L20.2482 38.5941L20.2709 38.0946ZM31.0754 38.0946L31.0981 38.5941L31.0982 38.5941L31.0754 38.0946ZM34.2574 37.4876L34.0768 37.0213L34.0767 37.0214L34.2574 37.4876ZM36.577 35.9795L36.2241 35.6253L36.2237 35.6256L36.577 35.9795ZM38.0894 33.665L38.5551 33.847L38.5556 33.8457L38.0894 33.665ZM38.6982 30.4936L39.1976 30.5171L39.1976 30.5161L38.6982 30.4936ZM38.6982 19.7189L39.1976 19.6964L39.1976 19.6954L38.6982 19.7189ZM38.0894 16.5475L38.5556 16.3668L38.5551 16.3656L38.0894 16.5475ZM36.577 14.2328L36.2239 14.5869L36.2241 14.587L36.577 14.2328ZM34.2566 12.726L34.0762 13.1924L34.0763 13.1924L34.2566 12.726ZM31.0735 12.119L31.0963 11.6195L31.0961 11.6195L31.0735 12.119ZM24.5003 14.3939H24.0003V14.8947L24.5011 14.8939L24.5003 14.3939ZM30.9707 14.469L30.9935 13.9695L30.9934 13.9695L30.9707 14.469ZM33.4036 14.919L33.5842 14.4528L33.5842 14.4527L33.4036 14.919ZM34.9094 15.8963L34.5563 16.2502L34.5564 16.2503L34.9094 15.8963ZM35.89 17.399L36.3559 17.2174L36.3558 17.2172L35.89 17.399ZM36.3413 19.8245L36.8407 19.8017L36.8407 19.8017L36.3413 19.8245ZM36.3413 30.3814L36.8407 30.4043L36.8407 30.4041L36.3413 30.3814ZM35.89 32.8069L35.4242 32.6253L35.4241 32.6254L35.89 32.8069ZM34.9094 34.3079L34.5565 33.9538L34.5564 33.9539L34.9094 34.3079ZM33.4036 35.2852L33.2231 34.8189L33.2222 34.8193L33.4036 35.2852ZM30.9707 35.7355L30.9934 36.235L30.9935 36.235L30.9707 35.7355ZM20.3809 35.7355L20.3579 36.235L20.3582 36.235L20.3809 35.7355ZM17.9477 35.285L17.7671 35.7512L17.7672 35.7513L17.9477 35.285ZM16.4408 34.3077L16.0877 34.6617H16.0877L16.4408 34.3077ZM15.4602 32.8058L14.9943 32.9874L14.9944 32.9876L15.4602 32.8058ZM15.0089 30.3803L14.5095 30.403L14.5095 30.4031L15.0089 30.3803ZM15.0089 19.8212L14.5095 19.7983L14.5095 19.7985L15.0089 19.8212ZM15.4602 17.3952L14.9943 17.2137L14.9943 17.2137L15.4602 17.3952ZM16.4408 15.8925L16.0877 15.5384L16.4408 15.8925ZM17.9477 14.9147L18.1286 15.3808L18.1289 15.3806L17.9477 14.9147ZM20.3809 14.4641L20.3584 13.9646L20.358 13.9646L20.3809 14.4641ZM24.5003 14.3906H25.0003V13.8901L24.4997 13.8906L24.5003 14.3906ZM32.671 16.564V17.064H33.171V16.564H32.671ZM32.671 16.5635V16.0635H32.171V16.5635H32.671ZM25.675 11.54C22.1137 11.54 21.6583 11.5556 20.2493 11.6195L20.2946 12.6185C21.6811 12.5556 22.1189 12.54 25.675 12.54V11.54ZM20.2492 11.6195C18.8072 11.6854 17.8007 11.9147 16.9108 12.2599L17.2724 13.1922C18.0488 12.8911 18.9468 12.68 20.2948 12.6185L20.2492 11.6195ZM16.9111 12.2598C15.9894 12.6167 15.1983 13.0997 14.4172 13.8788L15.1235 14.5868C15.7991 13.9128 16.4701 13.5029 17.2722 13.1923L16.9111 12.2598ZM14.4174 13.8786C13.6358 14.6575 13.1514 15.4465 12.7923 16.3653L13.7237 16.7293C14.0362 15.9297 14.4472 15.2607 15.1233 14.587L14.4174 13.8786ZM12.7923 16.3652C12.4451 17.2535 12.2147 18.258 12.1497 19.6961L13.1487 19.7412C13.2093 18.3983 13.4211 17.5032 13.7237 16.7293L12.7923 16.3652ZM12.1497 19.6963C12.0867 21.101 12.0703 21.5552 12.0703 25.1068H13.0703C13.0703 21.561 13.0867 21.1239 13.1487 19.7411L12.1497 19.6963ZM12.0703 25.1068C12.0703 28.6582 12.0862 29.111 12.15 30.516L13.149 30.4706C13.0861 29.0881 13.0703 28.6528 13.0703 25.1068H12.0703ZM12.15 30.5164C12.2163 31.9547 12.4464 32.9586 12.7924 33.8463L13.7241 33.4832C13.4225 32.7092 13.2109 31.8141 13.1489 30.4703L12.15 30.5164ZM12.7924 33.8463C13.1507 34.7656 13.6352 35.5547 14.4166 36.3336L15.1225 35.6253C14.4466 34.9516 14.0357 34.2827 13.7241 33.4832L12.7924 33.8463ZM14.4163 36.3333C15.1969 37.1126 15.988 37.5968 16.9093 37.9538L17.2706 37.0214C16.4694 36.7109 15.7984 36.3 15.1228 35.6256L14.4163 36.3333ZM16.9093 37.9538C17.7997 38.2989 18.8063 38.5283 20.2481 38.5941L20.2937 37.5952C18.946 37.5336 18.0477 37.3225 17.2707 37.0214L16.9093 37.9538ZM20.2482 38.5941C21.6572 38.6581 22.1124 38.6736 25.6734 38.6736V37.6736C22.1175 37.6736 21.68 37.6581 20.2936 37.5952L20.2482 38.5941ZM25.6734 38.6736C29.235 38.6736 29.6891 38.6581 31.0981 38.5941L31.0527 37.5952C29.6663 37.6581 29.2298 37.6736 25.6734 37.6736V38.6736ZM31.0982 38.5941C32.5401 38.5283 33.5476 38.2989 34.4381 37.9538L34.0767 37.0214C33.2997 37.3225 32.4006 37.5336 31.0526 37.5952L31.0982 38.5941ZM34.438 37.9538C35.3599 37.5967 36.1498 37.1124 36.9303 36.3333L36.2237 35.6256C35.548 36.3002 34.878 36.711 34.0768 37.0213L34.438 37.9538ZM36.9299 36.3336C37.7116 35.5548 38.196 34.7658 38.5551 33.847L37.6237 33.483C37.3112 34.2825 36.9002 34.9516 36.2241 35.6253L36.9299 36.3336ZM38.5556 33.8457C38.8995 32.9584 39.1299 31.9547 39.1976 30.5171L38.1987 30.4701C38.1354 31.8135 37.9235 32.7094 37.6232 33.4843L38.5556 33.8457ZM39.1976 30.5161C39.2609 29.1113 39.2773 28.6584 39.2773 25.1068H38.2773C38.2773 28.6527 38.261 29.0883 38.1987 30.4711L39.1976 30.5161ZM39.2773 25.1068C39.2773 21.5552 39.2609 21.1013 39.1976 19.6964L38.1987 19.7414C38.261 21.1242 38.2773 21.561 38.2773 25.1068H39.2773ZM39.1976 19.6954C39.1299 18.2573 38.8995 17.2538 38.5556 16.3668L37.6232 16.7283C37.9235 17.5029 38.1354 18.3985 38.1987 19.7425L39.1976 19.6954ZM38.5551 16.3656C38.196 15.4465 37.7116 14.6575 36.9299 13.8786L36.2241 14.587C36.9002 15.2607 37.3112 15.9297 37.6237 16.7295L38.5551 16.3656ZM36.9301 13.8788C36.1488 13.0997 35.3599 12.6165 34.4368 12.2597L34.0763 13.1924C34.8785 13.5025 35.5474 13.9122 36.2239 14.5869L36.9301 13.8788ZM34.437 12.2597C33.5451 11.9147 32.5383 11.6854 31.0963 11.6195L31.0507 12.6185C32.3986 12.68 33.2973 12.8911 34.0762 13.1924L34.437 12.2597ZM31.0961 11.6195C29.6871 11.5556 29.2334 11.54 25.671 11.54V12.54C29.2282 12.54 29.6644 12.5556 31.0508 12.6185L31.0961 11.6195ZM25.671 12.54H25.675V11.54H25.671V12.54ZM24.5011 14.8939C24.8495 14.8933 25.2374 14.8939 25.6758 14.8939V13.8939C25.2395 13.8939 24.8489 13.8933 24.4995 13.8939L24.5011 14.8939ZM25.6758 14.8939C29.1725 14.8939 29.5781 14.9064 30.9481 14.9685L30.9934 13.9695C29.6001 13.9064 29.1763 13.8939 25.6758 13.8939V14.8939ZM30.9479 14.9685C32.1705 15.0243 32.8107 15.2256 33.2231 15.3853L33.5842 14.4527C33.0727 14.2547 32.3261 14.0303 30.9935 13.9695L30.9479 14.9685ZM33.223 15.3853C33.7706 15.5973 34.1476 15.8425 34.5563 16.2502L35.2626 15.5424C34.7546 15.0355 34.2596 14.7144 33.5842 14.4528L33.223 15.3853ZM34.5564 16.2503C34.9652 16.658 35.2111 17.0347 35.4242 17.5808L36.3558 17.2172C36.0929 16.5437 35.7709 16.0492 35.2625 15.5422L34.5564 16.2503ZM35.4242 17.5806C35.5841 17.9909 35.7862 18.6287 35.8418 19.8473L36.8407 19.8017C36.7801 18.4722 36.5546 17.7272 36.3559 17.2174L35.4242 17.5806ZM35.8418 19.8473C35.904 21.2132 35.9177 21.618 35.9177 25.1029H36.9177C36.9177 21.6135 36.9041 21.1907 36.8407 19.8017L35.8418 19.8473ZM35.9177 25.1029C35.9177 28.5879 35.904 28.9927 35.8418 30.3586L36.8407 30.4041C36.9041 29.0152 36.9177 28.5924 36.9177 25.1029H35.9177ZM35.8418 30.3585C35.7859 31.5772 35.5841 32.2151 35.4242 32.6253L36.3559 32.9885C36.5547 32.4786 36.7798 31.7336 36.8407 30.4043L35.8418 30.3585ZM35.4241 32.6254C35.2118 33.1706 34.9657 33.5459 34.5565 33.9538L35.2624 34.6621C35.7704 34.1558 36.0933 33.6627 36.3559 32.9884L35.4241 32.6254ZM34.5564 33.9539C34.1472 34.3619 33.7707 34.6069 33.2231 34.8189L33.5841 35.7515C34.2601 35.4898 34.7544 35.1687 35.2625 34.662L34.5564 33.9539ZM33.2222 34.8193C32.8113 34.9793 32.1709 35.1802 30.9479 35.236L30.9935 36.235C32.3257 36.1742 33.0732 35.9505 33.5851 35.7511L33.2222 34.8193ZM30.9481 35.236C29.5782 35.2981 29.1722 35.3117 25.6758 35.3117V36.3117C29.1767 36.3117 29.6006 36.2981 30.9934 36.235L30.9481 35.236ZM25.6758 35.3117C22.1791 35.3117 21.7734 35.2981 20.4035 35.236L20.3582 36.235C21.751 36.2981 22.1746 36.3117 25.6758 36.3117V35.3117ZM20.4038 35.236C19.1812 35.1797 18.5409 34.9784 18.1281 34.8186L17.7672 35.7513C18.2788 35.9492 19.0253 36.1736 20.3579 36.235L20.4038 35.236ZM18.1283 34.8187C17.5805 34.6065 17.2027 34.3613 16.7938 33.9536L16.0877 34.6617C16.5961 35.1687 17.0919 35.4897 17.7671 35.7512L18.1283 34.8187ZM16.7938 33.9536C16.3848 33.5457 16.139 33.17 15.926 32.624L14.9944 32.9876C15.2574 33.6617 15.5795 34.1549 16.0877 34.6617L16.7938 33.9536ZM15.926 32.6242C15.7661 32.2139 15.564 31.576 15.5084 30.3575L14.5095 30.4031C14.5701 31.7325 14.7956 32.4776 14.9943 32.9874L15.926 32.6242ZM15.5084 30.3575C15.4462 28.9917 15.4336 28.5871 15.4336 25.0997H14.4336C14.4336 28.591 14.4461 29.0139 14.5095 30.403L15.5084 30.3575ZM15.4336 25.0997C15.4336 21.6122 15.4462 21.2098 15.5084 19.844L14.5095 19.7985C14.4461 21.1876 14.4336 21.6084 14.4336 25.0997H15.4336ZM15.5084 19.8441C15.5643 18.6254 15.7661 17.9875 15.9261 17.5766L14.9943 17.2137C14.7956 17.7241 14.5704 18.469 14.5095 19.7983L15.5084 19.8441ZM15.9261 17.5766C16.1386 17.0311 16.3848 16.6544 16.7938 16.2465L16.0877 15.5384C15.5795 16.0452 15.2568 16.5397 14.9943 17.2137L15.9261 17.5766ZM16.7938 16.2465C17.2027 15.8389 17.5806 15.5935 18.1286 15.3808L17.7667 14.4485C17.0918 14.7106 16.5961 15.0314 16.0877 15.5384L16.7938 16.2465ZM18.1289 15.3806C18.5406 15.2205 19.1808 15.0196 20.4037 14.9636L20.358 13.9646C19.0258 14.0257 18.2786 14.2494 17.7664 14.4487L18.1289 15.3806ZM20.4034 14.9636C21.6027 14.9096 22.0635 14.8933 24.5008 14.8906L24.4997 13.8906C22.0527 13.8934 21.5766 13.9098 20.3584 13.9646L20.4034 14.9636ZM24.0003 14.3906V14.3939H25.0003V14.3906H24.0003ZM32.671 16.064C31.5284 16.064 30.5986 16.9878 30.5986 18.1315H31.5986C31.5986 17.5433 32.0774 17.064 32.671 17.064V16.064ZM30.5986 18.1315C30.5986 19.2746 31.5281 20.1995 32.671 20.1995V19.1995C32.0777 19.1995 31.5986 18.7197 31.5986 18.1315H30.5986ZM32.671 20.1995C33.814 20.1995 34.7435 19.2746 34.7435 18.1315H33.7435C33.7435 18.7197 33.2643 19.1995 32.671 19.1995V20.1995ZM34.7435 18.1315C34.7435 16.9883 33.814 16.0635 32.671 16.0635V17.0635C33.2643 17.0635 33.7435 17.5433 33.7435 18.1315H34.7435ZM32.171 16.5635V16.564H33.171V16.5635H32.171ZM25.6784 17.8965C21.6874 17.8965 18.4492 21.1236 18.4492 25.1068H19.4492C19.4492 21.6785 22.237 18.8965 25.6784 18.8965V17.8965ZM18.4492 25.1068C18.4492 29.0902 21.6875 32.3158 25.6784 32.3158V31.3158C22.2369 31.3158 19.4492 28.535 19.4492 25.1068H18.4492ZM25.6784 32.3158C29.6695 32.3158 32.9066 29.0901 32.9066 25.1068H31.9066C31.9066 28.5351 29.1199 31.3158 25.6784 31.3158V32.3158ZM32.9066 25.1068C32.9066 21.1236 29.6693 17.8965 25.6782 17.8965V18.8965C29.1195 18.8965 31.9066 21.6784 31.9066 25.1068H32.9066ZM25.6782 18.8965H25.6784V17.8965H25.6782V18.8965ZM25.6773 21.2505C27.8146 21.2505 29.5451 22.9779 29.5451 25.1061H30.5451C30.5451 22.4229 28.3642 20.2505 25.6773 20.2505V21.2505ZM29.5451 25.1061C29.5451 27.234 27.8146 28.9617 25.6773 28.9617V29.9617C28.3642 29.9617 30.5451 27.7889 30.5451 25.1061H29.5451ZM25.6773 28.9617C23.5397 28.9617 21.8094 27.234 21.8094 25.1061H20.8094C20.8094 27.7889 22.99 29.9617 25.6773 29.9617V28.9617ZM21.8094 25.1061C21.8094 22.9779 23.5396 21.2505 25.6773 21.2505V20.2505C22.99 20.2505 20.8094 22.423 20.8094 25.1061H21.8094Z" fill="black"/>
</g>
</svg>
