<svg width="554" height="517" viewBox="0 0 554 517" fill="none" xmlns="http://www.w3.org/2000/svg">
<path fill-rule="evenodd" clip-rule="evenodd" d="M537.215 0C549.149 2.06678e-06 557.263 12.1155 552.721 23.1531L376.047 452.543C360.012 491.515 322.043 516.952 279.908 516.952L224.972 516.952C193.483 516.952 165.073 498.043 152.913 468.993L1.31836 106.838C-3.30715 95.7881 4.80805 83.5908 16.7855 83.5908L137.942 83.5909C144.624 83.5909 150.667 87.5579 153.326 93.6884L249.308 315.019C250.912 318.718 249.214 323.017 245.516 324.622C241.818 326.226 237.519 324.528 235.915 320.829L139.933 99.4981C139.589 98.7048 138.807 98.1914 137.942 98.1914L16.7855 98.1913C15.2355 98.1912 14.1853 99.7697 14.7839 101.2L166.378 463.354C176.266 486.976 199.367 502.351 224.972 502.351H279.908C316.127 502.351 348.764 480.486 362.547 446.987L539.222 17.5968C539.809 16.1684 538.759 14.6005 537.215 14.6005L406.167 14.6005C405.273 14.6005 404.471 15.1481 404.146 15.9802L240.137 435.322C233.963 451.108 245.602 468.162 262.55 468.162L279.469 468.162C303.929 468.162 325.955 453.351 335.187 430.696L399.926 271.824C401.447 268.091 405.707 266.297 409.44 267.819C413.173 269.341 414.966 273.601 413.444 277.335L348.705 436.207C337.234 464.359 309.864 482.763 279.469 482.762H262.55C235.322 482.762 216.623 455.364 226.542 430.003L390.551 10.6613C393.066 4.23137 399.263 1.75676e-05 406.167 2.17012e-05L537.215 0Z" fill="#D10707"/>
</svg>
