<svg width="193" height="52" viewBox="0 0 193 52" fill="none" xmlns="http://www.w3.org/2000/svg">
<g id="Group 1">
<path id="Vector 56 (Stroke)" fill-rule="evenodd" clip-rule="evenodd" d="M53.7048 0.448242C54.8793 0.448242 55.6779 1.64044 55.2309 2.72659L37.8426 44.98C36.2645 48.8149 32.5276 51.318 28.3806 51.318L22.9738 51.318C19.8747 51.318 17.0786 49.4574 15.8818 46.5987L0.961785 10.9615C0.506541 9.87411 1.30524 8.67386 2.48406 8.67386L14.4084 8.67387C15.0659 8.67387 15.6607 9.06423 15.9224 9.66749L25.3689 31.4472C25.5268 31.8112 25.3597 32.2342 24.9957 32.3921C24.6318 32.55 24.2087 32.3829 24.0508 32.0189L14.6043 10.2392C14.5704 10.1611 14.4934 10.1106 14.4084 10.1106L2.48406 10.1106C2.33151 10.1106 2.22815 10.2659 2.28706 10.4066L17.207 46.0439C18.1802 48.3683 20.4538 49.8813 22.9738 49.8813H28.3806C31.9453 49.8813 35.1574 47.7297 36.514 44.4332L53.9023 2.17982C53.9602 2.03927 53.8568 1.88498 53.7048 1.88498L40.807 1.88498C40.7191 1.88498 40.6401 1.93887 40.6081 2.02075L24.4663 43.2854C23.8587 44.8388 25.0042 46.517 26.6722 46.517L28.3374 46.517C30.7448 46.517 32.9126 45.0596 33.8212 42.8302L40.1928 27.1967C40.3425 26.8293 40.7617 26.6528 41.1292 26.8025C41.4966 26.9523 41.673 27.3715 41.5233 27.7389L35.1517 43.3725C34.0226 46.1427 31.3289 47.9537 28.3374 47.9537H26.6722C23.9924 47.9537 22.1521 45.2576 23.1283 42.762L39.2701 1.49735C39.5176 0.864623 40.1276 0.448244 40.807 0.448244L53.7048 0.448242Z" fill="#BF2B18"/>
<path id="Rectangle 72" d="M112.242 30.5049H114.278V43.0963H112.242V30.5049Z" fill="white"/>
<path id="Rectangle 73" d="M112.242 44.2278H114.278V46.1127H112.242V44.2278Z" fill="#BF2B18"/>
<path id="Vector" d="M63.1685 46.0621H55.3242V30.4626H62.7228C63.9708 30.4626 65.0256 30.8563 65.8873 31.6437C66.749 32.4163 67.1798 33.382 67.1798 34.5408C67.1798 35.9522 66.593 37.0441 65.4193 37.8167C66.1918 38.1732 66.801 38.7006 67.2467 39.3989C67.7072 40.0823 67.9375 40.8474 67.9375 41.6943C67.9375 42.9274 67.4769 43.9673 66.5558 44.8141C65.6347 45.6461 64.5056 46.0621 63.1685 46.0621ZM63.1685 38.8864H57.3299V44.1902H63.1685C63.9262 44.1902 64.5576 43.9376 65.0627 43.4325C65.5827 42.9274 65.8427 42.2959 65.8427 41.5383C65.8427 40.8103 65.5827 40.1863 65.0627 39.6663C64.5428 39.1463 63.9113 38.8864 63.1685 38.8864ZM62.7228 32.3346H57.3299V37.0144H62.7228C63.4062 37.0144 63.9708 36.7916 64.4165 36.3459C64.877 35.9002 65.1073 35.343 65.1073 34.6745C65.1073 34.006 64.877 33.4488 64.4165 33.0031C63.9708 32.5574 63.4062 32.3346 62.7228 32.3346Z" fill="white"/>
<path id="Vector_2" d="M70.957 30.4626H82.1886V32.3346H72.9627V37.2373H81.0521V39.1092H72.9627V44.1902H82.3001V46.0621H70.957V30.4626Z" fill="white"/>
<path id="Vector_3" d="M125.097 46.1368H116.918V30.5374H124.651C126.122 30.5374 127.362 30.9608 128.372 31.8076C129.368 32.6544 129.866 33.7167 129.866 34.9943C129.866 36.1829 129.42 37.1931 128.528 38.0251C129.791 38.8868 130.423 40.0679 130.423 41.5684C130.423 42.8906 129.91 43.9826 128.885 44.8443C127.89 45.706 126.627 46.1368 125.097 46.1368ZM125.03 39.9416H120.996V42.3929H125.03C125.357 42.3929 125.631 42.2741 125.854 42.0364C126.077 41.7987 126.189 41.509 126.189 41.1673C126.189 40.8256 126.077 40.5359 125.854 40.2982C125.631 40.0604 125.357 39.9416 125.03 39.9416ZM124.584 34.2812H120.996V36.5097H124.584C124.837 36.5097 125.059 36.428 125.253 36.2646C125.446 36.1012 125.565 35.8857 125.609 35.6183C125.624 35.5886 125.631 35.5143 125.631 35.3955C125.631 35.0686 125.527 34.8012 125.319 34.5932C125.126 34.3852 124.881 34.2812 124.584 34.2812Z" fill="white"/>
<path id="Vector_4" d="M132.113 30.5374H143.902V34.2812H136.191V36.3983H142.587V40.1422H136.191V42.3929H144.013V46.1368H132.113V30.5374Z" fill="white"/>
<path id="Vector_5" d="M149.602 41.4124V46.1368H145.523V30.5374H152.699C154.393 30.5374 155.789 31.0573 156.889 32.0973C158.003 33.1224 158.56 34.4075 158.56 35.9526C158.56 37.5125 157.996 38.8125 156.866 39.8525C155.767 40.8924 154.378 41.4124 152.699 41.4124H149.602ZM152.699 34.2812H149.602V37.6685H152.699C153.16 37.6685 153.546 37.5051 153.858 37.1783C154.17 36.8514 154.326 36.4429 154.326 35.9526C154.326 35.4772 154.17 35.0835 153.858 34.7715C153.546 34.4446 153.16 34.2812 152.699 34.2812Z" fill="white"/>
<path id="Vector_6" d="M164.102 46.1368H160.023V30.5374H164.102V36.3983H169.963V30.5374H174.041V46.1368H169.963V40.1422H164.102V46.1368Z" fill="white"/>
<path id="Vector_7" d="M178.015 32.5874C179.604 31.0423 181.565 30.2698 183.898 30.2698C186.23 30.2698 188.191 31.0423 189.781 32.5874C191.356 34.1176 192.143 36.0341 192.143 38.3369C192.143 40.6397 191.356 42.5562 189.781 44.0864C188.191 45.6315 186.23 46.4041 183.898 46.4041C181.565 46.4041 179.604 45.6315 178.015 44.0864C176.44 42.5562 175.652 40.6397 175.652 38.3369C175.652 36.0341 176.44 34.1176 178.015 32.5874ZM179.909 38.3146C179.909 39.5032 180.288 40.4986 181.045 41.3008C181.833 42.0882 182.784 42.4819 183.898 42.4819C185.042 42.4819 185.993 42.0808 186.75 41.2785C187.523 40.4911 187.909 39.5032 187.909 38.3146C187.909 37.1261 187.523 36.1456 186.75 35.373C185.978 34.5708 185.027 34.1696 183.898 34.1696C182.769 34.1696 181.818 34.5708 181.045 35.373C180.288 36.1604 179.909 37.141 179.909 38.3146Z" fill="white"/>
<path id="Subtract" d="M111.498 31.4097C111.498 31.3195 111.384 31.2801 111.328 31.351C111.328 31.351 106.875 37.1078 105.416 38.9173C103.958 40.7269 103.166 42.0407 103.166 42.0407V36.2756V30.5049H101.16V46.1043H102.988L111.498 34.6364V31.4097Z" fill="white"/>
<path id="Vector 59 (Stroke)" fill-rule="evenodd" clip-rule="evenodd" d="M90.469 32.3902C90.469 32.3903 90.469 32.3904 90.4689 32.3906C90.1889 34.1262 89.6698 37.2399 89.1478 39.5628C88.6825 41.6335 88.0689 43.2966 87.6238 44.303H95.9933V32.3901H90.4697C90.4694 32.3901 90.4692 32.3902 90.469 32.3902C90.469 32.3901 90.469 32.3902 90.469 32.3902ZM97.8029 44.303V30.5806H90.4697C89.5811 30.5806 88.8241 31.2247 88.6825 32.1023C88.402 33.8408 87.8907 36.9038 87.3823 39.166C86.7954 41.7778 85.9685 43.6492 85.6624 44.2068L85.6096 44.303H83.9297V46.1125H99.3108V44.303H97.8029Z" fill="white"/>
</g>
</svg>
