<svg width="335" height="40" viewBox="0 0 335 40" fill="none" xmlns="http://www.w3.org/2000/svg">
<path d="M139.359 0.576172H144.344V31.407H139.359V0.576172Z" fill="black"/>
<path d="M139.359 34.1755H144.344V38.7909H139.359V34.1755Z" fill="#D10707"/>
<path d="M19.2072 38.6675H0V0.471436H18.1159C21.1716 0.471436 23.7543 1.43543 25.8642 3.36343C27.9741 5.25504 29.029 7.61957 29.029 10.457C29.029 13.9128 27.5921 16.5866 24.7183 18.4782C26.61 19.3512 28.1014 20.6426 29.1927 22.3523C30.3204 24.0257 30.8843 25.8991 30.8843 27.9726C30.8843 30.9919 29.7566 33.5383 27.5012 35.6119C25.2458 37.649 22.4811 38.6675 19.2072 38.6675ZM19.2072 21.0973H4.91093V34.084H19.2072C21.0624 34.084 22.6085 33.4656 23.8453 32.2288C25.1185 30.9919 25.7551 29.4459 25.7551 27.5907C25.7551 25.8082 25.1185 24.2803 23.8453 23.0071C22.5721 21.7339 21.0261 21.0973 19.2072 21.0973ZM18.1159 5.05497H4.91093V16.5138H18.1159C19.7892 16.5138 21.1716 15.9681 22.2629 14.8768C23.3906 13.7855 23.9544 12.4214 23.9544 10.7844C23.9544 9.14741 23.3906 7.78326 22.2629 6.69195C21.1716 5.60063 19.7892 5.05497 18.1159 5.05497Z" fill="black"/>
<path d="M38.2695 0.471436H65.7707V5.05497H43.1805V17.0595H62.9879V21.643H43.1805V34.084H66.0436V38.6675H38.2695V0.471436Z" fill="black"/>
<path d="M170.83 38.8509H150.805V0.654785H169.739C173.34 0.654785 176.378 1.69154 178.852 3.76504C181.289 5.83854 182.507 8.43952 182.507 11.568C182.507 14.4781 181.416 16.9518 179.234 18.9889C182.326 21.0988 183.872 23.9908 183.872 27.6649C183.872 30.9025 182.617 33.5762 180.107 35.6861C177.669 37.7959 174.577 38.8509 170.83 38.8509ZM170.667 23.6816H160.79V29.6838H170.667C171.467 29.6838 172.14 29.3928 172.686 28.8108C173.231 28.2287 173.504 27.5194 173.504 26.6827C173.504 25.846 173.231 25.1367 172.686 24.5546C172.14 23.9726 171.467 23.6816 170.667 23.6816ZM169.575 9.82185H160.79V15.2784H169.575C170.194 15.2784 170.739 15.0784 171.212 14.6782C171.685 14.2781 171.976 13.7506 172.085 13.0958C172.122 13.023 172.14 12.8412 172.14 12.5501C172.14 11.7498 171.885 11.0951 171.376 10.5858C170.903 10.0765 170.303 9.82185 169.575 9.82185Z" fill="black"/>
<path d="M188.016 0.654785H216.881V9.82185H198.001V15.0056H213.662V24.1727H198.001V29.6838H217.154V38.8509H188.016V0.654785Z" fill="black"/>
<path d="M230.841 27.2829V38.8509H220.855V0.654785H238.426C242.573 0.654785 245.992 1.92799 248.684 4.4744C251.412 6.98443 252.777 10.1311 252.777 13.9143C252.777 17.7339 251.394 20.9169 248.63 23.4633C245.938 26.0097 242.536 27.2829 238.426 27.2829H230.841ZM238.426 9.82185H230.841V18.1159H238.426C239.553 18.1159 240.499 17.7157 241.263 16.9154C242.027 16.1151 242.409 15.1147 242.409 13.9143C242.409 12.7502 242.027 11.7862 241.263 11.0223C240.499 10.222 239.553 9.82185 238.426 9.82185Z" fill="black"/>
<path d="M266.345 38.8509H256.359V0.654785H266.345V15.0056H280.696V0.654785H290.681V38.8509H280.696V24.1727H266.345V38.8509Z" fill="black"/>
<path d="M300.405 5.67485C304.297 1.89162 309.099 0 314.81 0C320.522 0 325.323 1.89162 329.216 5.67485C333.072 9.4217 335 14.1144 335 19.7528C335 25.3913 333.072 30.084 329.216 33.8308C325.323 37.6141 320.522 39.5057 314.81 39.5057C309.099 39.5057 304.297 37.6141 300.405 33.8308C296.549 30.084 294.621 25.3913 294.621 19.7528C294.621 14.1144 296.549 9.4217 300.405 5.67485ZM305.043 19.6983C305.043 22.6085 305.971 25.0457 307.826 27.0101C309.754 28.9381 312.082 29.9021 314.81 29.9021C317.612 29.9021 319.94 28.9199 321.795 26.9555C323.687 25.0275 324.632 22.6085 324.632 19.6983C324.632 16.7881 323.687 14.3872 321.795 12.4956C319.903 10.5312 317.575 9.54903 314.81 9.54903C312.046 9.54903 309.718 10.5312 307.826 12.4956C305.971 14.4236 305.043 16.8245 305.043 19.6983Z" fill="black"/>
<path d="M137.538 2.79156C137.538 2.57074 137.259 2.47429 137.123 2.64795C137.123 2.64795 126.22 16.7437 122.648 21.1745C119.077 25.6053 117.137 28.8224 117.137 28.8224V14.7061V0.576172H112.227V38.7723H116.701L137.538 10.6924V2.79156Z" fill="black"/>
<path fill-rule="evenodd" clip-rule="evenodd" d="M86.0627 5.19212C86.0626 5.19242 86.0626 5.19277 86.0625 5.19319C85.3768 9.44296 84.1058 17.0669 82.8277 22.7547C81.6883 27.8249 80.1859 31.8972 79.0961 34.3613H99.5893V5.19201H86.0643C86.0637 5.19201 86.0631 5.1921 86.0627 5.19212C86.0627 5.19215 86.0627 5.19209 86.0627 5.19212ZM104.02 34.3613V0.76123H86.0643C83.8885 0.76123 82.0351 2.33839 81.6883 4.48738C81.0014 8.74419 79.7495 16.244 78.5047 21.7832C77.0676 28.1784 75.043 32.7606 74.2934 34.1259L74.1642 34.3613H70.0508V38.792H107.712V34.3613H104.02Z" fill="black"/>
</svg>
