<svg width="144" height="38" viewBox="0 0 144 38" fill="none" xmlns="http://www.w3.org/2000/svg">
<g id="logo">
<path id="Vector 56 (Stroke)" fill-rule="evenodd" clip-rule="evenodd" d="M39.6798 0C40.5572 1.51924e-07 41.1537 0.890581 40.8198 1.70194L27.8307 33.2654C26.6518 36.1302 23.8603 38 20.7625 38L16.7236 38C14.4085 38 12.3198 36.6101 11.4258 34.4746L0.28052 7.85345C-0.0595489 7.04117 0.537083 6.14458 1.41767 6.14458L10.3252 6.14459C10.8164 6.14459 11.2607 6.43619 11.4562 6.88683L18.5128 23.1564C18.6307 23.4283 18.5059 23.7443 18.234 23.8622C17.9621 23.9802 17.6461 23.8554 17.5282 23.5835L10.4715 7.31389C10.4462 7.25557 10.3887 7.21784 10.3252 7.21783L1.41767 7.21783C1.30371 7.21782 1.2265 7.33386 1.27051 7.43897L12.4158 34.0602C13.1428 35.7966 14.8412 36.9267 16.7236 36.9267H20.7625C23.4253 36.9267 25.8248 35.3195 26.8382 32.857L39.8274 1.2935C39.8706 1.1885 39.7934 1.07325 39.6798 1.07325L30.0451 1.07325C29.9794 1.07325 29.9205 1.1135 29.8965 1.17467L17.8385 31.9996C17.3846 33.16 18.2403 34.4136 19.4864 34.4136L20.7303 34.4136C22.5286 34.4136 24.1479 33.3249 24.8267 31.6596L29.5863 19.9812C29.6981 19.7068 30.0113 19.5749 30.2857 19.6868C30.5602 19.7987 30.692 20.1118 30.5801 20.3863L25.8205 32.0646C24.9771 34.134 22.9649 35.4868 20.7303 35.4868H19.4864C17.4845 35.4868 16.1098 33.4729 16.839 31.6086L28.897 0.783688C29.0819 0.311039 29.5376 1.29136e-06 30.0451 1.59521e-06L39.6798 0Z" fill="#D10707"/>
<g id="Group 4">
<path id="Rectangle 72" d="M83.4062 22.4526H84.927V31.8585H83.4062V22.4526Z" fill="black"/>
<path id="Rectangle 73" d="M83.4062 32.7031H84.927V34.1112H83.4062V32.7031Z" fill="#D10707"/>
<path id="Vector" d="M46.7504 34.0735H40.8906V22.4207H46.4174C47.3496 22.4207 48.1376 22.7148 48.7813 23.3029C49.425 23.88 49.7468 24.6014 49.7468 25.467C49.7468 26.5214 49.3084 27.3371 48.4317 27.9142C49.0088 28.1805 49.4638 28.5745 49.7967 29.0961C50.1408 29.6066 50.3128 30.1781 50.3128 30.8107C50.3128 31.7319 49.9688 32.5087 49.2807 33.1413C48.5926 33.7628 47.7492 34.0735 46.7504 34.0735ZM46.7504 28.7132H42.3889V32.6752H46.7504C47.3164 32.6752 47.788 32.4865 48.1653 32.1092C48.5538 31.7319 48.748 31.2602 48.748 30.6942C48.748 30.1504 48.5538 29.6843 48.1653 29.2958C47.7769 28.9074 47.3053 28.7132 46.7504 28.7132ZM46.4174 23.819H42.3889V27.3149H46.4174C46.9279 27.3149 47.3496 27.1484 47.6826 26.8155C48.0266 26.4825 48.1986 26.0663 48.1986 25.5669C48.1986 25.0675 48.0266 24.6513 47.6826 24.3184C47.3496 23.9855 46.9279 23.819 46.4174 23.819Z" fill="black"/>
<path id="Vector_2" d="M52.5664 22.4207H60.9565V23.819H54.0646V27.4813H60.1075V28.8797H54.0646V32.6752H61.0397V34.0735H52.5664V22.4207Z" fill="black"/>
<path id="Vector_3" d="M93.0079 34.1294H86.8984V22.4766H92.6749C93.7736 22.4766 94.7003 22.7929 95.455 23.4254C96.1985 24.058 96.5703 24.8515 96.5703 25.806C96.5703 26.6938 96.2374 27.4485 95.5715 28.0699C96.5148 28.7136 96.9865 29.5959 96.9865 30.7168C96.9865 31.7045 96.6036 32.5202 95.8379 33.1639C95.0943 33.8076 94.151 34.1294 93.0079 34.1294ZM92.9579 29.5016H89.9448V31.3327H92.9579C93.2021 31.3327 93.4074 31.244 93.5739 31.0664C93.7403 30.8888 93.8236 30.6724 93.8236 30.4172C93.8236 30.1619 93.7403 29.9455 93.5739 29.7679C93.4074 29.5904 93.2021 29.5016 92.9579 29.5016ZM92.625 25.2733H89.9448V26.9379H92.625C92.8137 26.9379 92.9801 26.8769 93.1244 26.7548C93.2687 26.6328 93.3575 26.4718 93.3907 26.2721C93.4018 26.2499 93.4074 26.1944 93.4074 26.1056C93.4074 25.8614 93.3297 25.6617 93.1743 25.5063C93.0301 25.3509 92.8469 25.2733 92.625 25.2733Z" fill="black"/>
<path id="Vector_4" d="M98.25 22.4766H107.056V25.2733H101.296V26.8547H106.074V29.6514H101.296V31.3327H107.139V34.1294H98.25V22.4766Z" fill="black"/>
<path id="Vector_5" d="M111.316 30.6003V34.1294H108.27V22.4766H113.63C114.895 22.4766 115.938 22.865 116.759 23.6418C117.592 24.4076 118.008 25.3676 118.008 26.5218C118.008 27.6871 117.586 28.6581 116.743 29.435C115.922 30.2118 114.884 30.6003 113.63 30.6003H111.316ZM113.63 25.2733H111.316V27.8036H113.63C113.974 27.8036 114.262 27.6815 114.495 27.4374C114.729 27.1932 114.845 26.888 114.845 26.5218C114.845 26.1666 114.729 25.8725 114.495 25.6395C114.262 25.3953 113.974 25.2733 113.63 25.2733Z" fill="black"/>
<path id="Vector_6" d="M122.148 34.1294H119.102V22.4766H122.148V26.8547H126.526V22.4766H129.572V34.1294H126.526V29.6514H122.148V34.1294Z" fill="black"/>
<path id="Vector_7" d="M132.538 24.0081C133.726 22.8539 135.19 22.2769 136.933 22.2769C138.675 22.2769 140.14 22.8539 141.328 24.0081C142.504 25.1512 143.092 26.5829 143.092 28.3031C143.092 30.0232 142.504 31.4549 141.328 32.598C140.14 33.7522 138.675 34.3293 136.933 34.3293C135.19 34.3293 133.726 33.7522 132.538 32.598C131.362 31.4549 130.773 30.0232 130.773 28.3031C130.773 26.5829 131.362 25.1512 132.538 24.0081ZM133.953 28.2864C133.953 29.1742 134.236 29.9178 134.802 30.5171C135.39 31.1053 136.1 31.3994 136.933 31.3994C137.787 31.3994 138.498 31.0997 139.064 30.5005C139.641 29.9123 139.929 29.1742 139.929 28.2864C139.929 27.3986 139.641 26.6661 139.064 26.089C138.487 25.4897 137.776 25.1901 136.933 25.1901C136.089 25.1901 135.379 25.4897 134.802 26.089C134.236 26.6772 133.953 27.4097 133.953 28.2864Z" fill="black"/>
<path id="Subtract" d="M82.851 23.1285C82.851 23.0611 82.7659 23.0317 82.7243 23.0847C82.7243 23.0847 79.3981 27.385 78.3084 28.7368C77.2187 30.0885 76.6271 31.07 76.6271 31.07V26.7634V22.4526H75.1289V34.1055H76.494L82.851 25.5389V23.1285Z" fill="black"/>
<path id="Vector 59 (Stroke)" fill-rule="evenodd" clip-rule="evenodd" d="M67.1466 23.8608C67.1466 23.8609 67.1466 23.861 67.1466 23.8611C66.9374 25.1577 66.5496 27.4836 66.1597 29.2188C65.8121 30.7656 65.3537 32.008 65.0213 32.7597H71.2733V23.8608H67.1471C67.1469 23.8608 67.1467 23.8608 67.1466 23.8608C67.1466 23.8608 67.1466 23.8608 67.1466 23.8608ZM72.6251 32.7597V22.509H67.1471C66.4833 22.509 65.9179 22.9902 65.8121 23.6458C65.6025 24.9445 65.2206 27.2325 64.8408 28.9224C64.4024 30.8735 63.7847 32.2714 63.5561 32.6879L63.5166 32.7597H62.2617V34.1115H73.7515V32.7597H72.6251Z" fill="black"/>
</g>
</g>
</svg>
