<svg width="32" height="33" viewBox="0 0 32 33" fill="none" xmlns="http://www.w3.org/2000/svg">
<path d="M29.1875 6.60645H2.8125C1.26169 6.60645 0 7.75742 0 9.17214V24.0407C0 25.4555 1.26169 26.6064 2.8125 26.6064H29.1875C30.7383 26.6064 32 25.4555 32 24.0407V9.17214C32 7.75742 30.7383 6.60645 29.1875 6.60645ZM28.8204 8.31691L28.4451 8.60204L17.1159 17.208C16.4693 17.6991 15.5306 17.6991 14.8841 17.208L3.55494 8.60204L3.17956 8.31691H28.8204ZM1.875 9.55175L11.1058 16.5637L1.875 22.1679V9.55175ZM29.1875 24.896H2.8125C2.3595 24.896 1.98063 24.6013 1.89381 24.2112L12.6091 17.7056L13.6844 18.5225C14.3552 19.0321 15.1777 19.2869 16.0001 19.2869C16.8224 19.2869 17.6448 19.0321 18.3158 18.5225L19.391 17.7056L30.1063 24.2111C30.0194 24.6014 29.6405 24.896 29.1875 24.896ZM30.125 22.1679L20.8943 16.5637L30.125 9.55175V22.1679Z" fill="#BF2B18"/>
</svg>
