<svg width="51" height="51" viewBox="0 0 51 51" fill="none" xmlns="http://www.w3.org/2000/svg">
<path fill-rule="evenodd" clip-rule="evenodd" d="M1.26953 25.1064C1.26953 11.5754 12.2694 0.606445 25.8385 0.606445C39.4075 0.606445 50.4074 11.5754 50.4074 25.1064C50.4074 38.6373 39.4075 49.6064 25.8385 49.6064C12.2694 49.6064 1.26953 38.6373 1.26953 25.1064Z" fill="#1A1449" stroke="black"/>
<path fill-rule="evenodd" clip-rule="evenodd" d="M28.5398 19.1793C28.5398 17.7358 27.3199 16.562 25.8202 16.562C24.3217 16.562 23.1007 17.7358 23.1007 19.1793C23.1007 20.6217 24.3217 21.7963 25.8202 21.7963C27.3199 21.7963 28.5398 20.6217 28.5398 19.1793ZM32.386 19.179C32.386 22.6645 29.441 25.4998 25.818 25.4998C22.1959 25.4998 19.25 22.6645 19.25 19.179C19.25 15.6924 22.1959 12.8564 25.818 12.8564C29.441 12.8564 32.386 15.6924 32.386 19.179ZM32.307 29.1397C31.1194 29.8577 29.83 30.3669 28.493 30.66L32.1647 34.1947C32.9169 34.9172 32.9169 36.0906 32.1647 36.8139C31.4133 37.5372 30.1954 37.5372 29.4448 36.8139L25.8348 33.3405L22.228 36.8139C21.8519 37.1752 21.3591 37.356 20.8663 37.356C20.3743 37.356 19.8823 37.1752 19.5062 36.8139C18.7548 36.0906 18.7548 34.918 19.5054 34.1947L23.1775 30.66C21.8405 30.3669 20.5511 29.8569 19.3635 29.1397C18.4647 28.5942 18.1948 27.4514 18.7611 26.5856C19.3258 25.7185 20.5134 25.4575 21.4137 26.003C24.1026 27.6311 27.5664 27.6315 30.2567 26.003C31.1571 25.4575 32.3443 25.7185 32.9102 26.5856C33.4765 27.4507 33.2057 28.5942 32.307 29.1397Z" fill="white"/>
<path d="M28.493 30.66L28.3859 30.1716L27.4728 30.3719L28.1463 31.0202L28.493 30.66ZM32.307 29.1397L32.5656 29.5676L32.5664 29.5671L32.307 29.1397ZM32.1647 34.1947L31.8179 34.5549L31.8183 34.5553L32.1647 34.1947ZM32.1647 36.8139L31.8181 36.4535L31.818 36.4537L32.1647 36.8139ZM29.4448 36.8139L29.7918 36.4539L29.7915 36.4536L29.4448 36.8139ZM25.8348 33.3405L26.1815 32.9802L25.8347 32.6465L25.488 32.9804L25.8348 33.3405ZM22.228 36.8139L22.5744 37.1745L22.5748 37.1741L22.228 36.8139ZM19.5062 36.8139L19.1594 37.1741L19.1598 37.1745L19.5062 36.8139ZM19.5054 34.1947L19.1586 33.8345L19.1584 33.8346L19.5054 34.1947ZM23.1775 30.66L23.5242 31.0203L24.1978 30.3719L23.2846 30.1716L23.1775 30.66ZM19.3635 29.1397L19.1041 29.5671L19.105 29.5677L19.3635 29.1397ZM18.7611 26.5856L19.1795 26.8592L19.18 26.8584L18.7611 26.5856ZM21.4137 26.003L21.1546 26.4306L21.1547 26.4307L21.4137 26.003ZM30.2567 26.003L30.5157 26.4307L30.5158 26.4306L30.2567 26.003ZM32.9102 26.5856L32.4915 26.8588L32.4919 26.8594L32.9102 26.5856ZM25.8202 17.062C27.062 17.062 28.0398 18.0299 28.0398 19.1793H29.0398C29.0398 17.4418 27.5778 16.062 25.8202 16.062V17.062ZM23.6007 19.1793C23.6007 18.03 24.5795 17.062 25.8202 17.062V16.062C24.064 16.062 22.6007 17.4416 22.6007 19.1793H23.6007ZM25.8202 21.2963C24.5795 21.2963 23.6007 20.3276 23.6007 19.1793H22.6007C22.6007 20.9159 24.0639 22.2963 25.8202 22.2963V21.2963ZM28.0398 19.1793C28.0398 20.3277 27.062 21.2963 25.8202 21.2963V22.2963C27.5779 22.2963 29.0398 20.9157 29.0398 19.1793H28.0398ZM25.818 25.9998C29.6989 25.9998 32.886 22.9585 32.886 19.179H31.886C31.886 22.3705 29.183 24.9998 25.818 24.9998V25.9998ZM18.75 19.179C18.75 22.9586 21.938 25.9998 25.818 25.9998V24.9998C22.4538 24.9998 19.75 22.3705 19.75 19.179H18.75ZM25.818 12.3564C21.9378 12.3564 18.75 15.3985 18.75 19.179H19.75C19.75 15.9863 22.4539 13.3564 25.818 13.3564V12.3564ZM32.886 19.179C32.886 15.3986 29.6991 12.3564 25.818 12.3564V13.3564C29.1829 13.3564 31.886 15.9863 31.886 19.179H32.886ZM28.6001 31.1484C29.9897 30.8437 31.3304 30.3144 32.5656 29.5676L32.0483 28.7118C30.9083 29.401 29.6702 29.89 28.3859 30.1716L28.6001 31.1484ZM32.5115 33.8345L28.8398 30.2998L28.1463 31.0202L31.8179 34.5549L32.5115 33.8345ZM32.5113 37.1743C33.4679 36.2544 33.4682 34.7535 32.5111 33.8341L31.8183 34.5553C32.3656 35.0809 32.3658 35.9268 31.8181 36.4535L32.5113 37.1743ZM29.0979 37.174C30.0423 38.0839 31.5666 38.0837 32.5115 37.1741L31.818 36.4537C31.2601 36.9907 30.3486 36.9904 29.7918 36.4539L29.0979 37.174ZM25.4882 33.7008L29.0982 37.1742L29.7915 36.4536L26.1815 32.9802L25.4882 33.7008ZM22.5748 37.1741L26.1817 33.7007L25.488 32.9804L21.8812 36.4538L22.5748 37.1741ZM20.8663 37.856C21.4803 37.856 22.0996 37.6306 22.5744 37.1745L21.8816 36.4533C21.6043 36.7197 21.238 36.856 20.8663 36.856V37.856ZM19.1598 37.1745C19.6344 37.6304 20.2528 37.856 20.8663 37.856V36.856C20.4957 36.856 20.1301 36.72 19.8525 36.4533L19.1598 37.1745ZM19.1584 33.8346C18.2037 34.7546 18.2037 36.2542 19.1594 37.1741L19.8529 36.4537C19.3058 35.9271 19.3058 35.0813 19.8523 34.5547L19.1584 33.8346ZM22.8307 30.2998L19.1586 33.8345L19.8521 34.5549L23.5242 31.0203L22.8307 30.2998ZM19.105 29.5677C20.34 30.3135 21.6806 30.8437 23.0704 31.1484L23.2846 30.1716C22.0004 29.89 20.7622 29.4003 19.622 28.7117L19.105 29.5677ZM18.3426 26.3119C17.617 27.4213 17.9708 28.8793 19.1041 29.5671L19.6229 28.7123C18.9587 28.3091 18.7725 27.4815 19.1795 26.8592L18.3426 26.3119ZM21.6728 25.5754C20.5482 24.894 19.0582 25.2133 18.3421 26.3127L19.18 26.8584C19.5934 26.2238 20.4786 26.021 21.1546 26.4306L21.6728 25.5754ZM29.9978 25.5753C27.4666 27.1074 24.2023 27.107 21.6727 25.5753L21.1547 26.4307C24.0028 28.1552 27.6661 28.1556 30.5157 26.4307L29.9978 25.5753ZM33.3289 26.3123C32.6118 25.2135 31.1225 24.8939 29.9977 25.5754L30.5158 26.4306C31.1917 26.0211 32.0768 26.2235 32.4915 26.8588L33.3289 26.3123ZM32.5664 29.5671C33.6993 28.8795 34.0546 27.4209 33.3286 26.3117L32.4919 26.8594C32.8984 27.4805 32.7122 28.3089 32.0475 28.7123L32.5664 29.5671Z" fill="black"/>
</svg>
