<svg width="137" height="133" viewBox="0 0 137 133" fill="none" xmlns="http://www.w3.org/2000/svg">
<mask id="mask0" mask-type="alpha" maskUnits="userSpaceOnUse" x="0" y="0" width="137" height="133">
<path d="M136.066 0.5625L0.269531 0.5625L0.269534 54.9218L42.5816 54.9218L56.8212 54.9218L67.9869 70.4582L53.9569 114.86L67.9869 117.573L78.8042 114.86L86.7019 108.348L107.948 54.9218L122.55 54.9218L136.066 54.9218L136.066 0.5625Z" fill="#C4C4C4"/>
<path d="M136.066 77.5789L102.353 132.352L136.066 132.352L136.066 77.5789Z" fill="#C4C4C4"/>
</mask>
<g mask="url(#mask0)">
<path fill-rule="evenodd" clip-rule="evenodd" d="M130.417 1.53577C133.207 1.53577 135.104 4.36775 134.042 6.9478L92.738 107.317C88.9892 116.427 80.1126 122.373 70.2617 122.373L57.4183 122.373C50.0566 122.373 43.4147 117.953 40.5717 111.162L5.13056 26.5091C4.04917 23.9262 5.94641 21.075 8.74661 21.0751L37.0718 21.0751C38.6338 21.0751 40.0467 22.0024 40.6682 23.4354L63.1077 75.1713C63.4828 76.0359 63.0859 77.0408 62.2212 77.4158C61.3566 77.7908 60.3517 77.3939 59.9767 76.5293L37.5372 24.7934C37.4568 24.6079 37.2739 24.4879 37.0718 24.4879L8.74661 24.4879C8.38424 24.4879 8.13871 24.8569 8.27865 25.1911L43.7198 109.844C46.0315 115.366 51.4323 118.96 57.4183 118.96L70.2618 118.96C78.7293 118.96 86.3595 113.849 89.5819 106.019L130.886 5.649C131.024 5.31512 130.778 4.94862 130.417 4.94862L99.7796 4.94862C99.5708 4.94862 99.3833 5.07662 99.3072 5.27112L60.9637 103.292C59.5203 106.982 62.2414 110.968 66.2037 110.968L70.1592 110.968C75.8777 110.968 81.0271 107.506 83.1854 102.211L98.3206 65.0745C98.6763 64.2017 99.6721 63.7826 100.545 64.1383C101.418 64.494 101.837 65.4898 101.481 66.3625L86.3458 103.499C83.6639 110.079 77.2652 114.381 70.1592 114.381H66.2037C59.838 114.381 55.4664 107.977 57.7854 102.049L96.1288 4.02784C96.7168 2.52485 98.1657 1.53577 99.7796 1.53577L130.417 1.53577Z" fill="#BF2B18"/>
</g>
</svg>
