<svg width="188" height="203" viewBox="0 0 188 203" fill="none" xmlns="http://www.w3.org/2000/svg">
<g clip-path="url(#clip0)">
<mask id="mask0" mask-type="alpha" maskUnits="userSpaceOnUse" x="0" y="0" width="189" height="203">
<path d="M-8.85154e-06 0.500427L0 203L77.8527 203L77.8527 139.904L77.8527 118.67L100.104 102.02L167.581 129.321L175.67 106.334L167.581 83.3473L154.369 74.1121L77.8527 42.4294L77.8527 20.656L77.8527 0.500424L-8.85154e-06 0.500427Z" fill="#C4C4C4"/>
<path d="M110.302 0.500422L188.748 50.7739L188.748 0.500419L110.302 0.500422Z" fill="#C4C4C4"/>
</mask>
<g mask="url(#mask0)">
<path fill-rule="evenodd" clip-rule="evenodd" d="M5.45805 12.9578C5.45805 8.89121 9.58591 6.1262 13.3466 7.67379L159.644 67.8787C172.922 73.3429 181.589 86.2814 181.589 100.64L181.589 119.36C181.589 130.091 175.146 139.772 165.249 143.916L41.8589 195.574C38.094 197.15 33.9383 194.385 33.9383 190.304L33.9383 149.017C33.9383 146.74 35.2899 144.681 37.3786 143.775L112.788 111.067C114.049 110.521 115.513 111.099 116.06 112.36C116.607 113.62 116.028 115.085 114.768 115.631L39.3581 148.339C39.0878 148.456 38.9128 148.722 38.9128 149.017L38.9128 190.304C38.9128 190.832 39.4506 191.19 39.9378 190.986L163.327 139.327C171.376 135.958 176.614 128.085 176.614 119.36L176.614 100.64C176.614 88.2976 169.164 77.1759 157.751 72.4789L11.4535 12.274C10.9668 12.0737 10.4326 12.4316 10.4326 12.9578L10.4326 57.6149C10.4326 57.9193 10.6192 58.1927 10.9027 58.3036L153.777 114.192C159.155 116.296 164.965 112.33 164.965 106.555L164.965 100.789C164.966 92.454 159.919 84.9484 152.201 81.8025L98.0713 59.7416C96.7992 59.2231 96.1883 57.7716 96.7067 56.4995C97.2252 55.2274 98.6767 54.6165 99.9488 55.135L154.078 77.1959C163.67 81.105 169.94 90.4317 169.94 100.789L169.94 106.555C169.94 115.833 160.605 122.205 151.964 118.825L9.09047 62.9363C6.89973 62.0793 5.45806 59.9673 5.45806 57.6149L5.45805 12.9578Z" fill="#BF2B18"/>
</g>
</g>
<defs>
<clipPath id="clip0">
<rect width="203" height="188" fill="white" transform="translate(0 203) rotate(-90)"/>
</clipPath>
</defs>
</svg>
