<svg width="59" height="59" viewBox="0 0 59 59" fill="none" xmlns="http://www.w3.org/2000/svg">
<path d="M13.7656 29.2766C13.7656 38.1115 20.9534 45.2994 29.7884 45.2994C38.6233 45.2994 45.8111 38.1115 45.8111 29.2766C45.8111 20.4418 38.6233 13.2539 29.7884 13.2539C20.9534 13.2539 13.7656 20.4418 13.7656 29.2766ZM43.5322 29.2766C43.5322 36.8551 37.3667 43.0205 29.7884 43.0205C22.21 43.0205 16.0445 36.8551 16.0445 29.2766C16.0445 21.6982 22.21 15.5327 29.7884 15.5327C37.3667 15.5327 43.5322 21.6982 43.5322 29.2766Z" fill="#E0321C"/>
<path d="M28.1642 20.921V22.692C27.4814 22.8389 26.8372 23.1152 26.2442 23.5233C24.6217 24.6392 23.8925 26.1857 24.2935 27.6601C24.6792 29.078 26.0633 30.1085 27.9058 30.3492C32.0834 30.8947 32.7634 31.4761 32.5845 32.8398C32.4892 33.5663 32.0412 34.0865 31.2526 34.3852C29.9196 34.8904 27.6087 34.6761 25.4495 33.0591L23.9297 34.8217C25.2352 35.7994 26.7102 36.4467 28.1638 36.729V38.7369H30.5901V36.8478C31.1405 36.7884 31.6704 36.6675 32.1664 36.4796C33.7615 35.8752 34.7917 34.6485 34.993 33.1136C35.2213 31.3717 34.4881 30.0237 32.8727 29.2156C31.6208 28.5893 29.9682 28.335 28.2426 28.1096C27.3831 27.9975 26.786 27.6215 26.6453 27.1042C26.4951 26.552 26.8837 25.8934 27.6849 25.3423C28.5333 24.7589 29.5331 24.673 30.7413 25.0794C31.7665 25.4245 32.5219 26.0018 32.5293 26.0075L33.3062 25.1393L34.0865 24.2735C33.982 24.1917 33.0249 23.46 31.6452 22.98C31.2887 22.856 30.9369 22.7613 30.5903 22.6932V20.9209L28.1642 20.921Z" fill="#E0321C"/>
<path d="M26.6004 8.54968C26.4389 8.77722 26.1838 8.89871 25.9245 8.89871C25.759 8.89871 25.5918 8.84917 25.4466 8.7461C25.0737 8.48171 24.9858 7.96516 25.2502 7.5923L26.677 5.5802C21.9672 6.54696 17.5781 8.92167 14.1795 12.3687C10.3947 16.2074 7.9582 21.2561 7.31851 26.5847C7.26808 27.0052 6.91088 27.3138 6.49785 27.3138C6.46486 27.3138 6.43153 27.3118 6.3982 27.3077C5.94434 27.2533 5.62058 26.8412 5.67509 26.3874C6.35815 20.6964 8.95984 15.305 13.0008 11.2065C16.6116 7.54419 21.2703 5.01566 26.2724 3.97364L24.2068 2.76929C23.8119 2.53899 23.6785 2.03227 23.9087 1.63745C24.1391 1.24251 24.6459 1.10921 25.0405 1.33928L28.9798 3.63608C29.1804 3.75316 29.3228 3.94903 29.3719 4.17613C29.421 4.40322 29.3726 4.64036 29.2382 4.82983L26.6004 8.54968Z" fill="#1A1449"/>
<path d="M32.9699 50.0035C33.1314 49.776 33.3865 49.6545 33.6458 49.6545C33.8113 49.6545 33.9785 49.7041 34.1237 49.8071C34.4966 50.0715 34.5846 50.5881 34.3202 50.9609L32.8933 52.973C37.6031 52.0063 41.9923 49.6316 45.3908 46.1845C49.1756 42.3458 51.6121 37.2971 52.2518 31.9685C52.3022 31.5481 52.6594 31.2394 53.0725 31.2394C53.1055 31.2394 53.1388 31.2414 53.1721 31.2455C53.626 31.2999 53.9497 31.712 53.8952 32.1658C53.2122 37.8568 50.6105 43.2482 46.5695 47.3467C42.9587 51.009 38.3 53.5376 33.2979 54.5796L35.3635 55.7839C35.7584 56.0142 35.8918 56.521 35.6617 56.9158C35.4313 57.3107 34.9244 57.444 34.5298 57.2139L30.5905 54.9171C30.3899 54.8001 30.2475 54.6042 30.1984 54.3771C30.1493 54.15 30.1978 53.9129 30.3322 53.7234L32.9699 50.0035Z" fill="#1A1449"/>
</svg>
