<svg width="32" height="33" viewBox="0 0 32 33" fill="none" xmlns="http://www.w3.org/2000/svg">
<path d="M31.2019 23.7334L27.3481 20.0039C26.2856 18.9758 24.5568 18.9758 23.4944 20.0039L21.7427 21.6991C20.9378 22.4781 19.628 22.4778 18.8234 21.6994L11.2308 14.3455C10.424 13.5647 10.4239 12.301 11.2308 11.5202C11.5129 11.2471 12.3231 10.4631 12.9825 9.82498C14.0403 8.80134 14.0551 7.13347 12.9814 6.09461L9.12871 2.37789C8.06623 1.34975 6.33743 1.34975 5.27779 2.3752C4.48487 3.13586 4.22912 3.38125 3.87359 3.72232C0.0421681 7.43008 0.0421679 13.4631 3.87341 17.1707L15.9036 28.8189C19.744 32.5354 25.9598 32.5357 29.8005 28.8189L31.2019 27.4627C32.2644 26.4345 32.2644 24.7616 31.2019 23.7334ZM6.55958 3.62101C6.91372 3.2783 7.48988 3.27824 7.84517 3.62195L11.6979 7.33867C12.0529 7.6822 12.0529 8.2382 11.6979 8.58179L11.0556 9.20336L5.92056 4.23402L6.55958 3.62101ZM17.1884 27.5759L5.15815 15.9276C2.19389 13.059 2.03096 8.55461 4.65707 5.4976L9.77717 10.4525C8.43181 11.9284 8.48788 14.1774 9.94591 15.5884L17.5383 22.942C17.5383 22.9421 17.5385 22.9422 17.5385 22.9422C18.995 24.3518 21.3188 24.4095 22.8458 23.1058L27.9661 28.0609C24.8172 30.5979 20.1731 30.4643 17.1884 27.5759ZM29.9174 26.2196L29.275 26.8412L24.1367 21.8686L24.7789 21.2471C25.1331 20.9043 25.7093 20.9043 26.0635 21.2471L29.9173 24.9765C30.2715 25.3193 30.2715 25.877 29.9174 26.2196Z" fill="#BF2B18"/>
</svg>
