<svg width="18" height="18" viewBox="0 0 18 18" fill="none" xmlns="http://www.w3.org/2000/svg">
<path d="M8.68765 11.1616C8.30993 10.8413 8.12107 10.4483 8.12107 9.98253C8.12107 9.69141 8.18402 9.42455 8.30993 9.18195C8.44552 8.93935 8.61017 8.74042 8.80387 8.58515C8.99758 8.42989 9.20581 8.26977 9.42857 8.1048C9.66102 7.93013 9.87409 7.77001 10.0678 7.62445C10.2615 7.47889 10.4213 7.30422 10.5472 7.10044C10.6828 6.89665 10.7506 6.67346 10.7506 6.43086C10.7506 6.0427 10.6005 5.72247 10.3002 5.47016C10.0097 5.20815 9.58838 5.07715 9.03632 5.07715C8.09685 5.07715 7.32688 5.47501 6.72639 6.27074L6 5.48472C6.76513 4.49491 7.81598 4 9.15254 4C10.0145 4 10.7022 4.21834 11.2155 4.65502C11.7385 5.082 12 5.61572 12 6.25619C12 6.75109 11.8499 7.19263 11.5496 7.58079C11.2591 7.95924 10.9395 8.25036 10.5908 8.45415C10.2421 8.65793 9.91768 8.90053 9.61743 9.18195C9.32688 9.46337 9.1816 9.75934 9.1816 10.0699C9.1816 10.3416 9.31235 10.5793 9.57385 10.7831L8.68765 11.1616ZM9.54479 13.7671C9.38983 13.9224 9.20581 14 8.99274 14C8.77966 14 8.5908 13.9224 8.42615 13.7671C8.27119 13.6118 8.1937 13.4226 8.1937 13.1994C8.1937 12.9762 8.27119 12.787 8.42615 12.6317C8.5908 12.4765 8.77966 12.3988 8.99274 12.3988C9.20581 12.3988 9.38983 12.4765 9.54479 12.6317C9.70944 12.787 9.79177 12.9762 9.79177 13.1994C9.79177 13.4226 9.70944 13.6118 9.54479 13.7671Z" fill="black"/>
<circle cx="9" cy="9" r="8.5" stroke="black"/>
</svg>
