<svg width="76" height="60" viewBox="0 0 76 60" fill="none" xmlns="http://www.w3.org/2000/svg">
<path d="M0 39.0805C0 31.4176 1.91919 24.1379 5.75757 17.2414C9.74949 10.3448 14.9697 4.59771 21.4182 0L32.4727 8.73563C28.6343 11.0345 25.0263 14.2529 21.6485 18.3908C18.4242 22.5287 16.505 26.5134 15.8909 30.3448C16.505 30.0383 17.8101 29.8851 19.8061 29.8851C23.6444 29.8851 26.8687 31.2644 29.4788 34.023C32.0889 36.7816 33.3939 40.2299 33.3939 44.3678C33.3939 48.659 31.8586 52.3372 28.7879 55.4023C25.7172 58.4674 22.0323 60 17.7333 60C12.8202 60 8.59798 58.1609 5.06667 54.4828C1.68889 50.6513 0 45.5172 0 39.0805ZM42.6061 39.0805C42.6061 31.4176 44.5253 24.1379 48.3636 17.2414C52.3556 10.3448 57.5758 4.59771 64.0242 0L75.0788 8.73563C71.2404 11.0345 67.6323 14.2529 64.2545 18.3908C61.0303 22.5287 59.1111 26.5134 58.497 30.3448C59.1111 30.0383 60.4162 29.8851 62.4121 29.8851C66.2505 29.8851 69.4747 31.2644 72.0849 34.023C74.6949 36.7816 76 40.2299 76 44.3678C76 48.659 74.4646 52.3372 71.3939 55.4023C68.3232 58.4674 64.6384 60 60.3394 60C55.4263 60 51.204 58.1609 47.6727 54.4828C44.2949 50.6513 42.6061 45.5172 42.6061 39.0805Z" fill="#BF2B18"/>
</svg>
