<svg width="59" height="59" viewBox="0 0 59 59" fill="none" xmlns="http://www.w3.org/2000/svg">
<path d="M20.7991 19.0948H29.2357C29.6901 19.0948 30.0582 18.7266 30.0582 18.2723C30.0582 17.8179 29.6901 17.4497 29.2357 17.4497H20.7991C20.3447 17.4497 19.9766 17.8179 19.9766 18.2723C19.9766 18.7266 20.3447 19.0948 20.7991 19.0948Z" fill="#1A1449"/>
<path d="M20.7991 22.1182H29.2357C29.6901 22.1182 30.0582 21.7501 30.0582 21.2957C30.0582 20.8413 29.6901 20.4731 29.2357 20.4731H20.7991C20.3447 20.4731 19.9766 20.8413 19.9766 21.2957C19.9766 21.7501 20.3447 22.1182 20.7991 22.1182Z" fill="#1A1449"/>
<path d="M20.7991 35.7034H38.0725C38.5268 35.7034 38.895 35.3353 38.895 34.8809C38.895 34.4265 38.5268 34.0583 38.0725 34.0583H20.7991C20.3447 34.0583 19.9766 34.4265 19.9766 34.8809C19.9766 35.3353 20.3447 35.7034 20.7991 35.7034Z" fill="#1A1449"/>
<path d="M20.5902 39.6624H33.4774C33.8164 39.6624 34.0911 39.2942 34.0911 38.8399C34.0911 38.3855 33.8164 38.0173 33.4774 38.0173H20.5902C20.2512 38.0173 19.9766 38.3855 19.9766 38.8399C19.9766 39.2942 20.2512 39.6624 20.5902 39.6624Z" fill="#1A1449"/>
<path d="M4.49403 27.6032C4.54217 27.6137 4.59087 27.6196 4.63945 27.6213C4.64987 27.6217 4.66029 27.6219 4.67071 27.6219C4.85869 27.6219 5.03493 27.5576 5.17575 27.4477L8.84077 24.8488C9.21135 24.586 9.29876 24.0726 9.03599 23.702C8.77321 23.3313 8.25984 23.244 7.88926 23.5068L5.79408 24.9925C6.72651 20.407 8.99793 16.1229 12.3052 12.7685C16.0632 8.95695 21.0397 6.46465 26.318 5.7508C26.7682 5.68982 27.0837 5.27559 27.023 4.82539C26.962 4.37518 26.5474 4.0602 26.0976 4.12041C20.4601 4.88285 15.1458 7.54383 11.1336 11.6133C7.66179 15.1347 5.2591 19.6161 4.2329 24.4201L3.09582 22.4698C2.86682 22.0772 2.36299 21.9446 1.97091 22.1734C1.5784 22.4023 1.4458 22.9059 1.67458 23.2983L3.95729 27.2135C4.07365 27.4129 4.26832 27.5544 4.49403 27.6032Z" fill="#1A1449"/>
<path d="M24.7149 50.569C24.4521 50.1984 23.9387 50.1109 23.5681 50.3738C23.1976 50.6367 23.1101 51.1499 23.3729 51.5205L24.8908 53.661C20.2217 52.7483 15.979 50.5061 12.5484 47.1244C8.77524 43.4049 6.36607 38.6842 5.58126 33.4724C5.5137 33.0231 5.09464 32.7135 4.64543 32.7816C4.19621 32.8492 3.88693 33.2682 3.9546 33.7174C4.79283 39.2836 7.36507 44.3248 11.3935 48.2959C14.9732 51.8247 19.3818 54.1914 24.2348 55.2068L22.3361 56.3139C21.9436 56.5428 21.811 57.0464 22.0397 57.4388C22.1927 57.7011 22.468 57.8473 22.7511 57.8473C22.8918 57.8473 23.0344 57.8112 23.1646 57.7352L27.0798 55.4525C27.2792 55.3361 27.4207 55.1414 27.4695 54.9157C27.5183 54.69 27.4702 54.4543 27.3366 54.266L24.7149 50.569Z" fill="#BF2B18"/>
<path d="M57.6021 36.2426L55.3194 32.3275C55.2031 32.1281 55.0084 31.9866 54.7827 31.9378C54.5574 31.889 54.3214 31.9372 54.133 32.0707L50.4361 34.6922C50.0655 34.955 49.9781 35.4684 50.2408 35.8389C50.5036 36.2095 51.0171 36.297 51.3876 36.0341L53.4334 34.5834C52.49 39.3543 50.1628 43.6704 46.6597 47.1235C42.8831 50.8463 38.1223 53.1882 32.8922 53.8956C32.4419 53.9565 32.1264 54.3708 32.1872 54.821C32.2431 55.2339 32.596 55.5334 33.0013 55.5334C33.038 55.5334 33.0752 55.531 33.1126 55.5259C38.6986 54.7703 43.7825 52.27 47.8147 48.295C51.5143 44.6481 53.9856 40.0988 55.0138 35.0693L56.181 37.0712C56.334 37.3334 56.6093 37.4796 56.8923 37.4796C57.0331 37.4796 57.1756 37.4435 57.3059 37.3677C57.6983 37.1387 57.8309 36.635 57.6021 36.2426Z" fill="#1A1449"/>
<path d="M34.5661 8.9728C34.7266 9.19895 34.9801 9.31969 35.2378 9.31969C35.4024 9.31969 35.5685 9.27045 35.7128 9.16802C36.0834 8.90524 36.1708 8.39187 35.9081 8.02129L34.49 6.02153C39.1709 6.98236 43.5331 9.34251 46.9108 12.7684C50.6724 16.5836 53.094 21.6013 53.7298 26.8973C53.7799 27.3151 54.1349 27.6219 54.5454 27.6219C54.5782 27.6219 54.6113 27.6199 54.6444 27.6158C55.0955 27.5618 55.4173 27.1522 55.3631 26.7012C54.6842 21.0451 52.0985 15.6867 48.0823 11.6134C44.4936 7.97347 39.8635 5.46044 34.892 4.42481L36.945 3.22785C37.3375 2.99896 37.4701 2.49535 37.2413 2.10294C37.0123 1.71043 36.5086 1.57794 36.1164 1.80661L32.2012 4.08932C32.0019 4.20569 31.8604 4.40035 31.8116 4.62606C31.7628 4.85176 31.8109 5.08745 31.9445 5.27576L34.5661 8.9728Z" fill="#BF2B18"/>
<path d="M43.0329 21.2952C43.0329 21.0771 42.9463 20.8679 42.7921 20.7135L35.2821 13.2035C35.1278 13.0493 34.9186 12.9626 34.7004 12.9626H18.7637C17.3712 12.9626 16.2383 14.0954 16.2383 15.488V21.2951C16.2383 21.7495 16.6065 22.1176 17.0608 22.1176C17.5152 22.1176 17.8834 21.7495 17.8834 21.2951V15.488C17.8834 15.0025 18.2783 14.6077 18.7637 14.6077H33.8779V20.0085C33.8779 21.1715 34.8241 22.1176 35.987 22.1176H41.3878V36.8713C41.3878 37.3256 41.756 37.6938 42.2104 37.6938C42.6647 37.6938 43.0329 37.3256 43.0329 36.8713V21.2952ZM35.5229 20.0086V15.771L40.2245 20.4727H35.9869C35.7311 20.4727 35.5229 20.2645 35.5229 20.0086Z" fill="#1A1449"/>
<path d="M17.0608 24.3C16.6065 24.3 16.2383 24.6682 16.2383 25.1226V44.0524C16.2383 45.4449 17.3712 46.5777 18.7637 46.5777H40.5075C41.9 46.5777 43.0329 45.4449 43.0329 44.0524V40.7649C43.0329 40.3105 42.6647 39.9424 42.2104 39.9424C41.756 39.9424 41.3878 40.3105 41.3878 40.7649V44.0524C41.3878 44.5378 40.9929 44.9327 40.5075 44.9327H18.7638C18.2783 44.9327 17.8835 44.5377 17.8835 44.0524V25.1226C17.8834 24.6683 17.5152 24.3 17.0608 24.3Z" fill="#1A1449"/>
</svg>
