<svg width="1200" height="549" viewBox="0 0 1200 549" fill="none" xmlns="http://www.w3.org/2000/svg">
<g clip-path="url(#clip0)">
<path d="M672.787 152.985C681.921 150.78 690.582 147.473 698.928 143.221C699.873 144.481 700.66 145.583 701.605 146.843C717.195 168.732 728.219 193.928 733.73 220.226C735.935 230.935 737.195 241.801 737.51 252.824C738.927 252.824 740.187 252.824 741.604 252.824C741.447 245.738 740.817 238.494 739.872 231.407C736.092 203.692 726.014 176.921 711.054 153.299C708.377 149.205 705.7 145.111 702.708 141.331C717.195 133.3 730.108 122.592 740.344 109.679C744.439 104.482 748.06 98.9705 751.367 93.3014C752.627 90.9393 749.005 88.8921 747.746 91.2542C736.722 111.096 720.03 127.316 700.188 138.182C695.464 132.198 690.425 126.371 684.913 121.017C674.677 110.781 662.866 100.703 649.481 95.0336C637.198 89.8369 622.553 89.3645 611.057 96.9233C605.86 100.23 601.766 105.112 599.719 110.939C597.672 116.923 597.987 123.694 600.034 129.678C610.27 158.969 647.434 159.284 672.787 152.985ZM605.545 107.632C612.002 97.2383 625.86 93.4589 637.513 95.506C652.001 98.0256 664.126 107.474 674.834 116.923C682.708 123.852 689.795 131.568 696.409 139.757C694.519 140.701 692.472 141.646 690.425 142.591C678.456 147.788 665.386 151.095 652.316 152.04C638.458 152.985 622.71 151.095 612.159 141.016C603.498 132.67 598.774 118.655 605.545 107.632Z" fill="#AE3925"/>
<path d="M696.251 372.977C681.134 391.874 662.394 408.094 641.135 419.905C616.411 433.605 588.538 441.164 560.35 442.424C532.004 443.684 503.344 438.959 477.203 427.779C470.904 425.102 464.762 422.11 458.778 418.645C456.416 417.385 454.369 420.85 456.731 422.267C482.4 436.755 511.375 444.944 540.823 446.518C570.271 448.093 600.191 442.896 627.277 431.243C652.473 420.377 674.992 403.685 693.102 383.213C695.936 379.906 698.771 376.442 701.448 372.977C700.188 372.977 698.928 372.977 697.669 372.977C697.196 372.977 696.724 372.977 696.251 372.977Z" fill="#AE3925"/>
<path d="M352.01 222.273C352.01 222.746 351.853 223.218 351.538 223.376C352.955 223.376 354.372 223.376 355.789 223.376C366.498 223.376 377.049 223.376 387.757 223.376C404.134 223.376 420.512 223.376 436.889 223.376C455.471 223.376 474.053 223.376 492.636 223.376C509.8 223.376 527.123 223.376 544.287 223.376C556.571 223.376 568.854 223.376 581.294 223.376C588.066 223.376 596.412 222.273 602.396 225.895C607.75 229.045 611.057 234.871 611.057 241.171C611.057 241.958 611.057 242.745 611.057 243.533C611.057 248.729 611.057 253.926 611.057 259.123C611.057 276.76 611.057 294.24 611.057 311.877C611.057 325.105 611.057 338.333 611.057 351.561C611.057 352.506 611.057 353.293 611.057 354.238C610.9 360.694 606.963 366.521 601.294 369.513C597.987 371.245 594.522 371.403 590.9 371.403C582.239 371.403 573.42 371.403 564.759 371.403C549.484 371.403 534.052 371.403 518.776 371.403C503.344 371.403 487.754 371.403 472.321 371.403C474.368 372.19 476.416 373.292 478.305 374.552C482.715 374.552 487.124 374.552 491.533 374.552C509.17 374.552 526.65 374.552 544.287 374.552C556.886 374.552 569.326 374.552 581.924 374.552C589.325 374.552 597.829 375.497 604.443 371.56C609.797 368.411 613.419 362.899 614.207 356.757C614.364 355.183 614.364 353.765 614.364 352.191C614.364 347.309 614.364 342.27 614.364 337.388C614.364 319.593 614.364 301.956 614.364 284.161C614.364 270.618 614.364 257.076 614.364 243.533C614.364 242.588 614.364 241.8 614.364 240.856C614.206 234.557 611.215 228.73 606.175 224.951C601.923 221.644 597.042 220.699 591.845 220.699C583.499 220.699 575.153 220.699 566.806 220.699C551.374 220.699 536.099 220.699 520.666 220.699C502.084 220.699 483.502 220.699 464.92 220.699C446.653 220.699 428.386 220.699 410.276 220.699C396.261 220.699 382.088 220.699 368.073 220.699C361.931 220.699 355.632 220.699 349.49 220.699C350.435 220.541 352.01 220.856 352.01 222.273Z" fill="black"/>
<path d="M382.875 371.246C397.835 373.923 413.425 373.608 428.543 371.246C422.401 371.246 416.102 371.246 409.961 371.246C400.985 371.246 392.009 371.246 382.875 371.246Z" fill="black"/>
<path d="M331.538 243.06C331.538 243.532 331.538 244.005 331.538 244.477C331.381 263.374 329.963 282.429 330.751 301.326C330.908 304.79 331.223 308.412 331.538 311.877C331.538 298.019 331.538 284.004 331.538 270.146C331.538 261.17 331.381 252.194 331.538 243.06Z" fill="black"/>
<path d="M552.476 258.021C537.988 265.107 523.658 272.351 509.17 279.437C502.714 282.587 496.257 285.894 489.801 289.043C485.077 291.405 478.935 293.61 475.943 298.334C475.313 299.279 474.998 300.224 474.998 301.169C478.935 296.917 484.604 294.712 489.643 292.193C496.415 288.886 503.186 285.421 509.958 282.114C523.501 275.343 537.201 268.571 550.744 261.957C552.476 261.013 554.051 263.69 552.319 264.635C537.831 271.721 523.501 278.965 509.013 286.051C503.816 288.571 498.777 291.09 493.58 293.61C515.942 287.468 538.146 281.484 560.507 275.343C560.035 270.934 559.72 266.524 559.248 261.957C559.248 261.328 559.405 261.013 559.72 260.698C559.563 258.965 559.405 257.233 559.248 255.501L552.949 256.288C553.264 256.918 553.106 257.548 552.476 258.021Z" fill="#AE3925"/>
<path d="M505.863 300.066C503.501 300.696 501.139 301.326 498.777 301.956C525.705 307.468 552.634 312.822 579.719 318.334C579.562 317.231 579.562 315.971 579.404 314.869C554.838 309.987 530.272 304.948 505.863 300.066Z" fill="#AE3925"/>
<path d="M490.588 295.185C490.431 295.342 490.116 295.342 489.958 295.5C485.234 297.862 479.092 300.067 476.1 304.791C477.518 306.838 479.88 308.413 482.242 309.2C488.226 311.562 494.84 312.98 501.139 314.712C527.595 322.113 554.051 329.514 580.506 336.916C580.034 331.719 579.719 326.522 579.247 321.326C549.956 315.342 520.666 309.515 491.533 303.531C489.958 303.216 490.116 300.854 491.533 300.539C494.053 299.909 496.572 299.122 498.934 298.492C496.415 298.019 493.895 297.547 491.533 296.917C490.588 296.917 490.273 295.972 490.588 295.185Z" fill="#AE3925"/>
<path d="M457.676 286.839C457.676 305.578 457.676 324.318 457.676 343.057C457.676 344.16 457.676 345.42 457.676 346.522C457.833 353.923 462.243 360.537 469.171 363.372C471.849 364.474 474.683 364.632 477.518 364.632C484.132 364.632 490.588 364.632 497.202 364.632C518.304 364.632 539.248 364.632 560.35 364.632C566.649 364.632 572.948 364.632 579.404 364.632C582.554 364.632 585.703 364.159 588.695 362.742C594.837 359.75 598.774 353.293 598.774 346.522C598.931 331.719 598.774 316.917 598.774 302.114C598.774 285.264 598.774 268.414 598.774 251.564C598.774 241.171 591.215 232.825 580.664 232.667C575.782 232.667 570.743 232.667 565.861 232.667C545.075 232.667 524.13 232.667 503.344 232.667C495.627 232.667 487.911 232.667 480.037 232.667C478.62 232.667 477.36 232.667 475.943 232.667C469.486 232.667 463.502 236.132 460.353 241.643C457.203 246.997 457.991 253.297 457.991 259.123C457.676 268.257 457.676 277.548 457.676 286.839ZM460.668 304.791C460.668 287.469 460.668 269.989 460.668 252.667C460.668 250.304 460.668 247.942 461.613 245.58C463.66 239.596 469.486 235.817 475.785 235.659C480.352 235.659 484.919 235.659 489.328 235.659C509.485 235.659 529.642 235.659 549.956 235.659C558.145 235.659 566.176 235.659 574.365 235.659C576.255 235.659 578.144 235.659 580.034 235.659C584.601 235.659 588.853 237.234 591.845 240.698C596.254 245.738 595.467 252.037 595.467 258.021C595.467 266.839 595.467 275.658 595.467 284.477C595.467 303.374 595.467 322.113 595.467 341.01C595.467 342.742 595.467 344.475 595.467 346.207C595.467 351.876 592.475 357.073 587.278 359.75C582.711 362.112 576.885 361.325 572.003 361.325C552.633 361.325 533.106 361.325 513.737 361.325C504.761 361.325 495.627 361.325 486.651 361.325C482.399 361.325 477.99 361.797 473.738 361.167C466.337 360.222 460.825 353.766 460.825 346.364C460.668 332.664 460.668 318.649 460.668 304.791Z" fill="black"/>
<path d="M474.526 314.554C478.305 318.649 484.289 319.751 489.328 321.168C503.816 325.262 518.461 329.357 532.949 333.451C549.327 338.018 565.861 342.585 582.239 347.309C583.184 347.624 584.286 346.837 584.286 345.734C584.129 343.845 583.971 342.112 583.814 340.223C583.341 333.451 582.711 326.837 582.239 320.066C582.239 319.436 581.766 318.649 581.137 318.491C580.664 318.334 580.034 318.334 579.562 318.176C552.634 312.664 525.705 307.31 498.62 301.799C500.982 301.169 503.344 300.539 505.706 299.909C507.911 299.279 510.115 298.649 512.32 298.019C529.327 293.452 546.335 288.728 563.184 284.161C563.814 284.004 564.444 283.374 564.287 282.587C564.129 280.854 563.972 278.965 563.814 277.232C563.342 272.036 562.869 266.997 562.397 261.8C562.24 260.383 560.665 259.91 559.72 260.54C559.405 260.855 559.09 261.17 559.248 261.8C559.72 266.209 560.035 270.619 560.507 275.185C560.665 276.288 560.665 277.232 560.822 278.335C560.98 279.437 560.98 280.539 561.137 281.642C542.555 286.681 523.973 291.72 505.548 296.759C503.344 297.389 501.139 298.019 498.934 298.649C496.415 299.279 493.895 300.066 491.533 300.696C490.116 301.011 489.958 303.373 491.533 303.688C520.824 309.672 550.114 315.499 579.247 321.483C579.719 326.68 580.034 331.876 580.507 337.073C580.664 338.175 580.664 339.278 580.822 340.38C580.979 341.482 580.979 342.585 581.137 343.687C554.523 336.286 527.91 328.727 501.297 321.326C494.998 319.593 488.541 318.176 482.4 315.814C479.093 314.554 475.471 311.877 475.156 308.57C474.998 307.468 475.313 306.208 476.101 304.791C479.093 300.066 485.234 297.862 489.958 295.5C490.116 295.342 490.431 295.342 490.588 295.185C491.691 294.712 492.793 294.082 493.895 293.61C499.092 291.09 504.131 288.571 509.328 286.051C523.816 278.965 538.146 271.721 552.634 264.634C554.366 263.69 552.791 261.013 551.059 261.957C537.516 268.729 523.816 275.5 510.273 282.114C503.501 285.421 496.73 288.886 489.958 292.193C484.919 294.712 479.093 296.917 475.313 301.169C475.156 301.326 474.998 301.484 474.841 301.799C474.053 302.901 473.266 304.003 472.951 305.106C471.376 308.255 471.849 311.877 474.526 314.554Z" fill="black"/>
<path d="M419.252 274.083C419.567 274.398 419.882 274.555 420.355 274.555C427.756 274.555 435.315 274.555 442.716 274.555C443.818 274.555 444.763 274.555 445.866 274.555C446.653 274.555 447.44 273.768 447.44 272.981C447.44 265.579 447.44 258.02 447.44 250.619C447.44 249.517 447.44 248.572 447.44 247.47C447.44 246.682 446.653 245.895 445.866 245.895C438.464 245.895 430.905 245.895 423.504 245.895C422.402 245.895 421.457 245.895 420.355 245.895C419.567 245.895 418.78 246.682 418.78 247.47C418.78 254.871 418.78 262.43 418.78 269.831C418.78 270.933 418.78 271.878 418.78 272.981C418.78 273.295 418.937 273.61 419.252 274.083C419.095 274.083 419.095 273.925 419.252 274.083ZM442.559 249.044C443.031 249.044 443.661 249.044 444.133 249.044C444.133 255.973 444.133 262.902 444.133 269.831C444.133 270.303 444.133 270.933 444.133 271.406C437.204 271.406 430.275 271.406 423.347 271.406C422.874 271.406 422.244 271.406 421.772 271.406C421.772 264.477 421.772 257.548 421.772 250.619C421.772 250.147 421.772 249.517 421.772 249.044C428.701 249.044 435.63 249.044 442.559 249.044Z" fill="black"/>
<path d="M419.252 312.35C419.252 312.35 419.252 312.507 419.252 312.35C419.567 312.665 419.882 312.822 420.355 312.822C427.756 312.822 435.315 312.822 442.716 312.822C443.818 312.822 444.763 312.822 445.866 312.822C446.653 312.822 447.44 312.035 447.44 311.247C447.44 303.846 447.44 296.287 447.44 288.886C447.44 287.784 447.44 286.839 447.44 285.736C447.44 284.949 446.653 284.162 445.866 284.162C438.464 284.162 430.905 284.162 423.504 284.162C422.402 284.162 421.457 284.162 420.355 284.162C419.567 284.162 418.78 284.949 418.78 285.736C418.78 293.138 418.78 300.697 418.78 308.098C418.78 309.2 418.78 310.145 418.78 311.247C418.78 311.72 418.937 312.035 419.252 312.35C419.095 312.35 419.095 312.35 419.252 312.35ZM442.559 287.311C443.031 287.311 443.661 287.311 444.133 287.311C444.133 294.24 444.133 301.169 444.133 308.098C444.133 308.57 444.133 309.2 444.133 309.673C437.204 309.673 430.275 309.673 423.347 309.673C422.874 309.673 422.244 309.673 421.772 309.673C421.772 302.744 421.772 295.815 421.772 288.886C421.772 288.413 421.772 287.784 421.772 287.311C428.701 287.311 435.63 287.311 442.559 287.311Z" fill="black"/>
<path d="M419.252 350.773C419.567 351.088 419.882 351.246 420.355 351.246C427.756 351.246 435.315 351.246 442.716 351.246C443.818 351.246 444.763 351.246 445.866 351.246C446.653 351.246 447.44 350.458 447.44 349.671C447.44 342.27 447.44 334.711 447.44 327.309C447.44 326.207 447.44 325.262 447.44 324.16C447.44 323.373 446.653 322.585 445.866 322.585C438.464 322.585 430.905 322.585 423.504 322.585C422.402 322.585 421.457 322.585 420.355 322.585C419.567 322.585 418.78 323.373 418.78 324.16C418.78 331.561 418.78 339.12 418.78 346.521C418.78 347.624 418.78 348.569 418.78 349.671C418.78 350.143 418.937 350.458 419.252 350.773C419.095 350.773 419.095 350.616 419.252 350.773ZM442.559 325.735C443.031 325.735 443.661 325.735 444.133 325.735C444.133 332.664 444.133 339.593 444.133 346.521C444.133 346.994 444.133 347.624 444.133 348.096C437.204 348.096 430.275 348.096 423.347 348.096C422.874 348.096 422.244 348.096 421.772 348.096C421.772 341.167 421.772 334.238 421.772 327.309C421.772 326.837 421.772 326.207 421.772 325.735C428.701 325.735 435.63 325.735 442.559 325.735Z" fill="black"/>
<path d="M385.08 274.083C385.395 274.398 385.71 274.555 386.182 274.555C393.584 274.555 401.142 274.555 408.544 274.555C409.646 274.555 410.591 274.555 411.693 274.555C412.481 274.555 413.268 273.768 413.268 272.981C413.268 265.579 413.268 258.02 413.268 250.619C413.268 249.517 413.268 248.572 413.268 247.47C413.268 246.682 412.481 245.895 411.693 245.895C404.292 245.895 396.733 245.895 389.332 245.895C388.229 245.895 387.285 245.895 386.182 245.895C385.395 245.895 384.607 246.682 384.607 247.47C384.607 254.871 384.607 262.43 384.607 269.831C384.607 270.933 384.607 271.878 384.607 272.981C384.607 273.295 384.765 273.61 385.08 274.083C385.08 274.083 385.08 273.925 385.08 274.083ZM408.544 249.044C409.016 249.044 409.646 249.044 410.118 249.044C410.118 255.973 410.118 262.902 410.118 269.831C410.118 270.303 410.118 270.933 410.118 271.406C403.189 271.406 396.261 271.406 389.332 271.406C388.859 271.406 388.229 271.406 387.757 271.406C387.757 264.477 387.757 257.548 387.757 250.619C387.757 250.147 387.757 249.517 387.757 249.044C394.686 249.044 401.615 249.044 408.544 249.044Z" fill="black"/>
<path d="M385.08 312.35C385.08 312.35 385.08 312.507 385.08 312.35C385.395 312.665 385.71 312.822 386.182 312.822C393.584 312.822 401.142 312.822 408.544 312.822C409.646 312.822 410.591 312.822 411.693 312.822C412.481 312.822 413.268 312.035 413.268 311.247C413.268 303.846 413.268 296.287 413.268 288.886C413.268 287.784 413.268 286.839 413.268 285.736C413.268 284.949 412.481 284.162 411.693 284.162C404.292 284.162 396.733 284.162 389.332 284.162C388.229 284.162 387.285 284.162 386.182 284.162C385.395 284.162 384.607 284.949 384.607 285.736C384.607 293.138 384.607 300.697 384.607 308.098C384.607 309.2 384.607 310.145 384.607 311.247C384.607 311.72 384.765 312.035 385.08 312.35ZM408.544 287.311C409.016 287.311 409.646 287.311 410.118 287.311C410.118 294.24 410.118 301.169 410.118 308.098C410.118 308.57 410.118 309.2 410.118 309.673C403.189 309.673 396.261 309.673 389.332 309.673C388.859 309.673 388.229 309.673 387.757 309.673C387.757 302.744 387.757 295.815 387.757 288.886C387.757 288.413 387.757 287.784 387.757 287.311C394.686 287.311 401.615 287.311 408.544 287.311Z" fill="black"/>
<path d="M385.08 350.773C385.395 351.088 385.71 351.246 386.182 351.246C393.584 351.246 401.142 351.246 408.544 351.246C409.646 351.246 410.591 351.246 411.693 351.246C412.481 351.246 413.268 350.458 413.268 349.671C413.268 342.27 413.268 334.711 413.268 327.309C413.268 326.207 413.268 325.262 413.268 324.16C413.268 323.373 412.481 322.585 411.693 322.585C404.292 322.585 396.733 322.585 389.332 322.585C388.229 322.585 387.285 322.585 386.182 322.585C385.395 322.585 384.607 323.373 384.607 324.16C384.607 331.561 384.607 339.12 384.607 346.521C384.607 347.624 384.607 348.569 384.607 349.671C384.607 350.143 384.765 350.458 385.08 350.773C385.08 350.773 385.08 350.616 385.08 350.773ZM408.544 325.735C409.016 325.735 409.646 325.735 410.118 325.735C410.118 332.664 410.118 339.593 410.118 346.521C410.118 346.994 410.118 347.624 410.118 348.096C403.189 348.096 396.261 348.096 389.332 348.096C388.859 348.096 388.229 348.096 387.757 348.096C387.757 341.167 387.757 334.238 387.757 327.309C387.757 326.837 387.757 326.207 387.757 325.735C394.686 325.735 401.615 325.735 408.544 325.735Z" fill="black"/>
<path d="M350.907 274.083C351.222 274.398 351.537 274.555 352.01 274.555C359.411 274.555 366.97 274.555 374.371 274.555C375.474 274.555 376.419 274.555 377.521 274.555C378.308 274.555 379.096 273.768 379.096 272.981C379.096 265.579 379.096 258.02 379.096 250.619C379.096 249.517 379.096 248.572 379.096 247.47C379.096 246.682 378.308 245.895 377.521 245.895C370.119 245.895 362.561 245.895 355.159 245.895C354.057 245.895 353.112 245.895 352.01 245.895C351.222 245.895 350.435 246.682 350.435 247.47C350.435 254.871 350.435 262.43 350.435 269.831C350.435 270.933 350.435 271.878 350.435 272.981C350.435 273.295 350.593 273.768 350.907 274.083C350.907 274.083 350.907 273.925 350.907 274.083ZM374.371 249.044C374.844 249.044 375.474 249.044 375.946 249.044C375.946 255.973 375.946 262.902 375.946 269.831C375.946 270.303 375.946 270.933 375.946 271.406C369.017 271.406 362.088 271.406 355.159 271.406C354.687 271.406 354.057 271.406 353.585 271.406C353.585 264.477 353.585 257.548 353.585 250.619C353.585 250.147 353.585 249.517 353.585 249.044C360.513 249.044 367.442 249.044 374.371 249.044Z" fill="black"/>
<path d="M350.907 312.35C350.907 312.35 350.907 312.507 350.907 312.35C351.222 312.665 351.537 312.822 352.01 312.822C359.411 312.822 366.97 312.822 374.371 312.822C375.474 312.822 376.419 312.822 377.521 312.822C378.308 312.822 379.096 312.035 379.096 311.247C379.096 303.846 379.096 296.287 379.096 288.886C379.096 287.784 379.096 286.839 379.096 285.736C379.096 284.949 378.308 284.162 377.521 284.162C370.119 284.162 362.561 284.162 355.159 284.162C354.057 284.162 353.112 284.162 352.01 284.162C351.222 284.162 350.435 284.949 350.435 285.736C350.435 293.138 350.435 300.697 350.435 308.098C350.435 309.2 350.435 310.145 350.435 311.247C350.435 311.72 350.593 312.035 350.907 312.35ZM374.371 287.311C374.844 287.311 375.474 287.311 375.946 287.311C375.946 294.24 375.946 301.169 375.946 308.098C375.946 308.57 375.946 309.2 375.946 309.673C369.017 309.673 362.088 309.673 355.159 309.673C354.687 309.673 354.057 309.673 353.585 309.673C353.585 302.744 353.585 295.815 353.585 288.886C353.585 288.413 353.585 287.784 353.585 287.311C360.513 287.311 367.442 287.311 374.371 287.311Z" fill="black"/>
<path d="M377.521 351.246C378.308 351.246 379.096 350.458 379.096 349.671C379.096 342.27 379.096 334.711 379.096 327.309C379.096 326.207 379.096 325.262 379.096 324.16C379.096 323.373 378.308 322.585 377.521 322.585C370.119 322.585 362.561 322.585 355.159 322.585C354.057 322.585 353.112 322.585 352.01 322.585C351.222 322.585 350.435 323.373 350.435 324.16C350.435 331.404 350.435 338.648 350.435 345.892C352.64 347.624 354.844 349.356 356.892 351.246C362.718 351.246 368.545 351.246 374.371 351.246C375.474 351.246 376.419 351.246 377.521 351.246ZM353.585 348.096C353.585 341.167 353.585 334.238 353.585 327.309C353.585 326.837 353.585 326.207 353.585 325.735C360.513 325.735 367.442 325.735 374.371 325.735C374.844 325.735 375.474 325.735 375.946 325.735C375.946 332.664 375.946 339.593 375.946 346.521C375.946 346.994 375.946 347.624 375.946 348.096C369.017 348.096 362.088 348.096 355.159 348.096C354.687 348.096 354.057 348.096 353.585 348.096Z" fill="black"/>
<path d="M472.321 371.246C471.061 370.773 469.644 370.301 468.226 369.828C463.03 368.411 457.518 367.309 452.164 367.151C446.81 366.994 441.771 368.568 436.574 369.671C433.897 370.301 431.22 370.773 428.543 371.246C413.425 373.608 397.993 373.923 382.875 371.246C381.143 370.931 379.568 370.616 377.993 370.301C376.261 369.986 374.529 369.513 372.796 369.041C373.741 370.301 374.686 371.718 375.474 372.978C388.859 376.285 403.032 376.757 416.732 375.812C421.771 375.497 426.811 374.71 431.85 373.923C436.889 372.978 441.771 371.403 446.81 370.616C452.479 369.671 458.306 370.616 463.975 371.875C468.699 372.978 473.108 374.395 477.203 377.23C480.352 379.277 482.872 382.111 484.604 385.261C460.195 393.292 435.944 401.323 411.535 409.512C399.567 413.449 387.284 416.756 374.686 417.543C357.206 418.646 339.727 415.339 324.137 407.465C314.058 402.426 304.925 395.654 296.736 387.78C291.854 383.214 287.445 378.332 283.193 373.293C282.091 372.033 281.618 371.246 280.043 370.616C277.839 369.671 275.319 369.356 272.957 368.883C268.863 368.096 264.611 367.624 260.359 367.151C255.635 366.679 250.911 366.206 246.186 365.734C246.186 366.836 246.186 367.781 246.186 368.883C248.706 369.041 251.068 369.356 253.588 369.513C261.304 370.301 269.493 370.773 277.051 372.82C277.524 372.978 277.996 373.135 278.469 373.293C278.626 373.293 278.784 373.45 278.941 373.45C278.941 373.45 279.099 373.45 279.256 373.608L279.571 373.765C281.618 375.97 283.508 378.489 285.555 380.852C293.586 389.67 302.405 397.701 312.483 404.315C327.916 414.394 345.868 420.22 364.293 420.85C378.151 421.323 391.851 418.803 404.921 414.866C411.378 412.976 417.677 410.772 423.976 408.567C438.149 403.843 452.164 399.276 466.337 394.552C473.266 392.347 480.037 389.985 486.966 387.78C488.068 387.465 488.383 386.363 487.911 385.418C485.864 380.852 482.399 377.072 478.305 374.395C476.415 373.135 474.368 372.033 472.321 371.246Z" fill="black"/>
<path d="M240.36 216.605C248.234 216.762 256.107 216.92 263.824 217.234C281.146 217.707 298.468 218.494 315.791 219.754C323.349 220.384 330.751 221.014 338.31 221.959C340.199 222.116 342.089 222.431 343.979 222.746C336.892 225.266 330.278 229.203 328.704 237.234C327.759 241.643 328.231 246.525 328.231 250.934C328.231 255.816 328.074 260.855 327.916 265.737C327.601 275.028 327.286 284.161 327.286 293.453C327.444 307.468 328.704 321.483 332.955 334.869C334.215 335.498 335.632 336.286 336.892 336.916C334.058 328.884 332.483 320.538 331.538 312.035C331.223 308.57 330.908 304.948 330.751 301.484C329.963 282.587 331.381 263.532 331.538 244.635C331.538 244.163 331.538 243.69 331.538 243.218C331.538 241.013 331.538 238.966 332.168 236.919C332.168 236.919 332.168 236.919 332.168 236.761C332.325 235.974 332.64 235.187 333.113 234.399C334.373 232.195 336.105 230.305 338.31 228.888C341.774 226.683 345.553 225.423 349.49 224.478C350.12 224.321 351.065 224.163 351.537 223.533C351.852 223.219 352.01 222.904 352.01 222.431C352.01 221.014 350.435 220.699 349.175 220.541C349.018 220.541 348.86 220.541 348.545 220.384C341.774 219.282 335.003 218.494 328.231 217.864C311.381 216.132 294.374 215.345 277.524 214.715C265.084 214.242 252.485 213.927 239.887 213.613C240.202 214.557 240.36 215.502 240.36 216.605Z" fill="black"/>
<path d="M142.253 372.82C141.938 372.505 141.623 372.033 141.78 371.718C141.78 371.088 141.938 370.458 141.938 369.828C133.434 371.403 124.93 372.82 116.269 374.395C99.4195 377.387 82.5696 380.221 65.7197 383.214C47.1377 386.363 28.3981 389.513 9.816 392.662C-9.55346 395.969 -28.7654 399.119 -48.1349 402.268C-66.717 405.418 -85.2991 408.41 -104.039 411.559C-120.889 414.394 -137.581 417.071 -154.431 419.905C-168.131 422.267 -181.831 424.472 -195.689 426.834C-204.98 428.409 -214.271 429.984 -223.562 431.873C-223.877 431.873 -224.035 432.031 -224.35 432.031C-225.925 432.346 -227.342 432.661 -228.917 432.976C-230.806 433.291 -230.019 436.44 -228.129 435.968C-219.783 434.236 -211.279 432.818 -202.933 431.401C-189.863 429.196 -176.792 426.834 -163.722 424.787C-147.344 421.952 -130.809 419.275 -114.432 416.598C-95.8499 413.449 -77.2678 410.457 -58.6858 407.307C-39.1588 404 -19.7893 400.851 -0.262409 397.544C18.7921 394.394 38.0041 391.087 57.0586 387.938C74.5384 384.946 92.0181 381.954 109.498 378.962C120.679 376.757 131.387 374.867 142.253 372.82Z" fill="black"/>
<path d="M-78.5276 168.102C-48.7648 173.141 -19.0019 178.181 10.7609 183.535C37.8467 188.417 64.7749 193.298 91.7032 198.652C102.569 200.857 113.435 202.904 124.301 205.266C128.867 206.211 133.434 207.156 138.158 208.258C139.103 208.416 140.206 208.731 141.15 208.888C140.993 207.786 140.836 206.684 140.836 205.581C138.316 205.109 135.796 204.479 133.434 204.007C123.041 201.802 112.805 199.597 102.412 197.55C76.1132 192.353 49.6573 187.314 23.2014 182.59C-6.71886 177.236 -36.7967 171.882 -66.717 166.842C-95.5349 161.961 -124.353 157.236 -153.171 152.827C-176.005 149.363 -198.839 145.898 -221.83 142.906C-224.035 142.591 -226.082 142.434 -228.287 142.119C-230.334 141.804 -230.334 144.953 -228.287 145.268C-219.94 146.371 -211.437 147.473 -203.091 148.575C-189.705 150.465 -176.477 152.355 -163.092 154.402C-134.904 158.969 -106.716 163.378 -78.5276 168.102Z" fill="black"/>
<path d="M144.772 334.554C144.142 346.364 143.198 358.017 141.938 369.671C141.938 370.3 141.78 370.93 141.78 371.56C141.78 372.033 141.938 372.348 142.253 372.663C142.568 372.978 142.883 373.135 143.355 373.135C169.653 371.56 195.794 371.245 222.093 372.033C229.494 372.19 237.053 372.505 244.454 372.978C245.242 372.978 246.029 372.19 246.029 371.403C246.029 370.458 246.029 369.671 246.029 368.726C246.029 367.623 246.029 366.679 246.029 365.576C246.501 323.845 245.242 282.272 242.25 240.698C241.62 232.667 240.99 224.478 240.36 216.447C240.202 215.345 240.202 214.4 240.045 213.298C239.73 210.148 239.573 207.156 239.258 204.006C239.258 203.849 239.258 203.849 239.1 203.692C238.943 203.062 238.47 202.432 237.683 202.432C205.715 204.794 173.905 199.755 141.938 202.117C141.15 202.117 140.206 202.747 140.363 203.692C140.363 204.321 140.521 204.794 140.521 205.424C140.678 206.526 140.835 207.628 140.835 208.731C141.15 210.935 141.308 213.298 141.623 215.502C142.568 224.163 143.355 232.824 143.828 241.486C146.19 272.666 146.505 303.688 144.772 334.554ZM236.266 205.896C240.202 248.729 242.407 291.72 242.88 334.711C243.037 346.364 242.88 358.175 242.88 369.828C217.211 368.411 191.385 368.253 165.717 369.041C158.788 369.198 152.016 369.671 145.087 369.985C149.497 327.152 150.284 283.846 147.134 240.856C146.347 229.045 145.087 217.077 143.828 205.266C174.693 203.377 205.558 207.943 236.266 205.896Z" fill="black"/>
<path d="M214.691 222.904C215.006 226.053 216.896 229.203 219.888 230.62C222.88 232.195 226.187 231.565 228.549 229.36C231.226 226.998 232.486 223.061 231.699 219.597C231.226 217.707 228.234 218.494 228.707 220.384C229.179 222.431 228.549 224.636 227.132 226.368C225.715 227.943 223.825 228.73 221.935 228.1C219.888 227.471 218.471 225.423 217.998 223.376C217.526 221.329 217.998 219.124 219.573 217.55C221.148 215.975 223.51 215.187 225.4 215.975C226.187 216.29 227.132 216.132 227.604 215.345C227.919 214.715 227.762 213.613 226.974 213.14C220.675 210.936 213.904 216.447 214.691 222.904Z" fill="black"/>
<path d="M314.688 327.625C304.925 324.79 294.846 323.531 284.768 323.688C282.721 323.688 282.721 326.838 284.768 326.838C285.398 326.838 286.185 326.838 286.815 326.838C321.145 326.68 354.215 345.892 372.639 374.553C377.521 382.269 381.458 390.615 383.978 399.434C384.135 400.064 384.292 400.694 384.607 401.323C385.08 403.213 388.072 402.426 387.599 400.536C384.922 390.773 380.828 381.482 375.316 373.135C374.529 371.876 373.584 370.458 372.639 369.199C368.073 362.742 362.718 356.758 356.734 351.404C354.687 349.514 352.482 347.782 350.278 346.05C346.026 342.743 341.459 339.751 336.735 337.074C335.475 336.286 334.058 335.656 332.798 335.026C327.129 331.877 320.987 329.357 314.688 327.625Z" fill="black"/>
<path d="M972.462 221.014C984.273 222.116 996.084 223.376 1007.89 224.478C1010.1 224.636 1012.3 224.951 1014.51 225.108C1014.51 224.006 1014.51 223.061 1014.51 221.959C1000.65 220.541 986.793 219.282 972.935 217.864C973.092 217.864 973.092 218.022 973.25 218.022C974.825 218.967 973.88 221.171 972.462 221.014Z" fill="black"/>
<path d="M1018.45 342.427C1014.98 342.585 1011.52 342.585 1008.05 342.742C978.447 343.53 948.999 344.317 919.393 344.947C910.89 345.104 902.386 345.419 893.725 345.577C893.882 346.679 893.882 347.624 894.04 348.726C915.299 348.254 936.558 347.624 957.817 347.152C978.132 346.679 998.288 346.049 1018.6 345.577C1018.6 344.474 1018.6 343.53 1018.45 342.427Z" fill="black"/>
<path d="M791.209 252.667C791.681 248.887 792.154 245.108 792.783 241.171C793.728 233.927 794.358 226.368 796.405 219.282C797.98 213.298 801.13 207.471 807.744 206.054C811.365 205.266 814.987 205.581 818.609 206.054C822.861 206.526 827.27 206.841 831.522 207.314C839.868 208.101 848.215 208.888 856.561 209.833C862.23 210.306 867.742 210.936 873.411 211.408C876.088 210.463 878.922 209.833 881.757 209.046C876.403 208.573 871.049 207.944 865.694 207.471C856.876 206.684 848.215 205.739 839.396 204.952C830.892 204.164 822.389 202.904 814.043 202.589C807.429 202.274 801.287 204.164 797.35 209.676C793.728 214.872 792.783 221.329 791.838 227.471C790.579 235.974 789.476 244.32 788.374 252.824C789.161 252.667 790.106 252.667 791.209 252.667Z" fill="black"/>
<path d="M862.387 356.285C865.222 362.742 867.269 369.513 868.372 376.6C868.844 378.962 869.316 381.481 869.316 383.844C869.316 385.418 869.316 387.78 867.899 388.883C866.009 390.458 863.175 386.993 861.758 385.891C859.395 383.844 857.033 381.796 854.514 379.907C849.947 375.97 845.38 372.19 840.656 368.254C839.868 369.041 839.081 369.671 838.136 370.143C843.333 374.553 848.53 378.804 853.726 383.214C856.403 385.418 859.08 387.78 861.758 389.985C863.49 391.402 865.379 392.82 867.742 392.19C872.151 391.087 872.308 385.103 871.836 381.481C870.891 373.135 868.686 364.947 865.694 357.073C864.907 356.915 863.647 356.6 862.387 356.285Z" fill="black"/>
<path d="M893.882 345.577C893.41 341.955 892.15 338.49 890.261 335.341C889.631 334.396 889.001 333.451 888.371 332.506C886.954 332.349 885.536 332.191 884.276 332.191C884.434 332.349 884.591 332.506 884.749 332.664C890.418 339.908 894.04 351.246 887.898 359.277C874.198 355.813 860.498 352.506 846.797 349.041C846.797 349.671 846.797 350.144 846.797 350.773C846.797 351.246 846.797 351.876 846.797 352.348C851.994 353.608 857.191 355.025 862.545 356.285C863.805 356.6 865.064 356.915 866.324 357.23C873.568 358.962 880.969 360.852 888.213 362.584C888.686 362.742 889.316 362.584 889.788 362.112C893.095 358.175 894.512 353.451 894.355 348.569C894.04 347.624 894.04 346.679 893.882 345.577Z" fill="black"/>
<path d="M884.276 332.191C885.694 332.349 887.111 332.506 888.371 332.506C893.095 332.821 897.819 332.979 902.071 331.089C907.11 328.727 909.788 323.688 909.315 318.176C908.213 304.948 895.772 298.019 884.906 293.295C878.292 290.46 870.104 287.153 863.805 282.272C862.545 282.429 861.285 282.744 860.183 283.059C863.647 286.209 867.584 288.728 871.678 290.775C877.348 293.61 883.332 295.815 889.158 298.649C894.512 301.326 900.181 304.791 903.488 309.987C906.166 314.239 908.055 320.538 904.906 325.105C901.441 330.144 894.355 329.829 889.001 329.514C874.828 328.569 860.34 327.31 846.797 322.743C846.797 323.845 846.797 324.948 846.797 326.05C858.451 329.829 870.891 331.247 883.174 332.191C883.489 332.191 883.962 332.191 884.276 332.191Z" fill="black"/>
<path d="M725.699 252.667C709.322 252.667 693.102 252.667 676.724 252.667C666.016 252.667 658.3 260.698 658.3 271.406C658.3 279.91 658.3 288.256 658.3 296.76C658.3 316.287 657.985 335.656 658.3 355.183C658.457 362.742 663.181 369.671 670.425 372.033C672.945 372.82 675.464 372.978 677.984 372.978C684.126 372.978 690.11 372.978 696.251 372.978C696.724 372.978 697.196 372.978 697.668 372.978C698.928 372.978 700.188 372.978 701.448 372.978C724.282 372.978 747.116 372.978 769.95 372.978C788.689 372.978 807.429 372.978 826.168 372.978C827.113 372.978 828.058 372.978 829.16 372.978C832.625 372.978 835.932 371.875 838.609 370.143C839.554 369.513 840.341 368.883 841.128 368.253C843.963 365.576 846.01 361.954 846.64 357.86C846.955 356.128 846.798 354.238 846.798 352.348C846.798 351.876 846.798 351.246 846.798 350.774C846.798 350.144 846.798 349.671 846.798 349.041C846.798 341.325 846.798 333.609 846.798 325.893C846.798 324.79 846.798 323.688 846.798 322.586C846.798 321.641 846.798 320.696 846.798 319.908C846.798 309.043 846.798 298.334 846.798 287.469C845.695 287.941 844.75 288.256 843.648 288.728C843.648 292.193 843.648 295.5 843.648 298.964C843.648 317.704 843.963 336.443 843.648 355.183C843.491 363.214 837.192 369.671 829.003 369.828C815.775 369.828 802.704 369.828 789.477 369.828C764.91 369.828 740.502 369.828 715.936 369.828C702.708 369.828 689.322 369.986 676.094 369.828C668.063 369.671 661.607 363.214 661.449 355.183C661.449 353.136 661.449 351.089 661.449 349.199C661.449 338.648 661.449 328.097 661.449 317.546C661.449 305.893 661.449 294.24 661.449 282.587C661.449 275.5 660.032 266.367 665.229 260.698C668.221 257.391 672.472 255.816 676.882 255.816C678.929 255.816 680.819 255.816 682.866 255.816C691.212 255.816 699.558 255.816 707.904 255.816C732.156 255.816 756.407 255.816 780.658 255.816C785.54 255.816 790.421 255.816 795.303 255.816C796.563 254.714 797.665 253.769 798.925 252.667C796.405 252.667 793.886 252.667 791.366 252.667C790.264 252.667 789.319 252.667 788.217 252.667C772.784 252.667 757.194 252.667 741.762 252.667C740.344 252.667 739.085 252.667 737.667 252.667C733.415 252.667 729.636 252.667 725.699 252.667Z" fill="black"/>
<path d="M679.716 335.341C686.172 335.341 692.629 335.341 699.085 335.341C704.125 335.026 707.747 329.987 705.384 325.263C703.967 322.113 700.975 321.168 697.826 321.168C691.054 321.168 684.283 321.168 677.511 321.168C675.307 321.168 673.102 321.168 671.055 321.168C666.645 321.326 663.181 324.948 663.968 329.514C665.228 336.916 674.204 335.341 679.716 335.341ZM669.008 324.948C670.425 324.16 672.472 324.475 673.889 324.475C680.031 324.475 686.172 324.475 692.156 324.475C694.361 324.475 696.566 324.475 698.613 324.475C703.81 324.633 704.125 332.191 698.928 332.349C689.637 332.349 680.346 332.506 671.055 332.349C667.275 332.191 665.228 326.995 669.008 324.948Z" fill="black"/>
<path d="M707.904 329.514C709.164 336.916 718.14 335.341 723.652 335.341C730.108 335.341 736.565 335.341 743.021 335.341C748.06 335.026 751.682 329.987 749.32 325.263C747.903 322.113 744.911 321.168 741.761 321.168C734.99 321.168 728.218 321.168 721.447 321.168C719.242 321.168 717.038 321.168 714.991 321.168C710.581 321.326 707.117 325.105 707.904 329.514ZM712.943 324.948C714.361 324.16 716.408 324.475 717.825 324.475C723.967 324.475 730.108 324.475 736.092 324.475C738.297 324.475 740.502 324.475 742.549 324.475C747.745 324.633 748.06 332.191 742.864 332.349C733.573 332.349 724.282 332.506 714.991 332.349C711.211 332.191 709.164 326.995 712.943 324.948Z" fill="black"/>
<path d="M785.697 321.326C778.925 321.326 772.154 321.326 765.383 321.326C763.178 321.326 760.973 321.326 758.926 321.326C754.517 321.483 751.052 325.105 751.84 329.672C753.099 337.073 762.076 335.498 767.587 335.498C774.044 335.498 780.5 335.498 786.957 335.498C791.996 335.184 795.618 330.144 793.256 325.42C791.838 322.271 788.846 321.326 785.697 321.326ZM786.957 332.349C777.666 332.349 768.375 332.506 759.084 332.349C755.147 332.191 753.099 326.995 756.879 324.948C758.296 324.16 760.343 324.475 761.761 324.475C767.902 324.475 774.044 324.475 780.028 324.475C782.232 324.475 784.437 324.475 786.484 324.475C791.838 324.475 792.153 332.034 786.957 332.349Z" fill="black"/>
<path d="M829.633 321.326C822.861 321.326 816.09 321.326 809.319 321.326C807.114 321.326 804.909 321.326 802.862 321.326C798.453 321.483 794.988 325.105 795.776 329.672C797.036 337.073 806.012 335.498 811.523 335.498C817.98 335.498 824.436 335.498 830.893 335.498C835.932 335.184 839.554 330.144 837.192 325.42C835.774 322.271 832.782 321.326 829.633 321.326ZM830.893 332.349C821.602 332.349 812.311 332.506 803.02 332.349C799.083 332.191 797.036 326.995 800.815 324.948C802.232 324.16 804.279 324.475 805.697 324.475C811.838 324.475 817.98 324.475 823.964 324.475C826.168 324.475 828.373 324.475 830.42 324.475C835.774 324.475 836.089 332.034 830.893 332.349Z" fill="black"/>
<path d="M780.815 353.608C779.398 353.608 777.98 353.608 776.563 353.608C768.374 353.608 760.343 353.608 752.155 353.608C730.108 353.608 708.061 353.608 686.015 353.608C680.661 353.608 675.307 353.451 670.11 353.608C668.063 353.608 666.331 354.396 665.071 355.97C663.024 358.805 663.811 362.899 666.645 364.632C668.378 365.734 670.425 365.576 672.472 365.576C691.212 365.576 709.794 365.576 728.533 365.576C745.698 365.576 762.863 365.576 780.028 365.576C780.343 365.576 780.658 365.576 780.815 365.576C784.437 365.419 787.272 362.427 786.799 358.648C786.327 355.656 783.807 353.766 780.815 353.608ZM780.973 362.584C767.587 362.584 754.202 362.584 740.816 362.584C720.66 362.584 700.345 362.584 680.188 362.584C677.511 362.584 674.834 362.584 672.157 362.584C670.11 362.584 667.59 362.899 667.118 360.222C666.488 356.915 669.637 356.758 671.842 356.758C674.362 356.758 676.881 356.758 679.401 356.758C699.4 356.758 719.4 356.758 739.557 356.758C749.163 356.758 758.611 356.758 768.217 356.758C772.469 356.758 776.878 356.443 781.13 356.758C784.594 357.073 784.752 362.269 780.973 362.584Z" fill="black"/>
<path d="M687.59 309.83C690.582 309.987 693.574 309.83 696.566 309.83C699.558 309.83 702.393 309.83 705.385 309.83C710.267 309.672 713.574 305.893 713.574 301.168C713.574 298.176 713.574 295.342 713.574 292.35C713.416 287.626 709.952 284.161 705.227 284.004C702.393 284.004 699.558 284.004 696.724 284.004C693.889 284.004 690.897 284.004 688.063 284.004C683.496 284.161 679.716 287.626 679.716 292.192C679.716 295.027 679.716 298.019 679.716 300.854C679.874 305.578 682.866 309.515 687.59 309.83ZM683.023 300.066C683.023 298.491 683.023 296.917 683.023 295.342C683.023 292.192 682.866 288.728 686.488 287.468C688.378 286.838 690.897 287.153 692.787 287.153C696.094 287.153 699.243 287.153 702.55 287.153C705.07 287.153 707.589 286.838 709.479 288.885C711.526 291.248 710.739 295.499 710.739 298.334C710.739 299.594 710.896 300.696 710.739 301.956C710.581 304.633 708.219 306.523 705.7 306.68C700.503 306.68 695.464 306.68 690.267 306.68C687.59 306.68 684.756 306.523 683.496 303.531C682.866 302.428 683.023 301.168 683.023 300.066Z" fill="black"/>
<path d="M826.483 296.445C827.27 296.13 828.058 295.815 828.845 295.342C828.058 295.657 827.27 295.972 826.483 296.445Z" fill="black"/>
<path d="M873.253 211.408C871.206 212.038 869.159 212.668 867.269 213.455C860.655 215.975 854.513 219.439 848.214 222.904C835.301 230.305 821.759 236.919 809.161 245.108C805.539 247.47 802.074 249.989 798.61 252.824C797.35 253.769 796.09 254.871 794.988 255.973C788.846 261.485 783.177 267.626 778.295 274.398C774.674 279.437 771.996 284.791 774.201 290.933C776.091 296.444 780.5 300.696 785.539 303.373C790.893 306.208 797.035 307.625 803.019 306.68C808.373 305.736 813.57 302.744 818.294 300.381C820.971 299.122 823.648 297.862 826.325 296.444C827.113 296.13 827.9 295.657 828.688 295.342C833.569 292.98 838.451 290.775 843.49 288.728C844.593 288.256 845.537 287.941 846.64 287.468C849.789 286.209 852.939 285.264 856.088 284.319C857.348 284.004 858.765 283.532 860.025 283.217C861.285 282.902 862.545 282.587 863.647 282.429C866.639 281.799 869.789 281.642 872.781 281.799C880.812 282.587 888.371 286.996 895.457 290.46C903.016 294.082 910.732 297.074 919.078 297.704C927.11 298.334 935.456 297.074 943.015 294.082C946.637 292.665 950.101 290.775 953.408 288.571C954.668 287.783 954.038 286.051 953.093 285.736C952.778 285.579 952.306 285.579 951.833 285.894C938.448 295.185 921.126 297.389 905.85 291.72C898.134 288.886 890.89 284.476 883.174 281.484C877.347 279.28 871.678 278.177 865.537 278.965C853.096 280.697 840.971 286.209 829.632 291.405C823.963 294.082 818.452 296.759 812.783 299.437C807.901 301.799 803.177 304.161 797.665 303.846C787.744 303.373 773.099 294.397 776.878 282.744C777.823 279.595 780.343 276.603 782.232 274.083C784.437 271.091 786.799 268.256 789.319 265.579C794.043 260.54 799.24 255.973 804.909 251.879C816.089 243.848 828.373 237.549 840.341 230.935C846.955 227.313 853.254 223.218 859.868 220.069C865.852 217.077 872.308 214.872 878.765 213.14C892.78 209.361 907.583 207.786 922.07 208.416C935.928 208.888 950.101 211.408 963.014 216.919C965.849 218.179 968.683 219.597 971.518 221.171C971.675 221.171 971.833 221.329 971.833 221.329H971.99H972.148C973.565 221.329 974.51 219.282 972.935 218.494C972.777 218.494 972.777 218.337 972.62 218.337C960.494 211.408 946.794 207.786 932.936 206.211C917.976 204.479 902.543 205.109 887.741 207.943C885.536 208.416 883.332 208.888 880.969 209.361C878.607 209.676 875.93 210.463 873.253 211.408Z" fill="black"/>
<path d="M803.649 295.5C805.854 293.767 807.586 291.563 809.791 289.83C811.838 288.098 813.885 286.523 814.987 284.004C816.09 281.327 815.775 278.177 814.83 275.5C813.727 272.823 811.995 270.618 809.948 268.571C808.058 266.682 805.854 264.319 803.177 263.375C799.87 262.43 797.193 264.792 794.988 266.996C792.468 269.359 790.421 272.036 788.689 275.028C787.744 276.76 790.421 278.335 791.366 276.602C792.626 274.555 793.886 272.666 795.618 270.933C796.405 270.146 797.193 269.359 797.98 268.571C798.767 267.784 799.87 266.682 801.129 266.367C803.334 265.894 805.539 268.571 806.799 269.831C808.531 271.406 810.263 273.138 811.365 275.343C812.468 277.39 813.098 279.752 812.468 281.957C811.838 284.161 810.106 285.579 808.531 286.996C806.799 288.413 805.381 289.83 803.807 291.405C802.232 292.98 800.5 294.397 798.137 294.397C792.468 294.555 788.846 289.201 786.012 285.106C784.909 283.531 782.232 284.949 783.335 286.681C786.484 291.405 790.264 296.444 796.248 297.389C798.767 297.862 801.444 297.074 803.649 295.5Z" fill="black"/>
<path d="M1118.92 208.888C1118.92 209.518 1118.76 210.148 1118.76 210.621C1126 209.203 1133.4 207.943 1140.65 206.526C1170.41 200.857 1200.33 195.03 1230.09 189.046C1262.22 182.747 1294.34 176.448 1326.47 170.149C1357.18 164.165 1387.73 158.181 1418.43 152.197C1420.48 151.725 1422.53 151.41 1424.57 150.937C1425.99 150.622 1427.41 150.307 1428.83 150.15C1430.87 149.835 1429.93 146.843 1428.04 147.158C1397.33 153.142 1366.62 159.126 1335.92 165.11C1303.16 171.567 1270.25 178.023 1237.49 184.48C1206.79 190.464 1176.08 196.448 1145.37 202.432C1136.39 204.164 1127.42 205.896 1118.44 207.628C1118.6 208.101 1118.92 208.416 1118.92 208.888Z" fill="black"/>
<path d="M1288.67 404.158C1264.58 399.906 1240.33 395.654 1216.23 391.087C1195.13 387.15 1174.19 383.213 1153.24 378.962C1144.74 377.229 1136.39 375.497 1128.05 373.607C1125.21 372.978 1122.38 372.348 1119.54 371.718C1119.7 372.82 1119.86 373.922 1119.86 374.867C1120.02 374.867 1120.17 374.867 1120.33 375.025C1128.36 376.757 1136.39 378.489 1144.43 380.221C1164.74 384.473 1185.21 388.41 1205.68 392.19C1229.62 396.756 1253.56 401.008 1277.49 405.26C1302.37 409.669 1327.25 413.921 1352.14 418.016C1374.97 421.795 1397.8 425.417 1420.79 428.881C1423.31 429.354 1425.99 429.669 1428.67 429.984C1430.56 430.299 1431.5 427.307 1429.46 426.992C1419.06 425.417 1408.51 423.842 1398.12 422.11C1386.31 420.22 1374.34 418.33 1362.53 416.441C1337.81 412.504 1313.24 408.41 1288.67 404.158Z" fill="black"/>
<path d="M1014.51 225.108C1014.35 263.375 1015.61 301.641 1018.29 339.75C1018.29 340.695 1018.45 341.482 1018.45 342.427C1018.45 343.53 1018.6 344.474 1018.76 345.577C1019.55 355.813 1020.34 366.206 1021.28 376.442C1021.28 376.599 1021.28 376.599 1021.44 376.757C1021.6 377.387 1022.07 378.017 1022.85 378.017C1054.82 375.655 1086.63 380.694 1118.6 378.332C1119.39 378.332 1120.33 377.702 1120.17 376.757C1120.17 376.127 1120.02 375.655 1120.02 375.025C1119.86 373.922 1119.7 372.82 1119.7 371.875C1119.39 369.671 1119.23 367.466 1118.91 365.261C1117.97 355.813 1117.18 346.364 1116.55 336.916C1114.51 306.68 1114.35 276.288 1116.08 246.052C1116.71 234.242 1117.66 222.589 1118.91 210.778C1118.91 210.148 1119.07 209.518 1119.07 209.046C1119.07 208.573 1118.76 208.101 1118.44 207.786C1118.13 207.628 1117.81 207.471 1117.5 207.471C1091.2 209.046 1065.06 209.361 1038.76 208.573C1031.36 208.416 1023.8 208.101 1016.4 207.628C1015.61 207.628 1014.82 208.416 1014.82 209.203C1014.82 213.455 1014.67 217.864 1014.67 222.116C1014.51 223.061 1014.51 224.163 1014.51 225.108ZM1017.82 210.778C1043.48 212.195 1069.31 212.353 1094.98 211.565C1101.91 211.408 1108.68 210.935 1115.61 210.62C1111.2 253.454 1110.41 296.759 1113.56 339.75C1114.35 351.561 1115.61 363.529 1116.87 375.34C1086 377.387 1055.14 372.82 1024.27 374.867C1020.34 332.034 1018.13 289.043 1017.66 246.052C1017.5 234.242 1017.66 222.431 1017.82 210.778Z" fill="black"/>
<path d="M1040.81 349.987C1037.82 348.412 1034.51 349.042 1032.15 351.246C1029.47 353.608 1028.21 357.545 1029 361.01C1029.47 362.9 1032.46 362.112 1031.99 360.222C1031.52 358.175 1032.15 355.971 1033.56 354.238C1034.98 352.664 1036.87 351.876 1038.76 352.506C1040.81 353.136 1042.22 355.183 1042.7 357.23C1043.17 359.278 1042.7 361.482 1041.12 363.057C1039.55 364.632 1037.19 365.419 1035.3 364.632C1034.51 364.317 1033.56 364.474 1033.09 365.262C1032.78 365.892 1032.93 366.994 1033.72 367.466C1039.7 370.143 1046.63 364.632 1045.85 358.175C1045.69 354.553 1043.64 351.561 1040.81 349.987Z" fill="black"/>
</g>
<defs>
<clipPath id="clip0">
<rect width="1200" height="549" fill="white"/>
</clipPath>
</defs>
</svg>
