<svg width="1200" height="549" viewBox="0 0 1200 549" fill="none" xmlns="http://www.w3.org/2000/svg">
<g clip-path="url(#clip0)">
<g clip-path="url(#clip1)">
<path d="M321.563 139.548C321.563 139.386 321.402 139.224 321.402 139.062C314.935 139.062 308.468 139.062 302 139.062C301.839 139.386 301.677 139.71 301.677 140.195C312.833 140.195 324.15 140.195 335.306 140.195C335.468 139.871 335.468 139.386 335.629 139.062C331.264 139.062 326.899 139.062 322.534 139.062C322.534 139.062 322.534 139.224 322.695 139.224C322.857 139.871 321.887 140.195 321.563 139.548Z" fill="black"/>
<path d="M669.493 139.548C669.493 139.386 669.332 139.224 669.332 139.062C665.451 139.062 661.571 139.062 657.691 139.062C655.104 139.062 652.517 139.062 649.93 139.062C649.769 139.386 649.607 139.71 649.607 140.195C651.87 140.195 654.134 140.195 656.397 140.195C660.763 140.195 664.966 140.195 669.332 140.195C672.727 140.195 675.96 140.842 678.871 141.974C679.356 141.813 680.002 141.489 680.487 141.327C677.415 140.033 674.182 139.386 670.625 139.224V139.386C670.787 139.871 669.655 140.195 669.493 139.548Z" fill="black"/>
<path d="M602.074 466C614.038 466 626.002 466 637.966 466C645.888 466 653.649 466 661.571 466C664.32 466 667.068 466 669.655 466C680.972 465.838 691.32 458.882 695.2 448.205C696.655 444.485 696.978 440.764 696.978 436.882C696.978 429.764 696.978 422.484 696.978 415.366C696.978 401.939 696.978 388.674 696.978 375.247C696.978 358.423 696.978 341.437 696.978 324.613C696.978 320.245 696.978 315.716 696.978 311.348C696.655 311.348 696.332 311.348 695.847 311.348C695.847 315.23 695.847 319.275 695.847 323.157C695.847 339.981 695.847 356.644 695.847 373.468C695.847 386.895 695.847 400.321 695.847 413.748C695.847 421.352 695.847 428.793 695.847 436.396C695.847 438.823 695.847 441.088 695.362 443.514C693.098 455.97 682.104 464.868 669.493 465.03C666.583 465.03 663.835 465.03 660.924 465.03C653.002 465.03 645.08 465.03 637.158 465.03C625.194 465.03 613.391 465.03 601.427 465.03C586.553 465.03 571.678 465.03 556.804 465.03C539.99 465.03 523.337 465.03 506.522 465.03C488.738 465.03 470.953 465.03 453.169 465.03C435.546 465.03 417.923 465.03 400.139 465.03C383.648 465.03 367.156 465.03 350.665 465.03C336.276 465.03 322.048 465.03 307.659 465.03C296.503 465.03 285.348 465.03 274.192 465.03C267.24 465.03 260.449 465.03 253.497 465.03C246.222 465.03 239.27 464.706 232.964 460.176C225.85 455.162 221.97 446.911 221.808 438.337C221.808 436.396 221.808 434.617 221.808 432.676C221.808 423.455 221.808 414.234 221.808 405.013C221.808 390.454 221.808 376.056 221.808 361.497C221.808 344.187 221.808 326.878 221.808 309.568C221.808 291.935 221.808 274.303 221.808 256.67C221.808 241.14 221.808 225.771 221.808 210.242C221.808 199.403 221.808 188.564 221.808 177.726C221.808 172.387 221.323 166.725 222.293 161.549C224.557 149.092 235.551 140.195 248.162 140.033C248.97 140.033 249.779 140.033 250.587 140.033C255.599 140.033 260.611 140.033 265.461 140.033C265.623 139.71 265.623 139.224 265.785 138.901C260.611 138.901 255.437 138.901 250.264 138.901C249.132 138.901 248 138.901 246.868 138.901C235.874 139.548 225.85 147.313 222.455 157.99C220.515 163.813 221.162 170.446 221.162 176.593C221.162 187.27 221.162 198.109 221.162 208.786C221.162 224.316 221.162 239.845 221.162 255.214C221.162 273.008 221.162 290.641 221.162 308.436C221.162 325.907 221.162 343.378 221.162 360.85C221.162 375.571 221.162 390.13 221.162 404.851C221.162 414.234 221.162 423.455 221.162 432.837C221.162 434.617 221.162 436.558 221.162 438.337C221.162 446.264 224.395 453.867 230.216 459.044C235.389 463.574 242.018 466 248.809 466C250.102 466 251.557 466 252.85 466C259.479 466 266.108 466 272.737 466C283.731 466 294.725 466 305.719 466C320.108 466 334.336 466 348.725 466C365.378 466 382.031 466 398.684 466C416.468 466 434.253 466 452.037 466C469.983 466 487.93 466 505.876 466C522.852 466 539.828 466 556.966 466C571.84 466 586.876 466 602.074 466Z" fill="black"/>
<path d="M634.571 139.548C634.571 139.386 634.409 139.224 634.409 139.062C633.277 139.062 632.146 139.062 631.014 139.062C625.679 139.062 620.343 139.062 615.008 139.062C614.846 139.386 614.685 139.71 614.685 140.195C619.535 140.195 624.224 140.195 629.074 140.195C635.541 140.195 642.008 140.195 648.475 140.195C648.637 139.871 648.637 139.386 648.799 139.062C644.433 139.062 640.068 139.062 635.703 139.062C635.703 139.062 635.703 139.224 635.864 139.224C635.864 139.871 634.894 140.195 634.571 139.548Z" fill="black"/>
<path d="M356.324 139.548C356.324 139.386 356.162 139.224 356.162 139.062C350.342 139.062 344.36 139.062 338.54 139.062C337.893 139.062 337.408 139.062 336.761 139.062C336.599 139.386 336.438 139.71 336.438 140.195C337.084 140.195 337.893 140.195 338.54 140.195C349.049 140.195 359.558 140.195 370.067 140.195C370.228 139.871 370.228 139.386 370.39 139.062C366.025 139.062 361.659 139.062 357.294 139.062C357.294 139.062 357.294 139.224 357.456 139.224C357.617 139.871 356.647 140.195 356.324 139.548Z" fill="black"/>
<path d="M391.246 139.548C391.246 139.386 391.085 139.224 391.085 139.062C389.791 139.062 388.659 139.062 387.366 139.062C382.192 139.062 376.857 139.062 371.683 139.062C371.36 139.386 371.36 139.71 371.198 140.195C376.372 140.195 381.546 140.195 386.558 140.195C392.701 140.195 398.683 140.195 404.827 140.195C404.989 139.871 404.989 139.386 405.15 139.062C400.785 139.062 396.42 139.062 392.055 139.062C392.055 139.062 392.055 139.224 392.216 139.224C392.54 139.871 391.408 140.195 391.246 139.548Z" fill="black"/>
<path d="M565.05 139.548C565.05 139.386 564.888 139.224 564.888 139.062C558.583 139.062 552.277 139.062 545.972 139.062C545.81 139.062 545.648 139.062 545.487 139.062C545.325 139.386 545.163 139.71 545.163 140.195C556.319 140.195 567.637 140.195 578.792 140.195C578.954 139.871 578.954 139.386 579.116 139.062C574.75 139.062 570.385 139.062 566.02 139.062C566.02 139.062 566.02 139.224 566.181 139.224C566.343 139.871 565.373 140.195 565.05 139.548Z" fill="black"/>
<path d="M495.528 139.548C495.528 139.386 495.367 139.224 495.367 139.062C494.882 139.062 494.558 139.062 494.073 139.062C488.091 139.062 481.948 139.062 475.965 139.062C475.804 139.386 475.642 139.71 475.642 140.195C481.301 140.195 486.96 140.195 492.618 140.195C498.277 140.195 503.774 140.195 509.433 140.195C509.594 139.871 509.594 139.386 509.756 139.062C505.391 139.062 501.025 139.062 496.66 139.062C496.66 139.062 496.66 139.224 496.822 139.224C496.822 139.871 495.69 140.195 495.528 139.548Z" fill="black"/>
<path d="M286.803 139.548C286.803 139.386 286.641 139.224 286.641 139.062C280.174 139.062 273.707 139.062 267.24 139.062C267.078 139.386 266.916 139.71 266.916 140.195C267.24 140.195 267.401 140.195 267.725 140.195C277.91 140.195 287.934 140.195 298.12 140.195C298.929 140.195 299.899 140.195 300.707 140.195C300.869 139.871 300.869 139.386 301.03 139.062C299.899 139.062 298.767 139.062 297.635 139.062C294.402 139.062 291.168 139.062 287.934 139.062C287.934 139.062 287.934 139.224 288.096 139.224C288.096 139.871 287.126 140.195 286.803 139.548Z" fill="black"/>
<path d="M530.289 139.548C530.289 139.386 530.127 139.224 530.127 139.062C523.66 139.062 517.193 139.062 510.726 139.062C510.564 139.386 510.403 139.71 510.403 140.195C521.558 140.195 532.876 140.195 544.032 140.195C544.193 139.871 544.193 139.386 544.355 139.062C539.99 139.062 535.624 139.062 531.259 139.062C531.259 139.062 531.259 139.224 531.421 139.224C531.582 139.871 530.612 140.195 530.289 139.548Z" fill="black"/>
<path d="M460.768 139.548C460.768 139.386 460.606 139.224 460.606 139.062C454.139 139.062 447.672 139.062 441.205 139.062C441.043 139.386 440.881 139.71 440.881 140.195C452.037 140.195 463.355 140.195 474.51 140.195C474.672 139.871 474.672 139.386 474.834 139.062C470.468 139.062 466.103 139.062 461.738 139.062C461.738 139.062 461.738 139.224 461.899 139.224C462.061 139.871 460.929 140.195 460.768 139.548Z" fill="black"/>
<path d="M599.81 139.548C599.81 139.386 599.648 139.224 599.648 139.062C597.385 139.062 595.121 139.062 592.858 139.062C588.654 139.062 584.451 139.062 580.247 139.062C580.086 139.386 579.924 139.71 579.924 140.195C583.481 140.195 587.038 140.195 590.595 140.195C598.193 140.195 605.954 140.195 613.553 140.195C613.714 139.871 613.714 139.386 613.876 139.062C609.511 139.062 605.145 139.062 600.78 139.062C600.78 139.062 600.78 139.224 600.942 139.224C601.104 139.871 600.134 140.195 599.81 139.548Z" fill="black"/>
<path d="M426.007 139.548C426.007 139.386 425.845 139.224 425.845 139.062C419.378 139.062 412.911 139.062 406.444 139.062C406.282 139.386 406.121 139.71 406.121 140.195C417.115 140.195 428.109 140.195 439.103 140.195C439.264 140.195 439.588 140.195 439.75 140.195C439.911 139.871 439.911 139.386 440.073 139.062C435.708 139.062 431.342 139.062 426.977 139.062C426.977 139.062 426.977 139.224 427.139 139.224C427.3 139.871 426.169 140.195 426.007 139.548Z" fill="black"/>
<path d="M265.623 140.195C265.3 141.327 265.138 142.46 265.138 143.592C265.138 147.313 267.078 150.548 270.15 152.651C273.707 154.916 278.234 155.401 282.114 153.46C282.761 153.137 282.114 152.166 281.629 152.49C275.485 155.563 267.24 151.519 266.431 144.563C266.27 143.107 266.431 141.489 266.916 140.033C267.078 139.71 267.24 139.224 267.24 138.901C267.725 137.607 268.533 136.474 269.503 135.504C271.928 133.077 275.324 131.945 278.557 132.592C282.114 133.239 285.186 135.665 286.641 138.901C286.641 139.063 286.803 139.224 286.803 139.386C286.964 140.033 288.096 139.71 287.934 139.063C287.934 139.063 287.934 138.901 287.773 138.901C285.024 131.945 275.647 128.871 269.665 133.724C268.048 135.018 266.755 136.96 265.946 138.901C265.946 139.386 265.785 139.71 265.623 140.195Z" fill="black"/>
<path d="M300.545 140.195C300.222 141.327 300.06 142.46 300.06 143.592C300.06 147.313 302 150.548 305.072 152.651C308.629 154.916 313.156 155.401 317.036 153.46C317.683 153.137 317.036 152.166 316.551 152.49C310.408 155.563 302.162 151.519 301.354 144.563C301.192 143.107 301.354 141.489 301.839 140.033C302 139.71 302.162 139.224 302.162 138.901C302.647 137.607 303.456 136.474 304.426 135.504C306.851 133.077 310.246 131.945 313.48 132.592C317.036 133.239 320.108 135.665 321.563 138.901C321.563 139.063 321.725 139.224 321.725 139.386C321.887 140.033 323.018 139.71 322.857 139.063C322.857 139.063 322.857 138.901 322.695 138.901C319.947 131.945 310.569 128.871 304.587 133.724C302.97 135.018 301.677 136.96 300.869 138.901C300.707 139.386 300.545 139.71 300.545 140.195Z" fill="black"/>
<path d="M335.306 140.195C334.983 141.327 334.821 142.46 334.821 143.592C334.821 147.313 336.761 150.548 339.833 152.651C343.39 154.916 347.917 155.401 351.797 153.46C352.444 153.137 351.797 152.166 351.312 152.49C345.168 155.563 336.923 151.519 336.114 144.563C335.953 143.107 336.114 141.489 336.599 140.033C336.761 139.71 336.923 139.224 336.923 138.901C337.408 137.607 338.216 136.474 339.186 135.504C341.611 133.077 345.007 131.945 348.24 132.592C351.797 133.239 354.869 135.665 356.324 138.901C356.324 139.063 356.486 139.224 356.486 139.386C356.648 140.033 357.779 139.71 357.618 139.063C357.618 139.063 357.618 138.901 357.456 138.901C354.707 131.945 345.33 128.871 339.348 133.724C337.731 135.018 336.438 136.96 335.629 138.901C335.468 139.386 335.306 139.71 335.306 140.195Z" fill="black"/>
<path d="M370.067 140.195C369.743 141.327 369.582 142.46 369.582 143.592C369.582 147.313 371.522 150.548 374.594 152.651C378.15 154.916 382.677 155.401 386.558 153.46C387.204 153.137 386.558 152.166 386.073 152.49C379.929 155.563 371.683 151.519 370.875 144.563C370.713 143.107 370.875 141.489 371.36 140.033C371.522 139.71 371.683 139.224 371.683 138.901C372.168 137.607 372.977 136.474 373.947 135.504C376.372 133.077 379.767 131.945 383.001 132.592C386.558 133.239 389.63 135.665 391.085 138.901C391.085 139.063 391.246 139.224 391.246 139.386C391.408 140.033 392.54 139.71 392.378 139.063C392.378 139.063 392.378 138.901 392.216 138.901C389.468 131.945 380.091 128.871 374.109 133.724C372.492 135.018 371.198 136.96 370.39 138.901C370.228 139.386 370.067 139.71 370.067 140.195Z" fill="black"/>
<path d="M404.827 140.195C404.504 141.327 404.342 142.46 404.342 143.592C404.342 147.313 406.282 150.548 409.354 152.651C412.911 154.916 417.438 155.401 421.318 153.46C421.965 153.137 421.318 152.166 420.833 152.49C414.69 155.563 406.444 151.519 405.636 144.563C405.474 143.107 405.636 141.489 406.121 140.033C406.282 139.71 406.444 139.224 406.444 138.901C406.929 137.607 407.738 136.474 408.708 135.504C411.133 133.077 414.528 131.945 417.762 132.592C421.318 133.239 424.39 135.665 425.845 138.901C425.845 139.063 426.007 139.224 426.007 139.386C426.169 140.033 427.3 139.71 427.139 139.063C427.139 139.063 427.139 138.901 426.977 138.901C424.229 131.945 414.851 128.871 408.869 133.724C407.252 135.018 405.959 136.96 405.151 138.901C404.989 139.386 404.989 139.71 404.827 140.195Z" fill="black"/>
<path d="M439.588 140.195C439.264 141.327 439.103 142.46 439.103 143.592C439.103 147.313 441.043 150.548 444.115 152.651C447.672 154.916 452.199 155.401 456.079 153.46C456.726 153.137 456.079 152.166 455.594 152.49C449.45 155.563 441.205 151.519 440.396 144.563C440.235 143.107 440.396 141.489 440.881 140.033C441.043 139.71 441.205 139.224 441.205 138.901C441.69 137.607 442.498 136.474 443.468 135.504C445.893 133.077 449.288 131.945 452.522 132.592C456.079 133.239 459.151 135.665 460.606 138.901C460.606 139.063 460.768 139.224 460.768 139.386C460.929 140.033 462.061 139.71 461.899 139.063C461.899 139.063 461.899 138.901 461.738 138.901C458.989 131.945 449.612 128.871 443.63 133.724C442.013 135.018 440.72 136.96 439.911 138.901C439.749 139.386 439.749 139.71 439.588 140.195Z" fill="black"/>
<path d="M474.349 140.195C474.025 141.327 473.864 142.46 473.864 143.592C473.864 147.313 475.804 150.548 478.876 152.651C482.432 154.916 486.959 155.401 490.84 153.46C491.486 153.137 490.84 152.166 490.355 152.49C484.211 155.563 475.965 151.519 475.157 144.563C474.995 143.107 475.157 141.489 475.642 140.033C475.804 139.71 475.965 139.224 475.965 138.901C476.45 137.607 477.259 136.474 478.229 135.504C480.654 133.077 484.049 131.945 487.283 132.592C490.84 133.239 493.912 135.665 495.367 138.901C495.367 139.063 495.528 139.224 495.528 139.386C495.69 140.033 496.822 139.71 496.66 139.063C496.66 139.063 496.66 138.901 496.498 138.901C493.75 131.945 484.373 128.871 478.391 133.724C476.774 135.018 475.48 136.96 474.672 138.901C474.672 139.386 474.51 139.71 474.349 140.195Z" fill="black"/>
<path d="M509.109 140.195C508.786 141.327 508.624 142.46 508.624 143.592C508.624 147.313 510.564 150.548 513.636 152.651C517.193 154.916 521.72 155.401 525.6 153.46C526.247 153.137 525.6 152.166 525.115 152.49C518.971 155.563 510.726 151.519 509.917 144.563C509.756 143.107 509.917 141.489 510.402 140.033C510.564 139.71 510.726 139.224 510.726 138.901C511.211 137.607 512.019 136.474 512.989 135.504C515.414 133.077 518.81 131.945 522.043 132.592C525.6 133.239 528.672 135.665 530.127 138.901C530.127 139.063 530.289 139.224 530.289 139.386C530.45 140.033 531.582 139.71 531.421 139.063C531.421 139.063 531.421 138.901 531.259 138.901C528.51 131.945 519.133 128.871 513.151 133.724C511.534 135.018 510.241 136.96 509.432 138.901C509.432 139.386 509.271 139.71 509.109 140.195Z" fill="black"/>
<path d="M543.87 140.195C543.546 141.327 543.385 142.46 543.385 143.592C543.385 147.313 545.325 150.548 548.397 152.651C551.954 154.916 556.481 155.401 560.361 153.46C561.008 153.137 560.361 152.166 559.876 152.49C553.732 155.563 545.487 151.519 544.678 144.563C544.517 143.107 544.678 141.489 545.163 140.033C545.325 139.71 545.487 139.224 545.487 138.901C545.972 137.607 546.78 136.474 547.75 135.504C550.175 133.077 553.57 131.945 556.804 132.592C560.361 133.239 563.433 135.665 564.888 138.901C564.888 139.063 565.05 139.224 565.05 139.386C565.211 140.033 566.343 139.71 566.181 139.063C566.181 139.063 566.181 138.901 566.02 138.901C563.271 131.945 553.894 128.871 547.912 133.724C546.295 135.018 545.002 136.96 544.193 138.901C544.193 139.386 544.031 139.71 543.87 140.195Z" fill="black"/>
<path d="M578.792 140.195C578.469 141.327 578.307 142.46 578.307 143.592C578.307 147.313 580.247 150.548 583.319 152.651C586.876 154.916 591.403 155.401 595.283 153.46C595.93 153.137 595.283 152.166 594.798 152.49C588.654 155.563 580.409 151.519 579.601 144.563C579.439 143.107 579.601 141.489 580.086 140.033C580.247 139.71 580.409 139.224 580.409 138.901C580.894 137.607 581.702 136.474 582.672 135.504C585.098 133.077 588.493 131.945 591.726 132.592C595.283 133.239 598.355 135.665 599.81 138.901C599.81 139.063 599.972 139.224 599.972 139.386C600.134 140.033 601.265 139.71 601.104 139.063C601.104 139.063 601.104 138.901 600.942 138.901C598.193 131.945 588.816 128.871 582.834 133.724C581.217 135.018 579.924 136.96 579.116 138.901C578.954 139.386 578.792 139.71 578.792 140.195Z" fill="black"/>
<path d="M613.553 140.195C613.23 141.327 613.068 142.46 613.068 143.592C613.068 147.313 615.008 150.548 618.08 152.651C621.637 154.916 626.164 155.401 630.044 153.46C630.691 153.137 630.044 152.166 629.559 152.49C623.415 155.563 615.17 151.519 614.361 144.563C614.2 143.107 614.361 141.489 614.846 140.033C615.008 139.71 615.17 139.224 615.17 138.901C615.655 137.607 616.463 136.474 617.433 135.504C619.858 133.077 623.254 131.945 626.487 132.592C630.044 133.239 633.116 135.665 634.571 138.901C634.571 139.063 634.733 139.224 634.733 139.386C634.894 140.033 636.026 139.71 635.864 139.063C635.864 139.063 635.864 138.901 635.703 138.901C632.954 131.945 623.577 128.871 617.595 133.724C615.978 135.018 614.685 136.96 613.876 138.901C613.715 139.386 613.553 139.71 613.553 140.195Z" fill="black"/>
<path d="M648.314 140.195C647.99 141.327 647.829 142.46 647.829 143.592C647.829 147.313 649.769 150.548 652.841 152.651C656.398 154.916 660.924 155.401 664.805 153.46C665.451 153.137 664.805 152.166 664.32 152.489C658.176 155.563 649.93 151.519 649.122 144.563C648.96 143.107 649.122 141.489 649.607 140.033C649.769 139.71 649.93 139.224 649.93 138.901C650.415 137.607 651.224 136.474 652.194 135.504C654.619 133.077 658.014 131.945 661.248 132.592C664.805 133.239 667.877 135.665 669.332 138.901C669.332 139.063 669.493 139.224 669.493 139.386C669.655 140.033 670.787 139.71 670.625 139.063V138.901C667.877 131.945 658.499 128.871 652.517 133.562C650.9 134.856 649.607 136.798 648.799 138.739C648.475 139.386 648.314 139.71 648.314 140.195Z" fill="black"/>
<path d="M332.881 182.902C329.486 179.182 324.959 179.182 320.432 179.182C315.905 179.182 311.378 179.182 307.012 179.182C301.03 179.182 295.857 183.549 295.372 189.535C295.048 193.417 295.372 197.462 295.372 201.506C295.372 205.712 294.725 210.403 296.988 214.286C298.767 217.359 302 219.462 305.557 219.786C307.336 219.948 309.114 219.948 310.893 219.948C315.42 219.948 320.108 219.948 324.635 219.948C331.102 219.786 335.953 214.771 336.114 208.462C336.276 204.094 336.114 199.726 336.114 195.52C335.953 190.991 336.276 186.461 332.881 182.902ZM334.821 206.197C334.821 208.139 334.821 210.08 334.174 211.859C332.719 216.065 328.839 218.654 324.474 218.654C321.078 218.654 317.683 218.654 314.45 218.654C310.893 218.654 306.527 219.301 303.294 218.006C299.575 216.712 296.827 213.315 296.503 209.271C296.342 208.139 296.503 206.844 296.503 205.712C296.503 201.344 296.503 196.815 296.503 192.447C296.503 190.829 296.503 189.373 296.827 187.917C297.635 184.358 300.545 181.446 304.102 180.476C307.497 179.505 311.701 180.152 315.096 180.152C318.491 180.152 322.048 179.99 325.444 180.152C329.162 180.476 332.557 182.741 334.013 186.138C334.821 187.917 334.983 189.858 334.983 191.8C334.821 196.815 334.821 201.506 334.821 206.197Z" fill="black"/>
<path d="M382.839 182.902C379.444 179.182 374.917 179.182 370.39 179.182C365.863 179.182 361.336 179.182 356.971 179.182C350.989 179.182 345.815 183.549 345.33 189.535C345.007 193.417 345.33 197.462 345.33 201.506C345.33 205.712 344.683 210.403 346.947 214.286C348.725 217.359 351.959 219.462 355.516 219.786C357.294 219.948 359.073 219.948 360.851 219.948C365.378 219.948 370.067 219.948 374.594 219.948C381.061 219.786 385.911 214.771 386.073 208.462C386.234 204.094 386.073 199.726 386.073 195.52C385.911 190.991 386.234 186.461 382.839 182.902ZM384.779 206.197C384.779 208.139 384.779 210.08 384.133 211.859C382.677 216.065 378.797 218.654 374.432 218.654C371.037 218.654 367.641 218.654 364.408 218.654C360.851 218.654 356.486 219.301 353.252 218.006C349.534 216.712 346.785 213.315 346.462 209.271C346.3 208.139 346.462 206.844 346.462 205.712C346.462 201.344 346.462 196.815 346.462 192.447C346.462 190.829 346.462 189.373 346.785 187.917C347.593 184.358 350.504 181.446 354.061 180.476C357.456 179.505 361.659 180.152 365.055 180.152C368.45 180.152 372.007 179.99 375.402 180.152C379.121 180.476 382.516 182.741 383.971 186.138C384.779 187.917 384.941 189.858 384.941 191.8C384.779 196.815 384.779 201.506 384.779 206.197Z" fill="black"/>
<path d="M396.744 214.286C398.522 217.359 401.756 219.462 405.312 219.786C407.091 219.948 408.869 219.948 410.648 219.948C415.175 219.948 419.863 219.948 424.39 219.948C430.857 219.786 435.708 214.771 435.869 208.462C436.031 204.094 435.869 199.726 435.869 195.52C435.869 190.991 436.193 186.623 432.798 183.064C429.402 179.343 424.875 179.343 420.348 179.343C415.821 179.343 411.294 179.343 406.929 179.343C400.947 179.343 395.773 183.711 395.288 189.697C394.965 193.579 395.288 197.623 395.288 201.668C395.127 205.712 394.48 210.565 396.744 214.286ZM396.582 188.241C397.39 184.682 400.3 181.77 403.857 180.799C407.253 179.829 411.456 180.476 414.851 180.476C418.247 180.476 421.804 180.314 425.199 180.476C428.917 180.799 432.313 183.064 433.768 186.461C434.576 188.241 434.738 190.182 434.738 192.123C434.738 196.814 434.738 201.668 434.738 206.359C434.738 208.3 434.738 210.241 434.091 212.021C432.636 216.227 428.756 218.815 424.39 218.815C420.995 218.815 417.6 218.815 414.366 218.815C410.809 218.815 406.444 219.462 403.211 218.168C399.492 216.874 396.744 213.477 396.42 209.433C396.258 208.3 396.42 207.006 396.42 205.874C396.42 201.506 396.42 196.976 396.42 192.608C396.258 191.152 396.258 189.697 396.582 188.241Z" fill="black"/>
<path d="M482.756 182.902C479.361 179.182 474.834 179.182 470.307 179.182C465.78 179.182 461.253 179.182 456.888 179.182C450.905 179.182 445.732 183.549 445.247 189.535C444.923 193.417 445.247 197.462 445.247 201.506C445.247 205.712 444.6 210.403 446.864 214.286C448.642 217.359 451.876 219.462 455.432 219.786C457.211 219.948 458.989 219.948 460.768 219.948C465.295 219.948 469.983 219.948 474.51 219.948C480.977 219.786 485.828 214.771 485.989 208.462C486.151 204.094 485.989 199.726 485.989 195.52C485.666 190.991 485.989 186.461 482.756 182.902ZM484.696 206.197C484.696 208.139 484.696 210.08 484.049 211.859C482.594 216.065 478.714 218.654 474.349 218.654C470.953 218.654 467.558 218.654 464.325 218.654C460.768 218.654 456.402 219.301 453.169 218.006C449.45 216.712 446.702 213.315 446.378 209.271C446.217 208.139 446.378 206.844 446.378 205.712C446.378 201.344 446.378 196.815 446.378 192.447C446.378 190.829 446.378 189.373 446.702 187.917C447.51 184.358 450.42 181.446 453.977 180.476C457.373 179.505 461.576 180.152 464.971 180.152C468.367 180.152 471.924 179.99 475.319 180.152C479.037 180.476 482.433 182.741 483.888 186.138C484.696 187.917 484.858 189.858 484.858 191.8C484.696 196.815 484.696 201.506 484.696 206.197Z" fill="black"/>
<path d="M532.714 182.902C529.319 179.182 524.792 179.182 520.265 179.182C515.738 179.182 511.211 179.182 506.846 179.182C500.864 179.182 495.69 183.549 495.205 189.535C494.882 193.417 495.205 197.462 495.205 201.506C495.205 205.712 494.558 210.403 496.822 214.286C498.6 217.359 501.834 219.462 505.391 219.786C507.169 219.948 508.948 219.948 510.726 219.948C515.253 219.948 519.942 219.948 524.469 219.948C530.936 219.786 535.786 214.771 535.948 208.462C536.109 204.094 535.948 199.726 535.948 195.52C535.624 190.991 535.948 186.461 532.714 182.902ZM534.493 206.197C534.493 208.139 534.493 210.08 533.846 211.859C532.391 216.065 528.511 218.654 524.145 218.654C520.75 218.654 517.355 218.654 514.121 218.654C510.564 218.654 506.199 219.301 502.965 218.006C499.247 216.712 496.498 213.315 496.175 209.271C496.013 208.139 496.175 206.844 496.175 205.712C496.175 201.344 496.175 196.815 496.175 192.447C496.175 190.829 496.175 189.373 496.498 187.917C497.307 184.358 500.217 181.446 503.774 180.476C507.169 179.505 511.373 180.152 514.768 180.152C518.163 180.152 521.72 179.99 525.115 180.152C528.834 180.476 532.229 182.741 533.684 186.138C534.493 187.917 534.654 189.858 534.654 191.8C534.493 196.815 534.493 201.506 534.493 206.197Z" fill="black"/>
<path d="M546.457 214.286C548.235 217.359 551.469 219.462 555.026 219.786C556.804 219.948 558.583 219.948 560.361 219.948C564.888 219.948 569.577 219.948 574.104 219.948C580.571 219.786 585.421 214.771 585.583 208.462C585.744 204.094 585.583 199.726 585.583 195.52C585.583 190.991 585.906 186.623 582.511 183.064C579.116 179.343 574.589 179.343 570.062 179.343C565.535 179.343 561.008 179.343 556.642 179.343C550.66 179.343 545.487 183.711 545.002 189.697C544.678 193.579 545.002 197.623 545.002 201.668C545.002 205.712 544.355 210.565 546.457 214.286ZM546.295 188.241C547.103 184.682 550.014 181.77 553.571 180.799C556.966 179.829 561.169 180.476 564.565 180.476C567.96 180.476 571.517 180.314 574.912 180.476C578.631 180.799 582.026 183.064 583.481 186.461C584.289 188.241 584.451 190.182 584.451 192.123C584.451 196.814 584.451 201.668 584.451 206.359C584.451 208.3 584.451 210.241 583.804 212.021C582.349 216.227 578.469 218.815 574.104 218.815C570.708 218.815 567.313 218.815 564.08 218.815C560.523 218.815 556.157 219.462 552.924 218.168C549.205 216.874 546.457 213.477 546.133 209.433C545.972 208.3 546.133 207.006 546.133 205.874C546.133 201.506 546.133 196.976 546.133 192.608C545.972 191.152 545.972 189.697 546.295 188.241Z" fill="black"/>
<path d="M596.415 214.286C598.194 217.359 601.427 219.462 604.984 219.786C606.763 219.948 608.541 219.948 610.319 219.948C614.846 219.948 619.535 219.948 624.062 219.948C630.529 219.786 635.379 214.771 635.541 208.462C635.703 204.094 635.541 199.726 635.541 195.52C635.541 190.991 635.864 186.623 632.469 183.064C629.074 179.343 624.547 179.343 620.02 179.343C615.493 179.343 610.966 179.343 606.601 179.343C600.619 179.343 595.445 183.711 594.96 189.697C594.637 193.579 594.96 197.623 594.96 201.668C594.798 205.712 594.152 210.565 596.415 214.286ZM596.253 188.241C597.062 184.682 599.972 181.77 603.529 180.799C606.924 179.829 611.128 180.476 614.523 180.476C617.918 180.476 621.475 180.314 624.87 180.476C628.589 180.799 631.984 183.064 633.439 186.461C634.248 188.241 634.409 190.182 634.409 192.123C634.409 196.814 634.409 201.668 634.409 206.359C634.409 208.3 634.409 210.241 633.763 212.021C632.308 216.227 628.427 218.815 624.062 218.815C620.667 218.815 617.272 218.815 614.038 218.815C610.481 218.815 606.116 219.462 602.882 218.168C599.164 216.874 596.415 213.477 596.092 209.433C595.93 208.3 596.092 207.006 596.092 205.874C596.092 201.506 596.092 196.976 596.092 192.608C595.93 191.152 595.93 189.697 596.253 188.241Z" fill="black"/>
<path d="M332.881 236.286C329.486 232.566 324.959 232.566 320.432 232.566C315.905 232.566 311.378 232.566 307.012 232.566C301.03 232.566 295.857 236.933 295.372 242.919C295.048 246.801 295.372 250.846 295.372 254.89C295.372 259.096 294.725 263.787 296.988 267.67C298.767 270.743 302 272.846 305.557 273.17C307.336 273.332 309.114 273.332 310.893 273.332C315.42 273.332 320.108 273.332 324.635 273.332C331.102 273.17 335.953 268.155 336.114 261.846C336.276 257.478 336.114 253.11 336.114 248.904C335.953 244.213 336.276 239.845 332.881 236.286ZM334.821 259.581C334.821 261.523 334.821 263.464 334.174 265.243C332.719 269.449 328.839 272.038 324.474 272.038C321.078 272.038 317.683 272.038 314.45 272.038C310.893 272.038 306.527 272.685 303.294 271.391C299.575 270.096 296.827 266.699 296.503 262.655C296.342 261.523 296.503 260.228 296.503 259.096C296.503 254.728 296.503 250.199 296.503 245.831C296.503 244.213 296.503 242.757 296.827 241.301C297.635 237.742 300.545 234.83 304.102 233.86C307.497 232.889 311.701 233.536 315.096 233.536C318.491 233.536 322.048 233.375 325.444 233.536C329.162 233.86 332.557 236.125 334.013 239.522C334.821 241.301 334.983 243.242 334.983 245.184C334.821 250.037 334.821 254.89 334.821 259.581Z" fill="black"/>
<path d="M382.839 236.286C379.444 232.566 374.917 232.566 370.39 232.566C365.863 232.566 361.336 232.566 356.971 232.566C350.989 232.566 345.815 236.933 345.33 242.919C345.007 246.801 345.33 250.846 345.33 254.89C345.33 259.096 344.683 263.787 346.947 267.67C348.725 270.743 351.959 272.846 355.516 273.17C357.294 273.332 359.073 273.332 360.851 273.332C365.378 273.332 370.067 273.332 374.594 273.332C381.061 273.17 385.911 268.155 386.073 261.846C386.234 257.478 386.073 253.11 386.073 248.904C385.911 244.213 386.234 239.845 382.839 236.286ZM384.779 259.581C384.779 261.523 384.779 263.464 384.133 265.243C382.677 269.449 378.797 272.038 374.432 272.038C371.037 272.038 367.641 272.038 364.408 272.038C360.851 272.038 356.486 272.685 353.252 271.391C349.534 270.096 346.785 266.699 346.462 262.655C346.3 261.523 346.462 260.228 346.462 259.096C346.462 254.728 346.462 250.199 346.462 245.831C346.462 244.213 346.462 242.757 346.785 241.301C347.593 237.742 350.504 234.83 354.061 233.86C357.456 232.889 361.659 233.536 365.055 233.536C368.45 233.536 372.007 233.375 375.402 233.536C379.121 233.86 382.516 236.125 383.971 239.522C384.779 241.301 384.941 243.242 384.941 245.184C384.779 250.037 384.779 254.89 384.779 259.581Z" fill="black"/>
<path d="M396.744 267.508C398.522 270.582 401.756 272.685 405.312 273.008C407.091 273.17 408.869 273.17 410.648 273.17C415.175 273.17 419.863 273.17 424.39 273.17C430.857 273.008 435.708 267.993 435.869 261.684C436.031 257.317 435.869 252.949 435.869 248.743C435.869 244.213 436.193 239.845 432.798 236.286C429.402 232.566 424.875 232.566 420.348 232.566C415.821 232.566 411.294 232.566 406.929 232.566C400.947 232.566 395.773 236.933 395.288 242.919C394.965 246.801 395.288 250.846 395.288 254.89C395.127 258.934 394.48 263.787 396.744 267.508ZM396.582 241.463C397.39 237.904 400.3 234.992 403.857 234.022C407.253 233.051 411.456 233.698 414.851 233.698C418.247 233.698 421.804 233.536 425.199 233.698C428.917 234.022 432.313 236.286 433.768 239.684C434.576 241.463 434.738 243.404 434.738 245.346C434.738 250.037 434.738 254.89 434.738 259.581C434.738 261.523 434.738 263.464 434.091 265.243C432.636 269.449 428.756 272.038 424.39 272.038C420.995 272.038 417.6 272.038 414.366 272.038C410.809 272.038 406.444 272.685 403.211 271.391C399.492 270.096 396.744 266.699 396.42 262.655C396.258 261.523 396.42 260.228 396.42 259.096C396.42 254.728 396.42 250.199 396.42 245.831C396.258 244.537 396.258 242.919 396.582 241.463Z" fill="black"/>
<path d="M482.756 236.286C479.361 232.566 474.834 232.566 470.307 232.566C465.78 232.566 461.253 232.566 456.888 232.566C450.905 232.566 445.732 236.933 445.247 242.919C444.923 246.801 445.247 250.846 445.247 254.89C445.247 259.096 444.6 263.787 446.864 267.67C448.642 270.743 451.876 272.846 455.432 273.17C457.211 273.332 458.989 273.332 460.768 273.332C465.295 273.332 469.983 273.332 474.51 273.332C480.977 273.17 485.828 268.155 485.989 261.846C486.151 257.478 485.989 253.11 485.989 248.904C485.666 244.213 485.989 239.845 482.756 236.286ZM484.696 259.581C484.696 261.523 484.696 263.464 484.049 265.243C482.594 269.449 478.714 272.038 474.349 272.038C470.953 272.038 467.558 272.038 464.325 272.038C460.768 272.038 456.402 272.685 453.169 271.391C449.45 270.096 446.702 266.699 446.378 262.655C446.217 261.523 446.378 260.228 446.378 259.096C446.378 254.728 446.378 250.199 446.378 245.831C446.378 244.213 446.378 242.757 446.702 241.301C447.51 237.742 450.42 234.83 453.977 233.86C457.373 232.889 461.576 233.536 464.971 233.536C468.367 233.536 471.924 233.375 475.319 233.536C479.037 233.86 482.433 236.125 483.888 239.522C484.696 241.301 484.858 243.242 484.858 245.184C484.696 250.037 484.696 254.89 484.696 259.581Z" fill="black"/>
<path d="M532.714 236.286C529.319 232.566 524.792 232.566 520.265 232.566C515.738 232.566 511.211 232.566 506.846 232.566C500.864 232.566 495.69 236.933 495.205 242.919C494.882 246.801 495.205 250.846 495.205 254.89C495.205 259.096 494.558 263.787 496.822 267.67C498.6 270.743 501.834 272.846 505.391 273.17C507.169 273.332 508.948 273.332 510.726 273.332C515.253 273.332 519.942 273.332 524.469 273.332C530.936 273.17 535.786 268.155 535.948 261.846C536.109 257.478 535.948 253.11 535.948 248.904C535.624 244.213 535.948 239.845 532.714 236.286ZM534.493 259.581C534.493 261.523 534.493 263.464 533.846 265.243C532.391 269.449 528.511 272.038 524.145 272.038C520.75 272.038 517.355 272.038 514.121 272.038C510.564 272.038 506.199 272.685 502.965 271.391C499.247 270.096 496.498 266.699 496.175 262.655C496.013 261.523 496.175 260.228 496.175 259.096C496.175 254.728 496.175 250.199 496.175 245.831C496.175 244.213 496.175 242.757 496.498 241.301C497.307 237.742 500.217 234.83 503.774 233.86C507.169 232.889 511.373 233.536 514.768 233.536C518.163 233.536 521.72 233.375 525.115 233.536C528.834 233.86 532.229 236.125 533.684 239.522C534.493 241.301 534.654 243.242 534.654 245.184C534.493 250.037 534.493 254.89 534.493 259.581Z" fill="black"/>
<path d="M546.457 267.508C548.235 270.582 551.469 272.685 555.026 273.008C556.804 273.17 558.583 273.17 560.361 273.17C564.888 273.17 569.577 273.17 574.104 273.17C580.571 273.008 585.421 267.993 585.583 261.684C585.744 257.317 585.583 252.949 585.583 248.743C585.583 244.213 585.906 239.845 582.511 236.286C579.116 232.566 574.589 232.566 570.062 232.566C565.535 232.566 561.008 232.566 556.642 232.566C550.66 232.566 545.487 236.933 545.002 242.919C544.678 246.801 545.002 250.846 545.002 254.89C545.002 258.934 544.355 263.787 546.457 267.508ZM546.295 241.463C547.103 237.904 550.014 234.992 553.571 234.022C556.966 233.051 561.169 233.698 564.565 233.698C567.96 233.698 571.517 233.536 574.912 233.698C578.631 234.022 582.026 236.286 583.481 239.684C584.289 241.463 584.451 243.404 584.451 245.346C584.451 250.037 584.451 254.89 584.451 259.581C584.451 261.523 584.451 263.464 583.804 265.243C582.349 269.449 578.469 272.038 574.104 272.038C570.708 272.038 567.313 272.038 564.08 272.038C560.523 272.038 556.157 272.685 552.924 271.391C549.205 270.096 546.457 266.699 546.133 262.655C545.972 261.523 546.133 260.228 546.133 259.096C546.133 254.728 546.133 250.199 546.133 245.831C545.972 244.537 545.972 242.919 546.295 241.463Z" fill="black"/>
<path d="M606.601 232.566C600.619 232.566 595.445 236.933 594.96 242.919C594.637 246.801 594.96 250.846 594.96 254.89C594.96 259.096 594.313 263.787 596.577 267.67C598.355 270.743 601.589 272.846 605.146 273.17C606.924 273.332 608.703 273.332 610.481 273.332C615.008 273.332 619.697 273.332 624.224 273.332C625.84 273.332 627.134 273.008 628.589 272.361C629.559 271.714 630.529 271.067 631.661 270.582C632.631 269.773 633.439 268.802 634.086 267.832C633.601 267.832 633.278 267.832 632.793 267.832C630.852 270.582 627.781 272.199 624.385 272.361C620.99 272.361 617.595 272.361 614.361 272.361C610.804 272.361 606.439 273.008 603.206 271.714C599.487 270.42 596.739 267.023 596.415 262.978C596.254 261.846 596.415 260.552 596.415 259.42C596.415 255.052 596.415 250.522 596.415 246.154C596.415 244.537 596.415 243.081 596.739 241.625C597.547 238.066 600.457 235.154 604.014 234.183C607.409 233.213 611.613 233.86 615.008 233.86C618.403 233.86 621.96 233.698 625.355 233.86C627.942 234.022 630.367 235.316 632.146 237.257C632.308 236.933 632.469 236.61 632.631 236.286C629.236 232.889 624.87 232.889 620.505 232.889C615.493 232.566 611.128 232.566 606.601 232.566Z" fill="black"/>
<path d="M332.881 289.509C329.486 285.788 324.959 285.788 320.432 285.788C315.905 285.788 311.378 285.788 307.012 285.788C301.03 285.788 295.857 290.156 295.372 296.141C295.048 300.024 295.372 304.068 295.372 308.112C295.372 312.318 294.725 317.01 296.988 320.892C298.767 323.966 302 326.069 305.557 326.392C307.336 326.554 309.114 326.554 310.893 326.554C315.42 326.554 320.108 326.554 324.635 326.554C331.102 326.392 335.953 321.378 336.114 315.068C336.276 310.701 336.114 306.333 336.114 302.127C335.953 297.436 336.276 293.068 332.881 289.509ZM334.821 312.804C334.821 314.745 334.821 316.686 334.174 318.466C332.719 322.672 328.839 325.26 324.474 325.26C321.078 325.26 317.683 325.26 314.45 325.26C310.893 325.26 306.527 325.907 303.294 324.613C299.575 323.319 296.827 319.922 296.503 315.877C296.342 314.745 296.503 313.451 296.503 312.318C296.503 307.951 296.503 303.421 296.503 299.053C296.503 297.436 296.503 295.98 296.827 294.524C297.635 290.965 300.545 288.053 304.102 287.082C307.497 286.112 311.701 286.759 315.096 286.759C318.491 286.759 322.048 286.597 325.444 286.759C329.162 287.082 332.557 289.347 334.013 292.744C334.821 294.524 334.983 296.465 334.983 298.406C334.821 303.421 334.821 308.112 334.821 312.804Z" fill="black"/>
<path d="M382.839 289.509C379.444 285.788 374.917 285.788 370.39 285.788C365.863 285.788 361.336 285.788 356.971 285.788C350.989 285.788 345.815 290.156 345.33 296.141C345.007 300.024 345.33 304.068 345.33 308.112C345.33 312.318 344.683 317.01 346.947 320.892C348.725 323.966 351.959 326.069 355.516 326.392C357.294 326.554 359.073 326.554 360.851 326.554C365.378 326.554 370.067 326.554 374.594 326.554C381.061 326.392 385.911 321.378 386.073 315.068C386.234 310.701 386.073 306.333 386.073 302.127C385.911 297.436 386.234 293.068 382.839 289.509ZM384.779 312.804C384.779 314.745 384.779 316.686 384.133 318.466C382.677 322.672 378.797 325.26 374.432 325.26C371.037 325.26 367.641 325.26 364.408 325.26C360.851 325.26 356.486 325.907 353.252 324.613C349.534 323.319 346.785 319.922 346.462 315.877C346.3 314.745 346.462 313.451 346.462 312.318C346.462 307.951 346.462 303.421 346.462 299.053C346.462 297.436 346.462 295.98 346.785 294.524C347.593 290.965 350.504 288.053 354.061 287.082C357.456 286.112 361.659 286.759 365.055 286.759C368.45 286.759 372.007 286.597 375.402 286.759C379.121 287.082 382.516 289.347 383.971 292.744C384.779 294.524 384.941 296.465 384.941 298.406C384.779 303.421 384.779 308.112 384.779 312.804Z" fill="black"/>
<path d="M404.181 325.098C403.857 324.936 403.534 324.936 403.049 324.775C399.33 323.481 396.582 320.083 396.258 316.039C396.097 314.907 396.258 313.613 396.258 312.48C396.258 308.112 396.258 303.583 396.258 299.215C396.258 297.597 396.258 296.141 396.582 294.685C397.39 291.127 400.3 288.215 403.857 287.244C407.252 286.273 411.456 286.92 414.851 286.92C418.246 286.92 421.803 286.759 425.199 286.92C428.917 287.244 432.312 289.509 433.767 292.906C434.576 294.685 434.738 296.627 434.738 298.568C434.738 303.259 434.738 308.112 434.738 312.804C434.738 314.745 434.738 316.686 434.091 318.466C432.636 322.672 428.755 325.26 424.39 325.26C420.995 325.26 417.6 325.26 414.366 325.26C413.396 325.26 412.426 325.26 411.294 325.422C410.648 325.745 409.839 326.069 409.193 326.392C409.678 326.392 410.163 326.392 410.648 326.392C415.175 326.392 419.863 326.392 424.39 326.392C430.857 326.231 435.708 321.216 435.869 314.907C436.031 310.539 435.869 306.171 435.869 301.965C435.869 297.436 436.193 293.068 432.797 289.509C429.402 285.788 424.875 285.788 420.348 285.788C415.821 285.788 411.294 285.788 406.929 285.788C400.947 285.788 395.773 290.156 395.288 296.141C394.965 300.024 395.288 304.068 395.288 308.112C395.288 312.318 394.642 317.01 396.905 320.892C398.36 323.319 400.624 325.098 403.21 325.907C403.372 325.584 403.857 325.422 404.181 325.098Z" fill="black"/>
<path d="M463.355 325.422C459.959 325.422 456.079 325.907 453.007 324.775C449.289 323.481 446.54 320.083 446.217 316.039C446.055 314.907 446.217 313.613 446.217 312.48C446.217 308.112 446.217 303.583 446.217 299.215C446.217 297.597 446.217 296.141 446.54 294.685C447.349 291.127 450.259 288.215 453.816 287.244C457.211 286.273 461.414 286.92 464.81 286.92C468.205 286.92 471.762 286.759 475.157 286.92C478.876 287.244 482.271 289.509 483.726 292.906C484.534 294.685 484.696 296.627 484.696 298.568C484.696 303.259 484.696 308.112 484.696 312.804C484.696 314.745 484.696 316.686 484.049 318.466C482.594 322.672 478.714 325.26 474.349 325.26C472.247 325.26 469.983 325.26 467.882 325.26C468.043 325.584 468.205 326.069 468.367 326.392C470.307 326.392 472.409 326.392 474.349 326.392C480.816 326.231 485.666 321.216 485.828 314.907C485.989 310.539 485.828 306.171 485.828 301.965C485.828 297.436 486.151 293.068 482.756 289.509C479.361 285.788 474.834 285.788 470.307 285.788C465.78 285.788 461.253 285.788 456.888 285.788C450.905 285.788 445.732 290.156 445.247 296.141C444.923 300.024 445.247 304.068 445.247 308.112C445.247 312.318 444.6 317.01 446.864 320.892C448.642 323.966 451.876 326.069 455.432 326.392C457.211 326.554 458.989 326.554 460.768 326.554C461.9 326.554 463.031 326.554 464.163 326.554C463.84 326.069 463.516 325.745 463.355 325.422Z" fill="black"/>
<path d="M532.714 289.509C529.319 285.788 524.792 285.788 520.265 285.788C515.738 285.788 511.211 285.788 506.846 285.788C500.864 285.788 495.69 290.156 495.205 296.141C494.882 300.024 495.205 304.068 495.205 308.112C495.205 312.318 494.558 317.01 496.822 320.892C498.6 323.966 501.834 326.069 505.391 326.392C507.169 326.554 508.948 326.554 510.726 326.554C515.253 326.554 519.942 326.554 524.469 326.554C530.936 326.392 535.786 321.378 535.948 315.068C536.109 310.701 535.948 306.333 535.948 302.127C535.624 297.436 535.948 293.068 532.714 289.509ZM534.493 312.804C534.493 314.745 534.493 316.686 533.846 318.466C532.391 322.672 528.511 325.26 524.145 325.26C520.75 325.26 517.355 325.26 514.121 325.26C510.564 325.26 506.199 325.907 502.965 324.613C499.247 323.319 496.498 319.922 496.175 315.877C496.013 314.745 496.175 313.451 496.175 312.318C496.175 307.951 496.175 303.421 496.175 299.053C496.175 297.436 496.175 295.98 496.498 294.524C497.307 290.965 500.217 288.053 503.774 287.082C507.169 286.112 511.373 286.759 514.768 286.759C518.163 286.759 521.72 286.597 525.115 286.759C528.834 287.082 532.229 289.347 533.684 292.744C534.493 294.524 534.654 296.465 534.654 298.406C534.493 303.421 534.493 308.112 534.493 312.804Z" fill="black"/>
<path d="M572.163 325.422C569.415 325.422 566.666 325.422 564.079 325.422C560.523 325.422 556.157 326.069 552.924 324.775C549.205 323.481 546.457 320.083 546.133 316.039C545.972 314.907 546.133 313.613 546.133 312.48C546.133 308.112 546.133 303.583 546.133 299.215C546.133 297.597 546.133 296.141 546.457 294.685C547.265 291.127 550.175 288.215 553.732 287.244C557.127 286.273 561.331 286.92 564.726 286.92C568.121 286.92 571.678 286.759 575.074 286.92C578.792 287.244 582.187 289.509 583.642 292.906C584.451 294.685 584.613 296.627 584.613 298.568C584.613 303.097 584.613 307.789 584.613 312.318C584.936 311.995 585.421 311.51 585.744 311.186C585.744 308.112 585.744 305.039 585.744 301.965C585.744 297.436 586.068 293.068 582.672 289.509C579.277 285.788 574.75 285.788 570.223 285.788C565.696 285.788 561.169 285.788 556.804 285.788C550.822 285.788 545.648 290.156 545.163 296.141C544.84 300.024 545.163 304.068 545.163 308.112C545.163 312.318 544.517 317.01 546.78 320.892C548.558 323.966 551.792 326.069 555.349 326.392C557.127 326.554 558.906 326.554 560.684 326.554C564.241 326.554 567.96 326.554 571.517 326.554C571.517 326.069 571.84 325.745 572.163 325.422Z" fill="black"/>
<path d="M595.93 300.186C595.93 299.862 595.93 299.7 595.93 299.377C595.93 297.759 595.93 296.303 596.253 294.847C597.062 291.288 599.972 288.376 603.529 287.406C605.146 286.921 606.763 286.921 608.541 286.921C608.864 286.597 609.188 286.273 609.349 285.95C608.379 285.95 607.409 285.95 606.439 285.95C600.457 285.95 595.283 290.318 594.798 296.303C594.637 298.083 594.637 299.862 594.637 301.48C595.122 300.995 595.607 300.509 595.93 300.186Z" fill="black"/>
<path d="M633.601 319.113C631.984 322.995 628.265 325.422 624.062 325.422C620.667 325.422 617.271 325.422 614.038 325.422C613.068 325.422 612.098 325.422 610.966 325.584C609.672 325.907 608.541 326.231 607.247 326.554C608.217 326.554 609.187 326.554 610.319 326.554C614.846 326.554 619.535 326.554 624.062 326.554C629.074 326.392 633.277 323.319 634.894 318.789C634.409 318.789 634.086 318.951 633.601 319.113Z" fill="black"/>
<path d="M332.881 342.893C329.486 339.172 324.959 339.172 320.432 339.172C315.905 339.172 311.378 339.172 307.012 339.172C301.03 339.172 295.857 343.54 295.372 349.525C295.048 353.408 295.372 357.452 295.372 361.496C295.372 365.702 294.725 370.394 296.988 374.276C298.767 377.35 302 379.453 305.557 379.776C307.336 379.938 309.114 379.938 310.893 379.938C315.42 379.938 320.108 379.938 324.635 379.938C331.102 379.776 335.953 374.762 336.114 368.453C336.276 364.085 336.114 359.717 336.114 355.511C335.953 350.82 336.276 346.452 332.881 342.893ZM334.821 366.188C334.821 368.129 334.821 370.07 334.174 371.85C332.719 376.056 328.839 378.644 324.474 378.644C321.078 378.644 317.683 378.644 314.45 378.644C310.893 378.644 306.527 379.291 303.294 377.997C299.575 376.703 296.827 373.306 296.503 369.261C296.342 368.129 296.503 366.835 296.503 365.702C296.503 361.335 296.503 356.805 296.503 352.437C296.503 350.82 296.503 349.364 296.827 347.908C297.635 344.349 300.545 341.437 304.102 340.466C307.497 339.496 311.701 340.143 315.096 340.143C318.491 340.143 322.048 339.981 325.444 340.143C329.162 340.466 332.557 342.731 334.013 346.128C334.821 347.908 334.983 349.849 334.983 351.79C334.821 356.643 334.821 361.335 334.821 366.188Z" fill="black"/>
<path d="M382.839 342.893C379.444 339.172 374.917 339.172 370.39 339.172C365.863 339.172 361.336 339.172 356.971 339.172C350.989 339.172 345.815 343.54 345.33 349.525C345.007 353.408 345.33 357.452 345.33 361.496C345.33 365.702 344.683 370.394 346.947 374.276C348.725 377.35 351.959 379.453 355.516 379.776C357.294 379.938 359.073 379.938 360.851 379.938C365.378 379.938 370.067 379.938 374.594 379.938C381.061 379.776 385.911 374.762 386.073 368.453C386.234 364.085 386.073 359.717 386.073 355.511C385.911 350.82 386.234 346.452 382.839 342.893ZM384.779 366.188C384.779 368.129 384.779 370.07 384.133 371.85C382.677 376.056 378.797 378.644 374.432 378.644C371.037 378.644 367.641 378.644 364.408 378.644C360.851 378.644 356.486 379.291 353.252 377.997C349.534 376.703 346.785 373.306 346.462 369.261C346.3 368.129 346.462 366.835 346.462 365.702C346.462 361.335 346.462 356.805 346.462 352.437C346.462 350.82 346.462 349.364 346.785 347.908C347.593 344.349 350.504 341.437 354.061 340.466C357.456 339.496 361.659 340.143 365.055 340.143C368.45 340.143 372.007 339.981 375.402 340.143C379.121 340.466 382.516 342.731 383.971 346.128C384.779 347.908 384.941 349.849 384.941 351.79C384.779 356.643 384.779 361.335 384.779 366.188Z" fill="black"/>
<path d="M434.737 351.305C434.737 351.467 434.737 351.629 434.737 351.952C434.737 356.643 434.737 361.497 434.737 366.188C434.737 368.129 434.737 370.07 434.091 371.85C432.636 376.056 428.755 378.644 424.39 378.644C420.995 378.644 417.6 378.644 414.366 378.644C410.809 378.644 406.444 379.291 403.21 377.997C399.492 376.703 396.743 373.306 396.42 369.262C396.258 368.129 396.42 366.835 396.42 365.703C396.42 361.335 396.42 356.805 396.42 352.437C396.42 350.82 396.42 349.364 396.743 347.908C397.228 346.128 398.037 344.673 399.33 343.378C399.168 343.055 399.007 342.731 398.845 342.408C397.067 344.187 395.773 346.614 395.45 349.364C395.127 353.246 395.45 357.291 395.45 361.335C395.45 365.541 394.803 370.232 397.067 374.115C398.845 377.188 402.079 379.291 405.636 379.615C407.414 379.777 409.192 379.777 410.971 379.777C415.498 379.777 420.187 379.777 424.713 379.777C431.181 379.615 436.031 374.6 436.193 368.291C436.354 363.923 436.193 359.555 436.193 355.349C436.193 353.57 436.193 351.79 436.031 350.173C435.384 350.496 435.061 350.982 434.737 351.305Z" fill="black"/>
<path d="M407.414 340.143C409.839 339.981 412.588 340.305 414.851 340.305C418.246 340.305 421.803 340.143 425.199 340.305C427.139 340.466 429.079 341.275 430.534 342.408C430.696 342.084 431.019 341.922 431.181 341.599C427.947 339.334 424.228 339.334 420.187 339.334C415.66 339.334 411.294 339.334 406.767 339.334C407.091 339.496 407.252 339.819 407.414 340.143Z" fill="black"/>
<path d="M459.636 378.806C457.373 378.806 455.109 378.806 453.169 377.997C449.45 376.703 446.702 373.306 446.378 369.261C446.217 368.129 446.378 366.835 446.378 365.702C446.378 361.335 446.378 356.805 446.378 352.437C446.378 350.82 446.378 349.364 446.702 347.908C447.51 344.349 450.42 341.437 453.977 340.466C457.373 339.496 461.576 340.143 464.971 340.143C466.426 340.143 467.882 340.143 469.175 340.143C469.175 339.819 469.013 339.496 469.013 339.172C464.971 339.172 460.929 339.172 456.888 339.172C450.905 339.172 445.732 343.54 445.247 349.525C444.923 353.408 445.247 357.452 445.247 361.496C445.247 365.702 444.6 370.394 446.864 374.276C448.642 377.35 451.876 379.453 455.432 379.776C456.564 379.938 457.696 379.938 458.828 379.938C458.989 379.453 459.313 379.129 459.636 378.806Z" fill="black"/>
<path d="M473.055 340.143C473.702 340.143 474.51 340.143 475.157 340.305C478.876 340.628 482.271 342.893 483.726 346.29C484.534 348.069 484.696 350.011 484.696 351.952C484.696 356.643 484.696 361.496 484.696 366.188C484.696 368.129 484.696 370.07 484.049 371.85C482.594 376.056 478.714 378.644 474.349 378.644C471.115 378.644 467.881 378.644 464.81 378.644C464.486 378.968 464.325 379.453 464.001 379.776C467.558 379.776 470.953 379.776 474.51 379.776C480.977 379.615 485.828 374.6 485.989 368.291C486.151 363.923 485.989 359.555 485.989 355.349C485.989 350.82 486.313 346.452 482.917 342.893C480.169 339.819 476.612 339.334 473.055 339.172C472.893 339.496 472.893 339.819 473.055 340.143Z" fill="black"/>
<path d="M532.714 342.893C529.319 339.172 524.792 339.172 520.265 339.172C515.738 339.172 511.211 339.172 506.846 339.172C500.864 339.172 495.69 343.54 495.205 349.525C494.882 353.408 495.205 357.452 495.205 361.496C495.205 365.702 494.558 370.394 496.822 374.276C498.6 377.35 501.834 379.453 505.391 379.776C507.169 379.938 508.948 379.938 510.726 379.938C515.253 379.938 519.942 379.938 524.469 379.938C530.936 379.776 535.786 374.762 535.948 368.453C536.109 364.085 535.948 359.717 535.948 355.511C535.624 350.82 535.948 346.452 532.714 342.893ZM534.493 366.188C534.493 368.129 534.493 370.07 533.846 371.85C532.391 376.056 528.511 378.644 524.145 378.644C520.75 378.644 517.355 378.644 514.121 378.644C510.564 378.644 506.199 379.291 502.965 377.997C499.247 376.703 496.498 373.306 496.175 369.261C496.013 368.129 496.175 366.835 496.175 365.702C496.175 361.335 496.175 356.805 496.175 352.437C496.175 350.82 496.175 349.364 496.498 347.908C497.307 344.349 500.217 341.437 503.774 340.466C507.169 339.496 511.373 340.143 514.768 340.143C518.163 340.143 521.72 339.981 525.115 340.143C528.834 340.466 532.229 342.731 533.684 346.128C534.493 347.908 534.654 349.849 534.654 351.79C534.493 356.643 534.493 361.335 534.493 366.188Z" fill="black"/>
<path d="M582.672 342.893C579.277 339.172 574.75 339.172 570.223 339.172C565.696 339.172 561.169 339.172 556.804 339.172C550.822 339.172 545.648 343.54 545.163 349.525C544.84 353.408 545.163 357.452 545.163 361.496C545.163 365.702 544.517 370.394 546.78 374.276C548.558 377.35 551.792 379.453 555.349 379.776C557.127 379.938 558.906 379.938 560.684 379.938C565.211 379.938 569.9 379.938 574.427 379.938C580.894 379.776 585.744 374.762 585.906 368.453C586.068 364.085 585.906 359.717 585.906 355.511C585.583 350.82 585.906 346.452 582.672 342.893ZM584.451 366.188C584.451 368.129 584.451 370.07 583.804 371.85C582.349 376.056 578.469 378.644 574.103 378.644C570.708 378.644 567.313 378.644 564.079 378.644C560.523 378.644 556.157 379.291 552.924 377.997C549.205 376.703 546.457 373.306 546.133 369.261C545.972 368.129 546.133 366.835 546.133 365.702C546.133 361.335 546.133 356.805 546.133 352.437C546.133 350.82 546.133 349.364 546.457 347.908C547.265 344.349 550.175 341.437 553.732 340.466C557.127 339.496 561.331 340.143 564.726 340.143C568.121 340.143 571.678 339.981 575.074 340.143C578.792 340.466 582.187 342.731 583.642 346.128C584.451 347.908 584.613 349.849 584.613 351.79C584.451 356.643 584.451 361.335 584.451 366.188Z" fill="black"/>
<path d="M632.469 342.893C629.074 339.172 624.547 339.172 620.02 339.172C615.493 339.172 610.966 339.172 606.601 339.172C600.619 339.172 595.445 343.54 594.96 349.525C594.637 353.408 594.96 357.452 594.96 361.496C594.96 365.702 594.313 370.394 596.577 374.276C598.355 377.35 601.589 379.453 605.146 379.776C606.924 379.938 608.703 379.938 610.481 379.938C615.008 379.938 619.697 379.938 624.224 379.938C630.691 379.776 635.541 374.762 635.703 368.453C635.864 364.085 635.703 359.717 635.703 355.511C635.541 350.82 635.864 346.452 632.469 342.893ZM634.409 366.188C634.409 368.129 634.409 370.07 633.763 371.85C632.308 376.056 628.427 378.644 624.062 378.644C620.667 378.644 617.272 378.644 614.038 378.644C610.481 378.644 606.116 379.291 602.882 377.997C599.164 376.703 596.415 373.306 596.092 369.261C595.93 368.129 596.092 366.835 596.092 365.702C596.092 361.335 596.092 356.805 596.092 352.437C596.092 350.82 596.092 349.364 596.415 347.908C597.224 344.349 600.134 341.437 603.691 340.466C607.086 339.496 611.29 340.143 614.685 340.143C618.08 340.143 621.637 339.981 625.032 340.143C628.751 340.466 632.146 342.731 633.601 346.128C634.409 347.908 634.571 349.849 634.571 351.79C634.409 356.643 634.409 361.335 634.409 366.188Z" fill="black"/>
<path d="M332.881 396.115C329.486 392.395 324.959 392.395 320.432 392.395C315.905 392.395 311.378 392.395 307.012 392.395C301.03 392.395 295.857 396.762 295.372 402.748C295.048 406.63 295.372 410.675 295.372 414.719C295.372 418.925 294.725 423.616 296.988 427.499C298.767 430.572 302 432.675 305.557 432.999C307.336 433.161 309.114 433.161 310.893 433.161C315.42 433.161 320.108 433.161 324.635 433.161C331.102 432.999 335.953 427.984 336.114 421.675C336.276 417.307 336.114 412.939 336.114 408.733C335.953 404.042 336.276 399.674 332.881 396.115ZM334.821 419.41C334.821 421.351 334.821 423.293 334.174 425.072C332.719 429.278 328.839 431.866 324.474 431.866C321.078 431.866 317.683 431.866 314.45 431.866C310.893 431.866 306.527 432.514 303.294 431.219C299.575 429.925 296.827 426.528 296.503 422.484C296.342 421.351 296.503 420.057 296.503 418.925C296.503 414.557 296.503 410.028 296.503 405.66C296.503 404.042 296.503 402.586 296.827 401.13C297.635 397.571 300.545 394.659 304.102 393.689C307.497 392.718 311.701 393.365 315.096 393.365C318.491 393.365 322.048 393.203 325.444 393.365C329.162 393.689 332.557 395.953 334.013 399.351C334.821 401.13 334.983 403.071 334.983 405.013C334.821 410.027 334.821 414.719 334.821 419.41Z" fill="black"/>
<path d="M382.839 396.115C379.444 392.395 374.917 392.395 370.39 392.395C365.863 392.395 361.336 392.395 356.971 392.395C350.989 392.395 345.815 396.762 345.33 402.748C345.007 406.63 345.33 410.675 345.33 414.719C345.33 418.925 344.683 423.616 346.947 427.499C348.725 430.572 351.959 432.675 355.516 432.999C357.294 433.161 359.073 433.161 360.851 433.161C365.378 433.161 370.067 433.161 374.594 433.161C381.061 432.999 385.911 427.984 386.073 421.675C386.234 417.307 386.073 412.939 386.073 408.733C385.911 404.042 386.234 399.674 382.839 396.115ZM384.779 419.41C384.779 421.351 384.779 423.293 384.133 425.072C382.677 429.278 378.797 431.866 374.432 431.866C371.037 431.866 367.641 431.866 364.408 431.866C360.851 431.866 356.486 432.514 353.252 431.219C349.534 429.925 346.785 426.528 346.462 422.484C346.3 421.351 346.462 420.057 346.462 418.925C346.462 414.557 346.462 410.028 346.462 405.66C346.462 404.042 346.462 402.586 346.785 401.13C347.593 397.571 350.504 394.659 354.061 393.689C357.456 392.718 361.659 393.365 365.055 393.365C368.45 393.365 372.007 393.203 375.402 393.365C379.121 393.689 382.516 395.953 383.971 399.351C384.779 401.13 384.941 403.071 384.941 405.013C384.779 410.027 384.779 414.719 384.779 419.41Z" fill="black"/>
<path d="M430.534 342.246C426.007 347.584 421.803 353.246 418.085 359.232C414.528 352.761 410.971 346.452 407.414 339.981C407.252 339.657 407.091 339.334 406.929 339.01C406.606 338.525 406.282 337.878 405.959 337.393C403.211 332.378 395.45 336.907 398.199 341.922C398.36 342.084 398.36 342.246 398.522 342.408C398.684 342.731 398.845 343.055 399.007 343.378C404.019 352.437 409.031 361.496 414.043 370.556C415.66 373.467 420.187 373.467 421.803 370.556C425.522 363.761 429.887 357.29 434.576 351.305C434.899 350.82 435.223 350.496 435.546 350.011C438.456 346.452 441.528 343.055 444.762 339.819C448.804 335.775 442.498 329.466 438.456 333.51C435.869 336.099 433.444 338.687 431.181 341.437C431.019 341.761 430.857 342.084 430.534 342.246Z" fill="#AE3925"/>
<path d="M467.72 325.422C466.588 323.319 465.295 321.377 464.001 319.436C462.546 317.495 459.151 319.436 460.768 321.377C461.738 322.672 462.546 324.128 463.516 325.422C463.678 325.745 464.001 326.069 464.163 326.554C466.426 330.437 468.043 334.804 469.013 339.172C469.013 339.496 469.175 339.819 469.175 340.143C470.792 347.746 470.63 355.511 468.366 363.114C466.588 369.1 463.516 374.438 459.636 378.806C459.313 379.129 458.989 379.453 458.666 379.776C453.654 384.953 447.348 388.997 440.235 391.262C426.977 395.306 412.911 392.395 402.887 382.85C393.025 373.306 388.013 358.746 392.863 345.643C395.773 337.554 401.755 330.76 409.193 326.716C409.839 326.392 410.486 326.069 411.294 325.745C416.63 323.319 422.45 322.186 428.27 322.833C430.696 323.157 430.696 319.274 428.27 318.951C419.702 317.98 411.294 320.569 404.181 325.422C403.857 325.745 403.372 325.907 403.049 326.231C398.36 329.789 394.318 334.157 391.57 339.334C384.294 352.923 386.719 369.1 396.097 381.071C405.474 393.203 420.187 399.027 435.223 396.601C446.378 394.821 456.887 388.836 464.001 380.1C464.325 379.776 464.648 379.453 464.81 378.968C466.75 376.379 468.366 373.791 469.66 370.879C474.025 361.335 474.995 350.658 473.055 340.466C473.055 340.143 472.893 339.819 472.893 339.496C471.923 335.128 470.468 330.922 468.366 326.878C468.205 326.069 468.043 325.745 467.72 325.422Z" fill="#AE3925"/>
<path d="M717.188 216.551C716.218 217.359 715.248 218.33 714.278 219.139C714.601 219.301 714.925 219.301 715.41 219.301C716.865 218.492 718.32 217.521 719.775 216.712C719.775 216.712 719.775 216.712 719.937 216.712C718.805 216.712 717.997 216.551 717.188 216.551Z" fill="black"/>
<path d="M674.02 244.537C676.607 242.919 679.194 241.463 681.619 239.845C681.942 239.684 682.266 239.522 682.589 239.198C681.619 239.522 680.649 240.007 679.517 240.169C676.769 240.978 674.02 241.463 671.11 241.463C670.302 242.434 669.493 243.566 668.685 244.537C670.625 244.698 672.242 244.698 674.02 244.537Z" fill="black"/>
<path d="M700.697 227.065C698.919 228.521 697.14 230.139 695.362 231.595C700.697 228.36 705.871 225.124 711.206 221.889L711.368 221.727C712.338 220.918 713.308 220.109 714.116 219.139C715.086 218.33 716.056 217.359 717.026 216.55C721.715 212.344 726.404 208.138 731.092 203.932C742.086 193.903 753.242 183.873 764.236 174.005C763.589 174.005 762.781 174.005 762.134 174.005C761.326 174.005 760.518 174.005 759.547 174.005C740.146 191.638 720.583 209.594 700.697 227.065Z" fill="black"/>
<path d="M711.368 309.568L706.841 307.789C698.919 308.112 691.158 308.112 683.236 307.951C680.164 307.951 677.092 307.789 674.02 307.627C680.972 291.774 696.817 282.067 712.5 276.244C720.907 273.17 729.799 271.39 738.368 268.802C747.422 266.052 756.476 262.817 764.883 258.449C773.129 254.243 780.889 249.066 787.356 242.434C794.47 235.154 800.452 226.418 804.979 217.197C805.464 216.389 805.787 215.418 806.272 214.609C804.656 215.58 802.877 216.712 801.26 217.683C798.674 222.698 795.44 227.389 792.045 231.919C786.063 239.845 779.111 246.316 770.703 251.493C762.62 256.508 753.727 260.228 744.835 263.302C736.428 266.214 727.697 268.155 719.128 270.743C715.41 271.876 711.691 273.17 707.973 274.626C703.931 277.052 699.727 279.641 695.685 282.067C691.481 284.656 687.44 287.082 683.236 289.67C680.649 292.097 678.224 294.685 676.122 297.759C673.697 301.156 671.757 304.715 670.302 308.598C669.978 309.568 670.948 310.539 671.918 310.701C680.002 311.186 688.086 311.348 696.17 311.186C696.493 311.186 696.817 311.186 697.302 311.186C702.152 311.186 706.841 311.024 711.691 310.862C711.529 310.701 711.529 310.377 711.529 310.215C711.368 309.892 711.368 309.73 711.368 309.568Z" fill="black"/>
<path d="M678.547 141.813C677.577 142.298 676.769 142.783 676.446 143.43C675.799 144.401 675.476 145.533 674.99 146.504C674.02 148.769 672.889 150.872 671.919 153.137C664.32 169.314 656.721 185.491 648.96 201.668C643.463 213.153 637.966 224.639 632.308 235.963C632.146 236.286 631.984 236.61 631.823 236.933C629.074 242.434 626.326 247.772 623.577 253.272C622.122 256.022 620.667 258.772 619.212 261.523C618.727 262.331 619.05 263.302 619.858 263.787C623.9 266.052 628.266 267.508 632.793 267.67C633.278 267.67 633.601 267.67 634.086 267.67C634.409 267.67 634.733 267.67 634.894 267.67C635.38 267.67 635.865 267.67 636.511 267.508C640.877 264.92 645.242 262.17 649.607 259.581C654.296 256.669 658.984 253.919 663.673 251.007C665.613 248.904 667.392 246.801 669.17 244.537C669.979 243.566 670.787 242.434 671.595 241.463C672.727 240.007 673.859 238.551 674.829 237.257C683.236 226.095 690.835 214.124 699.242 202.8C703.122 197.623 707.164 192.447 711.53 187.755C714.925 184.196 718.805 179.99 723.494 177.887C728.667 175.623 734.649 174.976 740.147 174.49C746.775 173.843 753.404 173.681 760.033 173.681C760.841 173.681 761.65 173.681 762.62 173.681C763.266 173.681 764.075 173.681 764.721 173.681C768.44 173.681 772.159 173.681 775.877 173.843C775.069 173.034 774.422 171.74 774.422 170.608C760.841 170.284 747.099 170.122 733.679 172.064C728.829 172.873 723.332 173.843 719.128 176.755C714.44 179.99 710.398 184.196 706.679 188.402C697.464 198.756 689.865 210.565 681.943 221.889C674.344 232.889 666.583 244.051 656.721 253.111C649.284 260.067 639.583 266.052 629.074 263.626C626.972 263.14 625.032 262.331 623.092 261.361C631.014 246.963 637.966 232.08 645.242 217.198C653.811 199.565 662.218 181.932 670.464 164.299C673.05 158.96 675.637 153.46 678.062 148.122C678.547 147.313 679.356 146.019 679.517 145.048L680.002 144.886C689.865 140.518 699.727 136.151 709.428 131.621C726.081 124.18 742.733 116.738 759.386 109.297C772.805 103.311 786.225 97.3258 799.644 91.3403C803.039 89.8844 806.434 88.2667 809.991 87.1343C816.62 85.0313 823.572 84.0607 830.363 83.4136C849.925 81.3106 869.65 81.3106 889.375 81.7959C911.363 82.2812 933.189 83.4136 955.178 85.1931C958.734 85.5166 962.13 85.6784 965.687 86.0019C965.687 84.8695 965.848 83.8989 965.848 82.7665C945.8 80.9871 925.752 79.6929 905.543 79.0458C884.524 78.237 863.506 77.9134 842.488 79.2076C829.392 80.0164 815.488 80.9871 803.362 86.3255C792.207 91.1786 781.051 96.1935 769.895 101.208C753.081 108.812 736.266 116.253 719.29 123.856C706.841 129.518 694.392 135.018 681.943 140.68C681.458 140.842 680.973 141.004 680.488 141.166C679.679 141.489 679.194 141.651 678.547 141.813Z" fill="black"/>
<path d="M961.968 239.684C959.866 239.037 957.764 238.39 955.662 237.742C951.297 236.448 946.932 234.992 942.405 234.183C938.363 233.536 934.159 233.375 930.117 234.345C925.59 235.478 921.548 238.066 917.991 241.14C912.656 245.669 908.452 251.331 904.411 257.155C902.309 260.067 900.369 263.949 898.267 266.538C897.458 267.508 896.488 268.317 895.357 269.126C887.919 274.302 878.704 277.376 870.297 280.288C851.865 286.759 832.949 291.774 814.033 296.465C811.446 297.112 808.859 297.597 806.111 297.921C796.572 299.377 787.033 300.671 777.332 301.803C756.476 304.392 735.458 306.495 714.44 307.465C714.44 308.436 714.44 309.245 714.278 310.215C714.278 310.377 714.278 310.701 714.116 310.863C731.901 310.054 749.524 308.274 767.146 306.333C778.464 305.039 789.943 303.583 801.26 301.965C804.817 301.48 808.536 300.995 812.093 300.347C828.907 296.465 845.56 291.774 862.051 286.435C871.913 283.2 881.776 279.964 891.153 275.273C894.225 273.817 897.297 272.038 899.722 269.773C901.339 268.155 902.47 265.89 903.764 263.949C906.189 260.228 908.614 256.67 911.363 253.272C917.345 245.507 925.267 237.095 935.776 236.934C944.668 236.772 953.56 240.654 962.129 243.081C961.968 241.948 961.968 240.816 961.968 239.684Z" fill="black"/>
<path d="M788.164 171.093C787.841 171.255 787.518 171.578 787.194 171.74C785.901 172.549 784.446 173.358 783.152 174.167C783.314 174.167 783.314 174.167 783.476 174.167C785.416 174.167 787.356 174.328 789.296 174.328C790.913 173.358 792.691 172.225 794.308 171.255C794.146 171.255 794.146 171.255 793.985 171.255C792.045 171.255 790.104 171.093 788.164 171.093Z" fill="black"/>
<path d="M628.427 272.361C627.457 272.847 626.649 273.494 625.679 273.979C621.96 276.244 618.08 278.509 614.523 280.773C614.361 280.935 614.2 280.935 614.038 281.097C614.685 280.773 615.655 280.935 616.14 281.744C616.948 283.2 617.918 284.656 618.727 285.95C624.87 295.98 630.853 306.009 636.996 316.039C637.32 316.525 637.32 317.01 636.996 317.495C636.996 317.657 636.835 317.657 636.835 317.819C636.673 317.98 636.511 318.142 636.188 318.304C636.188 318.304 636.35 318.304 636.35 318.142C638.936 316.525 641.523 315.069 644.11 313.451C651.062 309.245 658.014 305.039 664.966 300.671C670.949 296.95 676.931 293.391 683.074 289.671C687.278 287.082 691.32 284.656 695.523 282.068C699.565 279.641 703.769 277.053 707.811 274.626C715.895 269.611 724.14 264.758 732.224 259.743C745.482 251.655 758.739 243.566 772.159 235.478C781.859 229.492 791.56 223.668 801.261 217.683C802.877 216.712 804.656 215.58 806.273 214.609C807.889 213.639 809.506 212.668 811.285 211.536C823.087 204.418 834.728 197.3 846.53 190.02C855.907 184.358 865.285 178.696 874.5 173.034C880.159 169.637 885.979 166.078 891.638 162.681C892.77 162.034 893.902 161.225 895.195 160.578C900.692 157.181 904.734 151.681 905.704 145.21C906.513 140.195 905.381 135.018 902.794 130.651C897.459 121.753 886.141 117.871 876.441 121.753C874.662 122.4 873.045 123.371 871.429 124.342C866.74 127.092 862.213 130.004 857.524 132.754C848.955 137.93 840.386 143.107 831.818 148.445C820.5 155.24 809.344 162.196 798.027 168.99C796.734 169.799 795.44 170.608 794.308 171.255C792.692 172.226 790.913 173.358 789.296 174.329C779.434 180.314 769.41 186.461 759.548 192.447C746.29 200.535 733.033 208.624 719.775 216.712C719.775 216.712 719.775 216.712 719.613 216.712C718.158 217.521 716.703 218.492 715.248 219.301C713.955 220.11 712.5 220.918 711.206 221.727C705.871 224.963 700.697 228.198 695.362 231.433C691.158 234.022 686.793 236.61 682.589 239.198C682.266 239.36 681.943 239.522 681.619 239.846C679.032 241.463 676.446 242.919 674.02 244.537C670.464 246.64 666.907 248.905 663.35 251.008C658.661 253.919 653.972 256.67 649.284 259.581C644.918 262.17 640.553 264.92 636.188 267.508C634.571 268.479 632.954 269.449 631.338 270.42C630.368 271.067 629.397 271.714 628.427 272.361ZM618.727 285.95C618.08 284.979 617.595 284.009 616.948 283.038C619.05 281.744 620.99 280.612 623.092 279.317C629.882 275.111 636.673 271.067 643.625 266.861C653.649 260.714 663.835 254.567 673.859 248.419C685.985 240.978 698.11 233.698 710.236 226.257C723.332 218.33 736.428 210.242 749.524 202.315C762.458 194.388 775.554 186.461 788.488 178.535C800.29 171.417 811.931 164.299 823.734 157.019C833.273 151.195 842.65 145.533 852.189 139.71C858.171 135.989 864.153 132.43 870.135 128.709C871.429 127.901 872.884 127.092 874.177 126.283C878.381 123.695 883.231 122.562 888.243 123.533C893.255 124.665 897.62 127.577 900.207 131.945C905.381 140.68 902.632 152.004 894.063 157.343C893.255 157.828 892.447 158.313 891.8 158.799C886.788 161.872 881.776 164.946 876.764 168.02C868.033 173.358 859.303 178.696 850.572 183.873C839.255 190.829 827.937 197.623 816.62 204.58C803.847 212.345 791.075 220.11 778.302 227.874C765.206 235.963 751.949 243.89 738.853 251.978C726.404 259.581 713.955 267.185 701.506 274.788C690.835 281.259 680.326 287.729 669.655 294.2C661.895 298.892 654.296 303.583 646.535 308.274C644.11 309.73 641.685 311.186 639.26 312.642C638.29 313.289 637.32 313.774 636.35 314.422C630.367 305.039 624.547 295.494 618.727 285.95Z" fill="black"/>
<path d="M782.344 174.652C782.667 174.49 782.829 174.328 783.152 174.167C784.446 173.358 785.901 172.549 787.194 171.74C787.518 171.578 787.841 171.255 788.164 171.093C804.817 160.901 821.47 150.872 838.123 140.68C846.692 135.504 855.261 130.327 863.829 124.989C867.71 122.562 871.913 120.297 875.632 117.709C878.219 115.929 878.865 113.018 877.572 110.267C874.015 104.282 866.901 110.429 863.021 112.694C855.261 117.385 847.5 122.077 839.901 126.768C821.955 137.768 803.847 148.769 785.901 159.607C783.476 161.063 781.051 162.519 778.625 163.975C777.009 164.946 775.23 165.755 774.422 167.696C773.937 168.666 773.937 169.475 773.937 170.446C774.098 171.74 774.583 172.872 775.392 173.681C776.2 174.49 777.332 175.137 778.464 175.299C779.919 175.784 781.212 175.299 782.344 174.652ZM778.14 168.343C778.464 168.019 778.787 167.858 779.11 167.696C781.051 166.563 782.829 165.431 784.769 164.299C801.099 154.431 817.428 144.401 833.757 134.533C842.003 129.518 850.249 124.503 858.656 119.488C862.859 116.9 867.063 114.15 871.428 111.723C872.56 111.076 874.015 110.915 874.824 112.209C875.955 114.473 873.692 115.606 872.075 116.415C869.812 117.709 867.548 119.165 865.446 120.459C857.847 125.15 850.249 129.68 842.65 134.371C825.512 144.724 808.374 155.24 791.236 165.593C788.649 167.049 786.224 168.666 783.637 170.122C782.667 170.769 781.536 171.578 780.566 172.064C777.817 173.358 775.877 170.122 778.14 168.343Z" fill="black"/>
<path d="M636.834 317.819C636.996 317.657 636.996 317.657 636.996 317.495C637.158 317.01 637.319 316.525 636.996 316.039C630.852 306.009 624.87 295.98 618.726 285.95C617.918 284.494 616.948 283.038 616.14 281.744C615.655 281.097 614.684 280.773 614.038 281.097C613.876 281.097 613.714 281.259 613.553 281.42C612.098 282.876 610.804 284.332 609.349 285.95C609.026 286.274 608.702 286.597 608.541 286.921C604.337 291.45 600.133 295.818 595.93 300.348C595.607 300.833 595.121 301.156 594.798 301.642C593.666 302.936 592.535 304.068 591.241 305.362C589.301 307.304 587.523 309.407 585.583 311.348C585.259 311.671 584.774 312.157 584.451 312.48C584.127 312.804 583.804 313.127 583.481 313.451C584.127 312.642 585.421 312.966 586.068 313.774C586.229 314.098 586.553 314.422 586.714 314.745C593.181 307.789 599.81 300.833 606.277 293.877C609.026 290.965 611.774 288.053 614.523 285.141C620.182 294.524 626.002 304.068 631.661 313.451C632.146 314.26 632.631 315.069 633.116 315.877C623.253 318.628 613.553 321.378 603.69 324.29C600.457 325.26 597.223 326.069 593.99 327.04C594.151 327.363 594.475 327.687 594.636 328.172C594.96 328.657 594.96 329.143 594.636 329.628C594.636 329.79 594.475 329.79 594.475 329.951C594.313 330.275 593.99 330.437 593.666 330.599C592.696 330.922 591.888 331.084 590.918 331.407C591.726 331.246 592.535 330.922 593.181 330.76C597.87 329.466 602.397 328.172 607.086 326.878C608.379 326.554 609.511 326.231 610.804 325.907C614.684 324.775 618.565 323.642 622.445 322.672C626.164 321.701 629.882 320.569 633.439 319.598C633.924 319.436 634.247 319.436 634.732 319.275C635.056 319.113 635.541 319.113 635.864 318.951H636.026C636.511 318.142 636.673 317.98 636.834 317.819Z" fill="black"/>
<path d="M584.451 317.172C583.966 317.657 583.643 318.142 583.158 318.466C578.146 323.804 573.295 328.981 568.283 334.319C575.882 332.216 583.481 329.951 590.918 327.848C588.816 324.29 586.553 320.731 584.451 317.172Z" fill="#AE3925"/>
<path d="M594.637 329.79C594.798 329.628 594.798 329.628 594.798 329.466C594.96 328.981 595.122 328.495 594.798 328.01C594.637 327.687 594.313 327.363 594.152 326.878C591.727 322.834 589.14 318.628 586.715 314.583C586.553 314.26 586.229 313.936 586.068 313.613C585.583 312.804 584.289 312.48 583.481 313.289C579.762 317.333 575.882 321.378 572.164 325.422C571.84 325.745 571.517 326.069 571.193 326.554C569.092 328.819 566.828 331.246 564.726 333.51C563.756 334.481 562.948 335.452 561.978 336.422C560.846 337.555 561.978 339.496 563.595 339.172C572.487 336.746 581.217 334.157 590.11 331.731C590.433 331.569 590.756 331.569 591.08 331.407C592.05 331.084 592.858 330.922 593.828 330.598C594.152 330.275 594.475 330.113 594.637 329.79ZM568.283 334.319C573.295 328.981 578.146 323.804 583.158 318.466C583.643 317.98 583.966 317.495 584.451 317.172C586.553 320.731 588.816 324.289 590.918 327.848C583.319 329.951 575.882 332.216 568.283 334.319Z" fill="black"/>
<path d="M714.601 307.465C714.763 304.553 714.763 301.641 714.925 298.73C714.925 297.921 714.116 297.112 713.308 297.112C703.607 297.274 694.068 297.274 684.368 297.435C682.266 297.435 682.266 300.671 684.368 300.671C685.661 300.671 687.116 300.671 688.41 300.671C696.17 300.671 703.931 300.509 711.691 300.509C711.529 303.583 711.529 306.656 711.368 309.73C711.368 309.892 711.368 310.215 711.368 310.377C711.368 310.7 711.368 310.862 711.529 311.024C712.014 312.156 713.955 312.156 714.44 310.862C714.44 310.7 714.601 310.539 714.601 310.215C714.44 309.245 714.601 308.274 714.601 307.465Z" fill="black"/>
<path d="M1085.65 82.2812C1085.49 82.9283 1085.49 83.4136 1085.33 84.0607C1094.06 82.9283 1102.95 81.7959 1111.68 80.5017C1146.28 75.8104 1180.88 71.1191 1215.64 66.266C1252.99 61.0893 1290.17 55.9127 1327.52 50.736C1362.93 45.8829 1398.17 41.0298 1433.58 36.1767C1436.01 35.8532 1438.43 35.5296 1440.86 35.2061C1442.47 35.0443 1444.25 34.7208 1445.87 34.559C1448.13 34.2355 1447.16 30.8383 1444.9 31.1618C1409.33 36.0149 1373.76 40.868 1338.19 45.8829C1300.2 51.2213 1262.2 56.398 1224.21 61.7364C1188.64 66.5895 1153.23 71.6044 1117.66 76.2957C1106.83 77.7516 1096 79.2076 1085.17 80.6635C1085.49 80.987 1085.65 81.6341 1085.65 82.2812Z" fill="black"/>
<path d="M1268.02 317.172C1240.54 310.701 1213.21 304.23 1185.89 297.597C1161.96 291.774 1138.2 285.788 1114.43 279.641C1104.73 277.053 1095.03 274.464 1085.49 271.876C1082.42 271.067 1079.18 270.096 1076.11 269.288C1076.11 270.582 1076.27 271.714 1076.27 273.008C1076.6 273.008 1076.76 273.17 1077.08 273.17C1086.3 275.758 1095.35 278.185 1104.57 280.773C1127.69 286.921 1150.81 292.744 1173.93 298.406C1201.25 305.201 1228.57 311.671 1256.06 318.142C1284.19 324.775 1312.32 331.246 1340.45 337.555C1366.65 343.378 1392.68 349.04 1418.87 354.54C1421.78 355.188 1424.69 355.673 1427.6 356.32C1429.86 356.805 1430.83 353.408 1428.57 352.923C1416.6 350.496 1404.64 347.908 1392.68 345.32C1379.1 342.408 1365.68 339.496 1352.1 336.422C1323.96 330.113 1295.99 323.804 1268.02 317.172Z" fill="black"/>
<path d="M965.201 86.0019C962.291 132.43 960.997 179.182 961.644 225.771C961.644 230.463 961.806 234.992 961.967 239.684C961.967 240.816 961.967 241.948 961.967 243.081C962.129 251.493 962.453 259.905 962.776 268.317C962.776 268.64 962.938 268.964 963.099 269.126C963.423 269.611 963.908 270.096 964.554 270.096C993.171 269.611 1021.46 274.141 1049.92 275.92C1058.17 276.405 1066.25 276.729 1074.5 276.567C1075.47 276.567 1076.27 275.758 1076.27 274.788C1076.27 274.141 1076.27 273.494 1076.11 272.846C1076.11 271.552 1075.95 270.42 1075.95 269.126C1075.79 266.537 1075.63 264.111 1075.63 261.523C1075.14 250.522 1074.82 239.684 1074.66 228.683C1074.33 193.903 1075.95 159.284 1079.83 124.665C1081.29 111.076 1083.23 97.3258 1085.33 83.8989C1085.49 83.2518 1085.49 82.7665 1085.65 82.1194C1085.81 81.4724 1085.49 80.6635 1085.17 80.34C1084.84 80.0164 1084.52 79.8547 1084.03 79.8547C1053.8 79.8547 1023.57 78.7223 993.333 76.1339C984.764 75.3251 976.195 74.5162 967.788 73.5456C966.818 73.3838 966.009 74.5162 966.009 75.3251C965.848 77.7516 965.686 80.1782 965.524 82.7665C965.363 83.8989 965.201 85.0313 965.201 86.0019ZM969.243 77.4281C998.83 80.6635 1028.42 82.6047 1058.17 83.2518C1066.09 83.4136 1073.85 83.5754 1081.77 83.5754C1074.01 132.754 1070.29 182.417 1070.94 232.242C1071.1 245.831 1071.75 259.42 1072.55 273.008C1044.58 273.332 1016.94 268.802 988.968 267.185C981.369 266.699 973.77 266.537 966.171 266.537C964.393 217.036 964.554 167.534 966.818 118.032C967.626 104.444 968.435 91.0168 969.243 77.4281Z" fill="black"/>
<path d="M987.028 239.198C983.956 237.257 979.914 237.419 977.004 239.684C973.447 242.272 971.668 246.802 972.477 251.008C972.639 251.978 973.77 252.464 974.74 252.302C975.71 251.978 976.195 251.008 976.034 250.037C975.549 247.61 976.68 244.86 978.459 243.243C979.267 242.434 980.399 241.787 981.531 241.463C982.501 241.301 983.633 241.301 984.603 241.787C986.866 242.919 988.321 245.184 988.806 247.61C989.291 250.037 988.16 252.464 986.381 253.92C985.411 254.728 984.279 255.214 982.986 255.537C982.016 255.699 980.722 255.537 979.752 255.052C978.944 254.567 977.812 254.89 977.327 255.699C976.842 256.508 977.166 257.64 977.974 258.126C984.764 261.523 992.687 255.699 992.525 248.419C992.202 244.86 990.261 241.301 987.028 239.198Z" fill="black"/>
</g>
</g>
<defs>
<clipPath id="clip0">
<rect width="1200" height="549" fill="white"/>
</clipPath>
<clipPath id="clip1">
<rect width="1226" height="435" fill="white" transform="translate(221 31)"/>
</clipPath>
</defs>
</svg>
