<svg width="1200" height="549" viewBox="0 0 1200 549" fill="none" xmlns="http://www.w3.org/2000/svg">
<g clip-path="url(#clip0)">
<g clip-path="url(#clip1)">
<path d="M417.489 338.956C416.486 338.956 415.627 338.813 414.625 338.813C413.479 339.959 412.333 341.105 411.044 342.394C418.205 342.967 425.221 343.254 432.382 343.397V339.672C427.513 339.529 422.501 339.243 417.489 338.956Z" fill="#AE3925"/>
<path d="M235.048 252.719C216.575 227.65 204.403 196.995 204.69 165.623C204.69 162.185 204.976 158.603 205.406 155.165C215.716 165.623 228.891 173.645 243.354 176.08C258.391 178.515 272.997 174.504 284.453 164.477C294.764 155.452 302.21 141.7 301.494 127.804C300.922 114.196 292.186 102.306 279.871 96.7191C267.555 91.1323 252.806 91.1323 240.204 96.0028C225.74 101.446 215 113.479 208.842 127.375C205.978 133.535 203.974 140.124 202.685 146.714C198.102 141.127 194.236 134.967 191.229 128.377C183.066 110.901 180.059 91.5621 178.913 72.5097C178.34 63.3417 178.197 54.1736 178.197 44.8623C178.197 42.4271 174.331 42.4271 174.474 44.8623C174.76 81.6778 176.479 122.361 201.969 151.441C198.532 175.22 203.544 200.576 212.995 222.35C225.597 251.43 246.934 276.069 272.138 295.121C272.997 294.119 273.713 293.259 274.572 292.256C259.536 280.939 246.075 267.76 235.048 252.719ZM251.517 96.8623C264.119 94.8568 278.296 97.4353 287.89 106.317C298.058 115.771 300.206 130.24 295.337 142.846C290.468 155.738 279.298 166.482 266.267 170.923C251.66 175.793 235.335 171.926 222.59 164.047C216.575 160.322 211.134 155.738 206.265 150.438C210.418 125.369 224.595 101.16 251.517 96.8623Z" fill="#AE3925"/>
<path d="M611.528 315.606C609.809 315.176 608.234 314.89 606.516 314.46C607.232 313.887 607.948 313.314 608.664 312.741C596.492 317.755 583.747 321.909 571.002 325.204C572.434 326.064 573.866 326.923 575.298 327.926C587.613 324.631 599.785 320.62 611.528 315.606Z" fill="#AE3925"/>
<path d="M568.997 329.502C569.713 329.358 570.429 329.215 571.145 328.929C569.57 327.926 567.994 327.066 566.419 326.207C565.846 326.35 565.273 326.493 564.701 326.637C566.133 327.639 567.565 328.499 568.997 329.502Z" fill="#AE3925"/>
<path d="M753.441 137.545C755.303 136.686 757.308 135.826 759.313 135.397C759.313 134.394 759.313 133.391 759.313 132.388C757.308 132.675 755.303 133.391 753.441 134.107V137.545Z" fill="black"/>
<path d="M868.004 262.174C874.877 271.055 881.894 279.794 888.768 288.675C890.2 290.537 891.632 292.256 892.921 294.119C893.637 293.402 894.353 292.829 895.069 292.113C886.763 281.656 878.6 271.055 870.295 260.598C870.295 260.741 870.295 260.741 870.295 260.884C870.868 262.174 868.863 263.033 868.004 262.174Z" fill="black"/>
<path d="M815.878 190.692C815.448 190.119 815.019 189.546 814.446 188.973C814.303 189.116 814.159 189.402 814.159 189.546C814.732 189.975 815.305 190.405 815.878 190.692Z" fill="black"/>
<path d="M814.016 374.626C811.582 372.19 809.147 369.898 806.856 367.463C792.106 352.708 777.356 338.097 762.606 323.342C762.606 324.774 762.606 326.207 762.606 327.639C765.327 330.361 768.048 333.083 770.769 335.805C784.516 349.557 798.264 363.166 812.011 376.918C812.584 376.201 813.3 375.342 814.016 374.626Z" fill="black"/>
<path d="M753.441 318.614C755.446 320.62 757.308 322.482 759.313 324.488C759.313 323.055 759.313 321.623 759.313 320.19C757.308 318.185 755.446 316.322 753.441 314.317V318.614Z" fill="black"/>
<path d="M762.606 135.253C765.9 135.397 768.764 136.829 771.199 139.121C773.633 141.413 775.638 143.992 777.643 146.57C780.077 149.722 782.655 153.016 785.089 156.168C789.958 162.471 794.97 168.774 799.839 175.077C802.846 178.945 805.854 182.669 808.861 186.537C809.577 186.967 810.293 187.397 811.009 187.826C811.295 187.11 811.725 186.537 812.154 185.964C810.579 183.959 809.147 182.096 807.572 180.091C797.405 167.198 787.524 154.019 777.213 141.27C773.49 136.686 768.764 132.532 762.75 132.245C762.606 133.248 762.606 134.251 762.606 135.253Z" fill="black"/>
<path d="M753.441 241.402C755.16 246.416 757.308 251.287 758.74 256.444C758.883 257.017 759.169 257.733 759.313 258.449C759.313 256.157 759.313 253.865 759.313 251.43C759.313 250.57 759.313 249.568 759.313 248.708C757.165 242.978 754.587 236.389 753.441 229.656V241.402Z" fill="black"/>
<path d="M762.606 259.309C762.606 261.314 762.606 263.463 762.606 265.468C762.606 268.763 762.606 272.058 762.606 275.353C764.182 270.196 763.752 264.609 762.606 259.309Z" fill="black"/>
<path d="M753.441 282.802V286.097C755.303 285.38 757.022 284.234 758.31 282.659C758.597 282.229 758.883 281.799 759.313 281.513C759.313 279.507 759.313 277.502 759.313 275.353C758.167 278.361 756.305 281.226 753.441 282.802Z" fill="black"/>
<path d="M810.866 187.683C812.011 188.256 813.014 188.972 814.159 189.545C814.303 189.402 814.446 189.116 814.446 188.972C815.305 187.397 816.307 185.821 817.31 184.245C832.633 160.466 859.268 144.851 887.336 141.986C901.227 140.554 916.406 141.843 929.151 148.146C930.297 148.719 931.586 149.435 932.731 150.152C927.433 154.449 922.277 159.176 917.981 164.62C913.399 170.493 909.389 177.799 909.532 185.534C909.676 191.981 912.969 197.854 918.554 201.149C928.578 207.022 942.755 204.014 949.486 194.559C957.935 182.669 954.355 165.479 945.047 155.309C943.185 153.303 941.323 151.584 939.175 150.008C942.755 147.286 946.479 144.565 950.202 142.129C963.09 133.821 977.124 127.518 991.731 123.22C995.311 122.218 999.034 121.215 1002.76 120.499C1005.19 119.926 1004.19 116.344 1001.75 116.917C985.573 120.355 970.107 126.372 955.787 134.537C948.913 138.405 942.326 142.989 936.025 147.859C926.43 141.843 914.831 139.121 903.661 138.262C873.589 136.113 842.657 148.719 822.752 171.353C818.742 175.937 815.162 180.95 812.155 186.107C811.582 186.394 811.295 187.11 810.866 187.683ZM945.19 161.612C948.77 167.198 950.775 173.931 950.202 180.664C949.772 186.68 947.195 192.84 942.182 196.421C937.886 199.43 932.445 200.719 927.433 200.003C922.421 199.43 917.552 196.708 915.117 192.124C911.68 185.821 913.685 178.372 916.979 172.499C920.702 165.909 926.001 160.609 931.729 155.738C933.161 154.449 934.593 153.303 936.025 152.157C939.605 154.736 942.755 157.887 945.19 161.612Z" fill="#AE3925"/>
<path d="M973.114 356.146C972.685 356.433 972.398 356.719 971.969 357.006C976.694 360.444 981.42 363.738 986.289 367.176C1010.35 384.366 1034.4 401.413 1058.61 418.46C1084.81 436.939 1110.88 455.419 1137.08 473.898C1161.86 491.375 1186.77 508.995 1211.55 526.614C1213.26 527.76 1214.84 529.05 1216.56 530.196C1217.7 531.055 1218.85 531.771 1220 532.631C1221.57 533.777 1223 531.198 1221.57 530.052C1196.65 512.289 1171.59 494.526 1146.68 476.906C1120.04 458.141 1093.55 439.375 1066.91 420.466C1042.14 402.989 1017.36 385.369 992.59 367.749C986.432 363.309 980.274 358.868 974.117 354.57C973.973 355.143 973.544 355.716 973.114 356.146Z" fill="black"/>
<path d="M951.061 604.543C938.173 585.204 925.284 565.722 912.539 546.096C901.37 528.906 890.2 511.716 879.316 494.383C874.877 487.22 870.438 480.201 865.999 473.039C864.28 470.174 862.419 467.309 860.7 464.3C859.984 465.16 859.411 465.876 858.695 466.592C859.125 467.309 859.555 468.025 859.984 468.741C864.137 475.617 868.29 482.35 872.586 489.226C883.183 506.129 893.923 522.89 904.807 539.507C917.408 559.276 930.297 578.758 943.185 598.24C956.503 618.152 969.82 638.063 983.281 657.832C995.74 676.025 1008.2 694.218 1020.8 712.267C1022.23 714.273 1023.66 716.278 1025.1 718.284C1026.24 719.86 1028.82 718.284 1027.67 716.708C1021.8 708.399 1015.93 699.948 1010.2 691.639C1003.76 682.328 997.315 673.017 990.871 663.562C977.553 644.08 964.236 624.311 951.061 604.543Z" fill="black"/>
<path d="M892.921 293.975C866.142 319.331 840.365 345.546 815.591 372.763C815.019 373.336 814.446 374.052 813.873 374.625C813.157 375.342 812.584 376.058 811.868 376.917C805.138 384.367 798.55 391.672 792.106 399.265C791.963 399.408 791.963 399.551 791.82 399.694C791.533 400.267 791.533 400.84 792.106 401.413C809.863 417.457 824.47 436.366 840.795 453.843C845.521 458.857 850.39 463.727 855.402 468.311C855.974 468.884 856.977 469.028 857.55 468.311C857.836 467.882 858.266 467.452 858.552 467.022C859.268 466.163 859.841 465.446 860.557 464.73C861.846 463.154 863.278 461.435 864.71 459.86C870.581 452.84 876.739 446.108 882.897 439.375C902.515 418.03 923.28 397.832 945.333 378.923C954.068 371.474 962.947 364.311 971.968 357.292C972.398 357.006 972.685 356.719 973.114 356.433C973.544 356.146 973.83 355.573 973.83 355C973.83 354.714 973.687 354.427 973.4 354.141C954.927 336.951 937.313 318.901 920.416 300.135C915.547 294.835 910.821 289.391 906.239 283.805C905.666 283.232 904.663 283.232 904.091 283.805C901.083 286.67 898.076 289.391 895.069 292.256C894.353 292.686 893.637 293.402 892.921 293.975ZM905.093 286.67C921.132 305.435 938.029 323.628 955.787 340.818C960.512 345.402 965.381 350.13 970.25 354.57C937.457 380.069 906.811 408.289 878.887 438.945C871.297 447.397 863.851 455.992 856.547 464.73C839.363 448.973 825.043 430.493 809.004 413.446C804.565 408.862 800.125 404.278 795.4 399.981C822.608 368.752 851.106 338.67 880.749 309.733C888.625 302.141 896.787 294.405 905.093 286.67Z" fill="black"/>
<path d="M816.737 389.953C813.3 389.667 809.863 391.386 808.002 394.251C807.572 394.967 807.858 395.97 808.574 396.256C809.29 396.686 810.15 396.399 810.579 395.683C810.866 395.253 811.152 394.967 811.582 394.537C812.011 394.251 812.298 393.964 812.871 393.678C813.443 393.391 813.587 393.391 814.159 393.105C814.446 393.105 814.589 392.961 814.875 392.961C814.875 392.961 815.019 392.961 815.162 392.961C815.305 392.961 815.448 392.961 815.735 392.961C816.021 392.961 816.164 392.961 816.451 392.961C816.594 392.961 816.737 392.961 816.737 392.961H817.023C817.31 392.961 817.453 393.105 817.739 393.105C817.883 393.105 818.026 393.248 818.169 393.248L818.455 393.391C818.599 393.534 818.885 393.678 819.028 393.678C819.028 393.678 819.028 393.678 819.171 393.678L819.458 393.964L819.744 394.251C819.744 394.251 819.744 394.251 819.744 394.394C819.887 394.68 820.031 394.824 820.174 395.11L820.317 395.397C820.317 395.54 820.46 395.54 820.46 395.683C820.46 395.97 820.603 396.113 820.603 396.399V396.686C820.603 396.829 820.603 396.972 820.603 396.972C820.603 397.259 820.603 397.545 820.603 397.832C820.603 397.975 820.603 398.118 820.603 398.262C820.603 398.262 820.603 398.262 820.603 398.405C820.603 398.405 820.603 398.405 820.603 398.548C820.603 398.835 820.46 398.978 820.46 399.264C820.317 399.551 820.317 399.837 820.174 400.124C820.174 400.124 820.174 400.124 820.174 400.267C820.174 400.267 820.174 400.267 820.174 400.41C820.174 400.554 820.031 400.697 820.031 400.84C819.744 401.413 819.601 401.7 819.171 401.986C818.742 402.559 818.455 402.702 817.883 403.132C817.596 403.275 817.453 403.419 817.167 403.562L816.88 403.705C816.737 403.705 816.594 403.848 816.451 403.848C815.735 403.992 815.591 403.992 814.875 404.135C813.73 404.135 812.727 403.848 811.725 403.275L811.438 403.132L811.152 402.989C811.295 403.132 811.295 403.132 811.152 402.989C810.866 402.846 810.722 402.559 810.436 402.416L810.293 402.273C810.15 402.129 810.15 401.986 810.006 401.843L809.863 401.413C809.863 401.27 809.863 401.27 809.863 401.27V401.127C809.577 400.41 808.861 399.837 808.002 400.124C807.286 400.267 806.713 401.27 806.999 401.986C808.002 404.994 810.722 406.713 813.73 407.143C816.88 407.573 820.031 406.284 821.892 403.705C823.611 401.413 824.327 397.975 823.324 395.253C822.465 391.959 819.887 390.24 816.737 389.953Z" fill="black"/>
<path d="M753.441 377.777V318.614V314.317V286.097V282.802V241.402V229.656V227.364C752.296 226.504 751.15 225.788 750.005 225.072C739.264 218.196 727.235 213.755 715.35 209.314C710.481 207.452 705.469 205.733 700.743 203.584C696.017 201.579 692.294 198.284 689.716 193.843C685.134 186.108 683.415 174.361 690.003 167.199C694.299 162.614 701.029 162.185 706.901 161.612C714.92 160.752 722.939 161.039 730.959 162.041C738.548 163.044 745.995 164.907 753.441 167.055V137.546V134.251V92.9947C753.441 84.3996 749.718 76.9506 744.42 73.7991C740.553 73.7991 736.687 73.7991 732.82 73.7991C713.345 73.7991 693.869 73.7991 674.394 73.7991C663.081 73.7991 651.624 73.7991 640.311 73.7991C644.464 80.2454 648.904 86.5484 653.056 93.1379C653.486 93.8542 653.2 95.0002 652.484 95.2867C640.884 101.16 628.139 103.452 615.967 107.749C622.268 113.48 630.001 116.918 637.734 120.499C646.612 124.51 654.345 129.667 660.073 137.689C660.646 138.405 660.217 139.551 659.501 139.838C646.183 147.716 635.299 159.463 620.979 165.193C630.144 171.926 640.455 177.083 650.192 183.099C650.908 183.529 651.338 184.532 650.765 185.248C643.319 195.562 636.445 207.165 625.848 214.471C628.998 218.626 633.724 220.201 638.736 221.634C644.178 223.066 649.19 225.072 652.913 229.369C653.486 230.086 653.486 230.945 652.913 231.661C641.027 245.27 625.991 255.584 613.103 268.19C619.834 273.347 627.71 275.066 636.015 276.499C644.464 277.931 652.627 279.794 659.644 284.951C660.646 285.667 660.789 287.529 659.214 287.959C643.032 291.254 630.144 303.143 617.686 313.457C631.719 316.609 645.467 320.62 657.209 329.358C658.069 330.075 658.355 331.507 657.209 332.08C642.03 339.672 626.707 346.692 613.819 357.865C621.122 359.727 628.569 361.017 635.729 362.879C644.178 365.028 652.34 368.322 659.501 373.623C660.503 374.339 660.646 375.628 659.501 376.345C650.908 382.075 643.176 389.094 636.015 396.4C650.908 396.4 665.945 396.4 680.838 396.4C699.168 396.4 717.354 396.4 735.684 396.4C738.692 396.4 741.556 396.4 744.563 396.4C749.718 393.678 753.441 386.372 753.441 377.777Z" fill="#AE3925"/>
<path d="M609.38 267.331C622.125 254.438 637.161 244.124 649.333 230.658C645.467 226.934 640.598 225.788 635.586 224.212C630.001 222.636 625.275 219.915 621.982 214.901C621.552 214.185 621.839 213.182 622.555 212.752C633.152 206.019 639.882 194.989 646.899 184.961C636.588 178.658 625.848 173.215 616.397 165.909C615.394 165.05 616.11 163.617 617.113 163.187C632.006 158.174 643.176 146.14 656.207 137.975C650.479 130.813 642.889 126.372 634.727 122.647C626.421 118.78 618.258 115.055 611.671 108.322C610.812 107.463 611.242 106.03 612.387 105.6C624.559 101.016 637.448 98.8677 649.19 93.2809C644.894 86.4049 640.168 79.8154 635.872 72.9393C635.729 72.6528 635.586 72.3663 635.586 72.0798H629.715C634.297 79.3856 639.309 86.4049 644.035 93.8539C631.147 100.443 618.258 102.019 605.227 107.033C619.261 121.788 638.164 120.212 651.052 138.262C637.018 146.427 625.275 159.606 609.953 164.62C620.55 172.785 631.147 177.799 641.6 184.388C633.438 195.848 626.278 207.452 615.824 214.041C622.841 225.501 635.729 220.631 644.035 230.515C631.147 245.27 615.824 255.154 602.936 268.333C610.239 274.636 618.115 276.355 625.991 277.788C619.834 276.212 614.249 273.634 609.237 269.479C608.664 269.05 608.807 267.904 609.38 267.331Z" fill="#AE3925"/>
<path d="M655.777 375.342C649.19 370.901 641.887 368.036 634.297 366.174C631.147 365.314 627.996 364.741 624.846 364.025C633.867 366.174 642.746 369.039 651.195 375.342C641.744 381.645 633.008 389.667 624.703 398.405H630.574C630.574 397.975 630.717 397.546 631.003 397.259C638.593 389.38 646.756 381.645 655.777 375.342Z" fill="#AE3925"/>
<path d="M611.528 315.606C624.846 318.614 637.304 322.196 648.761 330.934C632.292 339.099 617.113 345.689 602.936 358.868C607.805 360.3 612.674 361.303 617.542 362.449C614.965 361.876 612.387 361.16 609.953 360.444C608.807 360.157 608.377 358.581 609.237 357.722C622.125 345.832 637.591 338.383 653.057 330.647C641.171 322.482 627.423 319.044 613.39 316.036C612.244 315.749 611.814 314.03 612.674 313.314C625.419 302.857 638.307 290.394 654.489 285.81C649.477 282.945 644.035 281.512 638.45 280.366C642.746 281.512 646.899 283.375 651.052 286.383C635.443 289.534 621.982 301.568 608.521 312.598C607.805 313.171 607.089 313.744 606.373 314.317C608.234 314.89 609.953 315.176 611.528 315.606Z" fill="#AE3925"/>
<path d="M612.817 313.314C611.957 314.03 612.387 315.749 613.533 316.036C627.423 319.044 641.314 322.482 653.2 330.647C637.734 338.383 622.125 345.832 609.38 357.722C608.521 358.581 608.95 360.014 610.096 360.444C612.673 361.16 615.108 361.876 617.686 362.449C619.977 363.022 622.411 363.452 624.846 364.025C627.996 364.741 631.147 365.314 634.297 366.174C642.03 368.179 649.333 370.901 655.777 375.342C646.612 381.645 638.593 389.38 630.86 397.259C630.574 397.545 630.431 397.975 630.431 398.405C630.431 399.264 631.003 399.981 632.006 399.981C643.605 399.981 655.205 399.981 666.947 399.981C686.709 399.981 706.471 399.981 726.376 399.981C732.248 399.981 738.119 399.981 743.99 399.981C745.422 399.981 746.854 399.981 748.143 399.837C754.874 398.691 759.313 392.388 761.175 386.229C762.32 382.361 762.463 378.493 762.463 374.625C762.463 370.901 762.463 367.32 762.463 363.595C762.463 351.562 762.463 339.529 762.463 327.496C762.463 326.063 762.463 324.631 762.463 323.198C762.463 322.912 762.463 322.769 762.463 322.482C762.463 306.725 762.463 290.824 762.463 275.066C762.463 271.771 762.463 268.477 762.463 265.182C762.463 263.176 762.463 261.028 762.463 259.022C762.463 251.86 762.463 244.84 762.463 237.678C762.034 236.818 761.461 235.815 761.031 234.956C760.458 234.096 759.886 233.237 759.313 232.521C759.313 237.821 759.313 243.121 759.313 248.421C759.313 249.281 759.313 250.284 759.313 251.143C759.313 253.435 759.313 255.727 759.313 258.163C759.313 263.749 759.313 269.479 759.313 275.066C759.313 277.072 759.313 279.077 759.313 281.226C759.313 290.824 759.313 300.278 759.313 309.876C759.313 313.314 759.313 316.609 759.313 320.047C759.313 321.479 759.313 322.912 759.313 324.344C759.313 334.802 759.313 345.116 759.313 355.573C759.313 362.736 759.313 369.898 759.313 377.204C759.313 385.083 755.733 396.686 746.138 396.972C745.565 396.972 744.993 396.972 744.42 396.972C741.413 396.972 738.548 396.972 735.541 396.972C717.211 396.972 699.025 396.972 680.695 396.972C665.802 396.972 650.765 396.972 635.872 396.972C643.176 389.667 650.765 382.647 659.357 376.917C660.503 376.201 660.36 374.912 659.357 374.196C652.197 368.895 644.178 365.601 635.586 363.452C628.283 361.59 620.836 360.3 613.676 358.438C626.564 347.264 641.887 340.245 657.066 332.653C658.212 332.08 657.925 330.504 657.066 329.931C645.467 321.05 631.576 317.182 617.542 314.03C630.001 303.716 642.889 291.826 659.071 288.532C660.503 288.245 660.503 286.383 659.501 285.523C652.484 280.366 644.321 278.504 635.872 277.072C627.71 275.639 619.69 273.777 612.96 268.763C625.848 256.014 640.884 245.843 652.77 232.234C653.343 231.518 653.343 230.658 652.77 229.942C649.047 225.645 643.892 223.639 638.593 222.207C633.581 220.774 628.999 219.198 625.705 215.044C636.302 207.738 643.319 196.135 650.622 185.821C651.195 185.105 650.765 184.102 650.049 183.672C640.312 177.656 630.144 172.499 620.836 165.766C635.299 160.036 646.183 148.146 659.357 140.41C660.073 139.981 660.503 138.978 659.93 138.262C654.202 130.24 646.326 125.226 637.591 121.072C629.858 117.49 622.125 114.196 615.824 108.322C627.996 104.025 640.741 101.733 652.341 95.8595C653.057 95.4298 653.343 94.427 652.913 93.7108C648.76 87.1212 644.321 80.8182 640.168 74.3719C651.481 74.3719 662.938 74.3719 674.251 74.3719C693.726 74.3719 713.202 74.3719 732.677 74.3719C736.544 74.3719 740.41 74.3719 744.277 74.3719C744.849 74.3719 745.422 74.3719 745.995 74.3719C755.59 74.5152 759.17 86.2617 759.17 94.1405C759.17 96.5758 759.17 99.1543 759.17 101.59C759.17 112.047 759.17 122.361 759.17 132.818C759.17 133.821 759.17 134.824 759.17 135.826C759.17 136.113 759.17 136.543 759.17 136.829C759.17 147.716 759.17 158.46 759.17 169.347C760.315 169.634 761.318 170.063 762.463 170.35C762.463 162.471 762.463 154.449 762.463 146.57C762.463 142.989 762.463 139.264 762.463 135.683C762.463 134.68 762.463 133.678 762.463 132.675C762.463 123.937 762.463 115.198 762.463 106.46C762.463 98.438 763.323 89.4132 760.172 81.9642C757.594 76.2342 752.726 71.2204 745.995 71.0771C733.68 71.0771 721.364 71.0771 708.906 71.0771C689.43 71.0771 669.954 71.0771 650.479 71.0771C646.04 71.0771 641.6 71.0771 637.161 71.0771C636.302 71.0771 635.586 71.7934 635.586 72.6529C635.586 72.9394 635.586 73.2259 635.872 73.5124C640.168 80.3884 644.894 86.978 649.19 93.854C637.448 99.4408 624.416 101.59 612.387 106.174C611.241 106.603 610.812 107.893 611.671 108.895C618.115 115.628 626.278 119.496 634.727 123.22C643.032 126.945 650.622 131.386 656.207 138.548C643.032 146.714 632.006 158.747 617.113 163.76C616.11 164.047 615.394 165.623 616.397 166.482C625.991 173.931 636.588 179.375 646.899 185.534C639.882 195.562 633.151 206.592 622.554 213.325C621.838 213.755 621.552 214.758 621.982 215.474C625.132 220.488 630.001 223.066 635.586 224.785C640.598 226.218 645.61 227.507 649.333 231.231C637.161 244.697 621.982 255.011 609.38 267.904C608.807 268.477 608.664 269.623 609.38 270.196C614.392 274.493 620.12 276.928 626.135 278.504C628.426 279.077 630.86 279.65 633.295 280.08C635.013 280.366 636.875 280.653 638.593 281.083C644.178 282.229 649.62 283.661 654.632 286.526C638.45 290.537 625.562 303 612.817 313.314Z" fill="black"/>
<path d="M810.866 187.683C810.15 187.253 809.434 186.824 808.718 186.394C805.71 184.675 802.56 183.242 799.409 181.81C792.249 178.658 784.66 176.796 777.07 174.504C772.201 172.928 767.332 171.353 762.32 169.777C761.318 169.49 760.172 169.061 759.026 168.774C757.022 168.201 755.16 167.628 753.155 167.055C745.852 164.906 738.405 163.044 730.672 162.041C722.653 160.895 714.634 160.752 706.614 161.612C700.743 162.185 694.012 162.614 689.716 167.198C683.129 174.361 684.704 186.107 689.43 193.843C692.008 198.284 695.874 201.579 700.457 203.584C705.325 205.59 710.194 207.452 715.063 209.314C726.806 213.755 738.978 218.339 749.718 225.072C750.864 225.788 752.009 226.504 753.155 227.364C755.303 228.939 757.308 230.658 759.026 232.807C759.599 233.523 760.315 234.383 760.745 235.242C761.318 236.102 761.747 236.961 762.177 237.964C765.47 244.411 767.189 251.716 769.48 258.592C771.915 265.755 775.351 272.201 780.507 277.931C785.376 283.375 791.39 287.672 797.977 290.537C801.271 291.97 804.565 292.973 808.002 293.689C809.434 293.975 810.15 292.543 809.72 291.54C809.577 291.253 809.29 290.967 808.718 290.824C794.684 287.959 782.368 278.647 775.781 265.898C772.058 258.736 770.339 250.857 767.619 243.408C765.614 237.821 763.036 232.234 758.597 228.08C750.291 220.344 738.978 215.617 728.667 211.32C723.083 209.028 717.354 206.879 711.77 204.73C707.33 203.011 702.461 201.722 698.452 199.143C690.719 194.273 686.566 183.242 689 174.504C690.146 170.35 693.153 167.198 697.449 166.052C705.039 164.047 713.488 163.904 721.221 164.19C736.544 164.906 751.293 169.49 765.9 174.218C780.22 178.802 794.827 182.24 808.002 189.546C820.603 196.565 831.916 206.019 841.654 216.62C851.249 227.077 859.554 239.11 864.567 252.433C865.712 255.298 866.571 258.306 867.287 261.314C867.287 261.457 867.431 261.457 867.431 261.601V261.744C867.431 261.887 867.574 261.887 867.574 262.03C868.433 262.89 870.438 262.174 870.008 260.598C870.008 260.455 870.008 260.455 870.008 260.311C866.715 246.559 859.411 234.096 850.819 223.066C841.654 211.176 830.484 200.719 818.026 192.411C817.167 191.838 816.307 191.265 815.448 190.692C814.875 190.262 814.303 189.975 813.73 189.546C813.157 188.973 812.011 188.399 810.866 187.683Z" fill="black"/>
<path d="M720.648 193.7C722.653 192.554 724.228 190.692 725.231 188.543C726.52 185.821 726.806 182.956 726.806 179.948C726.806 177.512 726.949 174.791 725.947 172.499C724.658 169.634 721.651 169.204 718.787 169.061C715.207 168.774 711.626 169.204 708.19 169.92C706.328 170.35 707.044 173.215 709.049 172.785C711.483 172.212 713.918 171.926 716.495 171.926C718.357 171.926 721.794 171.639 723.083 173.215C724.228 174.647 723.942 177.226 723.942 178.945C723.942 181.38 723.942 183.816 723.083 186.108C722.51 187.827 721.364 189.546 719.932 190.692C718.071 192.124 715.636 191.981 713.488 191.694C711.197 191.408 709.049 191.265 706.758 191.265C704.61 191.121 702.605 190.835 701.029 189.259C697.306 185.391 698.595 179.375 699.597 174.791C700.027 172.928 697.163 172.069 696.733 173.931C695.588 179.231 694.442 185.391 698.022 190.119C699.597 192.267 701.745 193.557 704.323 193.986C707.044 194.416 709.908 194.13 712.629 194.559C715.207 194.846 718.071 195.132 720.648 193.7Z" fill="black"/>
<path d="M432.525 321.05V316.752C426.94 322.339 421.355 327.926 415.627 333.513C401.879 347.121 388.132 360.873 374.528 374.482C375.244 375.198 375.817 375.915 376.533 376.774C378.967 374.339 381.401 371.904 383.836 369.468C393.001 360.444 402.023 351.276 411.188 342.251C412.333 341.105 413.479 339.959 414.768 338.67C420.639 332.94 426.51 326.923 432.525 321.05Z" fill="black"/>
<path d="M295.48 293.975C303.786 283.375 312.092 272.774 320.397 262.031C319.538 262.89 317.533 262.174 317.963 260.598C317.963 260.455 317.963 260.455 318.106 260.312C310.803 269.623 303.643 278.791 296.339 288.102C295.337 289.391 294.334 290.681 293.332 291.827C294.048 292.686 294.764 293.402 295.48 293.975Z" fill="black"/>
<path d="M379.11 186.824C379.253 186.68 379.397 186.68 379.683 186.537C390.137 173.215 400.591 159.893 410.901 146.57C414.911 141.413 419.35 134.967 426.797 135.253C428.801 135.253 430.663 135.683 432.525 136.399V133.391C427.799 131.815 422.644 131.815 418.204 134.68C415.484 136.399 413.336 138.835 411.331 141.413C408.896 144.422 406.462 147.573 404.171 150.581C399.015 157.171 393.86 163.76 388.705 170.35C383.406 177.083 378.108 183.959 372.809 190.691C374.814 189.402 376.962 187.97 379.11 186.824Z" fill="black"/>
<path d="M320.827 261.744C320.684 261.744 320.684 261.887 320.827 261.744C320.684 261.887 320.827 261.744 320.827 261.744Z" fill="black"/>
<path d="M-19.8519 530.052C-18.7063 529.193 -17.5607 528.477 -16.415 527.617C6.92697 511 30.269 494.526 53.611 477.909C79.817 459.43 106.023 440.95 132.086 422.328C156.574 404.995 181.204 387.661 205.692 370.185C210.561 366.747 215.287 363.309 220.155 359.871C219.296 359.298 218.58 358.581 217.721 358.008C217.005 358.438 216.432 359.011 215.716 359.441C191.515 376.774 167.171 393.964 142.969 411.154C116.334 430.063 89.698 448.829 63.0623 467.595C37.8587 485.501 12.6551 503.264 -12.5486 521.171C-15.4126 523.176 -18.2767 525.325 -21.2839 527.331C-22.8591 528.62 -21.4271 531.198 -19.8519 530.052Z" fill="black"/>
<path d="M327.844 464.444C326.985 465.733 326.269 467.165 325.409 468.455C321.256 475.331 317.104 482.063 312.807 488.939C302.211 505.843 291.327 522.747 280.444 539.507C267.842 558.846 255.097 578.185 242.352 597.38C229.177 617.149 215.859 636.917 202.542 656.543C194.665 668.146 186.646 679.749 178.627 691.353C174.187 697.799 169.748 704.245 165.166 710.692C163.734 712.697 162.302 714.703 160.87 716.708C159.724 718.284 162.302 719.716 163.447 718.284C175.906 700.521 188.221 682.614 200.537 664.708C213.998 645.083 227.172 625.314 240.49 605.689C253.522 586.063 266.553 566.438 279.441 546.669C290.611 529.479 301.781 512.289 312.664 494.813C317.104 487.793 321.543 480.774 325.839 473.612C327.271 471.32 328.56 469.171 329.992 466.879C329.133 466.019 328.417 465.16 327.844 464.444Z" fill="black"/>
<path d="M220.156 360.014C250.801 384.08 279.585 410.725 305.934 439.518C306.507 440.091 307.079 440.664 307.509 441.237C312.951 447.253 318.392 453.413 323.691 459.573C324.98 461.149 326.412 462.725 327.701 464.444C328.417 465.303 329.133 466.019 329.705 466.879C329.992 467.309 330.421 467.738 330.708 468.168C331.281 468.884 332.283 468.598 332.856 468.168C350.613 452.124 365.22 433.215 381.545 415.738C386.27 410.725 391.139 405.854 396.151 401.27C396.724 400.697 396.724 399.981 396.438 399.551C396.438 399.408 396.295 399.264 396.151 399.121C389.564 391.672 382.977 384.223 376.389 376.774C375.673 376.058 375.101 375.342 374.385 374.482C353.62 351.562 331.997 329.215 309.8 307.727C305.075 303.143 300.206 298.559 295.337 293.975C294.621 293.259 293.905 292.686 293.189 291.97C290.182 289.105 287.174 286.24 284.167 283.518C283.594 282.945 282.592 282.945 282.019 283.518C279.585 286.383 277.007 289.391 274.429 292.256C273.57 293.259 272.854 294.118 271.995 295.121C258.677 310.163 244.786 324.774 230.466 338.956C225.311 343.97 220.155 348.983 214.857 353.854C214.141 354.57 214.427 355.716 215.143 356.146C216.003 356.719 216.719 357.435 217.578 358.152C218.58 358.725 219.439 359.298 220.156 360.014ZM270.133 301.854C274.572 296.84 279.012 291.826 283.451 286.669C313.81 314.89 342.88 344.256 370.804 374.912C378.394 383.22 385.841 391.672 393.287 400.124C376.103 416.025 361.64 434.504 345.601 451.551C341.305 456.135 336.866 460.576 332.14 464.873C305.504 432.642 276.148 402.846 244.357 375.771C235.908 368.609 227.316 361.59 218.437 354.714C236.337 337.81 253.665 320.19 270.133 301.854Z" fill="black"/>
<path d="M365.506 393.821C364.217 396.543 364.36 399.838 365.936 402.559C367.511 405.281 370.375 407 373.525 407C376.962 407 380.256 404.995 381.401 401.7C381.688 400.984 381.115 400.124 380.399 399.838C379.54 399.551 378.824 400.124 378.537 400.84L378.394 401.127C378.394 401.27 378.251 401.27 378.251 401.413L377.965 401.843L377.821 401.986C377.678 402.13 377.535 402.273 377.392 402.416L377.105 402.703C376.962 402.846 376.962 402.846 377.105 402.703L376.819 402.846C376.676 402.989 376.389 403.132 376.246 403.276C376.103 403.276 376.103 403.419 375.96 403.419L375.673 403.562C375.387 403.705 375.244 403.705 374.957 403.705C374.814 403.705 374.671 403.705 374.528 403.849H374.384C374.384 403.849 374.385 403.849 374.241 403.849C372.093 403.992 370.088 403.276 368.943 401.557C368.227 400.554 367.94 399.838 367.654 398.548V398.405C367.654 398.405 367.654 398.405 367.654 398.262C367.654 398.119 367.654 397.975 367.654 397.832C367.654 397.546 367.654 397.402 367.654 397.116C367.654 396.973 367.654 396.829 367.654 396.686C367.654 396.686 367.654 396.686 367.654 396.543C367.654 396.543 367.654 396.543 367.654 396.4C367.654 396.113 367.797 395.827 367.797 395.54C367.797 395.397 367.797 395.397 367.94 395.254L368.084 394.967C368.227 394.824 368.37 394.537 368.37 394.394L368.513 394.251L368.8 393.964L369.086 393.678L369.372 393.535C370.232 392.962 371.091 392.675 372.093 392.675C373.239 392.675 374.384 392.818 375.387 393.248C376.533 393.821 377.392 394.537 377.965 395.54C378.394 396.256 379.253 396.543 379.969 396.113C380.685 395.683 380.972 394.681 380.542 394.108C378.824 391.529 375.96 389.953 372.809 389.81C369.802 389.81 366.795 391.099 365.506 393.821Z" fill="black"/>
<path d="M436.821 374.769C436.821 369.755 436.821 364.741 436.821 359.727C436.821 351.276 436.821 342.824 436.821 334.372C436.821 323.485 436.821 312.455 436.821 301.568C436.821 289.105 436.821 276.499 436.821 264.036C436.821 251.43 436.821 238.824 436.821 226.074C435.389 227.077 433.957 228.223 432.525 229.369V316.895V321.193V339.816V343.54V377.92C432.525 389.38 439.112 398.548 447.275 398.692C445.986 398.119 444.84 397.259 443.695 396.113C437.823 390.383 436.821 382.361 436.821 374.769Z" fill="#AE3925"/>
<path d="M439.971 277.645C439.971 289.105 439.971 300.708 439.971 312.168C439.971 321.909 439.971 331.794 439.971 341.535C439.971 348.84 439.971 356.289 439.971 363.595C439.971 367.749 439.971 371.76 439.971 375.915C439.971 376.488 439.971 377.061 439.971 377.777C439.971 385.083 443.265 395.254 451.571 396.829C453.289 397.116 455.294 396.973 457.012 396.973C460.736 396.973 464.316 396.973 468.039 396.973C479.495 396.973 490.808 396.973 502.264 396.973C513.864 396.973 525.32 396.973 536.919 396.973C540.786 396.973 544.509 396.973 548.376 396.973C556.252 388.807 564.414 381.358 573.293 375.485C567.422 371.044 561.264 368.322 555.106 366.317C554.963 366.317 554.963 366.317 554.82 366.174C546.8 364.168 538.495 362.879 530.619 360.444C530.475 360.444 530.332 360.3 530.189 360.3C528.471 359.871 526.752 359.441 525.177 358.868C539.211 345.689 554.533 339.099 571.002 330.934C570.429 330.504 569.713 329.931 569.14 329.502C567.708 328.499 566.276 327.496 564.844 326.636C559.689 323.485 554.247 321.336 548.805 319.474C544.08 318.185 539.211 317.039 534.342 316.036C534.055 316.036 533.769 315.749 533.483 315.463C531.907 315.176 530.332 314.747 528.757 314.46C542.648 303.143 556.538 290.251 572.577 286.67C572.863 286.526 573.006 286.526 573.293 286.383C570.286 284.234 567.278 282.659 564.271 281.513C560.977 280.653 557.541 280.08 553.961 279.364C550.524 278.791 547.087 277.931 543.793 276.929C537.492 275.496 531.191 273.49 525.177 268.333C538.065 255.154 553.388 245.27 566.276 230.515C558.113 220.631 545.082 225.645 538.065 214.041C548.662 207.452 555.679 195.992 563.842 184.389C553.245 177.799 542.648 172.928 532.194 164.62C547.516 159.749 559.259 146.57 573.293 138.262C560.405 120.212 541.645 121.788 527.468 107.033C532.767 105.028 538.065 103.595 543.364 102.019C545.512 101.446 547.66 100.73 549.808 100.157C555.249 98.5814 560.691 96.5759 566.133 93.8541C561.837 86.9781 557.111 80.3885 552.815 73.6558C544.366 73.6558 535.917 73.6558 527.468 73.6558C515.153 73.6558 502.837 73.6558 490.522 73.6558C480.641 73.6558 470.617 73.6558 460.736 73.6558C458.445 73.6558 456.01 73.6558 453.719 73.6558C448.277 73.6558 444.411 77.3803 442.119 82.1076C439.828 86.8348 439.828 91.8486 439.828 97.0056C439.828 102.019 439.828 107.176 439.828 112.19C439.828 120.355 439.828 128.378 439.828 136.543C439.828 146.284 439.828 155.882 439.828 165.623C449.136 163.187 458.731 161.325 468.469 161.039C472.478 160.895 476.631 161.039 480.641 161.468C484.507 161.898 488.66 162.041 492.24 163.331C496.536 164.763 499.687 168.058 501.262 172.355C504.699 181.524 500.832 193.127 493.816 199.43C490.235 202.725 485.51 204.157 480.927 206.019C475.342 208.168 469.757 210.174 464.173 212.466C458.015 214.901 452 217.479 446.129 220.488C443.981 221.634 441.69 222.78 439.542 224.069C439.542 229.513 439.542 235.099 439.542 240.543C439.971 252.862 439.971 265.182 439.971 277.645Z" fill="#AE3925"/>
<path d="M432.525 136.399V167.915C433.957 167.485 435.389 167.055 436.821 166.625C436.821 161.182 436.821 155.595 436.821 150.152C436.821 140.41 436.821 130.813 436.821 121.072C436.821 114.482 436.821 107.749 436.821 101.16C436.821 98.438 436.821 95.7163 436.821 92.9945C436.821 85.5455 439.542 77.3802 445.843 72.9394C446.272 72.6529 446.702 72.3664 446.988 72.2231C438.969 72.3664 432.525 81.6777 432.525 92.9945V133.248V136.399Z" fill="#AE3925"/>
<path d="M436.821 93.1378C436.821 95.8595 436.821 98.5813 436.821 101.303C436.821 107.893 436.821 114.625 436.821 121.215C436.821 130.956 436.821 140.554 436.821 150.295C436.821 155.738 436.821 161.325 436.821 166.769C437.823 166.482 438.969 166.196 440.114 165.909C440.114 156.168 440.114 146.57 440.114 136.829C440.114 128.664 440.114 120.642 440.114 112.477C440.114 107.463 440.114 102.306 440.114 97.292C440.114 92.135 440.114 87.2645 442.406 82.394C444.697 77.6667 448.563 73.9422 454.005 73.9422C456.296 73.9422 458.731 73.9422 461.022 73.9422C470.903 73.9422 480.927 73.9422 490.808 73.9422C503.124 73.9422 515.439 73.9422 527.754 73.9422C536.203 73.9422 544.652 73.9422 553.101 73.9422C553.388 73.9422 553.674 73.9422 554.104 73.9422C555.106 73.9422 556.108 73.9422 557.111 73.9422C561.264 80.5317 565.703 86.8347 569.999 93.4243C563.555 96.4325 556.825 98.438 550.094 100.444C547.946 101.017 545.798 101.59 543.65 102.306C540.07 103.309 536.633 104.455 533.196 105.744C532.051 106.174 531.621 107.463 532.48 108.466C538.924 115.198 547.087 119.066 555.536 122.791C563.841 126.515 571.431 130.956 577.016 138.118C563.841 146.284 552.815 158.317 537.922 163.331C536.919 163.617 536.203 165.193 537.206 166.052C546.8 173.501 557.397 178.945 567.708 185.105C560.691 195.132 553.96 206.163 543.363 212.895C542.647 213.325 542.361 214.328 542.791 215.044C545.941 220.058 550.81 222.636 556.395 224.355C561.407 225.788 566.419 227.077 570.142 230.802C557.97 244.267 542.791 254.581 530.189 267.474C529.616 268.047 529.473 269.193 530.189 269.766C534.342 273.347 539.067 275.639 544.079 277.215C547.373 278.218 550.667 279.077 554.247 279.65C557.684 280.223 561.121 280.939 564.557 281.799C568.424 282.802 572.147 284.091 575.584 286.096C574.868 286.24 574.295 286.526 573.579 286.669C573.293 286.813 573.15 286.813 572.863 286.956C557.97 292.113 545.798 303.859 533.769 313.601C533.053 314.174 533.196 315.176 533.626 315.749C533.769 316.036 534.055 316.179 534.485 316.322C539.354 317.325 544.223 318.471 548.948 319.76C555.106 321.479 561.121 323.628 566.706 326.493C568.281 327.353 569.856 328.212 571.431 329.215C572.29 329.788 573.15 330.361 574.009 330.934C558.543 338.669 542.934 346.118 530.189 358.008C529.616 358.581 529.616 359.298 529.902 359.727C530.046 360.014 530.189 360.3 530.475 360.444C530.618 360.587 530.762 360.587 530.905 360.587C538.924 362.879 547.087 364.311 555.106 366.317C555.249 366.317 555.249 366.317 555.393 366.46C562.982 368.466 570.142 371.187 576.586 375.628C567.708 381.788 559.689 389.237 552.242 397.116C551.096 397.116 549.808 397.116 548.662 397.116C544.796 397.116 541.072 397.116 537.206 397.116C525.606 397.116 514.15 397.116 502.551 397.116C491.095 397.116 479.782 397.116 468.325 397.116C464.602 397.116 461.022 397.116 457.299 397.116C455.58 397.116 453.575 397.259 451.857 396.972C443.551 395.397 440.401 385.226 440.258 377.92C440.258 377.347 440.258 376.774 440.258 376.058C440.258 371.904 440.258 367.893 440.258 363.738C440.258 356.432 440.258 348.983 440.258 341.678C440.258 331.937 440.258 322.052 440.258 312.311C440.258 300.851 440.258 289.248 440.258 277.788C440.258 265.468 440.258 253.149 440.258 240.829C440.258 235.386 440.258 229.799 440.258 224.355C439.112 225.072 438.11 225.645 436.964 226.361C436.964 238.967 436.964 251.573 436.964 264.322C436.964 276.785 436.964 289.391 436.964 301.854C436.964 312.741 436.964 323.771 436.964 334.658C436.964 343.11 436.964 351.562 436.964 360.014C436.964 365.028 436.964 370.041 436.964 375.055C436.964 382.647 438.11 390.669 443.838 396.256C444.983 397.259 446.129 398.118 447.418 398.835C449.709 399.981 452.143 400.41 454.864 400.41C458.015 400.41 461.165 400.41 464.172 400.41C475.772 400.41 487.371 400.41 498.971 400.41C511.286 400.41 523.602 400.41 535.917 400.41C540.07 400.41 544.08 400.41 548.232 400.41C549.664 400.41 552.242 400.84 553.531 400.124C554.676 399.551 555.822 397.975 556.681 396.972C557.684 395.97 558.686 394.967 559.689 393.964C561.837 391.815 563.985 389.81 566.133 387.804C570.572 383.937 575.154 380.212 580.023 377.061C581.169 376.344 581.026 375.055 580.023 374.339C572.863 369.039 564.844 365.744 556.252 363.595C548.948 361.733 541.502 360.444 534.342 358.581C547.23 347.408 562.553 340.388 577.732 332.796C578.878 332.223 578.591 330.647 577.732 330.074C577.016 329.501 576.157 328.928 575.441 328.499C574.009 327.496 572.577 326.636 571.145 325.777C560.977 319.904 549.664 316.752 538.208 314.174C550.667 303.86 563.555 291.97 579.737 288.675C581.169 288.388 581.169 286.526 580.167 285.667C573.15 280.51 564.987 278.647 556.538 277.215C548.376 275.782 540.356 273.92 533.626 268.906C546.514 256.157 561.55 245.986 573.436 232.377C574.009 231.661 574.009 230.802 573.436 230.085C569.713 225.788 564.557 223.782 559.259 222.35C554.247 220.917 549.664 219.342 546.371 215.187C556.968 207.882 563.985 196.278 571.288 185.964C571.861 185.248 571.431 184.245 570.715 183.815C560.977 177.799 550.81 172.642 541.502 165.909C555.965 160.179 566.849 148.289 580.023 140.554C580.739 140.124 581.169 139.121 580.596 138.405C574.868 130.383 566.992 125.369 558.257 121.215C550.524 117.634 542.791 114.339 536.49 108.466C548.662 104.168 561.407 101.876 573.006 96.0028C573.722 95.573 574.009 94.5703 573.579 93.854C570.142 88.4105 566.562 83.1102 562.982 77.8099C562.123 76.5207 561.407 75.3747 560.548 74.0854C559.832 72.9394 559.259 71.5069 557.827 71.2204H557.541C555.393 71.0772 553.101 71.2204 550.953 71.2204C540.499 71.2204 529.902 71.2204 519.449 71.2204C506.56 71.2204 493.672 71.2204 480.784 71.2204C472.335 71.2204 463.886 71.2204 455.294 71.2204C452.43 71.2204 449.709 71.5069 447.131 72.7962C446.702 73.0827 446.272 73.2259 445.986 73.5124C439.398 77.3802 436.821 85.6887 436.821 93.1378Z" fill="black"/>
<path d="M320.54 262.174C320.684 262.03 320.684 262.03 320.684 261.887V261.744C320.684 261.601 320.827 261.601 320.827 261.457C324.12 247.992 331.137 235.672 339.586 224.785C348.608 213.325 359.348 203.154 371.377 194.989C377.105 191.121 383.12 187.683 389.421 184.962C396.294 181.953 403.598 180.234 410.615 177.942C425.508 173.358 440.258 167.771 455.724 165.336C463.313 164.19 471.046 163.76 478.779 164.477C482.646 164.763 486.798 165.05 490.665 166.196C492.813 166.769 494.675 167.771 496.107 169.49C502.408 176.223 499.543 188.113 494.531 194.703C491.524 198.714 487.514 200.576 483.075 202.295C477.92 204.3 472.765 206.163 467.609 208.168C456.44 212.466 444.983 216.906 434.959 223.639C431.093 226.218 427.369 229.226 424.935 233.237C420.782 239.97 418.777 247.705 416.343 255.154C413.908 262.46 410.901 269.336 405.746 275.209C401.02 280.51 395.292 284.807 388.848 287.815C385.697 289.248 382.404 290.251 379.11 290.967C378.537 291.11 378.251 291.397 378.108 291.683C377.678 292.686 378.537 294.119 379.826 293.832C394.003 290.824 406.748 281.656 413.908 269.05C417.918 262.03 419.78 254.008 422.357 246.416C424.505 240.256 426.94 234.24 431.809 229.942C431.952 229.799 432.095 229.656 432.238 229.512C433.527 228.366 434.959 227.22 436.534 226.218C437.537 225.501 438.682 224.785 439.828 224.212C441.976 222.923 444.124 221.777 446.415 220.631C452.287 217.623 458.301 215.044 464.459 212.609C470.044 210.46 475.629 208.311 481.214 206.163C485.653 204.444 490.379 202.868 494.102 199.573C501.262 193.27 504.985 181.523 501.548 172.499C499.973 168.201 496.823 164.906 492.527 163.474C488.803 162.185 484.65 161.898 480.927 161.612C476.917 161.182 472.765 161.039 468.755 161.182C459.017 161.468 449.423 163.331 440.114 165.766C438.969 166.052 437.966 166.339 436.821 166.625C435.389 167.055 433.957 167.485 432.525 167.915C429.374 168.917 426.224 169.92 423.073 170.923C414.768 173.501 406.462 176.08 398.299 178.658C391.855 180.664 385.698 183.386 379.826 186.537C379.683 186.681 379.54 186.681 379.253 186.824C376.962 188.113 374.814 189.402 372.666 190.692C362.212 197.424 352.618 205.59 344.312 214.758C334.574 225.501 326.268 237.678 320.97 251.287C319.824 254.295 318.822 257.303 318.106 260.455C318.106 260.598 318.106 260.598 317.963 260.741C317.676 262.174 319.538 263.033 320.54 262.174Z" fill="black"/>
<path d="M473.624 194.703C475.199 194.559 476.631 194.273 478.206 194.273C479.638 194.13 481.07 194.273 482.646 194.13C485.223 193.986 487.515 193.27 489.376 191.551C494.388 186.967 493.243 179.661 491.954 173.788C491.524 171.926 488.66 172.642 489.09 174.647C490.092 179.088 491.095 183.959 488.517 187.97C485.939 191.981 481.07 190.835 476.918 191.408C474.626 191.694 472.192 192.267 470.044 191.408C468.182 190.692 466.893 189.116 466.034 187.397C465.032 185.391 464.745 182.956 464.602 180.807C464.602 178.802 464.316 176.366 464.889 174.504C465.605 171.926 468.469 172.069 470.617 172.069C473.624 171.926 476.488 172.212 479.352 172.928C481.214 173.358 482.073 170.493 480.211 170.063C477.061 169.347 473.91 168.917 470.617 169.061C468.182 169.204 465.175 169.204 463.313 171.066C461.595 172.928 461.595 175.65 461.452 177.942C461.308 180.807 461.452 183.959 462.311 186.68C464.029 191.694 468.182 195.132 473.624 194.703Z" fill="black"/>
</g>
</g>
<defs>
<clipPath id="clip0">
<rect width="1200" height="549" fill="white"/>
</clipPath>
<clipPath id="clip1">
<rect width="1244" height="676" fill="white" transform="translate(-22 43)"/>
</clipPath>
</defs>
</svg>
