<svg width="1200" height="549" viewBox="0 0 1200 549" fill="none" xmlns="http://www.w3.org/2000/svg">
<g clip-path="url(#clip0)">
<g clip-path="url(#clip1)">
<path d="M451.298 150.973C461.395 122.82 485.55 101.064 514.051 92.7462C543.318 84.172 575.909 91.3385 599.553 110.534C599.553 110.534 599.553 110.534 599.681 110.534C592.012 116.805 584.983 123.843 579.104 131.65C569.774 144.063 563.895 159.548 567.857 175.032C571.308 188.725 582.299 200.627 597.124 200.499C611.439 200.371 624.347 189.621 629.715 176.696C636.105 161.083 630.993 142.783 622.43 129.09C618.084 122.18 612.844 116.037 606.838 110.534C617.573 102.088 629.331 94.7937 641.728 88.907C669.846 75.5979 701.414 69.1993 732.726 70.735C740.266 71.1189 747.807 72.0147 755.22 73.2944C758.031 73.8063 759.309 69.4552 756.37 68.9434C724.035 63.0566 690.294 66 659.366 76.7496C644.029 82.1245 629.331 89.2909 615.912 98.3769C611.566 101.192 607.349 104.264 603.259 107.463C585.878 93.1301 563.256 84.8119 540.762 84.428C509.45 83.9161 478.904 99.6566 460.245 124.739C442.48 148.414 437.623 179.127 443.247 207.793C444.908 208.433 446.57 209.073 448.231 209.713C443.886 190.389 444.525 169.785 451.298 150.973ZM626.264 149.182C628.181 156.732 628.564 164.794 626.392 172.217C624.475 178.743 620.257 184.63 615.017 188.981C610.161 193.076 603.898 195.764 597.38 196.02C590.99 196.148 584.855 193.588 580.382 189.109C570.541 179.383 568.879 164.027 573.225 151.357C578.337 136.257 590.351 124.227 602.364 114.117C602.62 113.862 602.876 113.734 603.131 113.478C613.867 123.203 622.558 135.233 626.264 149.182Z" fill="#AE3925"/>
<path d="M200.928 222.638C206.295 222.126 211.663 221.614 217.031 221.102C217.031 220.334 217.031 219.694 217.031 218.927C216.648 218.927 216.136 219.054 215.753 219.054C208.851 219.694 202.078 220.462 195.176 221.102C196.071 221.358 196.966 221.486 197.86 221.742C199.01 221.998 199.905 222.254 200.928 222.638Z" fill="black"/>
<path d="M103.668 232.108C113.381 231.212 122.966 230.188 132.679 229.292C131.657 229.292 131.018 227.885 132.04 227.245C132.168 227.245 132.168 227.117 132.296 227.117C123.989 227.885 115.681 228.78 107.374 229.548C106.096 229.676 104.946 229.804 103.668 229.932C103.668 230.7 103.668 231.468 103.668 232.108Z" fill="black"/>
<path d="M186.741 315.29C158.113 314.522 129.484 313.882 100.856 313.114C100.856 313.882 100.728 314.522 100.728 315.29C123.605 315.929 146.482 316.441 169.232 317.081C174.983 317.209 180.734 317.337 186.485 317.465C186.613 316.697 186.613 315.929 186.741 315.29Z" fill="black"/>
<path d="M217.031 335.893C216.775 336.149 216.52 336.405 216.264 336.533C213.197 339.092 210.129 341.78 207.062 344.339C203.356 347.41 203.484 341.524 203.867 339.22C204.634 333.461 206.167 327.831 208.468 322.456C207.573 322.712 206.807 322.84 205.912 323.096C204.123 327.703 202.717 332.438 202.078 337.173C201.694 339.988 200.8 343.827 202.972 346.131C205.656 349.074 209.107 345.363 211.152 343.571C213.197 341.908 215.242 340.116 217.287 338.452C217.031 337.812 217.031 336.789 217.031 335.893Z" fill="black"/>
<path d="M208.34 322.584C211.28 321.816 214.219 321.176 217.031 320.409C217.031 319.641 217.031 318.873 217.031 318.233C208.34 320.409 199.522 322.584 190.831 324.76C187.252 319.897 188.53 313.114 191.598 308.379C192.109 307.611 192.748 306.844 193.259 306.076C192.364 306.204 191.47 306.204 190.575 306.332C190.575 306.332 190.575 306.332 190.447 306.332C188.53 309.019 187.252 312.09 186.741 315.418C186.613 316.185 186.613 316.825 186.485 317.593C186.358 320.92 187.252 324.12 189.553 326.935C189.808 327.191 190.192 327.319 190.575 327.191C195.56 325.911 200.544 324.76 205.656 323.48C206.679 322.968 207.573 322.84 208.34 322.584Z" fill="black"/>
<path d="M194.665 303.772C190.575 304.156 185.335 305.18 181.501 303.132C177.795 301.084 177.539 296.733 178.945 293.15C182.14 285.088 191.853 282.145 199.01 278.817C202.845 277.154 206.679 274.978 209.874 272.163C208.979 271.907 208.085 271.779 207.318 271.651C203.739 274.466 199.266 276.514 195.432 278.177C187.891 281.377 178.817 285.216 176.517 294.046C175.622 297.373 176.005 301.34 178.689 303.772C181.884 306.715 186.486 306.587 190.447 306.331C190.447 306.331 190.447 306.331 190.575 306.331C191.47 306.203 192.365 306.203 193.259 306.075C201.311 305.435 209.363 304.668 217.031 302.364C217.031 301.596 217.031 300.828 217.031 300.061C209.746 302.108 201.95 303.132 194.665 303.772Z" fill="black"/>
<path d="M-53.1498 205.745C-32.1897 209.841 -11.3574 213.936 9.6027 218.031C17.0154 219.438 24.4281 220.846 31.8409 222.254C31.8409 221.87 31.713 221.358 31.713 220.974C31.713 220.59 31.8408 220.334 32.0965 220.078C28.3901 219.31 24.6837 218.671 20.8496 217.903C0.0172935 213.936 -20.815 209.841 -41.6473 205.745C-64.2688 201.266 -86.8904 196.915 -109.512 192.436C-130.855 188.213 -152.327 183.99 -173.926 179.895C-176.354 179.383 -178.782 178.999 -181.211 178.487C-182.617 178.231 -183.128 180.279 -181.722 180.535C-180.7 180.663 -179.805 180.919 -178.782 181.047C-158.973 184.886 -139.163 188.725 -119.481 192.564C-97.3704 197.043 -75.2601 201.394 -53.1498 205.745Z" fill="black"/>
<path d="M31.3297 333.206C30.6906 333.334 30.0516 333.462 29.2848 333.717C23.6614 334.997 18.0379 336.149 12.5423 337.301C-1.51633 340.244 -15.5749 342.931 -29.7613 345.619C-46.1204 348.69 -62.4795 351.634 -78.8386 354.577C-95.8367 357.52 -112.835 360.464 -129.833 363.279C-139.93 364.943 -150.154 366.606 -160.251 368.142C-165.746 369.038 -171.37 369.934 -176.865 370.701C-178.655 370.957 -180.444 371.213 -182.105 371.469C-183.511 371.725 -182.872 373.773 -181.594 373.517C-166.13 371.213 -150.665 368.782 -135.201 366.222C-118.075 363.407 -100.949 360.464 -83.9508 357.52C-67.2083 354.577 -50.5936 351.634 -33.8511 348.434C-19.4091 345.747 -4.83927 342.931 9.60274 339.988C15.4818 338.836 21.3608 337.557 27.2399 336.277C28.518 336.021 29.9238 335.765 31.2019 335.381C31.0741 334.741 31.2019 333.973 31.3297 333.206Z" fill="black"/>
<path d="M100.856 312.986C102.389 290.847 103.412 268.58 103.54 246.44C103.54 241.705 103.54 236.843 103.54 232.108C103.54 231.34 103.54 230.7 103.54 229.932C103.54 226.989 103.54 224.045 103.412 220.974C103.412 220.462 102.901 219.822 102.389 219.95C79.1289 221.23 55.9961 221.23 32.7355 219.822C32.4799 219.822 32.2243 219.95 32.0965 220.078C31.8409 220.334 31.5852 220.59 31.713 220.974C31.713 221.358 31.8409 221.87 31.8409 222.254C34.7804 251.175 35.2916 280.225 33.3745 309.147C33.3745 309.915 33.2467 310.554 33.2467 311.322C32.8633 317.209 32.3521 322.968 31.713 328.726C31.5852 330.262 31.3296 331.67 31.2018 333.205C31.074 333.973 31.074 334.741 30.9462 335.509C30.9462 335.893 30.8184 336.277 30.8184 336.661C30.6906 337.301 31.3296 337.685 31.8409 337.685C53.8234 339.348 75.8059 335.893 97.7884 337.429C98.4275 337.429 98.6831 337.045 98.8109 336.533C98.8109 336.405 98.8109 336.405 98.9387 336.277C99.5777 329.238 100.217 322.072 100.728 314.905C100.728 314.522 100.856 313.754 100.856 312.986ZM96.8938 335.381C75.6781 333.973 54.3346 337.045 33.1189 335.765C36.5697 306.203 37.5921 276.258 35.9306 246.44C35.4194 238.378 34.7804 230.188 34.0135 222.126C56.5073 223.405 79.001 223.405 101.367 222.254C101.75 251.943 100.856 281.633 98.8109 311.194C98.2997 319.257 97.6606 327.319 96.8938 335.381Z" fill="black"/>
<path d="M86.286 317.977C84.2411 318.745 82.5797 320.664 82.0684 322.84C81.5572 325.015 82.1963 327.319 83.8577 328.855C85.647 330.518 88.0753 331.158 90.3758 330.134C90.887 329.878 91.0148 329.111 90.7592 328.727C90.3758 328.215 89.8646 328.087 89.3533 328.343C88.8421 328.599 88.0753 328.599 87.5641 328.471C86.925 328.343 86.286 328.087 85.7748 327.575C84.6246 326.679 83.9855 325.271 84.2411 323.864C84.3689 322.456 85.3914 321.048 86.6694 320.281C87.9475 319.641 89.2255 319.897 90.248 320.792C91.526 321.944 92.1651 323.736 91.7816 325.399C91.3982 326.807 93.5709 327.319 93.8265 325.911C94.3377 323.736 93.6987 321.432 92.1651 319.641C90.6314 317.977 88.3309 317.209 86.286 317.977Z" fill="black"/>
<path d="M1067.32 254.247C1075.37 255.015 1083.42 255.782 1091.35 256.55C1093.01 256.678 1094.67 256.806 1096.2 257.062C1096.2 256.294 1096.2 255.655 1096.2 254.887C1086.62 253.991 1077.16 252.967 1067.58 252.071C1067.7 252.071 1067.7 252.199 1067.83 252.199C1068.98 252.839 1068.34 254.247 1067.32 254.247Z" fill="black"/>
<path d="M966.099 244.265C967.377 244.393 968.655 244.521 969.933 244.649C975.812 245.161 981.563 245.801 987.442 246.312C991.404 246.696 995.238 247.08 999.2 247.464C1001.12 246.824 1003.03 246.312 1004.95 245.929C1001.12 245.545 997.155 245.161 993.321 244.777C987.314 244.137 981.307 243.625 975.173 242.985C972.233 242.729 969.294 242.345 966.354 241.961C966.354 242.089 966.354 242.089 966.354 242.217C966.099 242.857 966.099 243.625 966.099 244.265Z" fill="black"/>
<path d="M1099.14 337.94C1076.39 338.58 1053.52 339.092 1030.77 339.732C1024.89 339.86 1019.14 339.988 1013.26 340.116C1013.39 340.884 1013.39 341.524 1013.39 342.292C1042.02 341.524 1070.64 340.884 1099.27 340.116C1099.14 339.348 1099.14 338.708 1099.14 337.94Z" fill="black"/>
<path d="M991.532 347.538C993.449 351.889 994.855 356.496 995.622 361.231C996.005 363.151 997.411 368.398 995.366 370.061C994.088 371.085 991.788 368.526 990.893 367.758C989.231 366.35 987.698 365.071 986.036 363.663C979.39 358.032 972.617 352.401 965.971 346.771C965.971 347.666 965.971 348.69 965.971 349.586C972.745 355.217 979.518 360.975 986.292 366.606C988.081 368.142 989.87 369.678 991.788 371.213C992.938 372.109 994.471 372.877 996.005 372.237C998.817 371.085 998.689 367.246 998.433 364.815C997.794 359.056 996.261 353.553 994.216 348.178C993.321 347.922 992.427 347.666 991.532 347.538Z" fill="black"/>
<path d="M1013.26 340.116C1012.88 337.685 1011.98 335.253 1010.83 333.078C1010.45 332.438 1010.06 331.798 1009.55 331.158C1008.53 331.03 1007.64 331.03 1006.74 330.902C1006.87 331.03 1006.87 331.158 1007 331.286C1010.96 336.277 1013.39 344.083 1009.17 349.714C995.238 346.259 981.18 342.804 967.249 339.348C967.249 339.348 967.249 339.348 967.121 339.348C966.61 339.22 966.226 339.476 966.099 339.732C966.099 340.116 966.099 340.628 966.099 341.012C966.226 341.14 966.354 341.268 966.61 341.396C974.917 343.443 983.225 345.491 991.532 347.666C992.427 347.922 993.193 348.05 994.088 348.306C999.072 349.586 1004.18 350.866 1009.17 352.018C1009.55 352.145 1009.94 352.018 1010.19 351.762C1012.49 349.074 1013.39 345.747 1013.26 342.42C1013.39 341.524 1013.39 340.884 1013.26 340.116Z" fill="black"/>
<path d="M968.016 334.485C969.294 334.869 969.805 332.822 968.527 332.438C967.505 332.054 966.738 331.542 966.099 330.902C966.099 331.414 966.099 331.926 966.099 332.438C966.099 332.822 966.099 333.206 966.099 333.59C966.61 333.845 967.249 334.101 968.016 334.485C968.016 334.357 968.016 334.357 968.016 334.485Z" fill="black"/>
<path d="M1018.63 330.262C1022.08 328.726 1024.12 325.399 1023.87 321.688C1023.48 312.73 1015.18 307.739 1007.89 304.54C1003.03 302.364 997.028 300.061 992.554 296.605C991.66 296.733 990.893 296.989 989.998 297.117C992.299 299.293 995.111 300.957 997.794 302.364C1001.63 304.284 1005.72 305.819 1009.68 307.739C1013.39 309.531 1017.35 311.834 1019.65 315.417C1021.57 318.361 1022.84 322.584 1020.93 325.783C1018.5 329.75 1013.13 329.366 1009.17 328.982C999.328 328.215 989.359 327.447 979.902 324.119C974.917 322.328 970.061 319.64 966.099 316.185C966.099 317.209 966.099 318.105 966.099 319.129C976.834 327.447 991.915 329.878 1005.33 330.902C1005.85 330.902 1006.23 331.03 1006.74 331.03C1007.64 331.158 1008.66 331.158 1009.55 331.286C1012.62 331.414 1015.82 331.414 1018.63 330.262Z" fill="black"/>
<path d="M1168.29 245.929C1168.29 246.313 1168.16 246.825 1168.16 247.208C1173.27 246.185 1178.26 245.289 1183.37 244.265C1203.94 240.298 1224.52 236.203 1245.1 232.236C1267.21 227.885 1289.32 223.534 1311.43 219.183C1332.39 215.087 1353.48 210.992 1374.44 206.897C1375.84 206.641 1377.38 206.385 1378.78 206.001C1379.8 205.873 1380.7 205.618 1381.72 205.49C1383.13 205.234 1382.49 203.186 1381.21 203.442C1359.99 207.537 1338.78 211.632 1317.56 215.855C1294.94 220.334 1272.32 224.813 1249.7 229.164C1228.48 233.259 1207.27 237.483 1186.18 241.578C1180.04 242.729 1173.91 243.881 1167.9 245.033C1168.03 245.289 1168.29 245.545 1168.29 245.929Z" fill="black"/>
<path d="M1382.23 396.424C1375.08 395.4 1367.79 394.248 1360.63 393.097C1352.45 391.817 1344.27 390.537 1336.1 389.129C1319.1 386.314 1302.23 383.499 1285.36 380.555C1268.74 377.612 1252.25 374.669 1235.77 371.597C1221.33 368.91 1206.76 366.094 1192.31 363.151C1186.44 361.999 1180.56 360.72 1174.68 359.44C1172.76 359.056 1170.84 358.672 1168.93 358.16C1169.05 358.928 1169.05 359.696 1169.18 360.336C1169.18 360.336 1169.18 360.336 1169.31 360.336C1174.8 361.615 1180.43 362.767 1185.92 363.919C1199.98 366.862 1214.17 369.55 1228.23 372.237C1244.71 375.308 1261.2 378.38 1277.69 381.195C1294.69 384.266 1311.81 387.082 1328.94 389.897C1344.79 392.457 1360.63 395.016 1376.48 397.448C1378.27 397.704 1380.06 397.959 1381.72 398.215C1383 398.599 1383.51 396.552 1382.23 396.424Z" fill="black"/>
<path d="M1168.67 358.16C1168.54 356.624 1168.29 355.217 1168.16 353.681C1167.52 347.154 1166.88 340.628 1166.5 334.101C1165.09 313.242 1164.96 292.254 1166.11 271.395C1166.63 263.333 1167.26 255.271 1168.03 247.208C1168.03 246.824 1168.16 246.313 1168.16 245.929C1168.16 245.545 1168.03 245.289 1167.78 245.033C1167.52 244.905 1167.39 244.777 1167.14 244.777C1144 246.185 1120.74 246.185 1097.48 244.905C1096.84 244.905 1096.46 245.417 1096.46 245.929C1096.46 248.872 1096.46 251.815 1096.33 254.887C1096.33 255.654 1096.33 256.294 1096.33 257.062C1096.2 283.424 1097.1 309.787 1098.89 336.149C1098.89 336.789 1099.02 337.429 1099.02 337.941C1099.02 338.708 1099.14 339.348 1099.14 340.116C1099.66 347.282 1100.29 354.321 1100.93 361.487C1100.93 361.615 1100.93 361.615 1101.06 361.743C1101.06 362.255 1101.44 362.639 1102.08 362.639C1124.07 360.975 1146.05 364.431 1168.03 362.895C1168.54 362.895 1169.18 362.383 1169.05 361.871C1169.05 361.487 1168.93 361.103 1168.93 360.72C1168.93 359.696 1168.8 358.928 1168.67 358.16ZM1103.11 360.208C1100.42 330.646 1098.89 300.957 1098.5 271.267C1098.38 263.205 1098.5 255.143 1098.5 246.952C1121 248.104 1143.49 248.104 1165.86 246.824C1162.79 276.386 1162.28 306.331 1164.45 336.021C1165.09 344.211 1165.86 352.273 1166.75 360.464C1145.54 361.999 1124.32 358.8 1103.11 360.208Z" fill="black"/>
<path d="M1114.48 343.187C1112.44 342.164 1110.14 342.547 1108.47 343.955C1106.56 345.619 1105.79 348.306 1106.3 350.738C1106.68 352.145 1108.73 351.506 1108.35 350.226C1107.96 348.818 1108.47 347.282 1109.37 346.131C1110.26 344.979 1111.67 344.467 1112.95 344.851C1114.35 345.363 1115.38 346.643 1115.76 348.05C1116.14 349.458 1115.76 350.994 1114.74 352.017C1113.71 353.041 1112.05 353.681 1110.77 353.041C1110.26 352.785 1109.62 352.913 1109.37 353.425C1109.11 353.937 1109.24 354.705 1109.75 354.833C1113.97 356.624 1118.7 352.913 1118.19 348.434C1117.8 346.387 1116.53 344.211 1114.48 343.187Z" fill="black"/>
<path d="M381.389 353.297V353.041C381.389 352.657 381.389 352.145 381.389 351.761C377.299 351.761 373.209 351.761 369.119 351.761C355.828 351.761 342.536 351.761 329.244 351.761C313.141 351.761 297.037 351.761 280.934 351.761C267.003 351.761 253.2 351.761 239.269 351.761C234.668 351.761 230.067 351.761 225.594 351.761C223.932 351.761 222.143 351.633 220.354 351.633C220.354 346.643 220.354 341.652 220.354 336.661C220.354 323.352 220.354 310.043 220.354 296.733C220.354 289.695 220.354 282.657 220.354 275.618C219.331 275.234 218.181 274.722 217.159 274.338C217.159 279.969 217.159 285.472 217.159 291.103C217.159 294.046 217.159 297.117 217.159 300.061C217.159 300.829 217.159 301.596 217.159 302.364C217.159 307.611 217.159 312.986 217.159 318.233C217.159 319.001 217.159 319.768 217.159 320.408C217.159 324.503 217.159 328.599 217.159 332.694C217.159 333.717 217.159 334.869 217.159 335.893C217.159 336.789 217.159 337.813 217.159 338.708C217.159 343.443 217.031 348.178 217.159 352.913V353.169C217.159 354.065 217.926 354.833 218.82 354.833C224.316 354.833 229.939 354.833 235.435 354.833C248.727 354.833 262.018 354.833 275.31 354.833C291.414 354.833 307.517 354.833 323.621 354.833C337.551 354.833 351.354 354.833 365.285 354.833C371.164 354.833 377.043 354.961 382.922 354.833C382.795 354.833 382.667 354.705 382.667 354.705C381.9 354.577 381.389 354.065 381.389 353.297Z" fill="black"/>
<path d="M383.689 184.63C384.967 185.014 386.118 185.526 387.268 186.038C387.268 185.142 386.501 184.502 385.606 184.502C384.712 184.502 383.817 184.502 382.922 184.502C383.05 184.502 383.05 184.502 383.178 184.502L383.689 184.63Z" fill="black"/>
<path d="M217.159 220.974C217.159 223.918 217.159 226.861 217.159 229.804C218.309 230.444 219.332 231.084 220.354 231.724C220.354 223.278 220.354 214.96 220.354 206.513C220.354 201.906 220.354 197.299 220.354 192.82C220.354 191.157 220.482 189.365 220.482 187.574C225.466 187.574 230.451 187.574 235.435 187.574C248.727 187.574 262.019 187.574 275.31 187.574C291.414 187.574 307.517 187.574 323.621 187.574C337.552 187.574 351.355 187.574 365.285 187.574C369.886 187.574 374.487 187.574 378.961 187.574C379.727 187.574 380.494 187.574 381.389 187.702C381.389 187.19 381.389 186.55 381.389 186.038C381.389 185.27 382.028 184.502 382.667 184.374C378.194 184.374 373.593 184.374 369.119 184.374C355.828 184.374 342.536 184.374 329.244 184.374C313.141 184.374 297.037 184.374 280.934 184.374C267.003 184.374 253.2 184.374 239.269 184.374C232.495 184.374 225.722 184.118 219.076 184.374H218.82C217.926 184.374 217.159 185.142 217.159 186.038C217.159 191.541 217.159 197.171 217.159 202.674C217.159 208.049 217.159 213.424 217.159 218.799C217.159 219.567 217.159 220.334 217.159 220.974Z" fill="black"/>
<path d="M577.314 430.081C577.314 429.313 577.314 428.417 577.314 427.649C571.563 425.346 565.684 423.042 559.933 420.867C544.341 414.724 528.748 408.581 513.028 402.567C494.113 395.144 475.198 387.722 456.411 380.427C440.051 374.029 423.82 367.63 407.461 361.232C402.093 359.184 396.725 357.009 391.485 354.961C389.313 354.065 387.012 353.041 384.712 352.274C384.712 347.155 384.712 341.908 384.712 336.789C384.712 323.48 384.712 310.171 384.712 296.862C384.712 280.737 384.712 264.613 384.712 248.488C384.712 234.539 384.712 220.718 384.712 206.769C384.712 202.162 384.712 197.555 384.712 193.076C384.712 191.669 384.839 190.133 384.839 188.725C390.591 191.029 396.342 193.204 402.221 195.508C417.813 201.65 433.406 207.793 449.126 213.808C468.041 221.23 486.956 228.653 505.743 235.947C522.103 242.346 538.334 248.744 554.693 255.143C560.061 257.19 565.429 259.366 570.669 261.413C572.841 262.309 575.142 263.333 577.442 264.101C577.442 263.845 577.442 263.589 577.442 263.333C577.442 262.565 577.954 261.925 578.593 261.797L578.848 261.669C579.104 261.541 579.359 261.541 579.487 261.413C579.487 261.413 579.359 261.413 579.359 261.285C572.841 258.726 566.323 256.167 559.805 253.607C544.213 247.464 528.621 241.322 512.901 235.307C493.985 227.885 475.07 220.462 456.283 213.168C453.599 212.144 450.915 211.12 448.231 209.969C446.57 209.329 444.908 208.689 443.247 208.049C431.233 203.314 419.347 198.707 407.333 193.972C401.965 191.925 396.598 189.749 391.358 187.701C390.08 187.19 388.674 186.678 387.396 186.038C386.245 185.526 384.967 185.014 383.817 184.63L383.434 184.502C383.306 184.502 383.306 184.502 383.178 184.502C383.05 184.502 382.922 184.502 382.667 184.502C381.9 184.63 381.389 185.398 381.389 186.166C381.389 186.678 381.389 187.318 381.389 187.829C381.389 192.82 381.389 197.811 381.389 202.802C381.389 216.111 381.389 229.42 381.389 242.729C381.389 258.854 381.389 274.978 381.389 291.103C381.389 305.052 381.389 318.873 381.389 332.822C381.389 339.092 381.133 345.491 381.389 351.762C381.389 352.146 381.389 352.657 381.389 353.041V353.297C381.389 354.065 381.9 354.577 382.539 354.833C382.667 354.833 382.795 354.961 382.795 354.961C389.185 357.52 395.575 359.952 401.965 362.511C417.558 368.654 433.15 374.797 448.87 380.811C467.785 388.234 486.7 395.656 505.488 402.95C521.847 409.349 538.078 415.748 554.437 422.146C559.805 424.194 565.173 426.369 570.413 428.417C572.713 429.313 575.014 430.336 577.442 431.232C577.314 430.976 577.187 430.72 577.187 430.336V430.081H577.314Z" fill="black"/>
<path d="M577.187 424.706C577.187 419.715 577.315 414.724 577.315 409.861C577.315 409.733 577.315 409.605 577.315 409.477C577.315 414.468 577.187 419.587 577.187 424.706Z" fill="black"/>
<path d="M769.662 376.972V376.716C769.662 376.46 769.662 376.076 769.662 375.82C763.655 377.484 757.648 379.148 751.769 380.811C736.432 385.034 721.096 389.385 705.759 393.608C687.227 398.727 668.695 403.846 650.164 409.093C634.188 413.572 618.084 418.051 602.109 422.402C596.869 423.81 591.629 425.346 586.389 426.753C584.727 427.265 583.066 427.649 581.404 428.161C581.149 428.289 580.893 428.289 580.51 428.417C580.51 423.554 580.51 418.691 580.51 413.956C580.51 413.828 580.51 413.7 580.51 413.572C580.51 400.391 580.51 387.21 580.51 374.029C580.51 373.901 580.51 373.773 580.51 373.645C580.51 357.648 580.51 341.652 580.51 325.655C580.51 325.527 580.51 325.399 580.51 325.271C580.51 311.45 580.51 297.757 580.51 283.936C580.51 283.808 580.51 283.68 580.51 283.552C580.51 279.073 580.51 274.594 580.51 270.243C580.51 268.452 580.765 266.532 580.637 264.613C586.644 262.949 592.523 261.285 598.53 259.622C613.867 255.399 629.203 251.048 644.54 246.825C663.072 241.706 681.604 236.587 700.136 231.34C716.111 226.861 732.215 222.382 748.19 218.031C753.43 216.623 758.67 215.087 763.91 213.68C765.572 213.168 767.233 212.784 768.895 212.272C769.15 212.144 769.406 212.144 769.789 212.016C769.789 211.248 769.789 210.608 769.789 209.841C769.789 209.201 770.301 208.561 770.812 208.305C764.422 210.097 758.159 211.888 751.769 213.552C736.432 217.775 721.096 222.126 705.759 226.349C687.227 231.468 668.695 236.587 650.164 241.834C634.188 246.313 618.084 250.792 602.109 255.143C594.568 257.19 587.028 259.11 579.487 261.413C579.232 261.541 578.976 261.541 578.848 261.669L578.593 261.797C577.954 261.925 577.442 262.693 577.442 263.333C577.442 263.589 577.442 263.845 577.442 264.101C577.442 269.22 577.442 274.466 577.442 279.585C577.442 279.713 577.442 279.841 577.442 279.969C577.442 293.15 577.442 306.332 577.442 319.513C577.442 319.641 577.442 319.769 577.442 319.897C577.442 335.893 577.442 351.89 577.442 367.886C577.442 368.014 577.442 368.142 577.442 368.27C577.442 382.091 577.442 395.784 577.442 409.605C577.442 409.733 577.442 409.861 577.442 409.989C577.442 414.98 577.315 419.971 577.315 424.834C577.315 425.857 577.315 426.753 577.315 427.777C577.315 428.545 577.315 429.441 577.315 430.208V430.464C577.315 430.72 577.442 431.104 577.57 431.36C577.953 432 578.593 432.256 579.359 432.128C585.75 430.336 592.14 428.545 598.53 426.753C613.867 422.53 629.203 418.179 644.54 413.956C663.072 408.837 681.604 403.718 700.136 398.471C716.111 393.992 732.215 389.513 748.19 385.162C755.986 382.987 763.783 381.067 771.451 378.636H771.323C770.301 378.508 769.662 377.868 769.662 376.972Z" fill="black"/>
<path d="M966.099 346.643C966.099 344.723 966.099 342.803 966.099 340.884C966.099 340.5 966.099 339.988 966.099 339.604C966.099 337.557 966.099 335.509 966.099 333.461C966.099 333.078 966.099 332.694 966.099 332.31C966.099 331.798 966.099 331.286 966.099 330.774C966.099 326.807 966.099 322.84 966.099 318.873C966.099 317.849 966.099 316.953 966.099 315.929C966.099 312.73 966.099 309.531 966.099 306.459C965.076 306.971 963.926 307.483 962.903 307.995C962.903 314.138 962.903 320.28 962.903 326.551C962.903 340.5 962.903 354.321 962.903 368.27C962.903 374.54 962.648 380.811 962.903 387.082C957.024 386.698 951.145 386.314 945.266 385.93C929.93 385.034 914.593 384.01 899.256 383.115C880.597 381.963 862.065 380.811 843.405 379.659C827.302 378.636 811.198 377.612 795.095 376.716C789.855 376.332 784.487 376.076 779.247 375.692C777.202 375.564 775.029 375.308 772.985 375.18C772.985 370.189 772.985 365.071 772.985 360.08C772.985 346.771 772.985 333.461 772.985 320.152C772.985 304.028 772.985 287.903 772.985 271.779C772.985 257.83 772.985 244.009 772.985 230.06C772.985 225.453 772.985 220.846 772.985 216.367C772.985 214.703 773.112 212.912 773.112 211.248C778.991 211.632 784.871 212.016 790.75 212.272C806.086 213.168 821.423 214.192 836.76 215.087C855.419 216.239 873.951 217.391 892.61 218.543C908.714 219.566 924.818 220.59 940.921 221.486C946.161 221.87 951.529 222.126 956.769 222.51C958.814 222.638 960.986 222.894 963.031 223.022C963.031 228.012 963.031 233.131 963.031 238.122C963.031 247.336 963.031 256.55 963.031 265.764C964.054 265.124 965.204 264.485 966.226 263.973C966.226 257.318 966.226 250.792 966.226 244.137C966.226 243.497 966.226 242.729 966.226 242.089C966.226 241.961 966.226 241.961 966.226 241.833C966.226 235.179 966.482 228.396 966.226 221.742V221.486C966.226 220.59 965.46 219.95 964.565 219.822C958.175 219.438 951.657 219.054 945.266 218.671C929.93 217.775 914.593 216.751 899.256 215.855C880.597 214.703 862.065 213.552 843.405 212.4C827.302 211.376 811.198 210.352 795.095 209.457C789.855 209.073 784.487 208.817 779.247 208.433C776.691 208.305 774.263 208.049 771.707 207.921H771.323C771.195 207.921 770.94 207.921 770.812 208.049C770.173 208.305 769.789 208.945 769.789 209.585C769.789 210.352 769.789 210.992 769.789 211.76C769.789 216.623 769.789 221.486 769.789 226.221C769.789 239.53 769.789 252.839 769.789 266.148C769.789 282.273 769.789 298.397 769.789 314.522C769.789 328.471 769.789 342.292 769.789 356.24C769.789 362.639 769.534 369.166 769.789 375.564C769.789 375.82 769.789 376.204 769.789 376.46V376.716C769.789 377.612 770.556 378.252 771.451 378.38H771.579C777.969 378.764 784.359 379.147 790.75 379.531C806.086 380.427 821.423 381.451 836.76 382.347C855.419 383.498 873.951 384.65 892.61 385.802C908.714 386.826 924.818 387.85 940.921 388.745C946.161 389.129 951.529 389.385 956.769 389.769C959.325 389.897 961.753 390.153 964.309 390.281H964.693C965.46 390.281 965.843 390.025 966.099 389.513C966.226 389.257 966.354 389.001 966.354 388.745C966.354 383.243 966.354 377.612 966.354 372.109C966.354 364.559 966.354 357.008 966.354 349.33C966.099 348.562 966.099 347.666 966.099 346.643Z" fill="black"/>
<path d="M132.552 229.292C132.679 229.292 132.679 229.292 132.552 229.292C132.679 229.292 132.807 229.292 132.807 229.292C132.935 229.292 132.935 229.292 133.063 229.164C141.242 224.429 150.572 221.998 159.902 220.974C169.871 219.822 180.095 220.206 189.936 222.126C194.665 223.022 199.266 224.301 203.739 225.837C208.212 227.501 212.302 229.676 216.52 232.108C225.083 237.099 234.029 241.45 242.464 246.696C250.516 251.815 257.801 257.958 263.424 265.636C265.98 269.092 268.664 272.675 267.003 277.026C265.597 280.609 262.146 283.296 258.696 284.832C254.861 286.496 250.516 286.752 246.682 285.088C243.231 283.68 239.908 281.889 236.585 280.353C228.533 276.514 220.226 272.547 211.663 270.115C208.212 269.22 204.506 268.452 200.928 268.836C195.815 269.348 190.959 271.907 186.358 274.21C181.118 276.77 176.005 279.201 170.126 279.841C164.759 280.353 159.135 279.713 154.023 277.794C151.339 276.77 148.911 275.49 146.61 273.827C146.355 273.571 145.971 273.571 145.716 273.699C145.077 273.955 144.693 275.106 145.46 275.746C154.662 282.145 166.803 283.936 177.539 280.353C183.29 278.434 188.403 275.234 193.898 273.059C198.116 271.395 202.078 270.627 206.551 271.395C206.807 271.395 206.934 271.523 207.19 271.523C208.085 271.651 208.979 271.907 209.746 272.035C212.174 272.547 214.475 273.315 216.903 274.21C218.053 274.594 219.076 274.978 220.098 275.49C224.444 277.282 228.789 279.329 233.007 281.249C236.713 283.041 240.419 284.832 244.126 286.496C247.832 288.159 251.411 288.927 255.5 288.031C262.658 286.624 271.093 280.097 269.303 271.907C268.792 269.731 267.514 267.812 266.236 266.02C264.702 263.845 263.169 261.797 261.38 259.878C258.184 256.166 254.478 252.839 250.644 249.896C242.72 243.881 233.901 239.274 225.211 234.539C223.549 233.643 221.888 232.62 220.226 231.724C219.204 231.084 218.053 230.444 217.031 229.804C215.114 228.78 213.325 227.757 211.408 226.733C208.085 225.069 204.506 223.662 200.928 222.51C199.905 222.254 198.883 221.87 197.86 221.614C196.966 221.358 196.071 221.102 195.176 220.974C185.974 218.671 176.517 217.775 167.059 218.159C157.218 218.543 147.121 220.334 138.047 224.173C136.002 225.069 134.085 225.965 132.168 227.117C132.04 227.117 132.04 227.245 131.913 227.245C131.018 227.885 131.657 229.292 132.552 229.292Z" fill="black"/>
<path d="M243.614 275.874C245.02 277.154 246.426 278.434 247.704 279.713C249.11 280.993 250.644 282.017 252.689 282.017C257.545 282.273 260.613 278.05 263.041 274.594C263.808 273.443 262.018 272.419 261.124 273.571C259.335 276.13 257.417 279.073 254.222 279.841C250.772 280.609 248.982 277.666 246.682 275.746C245.532 274.85 244.254 273.955 243.487 272.675C242.592 271.267 242.592 269.603 243.103 268.068C243.615 266.532 244.637 265.124 245.787 263.973C246.81 262.821 248.088 261.541 249.366 260.773C251.155 259.75 252.816 261.925 253.967 263.077C255.245 264.485 256.395 265.892 257.29 267.556C257.929 268.708 259.846 267.684 259.207 266.532C258.184 264.741 256.906 263.077 255.5 261.669C254.222 260.39 252.561 258.598 250.644 258.342C248.727 258.214 247.065 259.75 245.787 260.901C244.254 262.309 242.72 263.717 241.825 265.636C240.931 267.3 240.419 269.22 240.675 271.011C241.058 273.059 242.209 274.594 243.614 275.874Z" fill="black"/>
<path d="M336.912 316.441C318.125 317.593 299.21 318.745 280.422 320.024C296.526 303.516 318.253 290.975 326.688 268.58C330.65 257.958 331.033 245.289 324.899 235.435C319.659 227.117 309.946 220.846 299.721 222.254C288.73 223.789 279.272 234.411 281.189 245.673C281.573 247.72 284.64 246.824 284.384 244.777C282.979 235.563 290.902 227.117 299.593 225.453C308.795 223.789 317.997 229.932 322.47 237.61C327.966 246.824 327.199 258.214 323.493 267.94C319.531 278.306 311.863 286.88 303.939 294.43C294.481 303.26 284.001 311.066 275.31 320.792C274.416 321.816 274.927 323.608 276.46 323.608C296.654 322.328 316.847 321.048 337.04 319.769C338.957 319.513 339.085 316.313 336.912 316.441Z" fill="#AE3925"/>
<path d="M808.003 247.464C801.102 249.384 796.884 256.55 794.712 262.821C788.705 279.841 788.193 298.269 790.111 316.057C790.494 320.408 791.133 324.888 791.772 329.239C792.411 333.462 792.922 337.685 794.456 341.652C797.012 348.306 803.786 354.833 811.454 352.018C817.844 349.714 820.912 342.676 822.701 336.661C825.129 328.471 826.918 320.025 828.069 311.578C830.88 292.255 830.114 272.291 822.19 254.247C819.761 248.616 814.01 245.801 808.003 247.464ZM826.024 302.109C825.385 310.043 823.979 317.977 822.19 325.783C820.656 332.182 819.378 339.476 815.416 344.851C813.755 347.027 811.454 348.946 808.642 349.33C805.192 349.714 801.996 347.667 799.951 344.979C797.651 341.908 796.629 338.069 795.862 334.485C795.095 330.518 794.456 326.423 793.945 322.456C791.772 306.332 791.261 289.695 794.839 273.699C796.501 266.148 798.801 256.678 805.703 252.071C807.748 250.664 810.304 250.024 812.86 250.408C816.055 250.92 818.1 253.223 819.378 256.039C825.896 270.371 827.302 286.496 826.024 302.109Z" fill="black"/>
<path d="M864.238 247.976C857.336 249.896 853.119 257.062 850.946 263.333C844.939 280.353 844.428 298.781 846.345 316.569C846.728 320.92 847.367 325.399 848.006 329.75C848.646 333.973 849.284 338.196 850.69 342.163C853.246 348.818 860.02 355.345 867.688 352.529C874.079 350.226 877.146 343.187 878.935 337.173C881.364 328.982 883.153 320.536 884.303 312.09C887.115 292.766 886.348 272.803 878.424 254.759C875.996 249.256 870.245 246.312 864.238 247.976ZM882.258 302.748C881.619 310.682 880.213 318.617 878.424 326.423C876.89 332.822 875.612 340.116 871.65 345.491C869.989 347.666 867.688 349.586 864.877 349.97C861.426 350.354 858.231 348.306 856.186 345.619C853.885 342.547 852.863 338.708 852.096 335.125C851.329 331.158 850.69 327.063 850.179 323.096C848.006 306.971 847.495 290.335 851.074 274.338C852.735 266.788 855.036 257.318 861.937 252.711C863.982 251.303 866.538 250.664 869.094 251.047C872.289 251.559 874.334 253.863 875.612 256.678C882.13 271.011 883.536 287.008 882.258 302.748Z" fill="#AE3925"/>
<path d="M934.786 255.399C932.23 249.768 926.479 246.952 920.472 248.616C913.571 250.536 909.353 257.702 907.18 263.973C901.174 280.993 900.662 299.421 902.579 317.209C902.963 321.56 903.602 326.039 904.241 330.39C904.88 334.613 905.391 338.836 906.925 342.803C909.481 349.458 916.255 355.985 923.923 353.169C930.313 350.866 933.381 343.827 935.17 337.813C937.598 329.622 939.387 321.176 940.538 312.73C940.538 312.474 940.665 312.218 940.665 311.962C939.899 311.706 939.132 311.322 938.365 310.938C938.109 310.81 937.854 310.555 937.598 310.427C936.831 315.929 935.809 321.56 934.531 326.935C932.997 333.334 931.719 340.628 927.757 346.003C926.096 348.178 923.795 350.098 920.983 350.482C917.533 350.866 914.337 348.818 912.293 346.131C909.992 343.059 908.97 339.22 908.203 335.637C907.436 331.67 906.797 327.575 906.286 323.608C904.113 307.483 903.602 290.847 907.18 274.85C908.842 267.3 911.142 257.83 918.044 253.223C920.089 251.815 922.645 251.175 925.201 251.559C928.396 252.071 930.441 254.375 931.719 257.19C935.553 266.02 937.598 275.362 938.365 284.96C939.26 283.936 940.282 282.913 941.304 281.889C940.538 272.675 938.493 263.845 934.786 255.399Z" fill="#AE3925"/>
<path d="M492.963 264.996C490.407 259.366 484.656 256.55 478.649 258.214C471.747 260.134 467.53 267.3 465.357 273.571C459.35 290.591 458.839 309.019 460.756 326.807C461.139 331.158 461.778 335.637 462.417 339.988C463.056 344.211 463.695 348.434 465.101 352.401C467.657 359.056 474.431 365.582 482.099 362.767C488.49 360.464 491.557 353.425 493.346 347.41C495.775 339.22 497.564 330.774 498.714 322.328C501.526 303.004 500.887 283.041 492.963 264.996ZM496.541 312.858C495.902 320.792 494.497 328.727 492.707 336.533C491.174 342.931 489.896 350.226 485.934 355.601C484.272 357.776 481.972 359.696 479.16 360.08C475.709 360.464 472.514 358.416 470.469 355.729C468.169 352.657 467.146 348.818 466.379 345.235C465.613 341.268 464.973 337.173 464.462 333.206C462.29 317.081 461.778 300.445 465.357 284.448C467.018 276.898 469.319 267.428 476.22 262.821C478.265 261.413 480.821 260.773 483.378 261.157C486.573 261.669 488.618 263.973 489.896 266.788C496.414 281.121 497.947 297.245 496.541 312.858Z" fill="black"/>
<path d="M427.91 239.786C421.009 241.706 416.791 248.872 414.618 255.143C408.611 272.163 408.1 290.591 410.017 308.379C410.401 312.73 411.04 317.209 411.679 321.56C412.318 325.783 412.957 330.006 414.363 333.973C416.919 340.628 423.692 347.154 431.361 344.339C437.751 342.036 440.818 334.997 442.608 328.982C445.036 320.792 446.825 312.346 447.975 303.9C450.787 284.576 450.02 264.613 442.096 246.568C439.668 240.938 433.917 238.122 427.91 239.786ZM445.803 294.43C445.164 302.364 443.758 310.299 441.969 318.105C440.435 324.503 439.157 331.798 435.195 337.173C433.533 339.348 431.233 341.268 428.421 341.652C424.97 342.036 421.775 339.988 419.73 337.301C417.43 334.229 416.408 330.39 415.641 326.807C414.874 322.84 414.235 318.745 413.724 314.778C411.551 298.653 411.04 282.017 414.618 266.02C416.28 258.47 418.58 249 425.482 244.393C427.527 242.985 430.083 242.345 432.639 242.729C435.834 243.241 437.879 245.545 439.157 248.36C445.675 262.693 447.081 278.689 445.803 294.43Z" fill="black"/>
<path d="M630.737 289.823C628.181 284.192 622.43 281.377 616.423 283.041C609.522 284.96 605.304 292.127 603.131 298.397C597.124 315.418 596.613 333.846 598.53 351.634C598.914 355.985 599.553 360.464 600.192 364.815C600.831 369.038 601.47 373.261 602.876 377.228C605.432 383.883 612.205 390.409 619.874 387.594C626.264 385.29 629.331 378.252 631.121 372.237C633.549 364.047 635.338 355.601 636.489 347.155C639.428 327.831 638.661 307.867 630.737 289.823ZM634.444 337.685C633.805 345.619 632.399 353.553 630.609 361.36C629.076 367.758 627.798 375.053 623.836 380.427C622.174 382.603 619.874 384.522 617.062 384.906C613.611 385.29 610.416 383.243 608.371 380.555C606.071 377.484 605.048 373.645 604.281 370.062C603.515 366.094 602.876 361.999 602.364 358.032C600.192 341.908 599.68 325.271 603.259 309.275C604.921 301.725 607.221 292.255 614.123 287.648C616.167 286.24 618.724 285.6 621.28 285.984C624.475 286.496 626.52 288.799 627.798 291.615C634.316 305.948 635.722 321.944 634.444 337.685Z" fill="black"/>
<path d="M687.994 267.428C685.438 261.797 679.687 258.982 673.68 260.645C666.778 262.565 662.561 269.731 660.388 276.002C654.381 293.022 653.87 311.45 655.787 329.238C656.17 333.589 656.809 338.068 657.448 342.419C658.088 346.643 658.727 350.866 660.132 354.833C662.689 361.487 669.462 368.014 677.131 365.198C683.521 362.895 686.588 355.857 688.377 349.842C690.806 341.652 692.595 333.205 693.745 324.759C696.685 305.436 695.918 285.472 687.994 267.428ZM691.7 315.289C691.061 323.224 689.656 331.158 687.866 338.964C686.333 345.363 685.054 352.657 681.092 358.032C679.431 360.208 677.131 362.127 674.319 362.511C670.868 362.895 667.673 360.847 665.628 358.16C663.328 355.089 662.305 351.25 661.538 347.666C660.771 343.699 660.132 339.604 659.621 335.637C657.448 319.512 656.937 302.876 660.516 286.88C662.177 279.329 664.478 269.859 671.379 265.252C673.424 263.845 675.98 263.205 678.536 263.589C681.732 264.101 683.776 266.404 685.054 269.219C691.573 283.552 692.978 299.677 691.7 315.289Z" fill="black"/>
<path d="M726.463 244.905C719.562 246.824 715.344 253.991 713.172 260.262C707.165 277.282 706.654 295.71 708.571 313.498C708.954 317.849 709.593 322.328 710.232 326.679C710.871 330.902 711.51 335.125 712.916 339.092C715.472 345.747 722.246 352.273 729.914 349.458C736.304 347.155 739.372 340.116 741.161 334.101C743.589 325.911 745.379 317.465 746.529 309.019C749.341 289.695 748.574 269.731 740.65 251.687C738.222 246.057 732.47 243.241 726.463 244.905ZM744.484 299.549C743.845 307.483 742.439 315.417 740.65 323.224C739.116 329.622 737.838 336.917 733.876 342.292C732.215 344.467 729.914 346.387 727.102 346.771C723.652 347.155 720.457 345.107 718.412 342.42C716.111 339.348 715.089 335.509 714.322 331.926C713.555 327.959 712.916 323.864 712.405 319.896C710.232 303.772 709.721 287.136 713.299 271.139C714.961 263.589 717.261 254.119 724.163 249.512C726.208 248.104 728.764 247.464 731.32 247.848C734.515 248.36 736.56 250.664 737.838 253.479C744.356 267.812 745.762 283.808 744.484 299.549Z" fill="black"/>
<path d="M538.845 276.514C531.944 278.434 527.726 285.6 525.553 291.871C519.546 308.891 519.035 327.319 520.952 345.107C521.336 349.458 521.975 353.937 522.614 358.288C523.253 362.511 523.764 366.734 525.298 370.701C527.854 377.356 534.627 383.883 542.296 381.067C548.686 378.764 551.753 371.725 553.543 365.71C555.971 357.52 557.76 349.074 558.911 340.628C561.722 321.304 560.955 301.341 553.031 283.297C550.603 277.666 544.852 274.85 538.845 276.514ZM556.866 331.158C556.227 339.092 554.821 347.027 553.031 354.833C551.498 361.231 550.22 368.526 546.258 373.901C544.596 376.076 542.296 377.996 539.484 378.38C536.033 378.764 532.838 376.716 530.793 374.029C528.493 370.957 527.47 367.118 526.704 363.535C525.937 359.568 525.298 355.473 524.786 351.506C522.614 335.381 522.103 318.745 525.681 302.748C527.343 295.198 529.643 285.728 536.545 281.121C538.589 279.713 541.146 279.073 543.702 279.457C546.897 279.969 548.942 282.273 550.22 285.088C556.738 299.421 558.144 315.545 556.866 331.158Z" fill="black"/>
<path d="M998.945 247.464C997.539 247.848 996.133 248.36 994.727 248.872C990.126 250.664 985.908 252.967 981.563 255.399C976.451 258.342 971.083 261.157 965.971 263.973C964.82 264.613 963.798 265.252 962.776 265.764C960.092 267.3 957.536 268.836 954.98 270.499C950.123 273.699 945.522 277.282 941.56 281.377C940.538 282.401 939.515 283.425 938.62 284.448C936.831 286.496 935.17 288.543 933.508 290.847C931.08 294.302 929.418 297.757 930.824 301.98C931.975 305.436 934.658 308.123 937.598 310.043C937.854 310.171 938.109 310.427 938.365 310.555C939.132 310.939 939.898 311.322 940.665 311.578C943.733 312.858 947.056 313.37 950.251 312.858C953.957 312.346 957.536 310.171 960.859 308.635C961.498 308.379 962.137 307.995 962.648 307.739C963.67 307.227 964.821 306.715 965.843 306.204C972.617 302.876 979.646 299.677 986.803 297.501C987.825 297.245 988.72 296.99 989.743 296.734C990.637 296.478 991.404 296.35 992.299 296.222C994.344 295.838 996.516 295.582 998.561 295.838C1004.06 296.35 1009.42 299.549 1014.28 301.852C1019.39 304.412 1024.63 306.332 1030.38 306.843C1036.01 307.355 1041.76 306.459 1047 304.412C1049.56 303.388 1051.98 302.108 1054.16 300.573C1055.05 300.061 1054.67 298.909 1053.9 298.525C1053.65 298.397 1053.39 298.397 1053.01 298.653C1043.8 305.052 1031.79 306.587 1021.31 302.62C1012.24 299.293 1003.93 292.511 993.705 293.79C985.142 294.942 976.834 298.653 969.038 302.364C965.204 304.156 961.37 305.948 957.536 307.867C954.085 309.531 950.762 311.194 946.8 311.066C940.026 310.683 929.93 304.668 932.358 296.606C932.997 294.302 934.786 292.383 936.064 290.463C937.598 288.415 939.259 286.368 941.049 284.448C944.244 280.993 947.695 277.922 951.529 275.234C959.197 269.604 967.76 265.252 976.195 260.645C980.668 258.214 985.014 255.399 989.615 253.223C993.832 251.176 998.178 249.64 1002.65 248.36C1012.36 245.801 1022.46 244.777 1032.43 245.161C1042.01 245.545 1051.73 247.208 1060.55 250.92C1062.59 251.815 1064.51 252.839 1066.43 253.863C1066.55 253.863 1066.55 253.863 1066.68 253.991H1066.81H1066.94C1067.96 253.991 1068.6 252.583 1067.58 251.943C1067.45 251.943 1067.45 251.815 1067.32 251.815C1058.89 247.08 1049.43 244.521 1039.84 243.497C1029.62 242.345 1019.14 242.729 1008.91 244.649C1007.38 244.905 1005.72 245.289 1004.18 245.673C1002.78 246.441 1000.86 246.952 998.945 247.464Z" fill="black"/>
<path d="M958.814 297.629C959.581 295.71 959.453 293.662 958.686 291.743C957.919 289.951 956.641 288.415 955.235 287.008C953.957 285.728 952.423 284.064 950.506 283.425C948.206 282.785 946.417 284.448 944.883 285.856C943.221 287.52 941.688 289.311 940.537 291.359C939.898 292.511 941.688 293.662 942.455 292.383C943.349 290.975 944.244 289.695 945.394 288.415C945.905 287.904 946.417 287.264 947.056 286.752C947.695 286.24 948.334 285.472 949.228 285.216C950.762 284.832 952.168 286.752 953.19 287.648C954.341 288.799 955.491 289.951 956.385 291.359C957.152 292.767 957.536 294.43 957.152 295.966C956.769 297.501 955.619 298.525 954.341 299.421C953.19 300.317 952.168 301.341 951.018 302.492C949.867 303.644 948.717 304.54 947.056 304.54C943.221 304.668 940.665 300.957 938.748 298.141C937.981 296.99 936.064 298.141 936.831 299.165C939.004 302.364 941.56 305.948 945.778 306.588C947.695 306.843 949.484 306.46 951.018 305.308C952.551 304.156 953.701 302.62 955.235 301.469C956.641 300.445 958.175 299.293 958.814 297.629Z" fill="black"/>
</g>
</g>
<defs>
<clipPath id="clip0">
<rect width="1200" height="549" fill="white"/>
</clipPath>
<clipPath id="clip1">
<rect width="1566" height="366" fill="white" transform="translate(-183 66)"/>
</clipPath>
</defs>
</svg>
