<svg width="1200" height="549" viewBox="0 0 1200 549" fill="none" xmlns="http://www.w3.org/2000/svg">
<g clip-path="url(#clip0)">
<g clip-path="url(#clip1)">
<path d="M171.25 382.433C155.389 390.224 137.262 393.482 119.702 393.765C94.7783 394.049 64.8979 388.666 49.8868 366.569C43.5142 357.22 39.8323 345.18 41.8149 333.848C43.6558 323.649 49.7452 315.292 59.3749 311.325C62.9153 309.909 66.8805 309.059 70.8456 308.917C70.1376 314.867 69.996 321.241 72.2618 326.765C74.386 332.29 78.2096 337.956 83.8741 340.364C89.2554 342.63 95.628 340.505 98.3187 335.264C101.151 330.023 100.16 323.224 97.469 318.125C93.079 310.192 84.7238 305.801 75.9437 304.81C77.7847 296.027 81.8915 287.812 87.6977 281.154C89.6803 278.888 91.9461 276.763 94.3535 274.78C96.4777 273.08 93.5038 270.106 91.3796 271.805C81.1834 280.021 74.1028 291.92 71.5537 304.668C61.0743 304.81 50.4533 309.484 43.9391 317.983C36.2919 328.182 35.4423 342.205 38.9826 354.104C42.8062 366.994 51.4446 377.617 62.6321 384.841C75.0941 392.774 89.6803 396.315 104.266 397.731C126.5 399.714 150.574 397.165 171.25 387.533C171.25 386.541 171.25 385.408 171.25 384.416C171.25 383.567 171.25 383 171.25 382.433ZM85.8567 312.317C89.6803 314.583 93.079 317.983 94.6367 322.232C96.3361 326.765 96.4777 333.281 91.8045 336.114C87.2728 338.805 82.5996 335.406 79.7673 331.865C76.0854 327.19 74.6692 321.666 74.6692 315.858C74.6692 313.592 74.8108 311.325 75.0941 309.059C78.9176 309.342 82.5996 310.334 85.8567 312.317Z" fill="#AE3925"/>
<path d="M879.742 78.3129C895.462 69.1057 912.455 62.1649 930.157 57.7738C948.284 53.241 967.401 50.833 985.811 53.0994C1002.24 55.0824 1018.67 61.5983 1029.85 73.9218C1027.3 73.6385 1024.61 73.4968 1022.06 73.4968C1013.57 73.6385 1004.79 75.7632 997.707 80.5793C991.476 84.8287 986.519 90.778 983.262 97.4355C977.031 110.326 976.748 126.899 987.511 137.381C998.132 147.863 1014.84 147.438 1027.45 140.638C1033.82 137.239 1039.34 132.14 1042.88 125.907C1046.99 118.683 1048.26 109.901 1047.41 101.827C1046.56 94.1776 1043.87 86.8118 1040.05 80.296C1046.14 82.1374 1051.94 84.6871 1057.18 87.8034C1086.64 105.226 1103.92 138.23 1108.87 171.235C1111.42 187.949 1111 205.089 1107.74 221.662C1107.46 222.937 1107.17 224.211 1106.89 225.486C1108.31 225.486 1109.72 225.628 1111.14 225.628C1113.83 213.304 1115.25 200.556 1114.68 187.666C1113.4 152.962 1100.09 117.833 1073.61 94.6025C1063.13 85.3953 1050.1 77.8879 1036.37 74.9133C1031.84 68.8224 1026.03 63.723 1019.66 59.7569C1002.38 49.2748 981.279 46.8668 961.454 48.2833C942.336 49.6998 923.501 54.0909 905.799 61.0317C874.22 73.3552 846.038 93.611 824.513 119.816C826.354 119.816 828.337 119.816 830.178 119.816C844.056 103.385 860.908 89.2199 879.742 78.3129ZM1039.34 123.499C1032.83 135.256 1018.52 142.763 1005.07 141.347C998.556 140.638 992.467 137.381 988.502 132.281C984.395 127.04 982.837 120.383 983.262 113.725C984.112 100.127 992.892 86.5285 1005.5 81.2875C1014.56 77.463 1024.33 77.038 1033.82 78.8795C1042.74 91.6279 1047.27 109.334 1039.34 123.499Z" fill="#AE3925"/>
<path d="M967.26 376.201C959.471 380.026 951.54 383.708 943.61 387.108C943.61 388.666 943.61 390.224 943.61 391.782C955.506 386.683 967.118 381.159 978.589 375.209C975.048 376.059 971.083 376.626 967.26 376.201Z" fill="#AE3925"/>
<path d="M1021.5 349.146C1025.6 346.171 1029.71 343.055 1033.82 339.939C1032.4 340.789 1030.99 341.638 1029.57 342.63C1026.74 344.613 1024.19 347.021 1021.5 349.146Z" fill="#AE3925"/>
<path d="M175.781 399.431C172.666 394.898 173.232 389.232 173.232 383.991C173.232 375.917 173.232 367.702 173.232 359.628C173.232 347.729 173.232 335.689 173.232 323.791C173.232 309.767 173.232 295.744 173.232 281.721C173.232 267.414 173.232 253.249 173.232 238.943C173.232 226.194 173.232 213.446 173.232 200.698C173.232 191.349 173.232 182.142 173.232 172.793C173.232 168.685 173.232 164.577 173.232 160.611C173.374 152.962 179.322 146.729 187.11 146.588C187.677 146.588 188.385 146.588 188.951 146.588C193.483 146.588 198.015 146.588 202.546 146.588C210.76 146.588 218.832 146.588 227.045 146.588C237.95 146.588 248.996 146.588 259.9 146.588C272.787 146.588 285.815 146.588 298.702 146.588C312.863 146.588 327.025 146.588 341.186 146.588C355.631 146.588 369.934 146.588 384.378 146.588C398.256 146.588 412.134 146.588 426.013 146.588C438.475 146.588 451.078 146.588 463.54 146.588C473.878 146.588 484.357 146.588 494.695 146.588C498.235 146.588 501.776 146.588 505.316 146.588C505.316 145.879 505.316 145.171 505.316 144.463C502.342 144.463 499.227 144.463 496.253 144.463C485.915 144.463 475.719 144.463 465.381 144.463C452.777 144.463 440.174 144.463 427.57 144.463C413.55 144.463 399.672 144.463 385.653 144.463C371.066 144.463 356.48 144.463 341.894 144.463C327.591 144.463 313.288 144.463 298.985 144.463C285.957 144.463 272.787 144.463 259.758 144.463C248.712 144.463 237.525 144.463 226.479 144.463C218.265 144.463 210.052 144.463 201.838 144.463C197.448 144.463 192.917 144.463 188.527 144.463C187.677 144.463 186.686 144.463 185.836 144.463C177.481 145.029 171.108 152.112 170.966 160.328C170.966 164.152 170.966 167.835 170.966 171.66C170.966 180.867 170.966 190.074 170.966 199.281C170.966 212.029 170.966 224.636 170.966 237.385C170.966 251.833 170.966 266.139 170.966 280.588C170.966 294.753 170.966 309.059 170.966 323.224C170.966 335.264 170.966 347.304 170.966 359.486C170.966 367.135 170.966 374.643 170.966 382.292C170.966 382.858 170.966 383.425 170.966 383.991C170.966 384.983 170.966 386.116 170.966 387.108C170.966 391.357 170.966 395.465 173.091 399.29C174.224 399.431 175.073 399.431 175.781 399.431Z" fill="black"/>
<path d="M495.686 163.019C489.455 163.019 483.366 163.019 477.135 163.019C468.213 163.019 459.433 163.019 450.512 163.019C439.749 163.019 428.845 163.019 418.082 163.019C406.045 163.019 394.008 163.019 381.971 163.019C369.509 163.019 356.905 163.019 344.443 163.019C332.123 163.019 319.944 163.019 307.624 163.019C296.294 163.019 285.107 163.019 273.778 163.019C264.29 163.019 254.66 163.019 245.172 163.019C238.091 163.019 231.011 163.019 223.93 163.019C220.106 163.019 216.283 163.019 212.318 163.019C211.468 163.019 210.618 163.019 209.91 163.019C202.688 163.586 197.307 169.535 197.165 176.759C197.165 180.017 197.165 183.133 197.165 186.391C197.165 194.323 197.165 202.114 197.165 210.047C197.165 221.095 197.165 232.002 197.165 243.051C197.165 255.374 197.165 267.839 197.165 280.163C197.165 292.345 197.165 304.526 197.165 316.708C197.165 327.19 197.165 337.531 197.165 348.013C197.165 355.095 197.165 362.036 197.165 369.118C197.165 373.651 196.74 378.326 199.006 382.433C201.555 386.683 206.087 389.091 211.043 389.091C211.893 389.091 212.884 389.091 213.734 389.091C218.265 389.091 222.939 389.091 227.47 389.091C235.117 389.091 242.765 389.091 250.412 389.091C260.325 389.091 270.379 389.091 280.292 389.091C291.904 389.091 303.375 389.091 314.987 389.091C327.308 389.091 339.77 389.091 352.09 389.091C364.552 389.091 377.014 389.091 389.476 389.091C401.372 389.091 413.126 389.091 425.021 389.091C435.501 389.091 445.98 389.091 456.459 389.091C464.815 389.091 473.17 389.091 481.525 389.091C487.048 389.091 492.571 389.091 497.952 389.091C499.793 389.091 501.776 389.091 503.617 389.091C504.183 389.091 504.608 389.091 505.175 388.949C505.175 388.383 505.175 387.816 505.175 387.108C504.608 387.249 504.183 387.25 503.617 387.25C501.634 387.25 499.652 387.25 497.669 387.25C492.146 387.25 486.623 387.25 481.1 387.25C472.887 387.25 464.531 387.25 456.318 387.25C445.98 387.25 435.642 387.25 425.163 387.25C413.409 387.25 401.655 387.25 390.043 387.25C377.722 387.25 365.402 387.25 353.082 387.25C340.761 387.25 328.441 387.25 316.262 387.25C304.791 387.25 293.321 387.25 281.85 387.25C271.937 387.25 262.024 387.25 251.969 387.25C244.181 387.25 236.392 387.25 228.745 387.25C223.93 387.25 219.115 387.25 214.3 387.25C213.167 387.25 212.176 387.25 211.043 387.25C206.936 387.25 203.113 385.55 200.847 382.15C198.156 378.326 198.723 373.368 198.723 368.977C198.723 362.036 198.723 355.095 198.723 348.154C198.723 337.814 198.723 327.615 198.723 317.275C198.723 305.235 198.723 293.195 198.723 281.154C198.723 268.973 198.723 256.791 198.723 244.467C198.723 233.56 198.723 222.653 198.723 211.746C198.723 203.672 198.723 195.74 198.723 187.666C198.723 184.125 198.723 180.584 198.723 177.042C198.864 170.385 203.962 165.144 210.618 165.002C211.185 165.002 211.751 165.002 212.318 165.002C216.283 165.002 220.106 165.002 224.072 165.002C231.152 165.002 238.091 165.002 245.172 165.002C254.518 165.002 264.007 165.002 273.353 165.002C284.541 165.002 295.728 165.002 306.774 165.002C318.953 165.002 330.99 165.002 343.169 165.002C355.489 165.002 367.809 165.002 380.271 165.002C392.167 165.002 404.204 165.002 416.1 165.002C426.862 165.002 437.766 165.002 448.529 165.002C457.451 165.002 466.372 165.002 475.294 165.002C481.525 165.002 487.898 165.002 494.129 165.002C497.103 165.002 500.218 165.002 503.192 165.002C503.9 165.002 504.466 165.002 505.175 165.144C505.175 164.577 505.175 163.869 505.175 163.302C504.608 163.161 504.042 163.161 503.475 163.161C501.209 163.019 498.377 163.019 495.686 163.019Z" fill="black"/>
<path d="M477.985 423.653C471.754 423.653 465.523 423.653 459.292 423.653C441.873 423.653 424.596 423.653 407.178 423.653C388.485 423.653 369.792 423.653 351.099 423.653C332.548 423.653 313.996 423.653 295.586 423.653C278.734 423.653 261.882 423.653 245.172 423.653C231.719 423.653 218.407 423.653 204.954 423.653C196.457 423.653 187.96 423.653 179.463 423.653C177.481 423.653 175.64 423.653 173.657 423.653C167.285 423.653 161.054 421.529 156.38 416.996C152.132 412.746 149.583 407.08 149.3 401.131C152.698 401.131 156.239 401.131 159.637 401.131C169.834 401.131 179.888 401.131 189.943 401.131C204.954 401.131 219.965 401.131 234.976 401.131C253.244 401.131 271.654 401.131 289.922 401.131C309.889 401.131 329.857 401.131 349.824 401.131C370.075 401.131 390.468 401.131 410.718 401.131C429.553 401.131 448.387 401.131 467.222 401.131C479.967 401.131 492.713 401.131 505.458 401.131C505.458 400.565 505.458 399.998 505.458 399.431C496.961 399.431 488.323 399.431 479.826 399.431C461.558 399.431 443.148 399.431 424.88 399.431C404.912 399.431 384.945 399.431 364.977 399.431C344.726 399.431 324.334 399.431 304.083 399.431C285.249 399.431 266.414 399.431 247.579 399.431C231.577 399.431 215.716 399.431 199.714 399.431C191.784 399.431 183.712 399.431 175.781 399.431C174.932 399.431 174.224 399.431 173.374 399.431C170.683 399.431 167.993 399.431 165.302 399.431C159.921 399.431 154.398 399.29 149.016 399.431C148.733 399.431 148.592 399.431 148.308 399.431C147.883 399.431 147.459 399.856 147.459 400.281C147.459 412.463 156.664 423.228 168.701 425.07C170.825 425.353 172.807 425.353 174.932 425.353C181.587 425.353 188.243 425.353 194.899 425.353C207.078 425.353 219.257 425.353 231.435 425.353C247.438 425.353 263.44 425.353 279.584 425.353C297.994 425.353 316.262 425.353 334.672 425.353C353.648 425.353 372.624 425.353 391.459 425.353C409.444 425.353 427.57 425.353 445.555 425.353C456.318 425.353 467.222 425.353 477.985 425.353C478.126 424.787 477.985 424.22 477.985 423.653Z" fill="black"/>
<path d="M462.266 224.92C453.061 224.92 443.997 224.92 434.793 224.92C421.481 224.92 408.169 224.92 394.858 224.92C379.847 224.92 364.694 224.92 349.683 224.92C335.38 224.92 320.935 224.92 306.632 224.92C295.445 224.92 284.257 224.92 273.07 224.92C267.405 224.92 261.882 224.92 256.218 224.92C251.12 224.92 246.447 227.611 244.747 232.71C243.756 235.685 244.181 239.368 244.181 242.484C244.181 255.941 244.181 269.256 244.181 282.712C244.181 292.911 244.181 302.968 244.181 313.167C244.181 319.683 249.137 324.782 255.651 324.924C257.068 324.924 258.342 324.924 259.758 324.924C267.547 324.924 275.336 324.924 283.124 324.924C295.728 324.924 308.19 324.924 320.794 324.924C335.663 324.924 350.391 324.924 365.26 324.924C379.988 324.924 394.716 324.924 409.585 324.924C421.764 324.924 433.943 324.924 446.122 324.924C453.344 324.924 460.566 324.924 467.789 324.924C468.78 324.924 469.771 324.924 470.621 324.924C475.294 324.782 479.543 322.091 481.242 317.7C481.95 316 482.092 314.3 482.092 312.459C482.092 308.351 482.092 304.102 482.092 299.994C482.092 285.687 482.092 271.239 482.092 256.932C482.092 251.55 482.092 246.025 482.092 240.643C482.092 236.535 482.233 232.569 479.401 229.169C474.728 223.928 468.072 224.92 462.266 224.92ZM480.392 239.793C480.392 252.116 480.392 264.298 480.392 276.622C480.392 288.237 480.392 299.71 480.392 311.326C480.392 312.034 480.392 312.6 480.392 313.309C480.251 318.833 475.861 323.224 470.338 323.366C466.514 323.366 462.69 323.366 459.009 323.366C449.237 323.366 439.466 323.366 429.694 323.366C416.241 323.366 402.788 323.366 389.335 323.366C374.465 323.366 359.737 323.366 344.868 323.366C330.99 323.366 317.112 323.366 303.234 323.366C292.613 323.366 281.85 323.366 271.229 323.366C266.131 323.366 261.033 323.366 255.935 323.366C250.128 323.366 245.455 319.116 245.455 313.167C245.455 310.051 245.455 306.934 245.455 303.677C245.455 289.937 245.455 276.055 245.455 262.315C245.455 253.674 245.314 245.034 245.455 236.393C245.597 230.302 250.553 226.336 256.359 226.336C258.342 226.336 260.183 226.336 262.166 226.336C270.662 226.336 279.301 226.336 287.798 226.336C300.543 226.336 313.288 226.336 325.892 226.336C340.62 226.336 355.347 226.336 370.217 226.336C384.52 226.336 398.823 226.336 413.126 226.336C424.738 226.336 436.492 226.336 448.104 226.336C454.76 226.336 461.416 226.336 468.213 226.336C470.479 226.336 472.603 226.336 474.728 227.328C478.41 229.028 480.534 232.71 480.534 236.677C480.392 237.668 480.392 238.66 480.392 239.793Z" fill="black"/>
<path d="M451.928 235.968H385.369C379.988 235.968 375.598 240.359 375.598 245.742V306.509C375.598 311.892 379.988 316.283 385.369 316.283H451.928C457.309 316.283 461.699 311.892 461.699 306.509V245.742C461.699 240.359 457.309 235.968 451.928 235.968ZM460.708 306.509C460.708 308.918 459.717 311.184 458.159 312.742C456.601 314.3 454.335 315.292 451.928 315.292H385.369C382.962 315.292 380.696 314.3 379.138 312.742C377.581 311.184 376.589 308.918 376.589 306.509V245.742C376.589 243.334 377.581 241.068 379.138 239.509C380.696 237.951 382.962 236.96 385.369 236.96H451.928C454.335 236.96 456.601 237.951 458.159 239.509C459.717 241.068 460.708 243.334 460.708 245.742V306.509Z" fill="black"/>
<path d="M435.642 238.235C434.934 242.626 434.226 246.875 433.518 251.266C430.686 267.131 427.287 282.996 423.18 298.577C423.039 299.002 422.472 299.002 422.331 298.577C421.198 295.602 420.206 292.628 419.215 289.653C418.649 292.061 418.082 294.469 417.374 296.877C418.79 299.71 420.206 302.543 421.764 305.376C426.862 282.712 433.235 260.332 440.74 238.518C439.041 238.518 437.342 238.376 435.642 238.235Z" fill="#AE3925"/>
<path d="M397.831 253.25C399.531 252.966 401.23 252.683 402.788 252.4C402.788 252.4 402.788 252.4 402.788 252.258C400.947 252.541 399.248 252.825 397.407 253.108C397.548 253.108 397.69 253.108 397.831 253.25Z" fill="#AE3925"/>
<path d="M398.115 253.958C399.814 258.349 401.655 262.74 403.496 266.989C406.611 274.214 409.869 281.438 413.267 288.52C409.302 276.905 405.903 265.148 402.929 253.25C401.372 253.533 399.814 253.674 398.115 253.958Z" fill="#AE3925"/>
<path d="M417.091 298.152C417.091 298.436 416.949 298.577 416.949 298.861C416.524 297.586 416.1 296.452 415.675 295.178C409.019 281.579 402.788 267.698 397.265 253.674C397.123 253.391 397.265 253.25 397.548 253.25C395.849 253.533 394.008 253.816 392.308 254.099H391.884C400.097 274.78 409.444 294.894 420.065 314.442C420.631 312.034 421.056 309.484 421.622 307.076C420.631 305.093 419.64 303.11 418.507 301.127C417.941 299.994 417.516 299.144 417.091 298.152Z" fill="#AE3925"/>
<path d="M425.588 284.979C429.27 269.539 432.243 253.958 434.651 238.235C432.952 238.093 431.111 237.951 429.411 237.951C426.862 254.949 423.463 271.664 419.498 288.378C420.49 291.353 421.481 294.328 422.614 297.161C423.747 293.053 424.738 288.945 425.588 284.979Z" fill="#AE3925"/>
<path d="M446.546 237.81C442.865 237.527 439.041 237.243 435.359 237.102C435.217 237.102 434.934 237.243 434.934 237.385C434.934 237.668 434.793 237.951 434.793 238.235C432.385 253.958 429.27 269.539 425.729 284.979C424.738 289.087 423.747 293.053 422.755 297.019C421.764 294.044 420.631 291.212 419.64 288.237C416.808 279.738 414.117 271.097 411.71 262.315C410.718 258.774 409.869 255.374 409.019 251.833C409.019 251.55 408.736 251.55 408.452 251.55C406.611 251.833 404.629 252.116 402.788 252.4C401.089 252.683 399.531 252.966 397.831 253.108C397.69 253.108 397.69 252.966 397.548 253.108C397.548 253.108 397.548 253.108 397.407 253.108C397.265 253.108 397.123 253.391 397.123 253.533C402.788 267.556 408.877 281.438 415.533 295.036C415.958 296.028 416.524 297.019 416.949 298.011C417.374 298.861 417.799 299.852 418.224 300.702C419.215 302.685 420.206 304.668 421.339 306.651C422.614 309.059 423.888 311.467 425.163 313.875C425.304 314.159 425.871 314.159 425.871 313.734C430.119 293.761 435.217 273.93 441.307 254.383C443.006 249 444.847 243.476 446.688 238.093C447.113 238.093 446.83 237.81 446.546 237.81ZM428.986 297.019C427.712 302.26 426.579 307.36 425.446 312.601C424.172 310.192 422.897 307.784 421.764 305.518C420.348 302.685 418.79 299.852 417.374 297.019C415.958 294.186 414.683 291.495 413.267 288.662C409.869 281.579 406.611 274.355 403.496 267.131C401.655 262.74 399.814 258.491 398.115 254.099C399.672 253.816 401.372 253.675 402.929 253.391C404.629 253.108 406.47 252.825 408.169 252.541C411.143 264.723 414.683 276.622 418.649 288.52C418.79 288.945 418.932 289.37 419.073 289.795C420.065 292.77 421.056 295.744 422.189 298.719C422.331 299.144 422.897 299.144 423.039 298.719C427.145 283.138 430.544 267.273 433.376 251.408C434.084 247.017 434.793 242.768 435.501 238.376C435.501 238.235 435.501 238.093 435.501 238.093C438.899 238.376 442.44 238.518 445.838 238.801C439.324 257.782 433.66 277.33 428.986 297.019Z" fill="black"/>
<path d="M280.717 259.34C280.717 259.057 280.575 258.916 280.292 258.916C277.035 259.057 273.92 259.199 270.662 259.34C270.096 259.34 270.096 260.19 270.662 260.19C273.778 260.049 276.752 259.907 279.867 259.765C279.442 272.656 279.442 285.546 279.867 298.436C278.734 298.577 277.602 298.719 276.61 298.719C276.327 292.628 276.185 286.395 275.902 280.305C275.761 277.188 275.619 274.072 275.619 270.956C275.619 269.398 275.761 266.14 273.353 266.281C272.645 266.281 272.079 266.706 271.371 266.706C270.662 266.706 269.954 266.281 269.53 265.715C268.397 264.298 268.963 262.315 269.246 260.757C269.388 260.19 268.538 260.049 268.397 260.474C267.83 262.74 267.405 265.431 269.53 266.99C270.379 267.556 271.229 267.698 272.22 267.414C272.928 267.273 273.636 266.848 274.203 267.556C274.628 267.981 274.628 268.689 274.628 269.398C275.052 275.772 275.052 282.146 275.336 288.379C275.477 292.061 275.619 295.603 275.761 299.286C275.761 299.427 275.902 299.71 276.185 299.71C277.602 299.569 278.876 299.427 280.292 299.286C280.575 299.286 280.717 299.144 280.717 298.861C280.151 285.687 280.151 272.514 280.717 259.34Z" fill="#AE3925"/>
<path d="M289.78 250.133C285.532 251.125 281.142 251.408 276.752 250.983C276.185 250.983 276.185 251.691 276.752 251.833C281 252.399 285.249 252.116 289.497 251.125C289.214 264.015 289.072 276.905 288.789 289.795C288.789 292.486 288.931 296.877 285.673 297.869C285.673 290.503 285.532 283.137 285.532 275.772C285.532 272.089 285.532 268.264 285.532 264.581C285.532 261.89 285.673 258.915 283.266 257.216C281.142 255.799 278.168 255.941 275.619 256.224C275.477 254.241 275.336 252.399 275.194 250.416C275.194 249.85 274.344 249.85 274.344 250.416C274.486 252.541 274.628 254.524 274.769 256.649C274.769 256.791 274.911 257.074 275.194 257.074C277.46 256.791 280.151 256.507 282.275 257.641C285.249 259.199 284.682 262.882 284.682 265.715C284.682 272.655 284.824 279.596 284.824 286.679C284.824 290.645 284.824 294.611 284.824 298.577C284.824 298.86 285.107 299.002 285.39 299.002C287.939 298.577 289.214 296.027 289.497 293.761C289.639 292.203 289.639 290.503 289.639 288.803C289.639 287.104 289.639 285.404 289.78 283.704C289.922 276.763 290.063 269.681 290.063 262.74C290.063 258.774 290.205 254.808 290.205 250.841C290.347 250.275 290.063 250.133 289.78 250.133Z" fill="#AE3925"/>
<path d="M318.669 283.279C315.129 282.712 311.306 281.013 310.031 277.471C308.615 273.788 310.031 269.256 313.43 267.131C313.855 266.848 313.43 266.139 313.005 266.423C310.031 268.264 308.473 271.805 308.757 275.205C309.04 278.888 311.447 281.721 314.704 283.137C318.386 284.695 322.635 284.554 326.6 284.27C332.264 283.987 337.929 283.562 343.593 283.137C349.824 282.712 356.055 282.287 362.286 282.004C362.286 283.562 362.286 284.979 362.286 286.537C354.781 286.679 347.275 286.82 339.77 286.82C335.946 286.82 331.981 286.962 328.158 286.962C324.759 286.962 321.36 287.245 317.961 286.82C314.704 286.537 311.447 285.687 309.04 283.562C306.916 281.721 305.641 279.171 305.216 276.338C304.225 270.389 308.332 264.865 313.996 263.448C320.369 261.89 326.883 266.564 328.016 272.939C326.741 273.364 325.325 273.788 324.051 274.213C324.051 269.256 319.094 265.006 314.279 265.998C313.713 266.139 313.996 266.848 314.563 266.848C319.094 265.998 323.768 270.247 323.343 274.922C323.343 275.205 323.626 275.347 323.909 275.347C325.609 274.78 327.166 274.355 328.866 273.788C329.007 273.788 329.149 273.505 329.149 273.364C328.441 267.698 323.484 262.881 317.82 262.457C312.014 262.032 306.066 266.281 304.791 271.947C303.517 277.755 306.632 283.846 312.155 286.254C315.412 287.67 318.953 287.812 322.351 287.812C326.458 287.812 330.565 287.67 334.672 287.67C344.16 287.528 353.648 287.387 363.278 287.245C363.561 287.245 363.703 287.103 363.703 286.82C363.703 284.979 363.703 283.279 363.703 281.438C363.703 281.154 363.561 281.013 363.278 281.013C352.94 281.721 342.602 282.287 332.264 282.996C327.166 283.421 322.918 283.987 318.669 283.279Z" fill="#AE3925"/>
<path d="M362.145 291.495C362.145 291.212 362.003 290.928 361.72 290.928C348.692 292.061 335.521 292.061 322.493 290.928C316.97 290.362 310.881 289.653 306.349 285.971C302.384 282.713 300.118 277.472 300.543 272.372C300.968 266.706 304.933 261.465 310.173 259.199C310.597 259.057 310.456 258.207 309.889 258.349C305.216 260.332 301.676 264.298 300.118 269.256C298.702 274.355 299.835 279.88 302.95 283.987C306.491 288.662 312.014 290.503 317.537 291.353C324.192 292.345 330.99 292.628 337.787 292.77C345.576 292.911 353.365 292.628 361.153 291.92C361.012 293.62 361.295 295.319 362.003 296.877C350.249 295.886 338.637 298.719 327.025 298.719C317.961 298.577 308.048 296.594 301.251 289.937C294.312 283.138 292.613 271.947 297.144 263.307C301.534 254.949 311.306 250.417 320.51 251.833C329.715 253.25 337.221 261.182 338.92 270.247C339.062 271.239 339.203 272.372 339.203 273.364C337.929 273.789 336.654 274.214 335.521 274.639C334.813 266.281 328.158 259.057 320.086 256.932C317.82 256.366 315.412 256.224 313.005 256.508C312.438 256.649 312.722 257.357 313.288 257.357C323.768 255.799 334.247 264.723 334.813 275.205C334.813 275.488 335.097 275.772 335.38 275.63C336.938 275.064 338.354 274.639 339.911 274.072C340.053 274.072 340.195 273.789 340.195 273.647C340.053 264.157 333.68 255.233 324.759 251.975C315.837 248.717 305.216 251.691 299.127 258.916C292.754 266.423 292.188 277.897 297.144 286.112C302.242 294.469 312.155 298.152 321.502 299.144C333.68 300.419 345.859 297.302 358.038 297.444C359.596 297.444 361.154 297.586 362.853 297.727C363.136 297.727 363.419 297.302 363.278 297.161C362.145 295.461 361.862 293.478 362.145 291.495Z" fill="#AE3925"/>
<path d="M943.61 383C943.61 375.776 943.61 368.552 943.61 361.186C942.761 360.336 941.911 359.345 941.203 358.495C941.203 366.144 941.203 373.793 941.203 381.442C941.203 389.516 941.203 397.448 941.203 405.522C941.203 406.939 941.203 408.355 941.203 409.772C941.203 413.313 940.07 416.571 938.087 419.262C939.078 419.262 940.07 419.262 940.919 419.262C942.477 416.571 943.469 413.313 943.61 409.913C943.61 408.638 943.61 407.505 943.61 406.23C943.61 401.414 943.61 396.598 943.61 391.641C943.61 390.082 943.61 388.524 943.61 386.966C943.61 385.833 943.61 384.416 943.61 383Z" fill="black"/>
<path d="M505.599 146.729C505.599 148.429 505.599 150.129 505.599 151.97C505.599 155.653 505.599 159.478 505.599 163.161C505.599 163.727 505.599 164.436 505.599 165.002C505.599 171.518 505.599 177.892 505.599 184.408C505.599 199.281 505.599 214.296 505.599 229.169C505.599 246.167 505.599 263.023 505.599 280.021C505.599 296.736 505.599 313.45 505.599 330.165C505.599 344.33 505.599 358.495 505.599 372.801C505.599 377.617 505.599 382.433 505.599 387.25C505.599 387.816 505.599 388.383 505.599 389.091C505.599 392.632 505.599 396.173 505.599 399.573C505.599 400.14 505.599 400.706 505.599 401.273C505.599 401.414 505.599 401.556 505.599 401.698C505.599 407.789 505.033 414.163 508.148 419.545C509.14 419.545 509.989 419.545 510.981 419.545C507.299 414.163 508.007 407.647 508.007 401.414C508.007 391.924 508.007 382.292 508.007 372.801C508.007 358.778 508.007 344.613 508.007 330.59C508.007 314.159 508.007 297.586 508.007 281.154C508.007 264.44 508.007 247.584 508.007 230.869C508.007 215.854 508.007 200.981 508.007 185.966C508.007 175.059 508.007 164.152 508.007 153.245C508.007 148.429 508.007 143.613 508.007 138.797C508.148 129.732 515.229 122.507 524.292 122.366C525 122.366 525.85 122.366 526.558 122.366C531.94 122.366 537.179 122.366 542.561 122.366C552.19 122.366 561.82 122.366 571.45 122.366C584.337 122.366 597.223 122.366 610.11 122.366C625.404 122.366 640.557 122.366 655.851 122.366C672.562 122.366 689.131 122.366 705.841 122.366C722.835 122.366 739.687 122.366 756.68 122.366C772.966 122.366 789.393 122.366 805.679 122.366C820.406 122.366 835.134 122.366 849.862 122.366C862.041 122.366 874.22 122.366 886.54 122.366C895.178 122.366 903.817 122.366 912.314 122.366C916.42 122.366 920.527 122.366 924.492 122.366C930.44 122.366 935.822 125.057 938.937 130.156C940.92 133.273 941.344 136.814 941.344 140.355C941.344 146.871 941.344 153.529 941.344 160.044C941.344 172.226 941.344 184.266 941.344 196.448C941.344 212.03 941.344 227.611 941.344 243.192C941.344 243.759 941.344 244.184 941.344 244.751C942.194 244.467 942.902 244.184 943.752 243.901C943.752 228.178 943.752 212.455 943.752 196.732C943.752 184.55 943.752 172.226 943.752 160.044C943.752 153.529 943.752 146.871 943.752 140.355C943.752 136.814 943.327 133.273 941.628 130.015C938.371 123.782 931.715 120.099 924.776 119.958C921.094 119.958 917.27 119.958 913.588 119.958C905.091 119.958 896.736 119.958 888.239 119.958C876.202 119.958 864.023 119.958 851.986 119.958C844.764 119.958 837.4 119.958 830.178 119.958C828.337 119.958 826.354 119.958 824.513 119.958C818.849 119.958 813.184 119.958 807.52 119.958C791.092 119.958 774.665 119.958 758.238 119.958C741.103 119.958 723.968 119.958 706.832 119.958C689.98 119.958 673.27 119.958 656.418 119.958C641.124 119.958 625.688 119.958 610.393 119.958C597.365 119.958 584.337 119.958 571.308 119.958C561.678 119.958 552.049 119.958 542.277 119.958C537.038 119.958 531.798 119.958 526.558 119.958C525.567 119.958 524.434 119.958 523.301 119.958C513.53 120.666 505.883 128.882 505.741 138.655C505.741 140.639 505.741 142.763 505.741 144.746C505.599 145.313 505.599 146.021 505.599 146.729Z" fill="black"/>
<path d="M910.897 366.569C910.897 373.509 910.897 380.309 910.897 387.249C910.897 388.524 910.897 389.657 910.897 390.932C910.756 398.723 904.667 404.956 896.878 405.097C894.47 405.097 892.205 405.097 889.797 405.097C883.283 405.097 876.769 405.097 870.396 405.097C860.625 405.097 850.853 405.097 841.224 405.097C829.045 405.097 816.866 405.097 804.687 405.097C790.809 405.097 777.073 405.097 763.195 405.097C748.75 405.097 734.164 405.097 719.719 405.097C705.275 405.097 690.83 405.097 676.527 405.097C663.074 405.097 649.62 405.097 636.026 405.097C624.272 405.097 612.659 405.097 600.905 405.097C591.842 405.097 582.637 405.097 573.574 405.097C567.909 405.097 562.386 405.097 556.722 405.097C555.447 405.097 554.173 405.097 552.898 405.097C548.083 405.097 543.693 403.114 540.861 399.148C537.604 394.615 538.312 388.808 538.312 383.567C538.312 375.351 538.312 367.135 538.312 358.92C538.312 346.879 538.312 334.698 538.312 322.657C538.312 308.493 538.312 294.328 538.312 280.163C538.312 265.715 538.312 251.408 538.312 236.96C538.312 224.07 538.312 211.18 538.312 198.29C538.312 188.941 538.312 179.45 538.312 170.101C538.312 165.994 538.312 161.886 538.312 157.778C538.454 149.987 544.543 143.755 552.332 143.613C553.04 143.613 553.606 143.613 554.314 143.613C558.846 143.613 563.519 143.613 568.051 143.613C576.265 143.613 584.62 143.613 592.833 143.613C603.879 143.613 615.067 143.613 626.113 143.613C639.141 143.613 652.311 143.613 665.34 143.613C679.643 143.613 693.945 143.613 708.248 143.613C722.835 143.613 737.421 143.613 752.007 143.613C766.027 143.613 780.047 143.613 794.066 143.613C806.67 143.613 819.415 143.613 832.019 143.613C842.498 143.613 852.978 143.613 863.457 143.613C870.821 143.613 878.326 143.613 885.69 143.613C889.231 143.613 892.771 143.613 896.17 143.613C901.268 143.613 905.941 145.879 908.632 150.271C910.331 152.962 910.614 155.937 910.614 159.053C910.614 164.719 910.614 170.385 910.614 176.051C910.614 186.533 910.614 196.873 910.614 207.355C910.614 220.812 910.614 234.127 910.614 247.583C910.614 250.558 910.614 253.674 910.614 256.649C911.322 256.366 912.03 256.082 912.739 255.799C912.739 253.249 912.739 250.841 912.739 248.292C912.739 234.693 912.739 221.095 912.739 207.497C912.739 197.015 912.739 186.391 912.739 175.909C912.739 170.243 912.739 164.577 912.739 158.911C912.739 155.795 912.314 152.82 910.897 149.987C908.065 144.605 902.401 141.488 896.453 141.347C893.196 141.347 890.08 141.347 886.823 141.347C879.601 141.347 872.237 141.347 865.015 141.347C854.677 141.347 844.198 141.347 833.86 141.347C821.115 141.347 808.369 141.347 795.624 141.347C781.463 141.347 767.443 141.347 753.282 141.347C738.554 141.347 723.826 141.347 709.098 141.347C694.654 141.347 680.209 141.347 665.764 141.347C652.594 141.347 639.283 141.347 626.113 141.347C614.925 141.347 603.596 141.347 592.409 141.347C584.053 141.347 575.84 141.347 567.485 141.347C562.953 141.347 558.421 141.347 554.031 141.347C553.182 141.347 552.19 141.347 551.341 141.347C542.844 141.913 536.33 148.996 536.33 157.495C536.33 161.319 536.33 165.144 536.33 168.968C536.33 178.317 536.33 187.524 536.33 196.873C536.33 209.763 536.33 222.512 536.33 235.402C536.33 249.991 536.33 264.581 536.33 279.171C536.33 293.478 536.33 307.926 536.33 322.233C536.33 334.414 536.33 346.596 536.33 358.92C536.33 367.135 536.33 375.493 536.33 383.708C536.33 389.091 535.763 394.615 538.595 399.431C541.569 404.389 546.951 407.222 552.615 407.222C553.748 407.222 554.739 407.222 555.872 407.222C561.254 407.222 566.635 407.222 572.016 407.222C581.079 407.222 590.001 407.222 599.064 407.222C610.818 407.222 622.572 407.222 634.326 407.222C647.921 407.222 661.374 407.222 674.969 407.222C689.555 407.222 704.142 407.222 718.728 407.222C733.456 407.222 748.183 407.222 762.77 407.222C776.648 407.222 790.526 407.222 804.404 407.222C816.725 407.222 829.045 407.222 841.365 407.222C851.137 407.222 860.908 407.222 870.679 407.222C877.193 407.222 883.566 407.222 890.08 407.222C892.346 407.222 894.47 407.222 896.736 407.222C905.658 407.08 912.738 399.998 912.88 391.074C912.88 390.082 912.88 388.949 912.88 387.958C912.88 381.3 912.88 374.643 912.88 367.985C912.88 356.653 912.88 345.463 912.88 334.131C912.88 323.932 912.88 313.592 912.88 303.393C912.172 303.676 911.464 303.96 910.756 304.243C910.756 313.734 910.756 323.224 910.756 332.715C910.898 344.046 910.897 355.237 910.897 366.569Z" fill="black"/>
<path d="M938.087 419.404C932.564 419.404 927.041 419.404 921.519 419.404C903.817 419.404 886.257 419.404 868.555 419.404C847.03 419.404 825.504 419.404 803.979 419.404C780.471 419.404 756.964 419.404 733.456 419.404C709.523 419.404 685.732 419.404 661.799 419.404C639.707 419.404 617.616 419.404 595.382 419.404C576.689 419.404 557.855 419.404 539.162 419.404C529.815 419.404 520.327 419.404 510.981 419.404C509.989 419.404 509.14 419.404 508.148 419.404C505.033 419.404 501.917 419.404 498.66 419.404C492.288 419.404 485.915 419.262 479.542 419.404C479.259 419.404 478.976 419.404 478.693 419.404C478.126 419.404 477.702 419.829 477.702 420.395C477.702 421.528 477.843 422.662 477.985 423.653C477.985 424.22 478.126 424.786 478.268 425.353C480.392 437.535 490.305 447.592 502.767 449.575C505.175 450 507.582 450 510.131 450C517.92 450 525.85 450 533.639 450C547.942 450 562.386 450 576.689 450C595.524 450 614.359 450 633.335 450C655.002 450 676.527 450 698.194 450C720.427 450 742.802 450 765.035 450C786.278 450 807.52 450 828.62 450C846.747 450 864.873 450 883.141 450C896.311 450 909.481 450 922.651 450C928.882 450 935.113 450.142 941.486 450C941.769 450 942.053 450 942.336 450C958.48 449.858 971.933 436.685 971.933 420.395C971.933 419.829 971.508 419.404 970.942 419.404C966.552 419.404 962.162 419.404 957.63 419.404C952.249 419.404 946.867 419.404 941.344 419.404C940.07 419.404 939.079 419.404 938.087 419.404ZM963.153 421.387C965.277 421.387 967.401 421.67 969.526 421.387C968.959 436.118 956.639 447.734 942.052 448.017C937.804 448.017 933.556 448.017 929.307 448.017C917.837 448.017 906.366 448.017 894.895 448.017C878.043 448.017 861.191 448.017 844.339 448.017C823.947 448.017 803.554 448.017 783.02 448.017C761.07 448.017 738.979 448.017 717.029 448.017C695.22 448.017 673.412 448.017 651.745 448.017C631.919 448.017 612.234 448.017 592.409 448.017C576.689 448.017 560.829 448.017 545.11 448.017C535.055 448.017 525.142 448.017 515.088 448.017C512.822 448.017 510.556 448.017 508.29 448.017C500.785 448.017 493.562 445.467 488.039 440.226C482.941 435.268 480.109 428.469 479.826 421.529C483.933 421.529 487.898 421.529 492.004 421.529C503.9 421.529 515.796 421.529 527.691 421.529C545.393 421.529 562.953 421.529 580.655 421.529C602.18 421.529 623.705 421.529 645.23 421.529C668.738 421.529 692.246 421.529 715.754 421.529C739.687 421.529 763.478 421.529 787.411 421.529C809.502 421.529 831.594 421.529 853.827 421.529C872.52 421.529 891.355 421.529 910.048 421.529C923.501 421.529 936.954 421.529 950.549 421.529C954.798 421.387 958.905 421.387 963.153 421.387Z" fill="black"/>
<path d="M870.679 232.285C870.679 227.328 870.821 222.653 867.28 218.545C862.324 213.021 854.394 214.154 847.596 214.154C836.834 214.154 825.929 214.154 815.167 214.154C799.448 214.154 783.728 214.154 768.151 214.154C750.449 214.154 732.889 214.154 715.188 214.154C698.336 214.154 681.342 214.154 664.49 214.154C651.32 214.154 638.291 214.154 625.121 214.154C618.465 214.154 611.951 214.154 605.295 214.154C599.206 214.154 593.541 217.554 591.559 223.503C590.426 227.044 590.992 231.294 590.992 234.835C590.992 250.558 590.992 266.281 590.992 282.004C590.992 293.903 590.992 305.66 590.992 317.558C590.992 325.207 596.94 331.298 604.587 331.298C606.145 331.298 607.844 331.298 609.402 331.298C618.607 331.298 627.812 331.298 637.158 331.298C651.886 331.298 666.614 331.298 681.342 331.298C698.76 331.298 716.32 331.298 733.739 331.298C751.016 331.298 768.434 331.298 785.711 331.298C800.014 331.298 814.317 331.298 828.62 331.298C837.117 331.298 845.472 331.298 853.969 331.298C855.102 331.298 856.235 331.298 857.368 331.298C859.067 331.298 860.766 330.873 862.324 330.306C862.182 329.74 862.182 329.173 862.041 328.748C860.625 329.315 859.067 329.74 857.368 329.74C852.977 329.74 848.446 329.74 844.056 329.74C832.444 329.74 820.973 329.74 809.361 329.74C793.5 329.74 777.639 329.74 761.778 329.74C744.36 329.74 726.8 329.74 709.381 329.74C692.954 329.74 676.527 329.74 660.241 329.74C647.779 329.74 635.317 329.74 622.714 329.74C616.766 329.74 610.818 329.74 605.012 329.74C598.215 329.74 592.692 324.64 592.692 317.7C592.692 313.875 592.692 310.192 592.692 306.368C592.692 290.22 592.692 273.93 592.692 257.782C592.692 247.725 592.55 237.526 592.692 227.469C592.833 220.953 597.931 215.712 604.587 215.571C604.871 215.571 605.295 215.571 605.579 215.571C607.844 215.571 610.11 215.571 612.376 215.571C622.431 215.571 632.485 215.571 642.54 215.571C657.551 215.571 672.562 215.571 687.714 215.571C705.133 215.571 722.41 215.571 739.828 215.571C756.68 215.571 773.532 215.571 790.384 215.571C804.121 215.571 817.716 215.571 831.452 215.571C839.241 215.571 847.03 215.571 854.818 215.571C857.651 215.571 860.341 215.571 862.89 216.987C866.856 219.112 869.121 223.22 869.121 227.753C869.121 229.027 869.121 230.302 869.121 231.719C869.121 246.167 869.121 260.757 869.121 275.205C869.121 281.296 869.121 287.387 869.121 293.336C869.688 292.628 870.254 291.92 870.679 291.353C870.679 278.038 870.679 264.581 870.679 251.266C870.679 245.034 870.679 238.66 870.679 232.285Z" fill="black"/>
<path d="M835.701 227.328H757.53C751.157 227.328 746.059 232.427 746.059 238.801V310.192C746.059 316.567 751.157 321.666 757.53 321.666H835.701C842.073 321.666 847.171 316.567 847.171 310.192V238.801C847.03 232.427 841.932 227.328 835.701 227.328ZM846.038 310.192C846.038 313.025 844.906 315.575 843.065 317.558C841.224 319.4 838.675 320.533 835.701 320.533H757.53C754.698 320.533 752.149 319.4 750.166 317.558C748.184 315.717 747.192 313.167 747.192 310.192V238.801C747.192 235.968 748.325 233.419 750.166 231.435C752.007 229.594 754.556 228.461 757.53 228.461H835.701C838.533 228.461 841.082 229.594 843.065 231.435C844.906 233.277 846.038 235.827 846.038 238.801V310.192V310.192Z" fill="black"/>
<path d="M816.441 229.877C815.592 234.977 814.742 240.076 813.892 245.176C810.635 263.873 806.528 282.571 801.713 300.985C801.572 301.552 800.864 301.41 800.722 300.985C799.448 297.586 798.315 294.044 797.04 290.503C796.332 293.336 795.624 296.169 794.916 299.002C796.615 302.402 798.315 305.66 800.014 309.059C805.962 282.429 813.467 256.083 822.389 230.302C820.406 230.161 818.424 230.019 816.441 229.877Z" fill="#AE3925"/>
<path d="M794.633 300.419C794.633 300.702 794.491 300.985 794.491 301.269C793.925 299.852 793.5 298.436 792.933 296.877C785.003 280.871 777.781 264.581 771.266 248.008C771.125 247.725 771.266 247.442 771.55 247.442C769.425 247.725 767.443 248.008 765.319 248.433L764.894 248.292C774.524 272.514 785.569 296.311 798.031 319.258C798.598 316.425 799.306 313.45 799.872 310.617C798.739 308.351 797.465 306.085 796.332 303.818C795.766 302.543 795.199 301.552 794.633 300.419Z" fill="#AE3925"/>
<path d="M771.975 247.442C773.957 247.158 775.94 246.875 777.922 246.592V246.45C775.798 246.733 773.816 247.017 771.691 247.442C771.691 247.442 771.833 247.442 771.975 247.442Z" fill="#AE3925"/>
<path d="M804.687 284.837C808.936 266.706 812.476 248.292 815.45 229.736C813.326 229.594 811.343 229.452 809.219 229.311C806.103 249.283 802.28 268.973 797.465 288.52C798.598 292.061 799.872 295.461 801.147 298.86C802.421 294.328 803.554 289.653 804.687 284.837Z" fill="#AE3925"/>
<path d="M778.064 247.583C776.223 247.867 774.24 248.15 772.399 248.433C774.524 253.674 776.648 258.774 778.772 264.015C782.454 272.514 786.278 280.871 790.243 289.228C785.57 275.347 781.604 261.465 778.064 247.583Z" fill="#AE3925"/>
<path d="M829.328 229.311C824.938 229.028 820.548 228.744 816.158 228.461C816.016 228.461 815.733 228.603 815.733 228.886C815.733 229.169 815.592 229.594 815.592 229.877C812.759 248.292 809.077 266.706 804.829 284.979C803.696 289.795 802.563 294.469 801.289 299.144C800.014 295.744 798.881 292.203 797.607 288.803C794.208 278.746 791.092 268.548 788.26 258.349C787.127 254.241 786.136 250.133 785.145 246.025C785.145 245.742 784.861 245.6 784.578 245.742C782.312 246.025 780.188 246.45 777.922 246.734C775.94 247.017 774.099 247.3 772.116 247.584C772.116 247.584 772.116 247.584 771.975 247.584C771.833 247.584 771.691 247.442 771.55 247.442C771.55 247.442 771.55 247.442 771.408 247.442C771.125 247.442 770.983 247.725 771.125 248.009C777.639 264.581 785.003 280.871 792.792 296.877C793.358 298.011 793.925 299.285 794.491 300.419C795.058 301.552 795.624 302.685 796.19 303.677C797.323 305.943 798.456 308.209 799.731 310.476C801.147 313.309 802.705 316.142 804.262 318.975C804.404 319.4 805.112 319.258 805.112 318.833C807.52 307.076 810.352 295.319 813.326 283.704C816.3 272.089 819.698 260.615 823.239 249.142C825.221 242.626 827.346 236.252 829.611 229.877C829.895 229.594 829.611 229.311 829.328 229.311ZM817.857 264.015C814.459 275.488 811.485 287.104 808.653 298.719C807.236 304.951 805.82 311.042 804.546 317.275C802.988 314.442 801.572 311.751 800.156 308.918C798.456 305.518 796.757 302.26 795.058 298.861C793.5 295.603 791.8 292.345 790.243 289.087C786.278 280.729 782.454 272.372 778.772 263.873C776.506 258.774 774.382 253.533 772.399 248.292C774.24 248.008 776.223 247.725 778.064 247.442C780.188 247.159 782.171 246.875 784.295 246.45C787.835 260.757 791.942 274.922 796.615 288.803C796.757 289.37 797.04 289.795 797.182 290.362C798.315 293.903 799.589 297.302 800.864 300.844C801.005 301.269 801.713 301.41 801.855 300.844C806.67 282.429 810.635 263.873 814.034 245.034C814.884 239.935 815.733 234.835 816.583 229.736C816.583 229.594 816.583 229.452 816.583 229.311C820.69 229.594 824.655 229.877 828.762 230.161C824.796 241.493 821.256 252.683 817.857 264.015Z" fill="black"/>
<path d="M633.901 265.006C634.043 261.607 634.043 258.066 634.185 254.666C634.185 254.383 633.901 254.099 633.76 254.241C629.936 254.383 626.254 254.524 622.431 254.666C621.864 254.666 621.723 255.658 622.431 255.658C625.971 255.516 629.653 255.374 633.193 255.233C632.768 267.131 632.627 279.03 632.91 290.786C633.052 294.044 633.052 297.444 633.193 300.702C631.919 300.844 630.644 300.985 629.37 301.127C629.086 293.903 628.803 286.82 628.52 279.596C628.378 275.913 628.237 272.372 628.095 268.689C627.954 266.706 628.237 262.598 625.263 262.882C624.413 262.882 623.705 263.448 622.855 263.448C622.006 263.448 621.156 262.882 620.731 262.173C619.598 260.474 620.165 258.207 620.59 256.366C620.731 255.799 619.74 255.516 619.598 256.082C619.032 258.632 618.465 262.032 621.014 263.873C622.147 264.723 623.28 264.44 624.555 264.156C625.404 263.873 626.113 263.873 626.537 264.723C626.962 265.431 626.962 266.14 626.962 266.848C627.245 274.214 627.529 281.721 627.812 289.087C627.954 293.336 628.095 297.444 628.237 301.693C628.237 301.977 628.52 302.26 628.662 302.118C630.219 301.977 631.919 301.835 633.477 301.693C633.76 301.693 634.043 301.552 633.901 301.269C633.76 289.087 633.618 277.047 633.901 265.006Z" fill="#AE3925"/>
<path d="M644.947 243.901C639.991 245.176 634.751 245.459 629.653 244.892C629.086 244.751 629.086 245.742 629.653 245.884C634.609 246.45 639.707 246.167 644.664 245.034C644.381 260.049 644.097 275.205 643.956 290.22C643.956 292.203 644.097 294.328 643.531 296.169C643.106 297.727 641.973 299.427 640.274 299.852C640.274 291.212 640.132 282.571 640.132 273.93C640.132 269.539 640.132 265.148 640.132 260.899C640.132 257.641 640.415 253.816 637.3 251.833C634.751 250.275 631.352 250.417 628.52 250.7C628.378 248.434 628.095 246.167 627.953 243.901C627.953 243.334 626.962 243.334 626.962 243.901C627.104 246.309 627.387 248.717 627.529 251.267C627.529 251.55 627.812 251.833 627.953 251.691C630.644 251.267 633.76 251.125 636.167 252.258C639.707 253.958 638.999 258.207 639.141 261.465C639.141 269.681 639.283 277.897 639.283 286.254C639.283 290.928 639.283 295.744 639.424 300.419C639.424 300.702 639.707 300.985 639.849 300.844C642.965 300.419 644.522 297.444 644.805 294.611C645.089 292.628 644.947 290.645 644.947 288.804C644.947 286.679 644.947 284.696 645.089 282.571C645.23 274.355 645.372 266.281 645.514 258.066C645.655 253.391 645.655 248.717 645.797 244.184C645.514 244.042 645.23 243.901 644.947 243.901Z" fill="#AE3925"/>
<path d="M678.793 282.854C674.544 282.146 670.296 280.163 668.738 275.913C667.18 271.664 668.738 266.281 672.703 263.873C673.27 263.59 672.703 262.74 672.137 263.023C668.597 265.148 666.756 269.398 667.18 273.505C667.605 277.897 670.579 281.154 674.544 282.713C678.934 284.412 683.891 284.271 688.564 283.987C695.22 283.562 701.734 283.138 708.39 282.713C715.612 282.288 722.835 281.721 730.057 281.296C730.057 282.996 730.057 284.837 730.057 286.537C721.135 286.679 712.072 286.82 703.15 286.962C698.619 286.962 694.087 287.104 689.555 287.104C685.449 287.104 681.342 287.387 677.377 286.962C673.695 286.537 670.013 285.546 667.18 282.996C664.773 280.729 663.215 277.613 662.79 274.355C661.941 267.414 666.614 261.182 673.27 259.624C680.775 257.782 688.422 263.307 689.697 270.814C688.139 271.239 686.581 271.806 685.024 272.231C685.165 266.423 679.218 261.465 673.553 262.457C672.987 262.598 673.128 263.59 673.836 263.448C679.218 262.457 684.599 267.556 684.032 272.939C684.032 273.222 684.316 273.505 684.599 273.364C686.581 272.797 688.422 272.231 690.405 271.664C690.547 271.664 690.83 271.381 690.83 271.239C689.98 264.44 684.032 258.774 677.093 258.349C670.154 257.924 663.357 263.023 661.941 269.964C660.666 276.905 664.348 283.846 670.862 286.537C674.544 288.095 678.793 288.379 682.758 288.379C687.573 288.379 692.388 288.237 697.061 288.237C708.248 288.095 719.436 287.954 730.623 287.812C730.907 287.812 731.048 287.529 731.048 287.387C731.048 285.262 731.048 283.138 731.048 281.154C731.048 280.871 730.765 280.588 730.623 280.73C718.445 281.579 706.124 282.288 693.945 283.138C688.847 282.996 683.749 283.562 678.793 282.854Z" fill="#AE3925"/>
<path d="M730.057 292.628C730.057 292.345 729.915 291.92 729.632 292.061C714.055 293.478 698.477 293.336 683.041 291.92C676.527 291.353 669.446 290.362 664.348 286.112C659.675 282.146 657.126 276.055 657.692 269.964C658.4 263.307 662.932 257.216 669.021 254.666C669.588 254.383 669.305 253.533 668.738 253.675C663.215 255.941 658.967 260.757 657.268 266.565C655.568 272.514 656.984 279.03 660.666 283.846C664.773 289.228 671.287 291.495 677.801 292.345C685.59 293.478 693.662 293.761 701.451 293.903C710.656 294.045 719.719 293.761 728.782 293.053C728.499 295.036 728.924 297.161 729.774 299.002C715.896 297.869 702.159 301.269 688.281 301.127C677.518 300.985 665.906 298.436 657.976 290.645C649.904 282.571 648.063 269.398 653.444 259.341C658.684 249.708 670.296 244.326 681.059 246.026C691.821 247.867 700.601 257.074 702.442 267.698C702.725 268.973 702.725 270.106 702.725 271.381C701.309 271.806 699.752 272.372 698.335 272.797C697.627 262.882 689.697 254.524 680.209 251.975C677.518 251.267 674.686 251.125 671.854 251.55C671.287 251.691 671.429 252.541 672.137 252.541C681.625 251.125 691.255 257.074 695.362 265.573C696.494 267.981 697.203 270.672 697.344 273.505C697.344 273.789 697.627 274.072 697.911 273.93C699.752 273.364 701.451 272.797 703.292 272.089C703.434 272.089 703.717 271.806 703.717 271.664C703.575 260.474 696.07 249.992 685.59 246.167C675.252 242.343 662.649 245.884 655.568 254.241C648.063 263.023 647.213 276.622 653.302 286.396C659.392 296.311 671.004 300.56 682.05 301.694C696.353 303.252 710.514 299.569 724.817 299.711C726.658 299.711 728.641 299.852 730.482 299.994C730.907 299.994 731.048 299.569 730.907 299.286C730.057 297.161 729.632 294.894 730.057 292.628Z" fill="#AE3925"/>
<path d="M960.745 318.125C962.303 317.133 964.144 316.567 965.844 316.425C965.56 315.858 965.135 315.292 964.711 314.725C964.003 314.867 963.153 315.008 962.445 315.292C962.728 314.583 963.011 313.734 963.294 312.884C962.87 312.317 962.303 311.75 961.737 311.184C961.312 313.167 960.462 315.008 959.471 316.708C958.904 317.558 959.896 318.55 960.745 318.125Z" fill="black"/>
<path d="M913.588 338.664C921.518 343.48 929.874 347.588 938.512 350.704C938.654 350.421 938.795 350.137 939.079 349.854C939.362 349.571 939.645 349.288 939.928 349.146C931.29 346.03 923.076 342.063 915.287 337.247C919.111 324.357 922.793 311.467 926.617 298.436C925.908 298.577 925.2 298.719 924.492 299.002C920.81 311.751 916.987 324.641 913.305 337.389C913.022 337.956 913.163 338.381 913.588 338.664Z" fill="black"/>
<path d="M936.813 332.431C936.388 332.998 936.954 333.848 937.662 333.848C945.026 333.565 952.39 334.698 959.188 337.106C959.613 336.539 959.896 335.973 960.321 335.406C953.665 332.998 946.584 331.723 939.503 331.865C945.31 323.224 948.567 313.167 949.275 302.968C948.708 302.685 948 302.402 947.434 302.118C946.867 313.025 943.185 323.507 936.813 332.431Z" fill="black"/>
<path d="M1010.88 235.827C1002.24 235.827 993.458 235.968 984.82 236.252C978.447 236.535 971.933 236.535 965.702 237.668C958.196 238.943 950.833 241.351 943.61 243.901C942.761 244.184 942.052 244.467 941.203 244.751C941.061 244.751 940.92 244.892 940.778 244.892C932.564 247.867 924.351 250.983 916.279 254.383C915.146 254.808 914.155 255.233 913.022 255.799C912.314 256.082 911.606 256.366 910.897 256.649C910.189 256.932 909.481 257.216 908.773 257.641C906.791 258.49 905.516 259.482 903.675 260.899C893.337 268.973 883.283 277.471 874.503 287.104C873.228 288.52 871.954 290.078 870.679 291.636C870.113 292.345 869.546 292.911 869.121 293.619C867.564 295.603 866.148 297.727 864.873 299.994C862.89 303.252 861.05 307.076 860.766 310.901C860.341 316.425 861.049 322.233 861.899 327.757C861.899 328.182 862.041 328.607 862.041 329.032C862.182 329.598 862.182 330.165 862.324 330.59C863.74 339.939 866.148 349.146 869.546 358.07C870.113 357.786 870.679 357.645 871.387 357.645C870.254 354.67 869.263 351.554 868.413 348.438C865.439 338.381 863.599 328.04 863.032 317.558C862.89 315.433 862.749 313.309 862.89 311.184C863.032 307.926 864.59 304.81 866.148 301.977C871.812 291.636 880.875 282.996 889.655 275.205C894.612 270.814 899.71 266.564 904.95 262.457C906.791 261.04 908.065 260.049 910.048 259.199C924.917 252.825 940.07 246.734 955.506 242.201C962.162 240.218 968.676 239.085 975.615 238.66C983.262 238.235 990.909 238.093 998.556 237.951C1015.69 237.668 1032.97 237.81 1050.1 237.951C1050.1 237.243 1050.1 236.677 1050.25 235.968C1036.93 235.827 1023.91 235.827 1010.88 235.827Z" fill="black"/>
<path d="M1048.12 332.006C1041.32 333.848 1034.81 336.681 1029.14 340.647C1023.2 344.755 1017.96 349.854 1012.29 354.529C1000.4 364.161 985.528 374.926 969.384 374.359C967.118 374.218 964.711 374.076 962.728 373.226C961.029 372.518 959.471 371.526 958.055 370.535C954.231 367.985 950.549 365.152 947.151 362.036C945.451 360.478 943.752 358.636 942.194 356.795C941.344 355.662 940.07 354.104 940.07 352.546C939.928 348.438 949.841 350.562 951.682 350.846C952.107 350.987 952.532 350.846 952.815 350.421C954.656 347.588 956.639 344.755 958.48 341.922C960.321 339.231 962.02 336.539 963.861 333.848C965.419 331.298 967.401 328.89 968.676 326.199C971.65 319.683 966.976 313.309 962.303 309.059C955.931 303.393 947.859 299.427 939.787 297.444C936.246 296.594 932.423 295.886 928.741 296.311C924.634 296.736 920.527 298.577 916.562 300.135C911.747 302.118 906.932 304.102 902.259 306.51C898.294 308.493 894.329 310.759 890.93 313.45C889.797 314.3 888.806 315.292 887.956 316.567C887.106 318.125 887.39 319.541 887.39 321.241C887.956 327.757 888.664 334.414 889.372 340.93C889.939 346.738 890.505 352.546 890.222 358.353C890.08 362.603 889.514 367.419 886.682 370.818C885.549 372.235 883.849 373.51 882.008 373.935C879.034 374.643 877.193 371.243 876.061 368.977C874.503 365.861 873.087 362.744 871.812 359.345C871.246 359.345 870.821 359.486 870.396 359.628C870.254 359.628 870.113 359.77 869.971 359.77C870.538 361.186 871.104 362.603 871.671 364.019C873.37 367.985 875.919 376.059 881.3 375.776C884.982 375.634 888.098 372.376 889.655 369.402C891.638 365.436 892.063 360.761 892.063 356.512C892.204 350.562 891.496 344.613 890.93 338.664C890.647 335.264 890.222 332.006 889.797 328.607C889.655 327.049 889.514 325.349 889.372 323.791C889.231 322.233 888.806 320.391 888.947 318.833C889.231 316.142 893.054 314.017 895.037 312.6C899.993 309.343 905.375 306.651 910.756 304.243C911.464 303.96 912.172 303.677 912.88 303.393C916.279 301.977 919.678 300.702 923.076 299.569C923.36 299.427 923.784 299.285 924.068 299.285C924.776 299.002 925.484 298.861 926.192 298.719C928.599 298.152 931.007 298.011 933.697 298.294C937.804 298.861 941.911 299.994 945.734 301.552C946.159 301.694 946.584 301.977 947.151 302.118C947.717 302.402 948.425 302.685 948.992 302.968C953.523 305.093 958.055 307.784 961.595 311.184C962.162 311.751 962.586 312.317 963.153 312.884C963.578 313.45 964.144 314.017 964.569 314.725C964.994 315.292 965.419 315.858 965.702 316.425C967.26 319.258 967.968 322.516 966.552 325.491C965.277 328.182 963.295 330.732 961.737 333.14C961.17 333.989 960.745 334.698 960.179 335.548C959.754 336.114 959.471 336.681 959.046 337.247C958.196 338.664 957.205 339.939 956.355 341.355C954.656 343.905 952.957 346.455 951.257 349.004C948.567 348.579 945.734 348.154 943.044 348.438C941.911 348.579 940.636 348.721 939.787 349.429C939.503 349.571 939.22 349.854 938.937 350.137C938.654 350.421 938.512 350.704 938.371 350.987C937.238 353.254 939.22 356.37 940.636 358.07C940.778 358.353 941.061 358.495 941.203 358.778C941.911 359.77 942.761 360.62 943.61 361.469C945.876 363.736 948.283 365.861 950.832 367.844C954.09 370.393 957.63 373.085 961.454 374.926C963.294 375.776 965.277 376.201 967.26 376.484C971.083 376.909 975.048 376.343 978.447 375.634C978.589 375.634 978.872 375.493 979.014 375.493C987.086 373.651 994.591 369.543 1001.53 365.011C1008.33 360.478 1014.56 355.378 1020.79 350.137C1020.93 349.996 1021.21 349.713 1021.36 349.571C1024.05 347.304 1026.6 345.038 1029.43 343.055C1030.84 342.063 1032.26 341.214 1033.68 340.364C1036.51 338.664 1039.48 337.247 1042.6 336.114C1044.44 335.406 1046.28 334.839 1047.98 334.414C1048.12 333.281 1048.12 332.715 1048.12 332.006Z" fill="black"/>
<path d="M1369.58 193.473C1345.93 196.731 1322.14 199.989 1298.49 203.247C1273.15 206.788 1247.94 210.33 1222.59 213.729C1198.8 216.987 1175.15 220.245 1151.36 223.503C1144.28 224.495 1137.05 225.345 1129.97 226.336C1130.26 226.619 1130.4 227.044 1130.4 227.469C1130.4 227.894 1130.26 228.177 1130.26 228.602C1136.2 227.753 1142.29 227.044 1148.24 226.194C1171.32 223.078 1194.41 219.962 1217.35 216.704C1242.13 213.304 1266.77 209.905 1291.41 206.364C1314.92 203.106 1338.43 199.848 1361.8 196.731C1363.35 196.448 1365.05 196.306 1366.61 196.023C1367.74 195.881 1368.88 195.74 1370.01 195.598C1371.71 195.457 1371 193.19 1369.58 193.473Z" fill="black"/>
<path d="M1252.19 383.992C1233.92 379.742 1215.65 375.351 1197.38 370.96C1181.52 367.135 1165.66 363.169 1149.8 358.92C1143.29 357.22 1136.91 355.52 1130.54 353.679C1128.42 353.112 1126.29 352.545 1124.03 351.837C1124.03 352.687 1124.17 353.537 1124.17 354.387C1124.31 354.387 1124.45 354.528 1124.59 354.528C1130.68 356.228 1136.63 357.928 1142.72 359.486C1158.15 363.594 1173.59 367.419 1189.03 371.243C1207.15 375.776 1225.28 380.025 1243.55 384.275C1262.38 388.666 1281.36 393.057 1300.19 397.307C1317.47 401.131 1334.89 404.956 1352.31 408.638C1354.29 409.063 1356.13 409.488 1358.11 409.913C1359.67 410.197 1360.24 407.93 1358.68 407.647C1350.75 405.947 1342.82 404.247 1334.75 402.548C1325.68 400.564 1316.76 398.581 1307.84 396.598C1289.29 392.49 1270.74 388.241 1252.19 383.992Z" fill="black"/>
<path d="M1126.57 256.082C1127.57 246.875 1128.84 237.81 1130.26 228.744C1130.26 228.319 1130.4 228.036 1130.4 227.611C1130.54 227.186 1130.26 226.761 1129.97 226.478C1129.83 226.336 1129.55 226.195 1129.27 226.195C1123.18 226.195 1117.09 226.195 1111 226.053C1109.58 226.053 1108.17 225.911 1106.75 225.911C1088.48 225.345 1070.07 224.07 1051.94 222.087C1051.24 221.945 1050.81 222.653 1050.81 223.22C1050.53 227.611 1050.25 231.86 1049.96 236.252C1049.96 236.96 1049.96 237.526 1049.82 238.235C1048.12 266.564 1047.55 294.894 1047.98 323.224C1047.98 326.199 1048.12 329.315 1048.12 332.29C1048.12 332.998 1048.12 333.564 1048.12 334.273C1048.26 340.08 1048.4 345.888 1048.69 351.554C1048.69 351.837 1048.83 351.979 1048.83 352.121C1048.97 352.404 1049.4 352.687 1049.82 352.687C1074.32 352.262 1098.54 357.503 1123.03 357.078C1123.6 357.078 1124.31 356.512 1124.17 355.945C1124.17 355.52 1124.17 355.095 1124.17 354.67C1124.17 353.82 1124.03 352.97 1124.03 352.121C1123.88 350.421 1123.88 348.721 1123.74 347.021C1123.32 339.797 1123.18 332.431 1123.03 325.207C1122.89 301.977 1124.03 278.888 1126.57 256.082ZM1120.77 327.332C1120.91 336.397 1121.19 345.463 1121.76 354.529C1098.11 354.812 1074.6 349.996 1050.95 350.137C1049.68 317.275 1049.96 284.271 1051.38 251.408C1051.8 242.343 1052.37 233.419 1052.94 224.353C1077.86 227.044 1102.78 228.461 1127.85 228.461C1122.75 261.04 1120.2 294.186 1120.77 327.332Z" fill="black"/>
<path d="M1064.83 332.006C1062.71 330.732 1060.16 330.873 1058.18 332.29C1055.91 333.99 1054.64 336.964 1055.2 339.939C1055.34 340.505 1056.05 340.93 1056.62 340.789C1057.33 340.647 1057.61 339.939 1057.47 339.372C1057.18 337.672 1057.89 335.973 1059.03 334.839C1059.59 334.273 1060.3 333.848 1061.01 333.706C1061.72 333.565 1062.42 333.706 1062.99 333.99C1064.55 334.698 1065.54 336.256 1065.82 337.814C1066.11 339.514 1065.4 340.93 1064.27 342.064C1063.7 342.63 1062.85 342.913 1062 343.055C1061.29 343.197 1060.44 343.055 1059.73 342.772C1059.17 342.488 1058.46 342.63 1058.03 343.197C1057.75 343.763 1057.89 344.472 1058.46 344.897C1062.99 347.163 1068.37 343.197 1068.09 338.381C1068.23 335.689 1066.96 333.281 1064.83 332.006Z" fill="black"/>
<path d="M876.485 361.753C878.326 364.019 878.751 367.135 879.034 369.968C879.034 370.535 879.459 370.96 880.026 370.96C880.45 370.96 881.017 370.535 881.017 369.968C880.592 366.569 880.026 362.886 877.76 360.195C876.06 358.353 873.653 357.22 871.246 357.503C870.679 357.645 870.113 357.645 869.405 357.928C868.98 358.211 868.838 358.778 869.121 359.203C869.405 359.628 869.688 359.628 870.113 359.628C870.254 359.628 870.396 359.628 870.537 359.486C870.962 359.203 871.529 359.203 871.954 359.203C873.653 359.203 875.352 360.336 876.485 361.753Z" fill="black"/>
</g>
</g>
<defs>
<clipPath id="clip0">
<rect width="1200" height="549" fill="white"/>
</clipPath>
<clipPath id="clip1">
<rect width="1334" height="402" fill="white" transform="translate(37 48)"/>
</clipPath>
</defs>
</svg>
