<svg width="48" height="48" viewBox="0 0 48 48" fill="none" xmlns="http://www.w3.org/2000/svg">
<g clip-path="url(#clip0)">
<path d="M32.6529 19.9875H32.6094C32.0148 19.9834 31.4404 20.2512 30.9981 20.7385C30.6401 19.524 29.7303 18.651 28.6647 18.651C28.0116 18.6566 27.3877 18.9853 26.9352 19.563C26.5192 18.5305 25.6845 17.8301 24.7248 17.8301H24.6785C24.1641 17.8204 23.6622 18.0255 23.2554 18.4113V11.0504C23.2554 9.2716 22.1256 7.82458 20.7513 7.82458C19.3786 7.82458 18.2547 9.27066 18.2539 11.0482L18.2425 25.6526L17.5682 24.6488C16.977 23.7464 16.1066 23.1862 15.165 23.1016C14.2428 23.0242 13.3355 23.4174 12.6582 24.189L12.0715 24.7849C11.8824 24.9771 11.8284 25.3049 11.9417 25.572L17.6456 39.0119C18.6886 41.468 20.6729 43.0002 22.8243 43.0002H29.2524V42.9933C32.5116 42.9933 35.1542 39.5266 35.1575 35.2698C35.1587 33.3652 35.1529 31.9457 35.1539 30.7952C35.1572 27.717 35.1547 26.5812 35.1483 23.1899C35.145 21.4152 34.0233 19.9875 32.6529 19.9875V19.9875ZM34.1033 30.7908C34.1023 31.9416 34.1008 33.3668 34.0992 35.2714C34.0964 38.8243 31.9084 41.7214 29.2218 41.7214H22.8245C21.0635 41.7214 19.4336 40.4526 18.5712 38.4213L13.0613 25.4428L13.3332 25.1647C13.3401 25.1579 13.3467 25.1497 13.3533 25.1426C13.8211 24.6029 14.4505 24.3257 15.0914 24.3772C15.7466 24.4387 16.3511 24.8314 16.7608 25.4609L18.3571 27.8418C18.4966 28.0506 18.7283 28.129 18.9356 28.0382C19.1428 27.9473 19.2814 27.7064 19.2814 27.4367L19.2908 11.0488C19.2913 9.97575 19.9533 9.10274 20.7518 9.10274C21.5504 9.10274 22.2124 9.97669 22.2124 11.0504V20.9314C22.2124 20.9657 22.2111 21.0003 22.2111 21.0353C22.2111 21.0503 22.2124 21.0656 22.2124 21.0802V25.3049C22.2124 25.6579 22.4459 25.9441 22.7339 25.9441C23.0219 25.9441 23.2554 25.6579 23.2554 25.3049V20.9529C23.2554 19.9176 23.9006 19.1086 24.6785 19.1086H24.7248C25.5238 19.1086 26.1887 19.9622 26.1887 21.0359V24.9016C26.1887 25.2546 26.4222 25.5408 26.7102 25.5408C26.9981 25.5408 27.2316 25.2546 27.2316 24.9016V21.8687C27.2316 20.7947 27.8646 19.921 28.668 19.921C29.4668 19.921 30.0998 20.7943 30.0998 21.8687V24.7299C30.0998 25.0829 30.3333 25.3692 30.6213 25.3692C30.9092 25.3692 31.1427 25.0829 31.1427 24.7299V23.1805C31.1427 22.1065 31.8104 21.266 32.6094 21.266H32.6529C33.4499 21.266 34.0995 22.1209 34.1015 23.1915C34.1079 26.5802 34.1066 27.7148 34.1033 30.7908Z" fill="#57B8D0"/>
<path d="M16.5957 11.3262C16.8837 11.3262 17.1172 11.0399 17.1172 10.6869C17.1256 8.24767 18.7412 6.27597 20.7309 6.27597C22.7208 6.27597 24.3362 8.24767 24.3446 10.6869C24.3446 11.0399 24.5781 11.3262 24.866 11.3262C25.154 11.3262 25.3875 11.0399 25.3875 10.6869C25.3778 7.54258 23.296 5 20.7309 5C18.166 5 16.0839 7.54258 16.0742 10.6869C16.0742 11.0399 16.3077 11.3262 16.5957 11.3262Z" fill="#57B8D0"/>
</g>
<defs>
<clipPath id="clip0">
<rect width="31" height="38" fill="white" transform="translate(8 5)"/>
</clipPath>
</defs>
</svg>
