<svg width="32" height="33" viewBox="0 0 32 33" fill="none" xmlns="http://www.w3.org/2000/svg">
<g clip-path="url(#clip0)">
<path d="M31.5059 4.17871C31.115 3.70068 30.5296 3.4375 29.8572 3.4375C29.4917 3.4375 29.1045 3.5144 28.7066 3.6665L1.61919 14.0066C0.181691 14.5552 -0.0119127 15.3784 0.000538505 15.8203C0.0129897 16.2622 0.25298 17.0732 1.71929 17.5398C1.72808 17.5425 1.73687 17.5452 1.74566 17.5476L7.36431 19.1555L10.4029 27.8445C10.8172 29.0291 11.7471 29.7649 12.8301 29.7649C13.513 29.7649 14.1846 29.4788 14.7725 28.9377L18.2479 25.7378L23.2886 29.7966C23.2891 29.7971 23.2898 29.7974 23.2903 29.7979L23.3382 29.8364C23.3426 29.8398 23.3472 29.8435 23.3516 29.8469C23.9119 30.2815 24.5235 30.511 25.1209 30.5112H25.1211C26.2884 30.5112 27.2178 29.6472 27.4886 28.3103L31.9268 6.39526C32.105 5.51562 31.9556 4.72852 31.5059 4.17871V4.17871ZM9.24395 18.8501L20.084 13.3123L13.3343 20.4844C13.2237 20.6018 13.1453 20.7456 13.1067 20.9021L11.8052 26.1741L9.24395 18.8501ZM13.5022 27.5583C13.4573 27.5996 13.4122 27.6365 13.367 27.6704L14.5745 22.7798L16.771 24.5486L13.5022 27.5583ZM30.0892 6.02295L25.6509 27.9382C25.6082 28.1479 25.4717 28.636 25.1209 28.636C24.9476 28.636 24.7298 28.5415 24.5069 28.3699L18.795 23.7708C18.7942 23.77 18.7933 23.7693 18.7923 23.7688L15.3936 21.032L25.1546 10.6602C25.4671 10.3281 25.4954 9.81958 25.2217 9.45483C24.9478 9.09009 24.4515 8.97534 24.0455 9.18286L7.99126 17.3845L2.29619 15.7551L29.3753 5.41821C29.6041 5.33081 29.7637 5.3125 29.8572 5.3125C29.9146 5.3125 30.0167 5.31934 30.0545 5.36597C30.1043 5.42676 30.1678 5.63403 30.0892 6.02295V6.02295Z" fill="#BF2B18"/>
</g>
<defs>
<clipPath id="clip0">
<rect width="32" height="32" fill="white" transform="translate(0 1)"/>
</clipPath>
</defs>
</svg>
