<svg width="52" height="51" viewBox="0 0 52 51" fill="none" xmlns="http://www.w3.org/2000/svg">
<path fill-rule="evenodd" clip-rule="evenodd" d="M1.42188 25.1064C1.42188 11.5754 12.4218 0.606445 25.9908 0.606445C39.5598 0.606445 50.5597 11.5754 50.5597 25.1064C50.5597 38.6373 39.5598 49.6064 25.9908 49.6064C12.4218 49.6064 1.42188 38.6373 1.42188 25.1064Z" fill="#1A1449" stroke="black"/>
<path fill-rule="evenodd" clip-rule="evenodd" d="M25.2557 20.5196L25.3072 21.3673L24.4479 21.2635C21.3202 20.8656 18.5877 19.5161 16.2677 17.2497L15.1334 16.1251L14.8413 16.9555C14.2226 18.8068 14.6179 20.7618 15.9068 22.0767C16.5942 22.8033 16.4395 22.9071 15.2537 22.4746C14.8413 22.3362 14.4804 22.2324 14.446 22.2843C14.3257 22.4054 14.7382 23.9798 15.0647 24.6026C15.5115 25.4677 16.4223 26.3154 17.4191 26.8172L18.2612 27.2151L17.2644 27.2324C16.302 27.2324 16.2677 27.2497 16.3708 27.613C16.7145 28.7376 18.0721 29.9314 19.5845 30.4504L20.65 30.8137L19.7219 31.3673C18.3471 32.1632 16.7317 32.613 15.1162 32.6476C14.3429 32.6649 13.707 32.7341 13.707 32.786C13.707 32.959 15.8037 33.9279 17.0238 34.3085C20.6843 35.4331 25.0322 34.9487 28.2975 33.0283C30.6175 31.6615 32.9376 28.9452 34.0202 26.3154C34.6045 24.914 35.1888 22.3535 35.1888 21.1251C35.1888 20.3292 35.2404 20.2254 36.2028 19.2739C36.7699 18.7202 37.3027 18.1147 37.4058 17.9417C37.5776 17.613 37.5604 17.613 36.684 17.9071C35.2232 18.4261 35.017 18.3569 35.7388 17.5784C36.2715 17.0247 36.9074 16.0213 36.9074 15.7272C36.9074 15.6753 36.6496 15.7618 36.3575 15.9175C36.0481 16.0905 35.3607 16.35 34.8451 16.5057L33.9171 16.7998L33.075 16.2289C32.611 15.9175 31.958 15.5714 31.6143 15.4676C30.7378 15.2254 29.3973 15.26 28.6068 15.5368C26.4586 16.3154 25.101 18.3223 25.2557 20.5196Z" fill="white" stroke="black"/>
</svg>
