<svg width="51" height="51" viewBox="0 0 51 51" fill="none" xmlns="http://www.w3.org/2000/svg">
<path fill-rule="evenodd" clip-rule="evenodd" d="M0.847656 25.1064C0.847656 11.5754 11.8475 0.606445 25.4166 0.606445C38.9856 0.606445 49.9855 11.5754 49.9855 25.1064C49.9855 38.6373 38.9856 49.6064 25.4166 49.6064C11.8475 49.6064 0.847656 38.6373 0.847656 25.1064Z" fill="#1A1449" stroke="black"/>
<path fill-rule="evenodd" clip-rule="evenodd" d="M26.6972 33.1467C26.6972 33.1467 27.1702 33.0953 27.4125 32.8406C27.6342 32.6072 27.6265 32.1668 27.6265 32.1668C27.6265 32.1668 27.597 30.1104 28.5725 29.8068C29.5338 29.5082 30.7682 31.7954 32.0781 32.675C33.0677 33.3399 33.8188 33.1944 33.8188 33.1944L37.3193 33.1467C37.3193 33.1467 39.1497 33.0363 38.2819 31.6273C38.2102 31.5119 37.7756 30.5847 35.6799 28.6801C33.4843 26.6865 33.7791 27.0089 36.4221 23.5599C38.032 21.4596 38.6755 20.1773 38.4742 19.629C38.2832 19.1046 37.0989 19.2439 37.0989 19.2439L33.1587 19.2677C33.1587 19.2677 32.8664 19.2288 32.6498 19.3555C32.4383 19.4797 32.3012 19.7696 32.3012 19.7696C32.3012 19.7696 31.6782 21.3943 30.8464 22.777C29.0916 25.6928 28.3905 25.8471 28.1033 25.6664C27.4355 25.2436 27.6022 23.9702 27.6022 23.0655C27.6022 20.2388 28.0405 19.0607 26.7498 18.7558C26.3217 18.6542 26.0064 18.5877 24.9104 18.5764C23.5043 18.5626 22.3148 18.5814 21.6406 18.9038C21.192 19.1184 20.8459 19.5977 21.0574 19.6253C21.3176 19.6592 21.9072 19.7809 22.22 20.1974C22.6237 20.7356 22.6096 21.9426 22.6096 21.9426C22.6096 21.9426 22.8417 25.27 22.0675 25.6828C21.5368 25.9663 20.8088 25.3879 19.2437 22.7418C18.4426 21.3868 17.8376 19.8888 17.8376 19.8888C17.8376 19.8888 17.7209 19.609 17.512 19.4584C17.2595 19.2765 16.907 19.22 16.907 19.22L13.1629 19.2439C13.1629 19.2439 12.6002 19.2589 12.3939 19.4986C12.2106 19.7106 12.3798 20.151 12.3798 20.151C12.3798 20.151 15.3112 26.8646 18.631 30.2485C21.6752 33.35 25.1309 33.1467 25.1309 33.1467H26.6972Z" fill="white" stroke="black"/>
</svg>
