<svg width="51" height="51" viewBox="0 0 51 51" fill="none" xmlns="http://www.w3.org/2000/svg">
<path fill-rule="evenodd" clip-rule="evenodd" d="M0.6875 25.1064C0.6875 11.5754 11.6874 0.606445 25.2564 0.606445C38.8255 0.606445 49.8253 11.5754 49.8253 25.1064C49.8253 38.6373 38.8255 49.6064 25.2564 49.6064C11.6874 49.6064 0.6875 38.6373 0.6875 25.1064Z" fill="#1A1449" stroke="black"/>
<path fill-rule="evenodd" clip-rule="evenodd" d="M37.8076 19.0571C37.5062 17.9025 36.6182 16.9934 35.4905 16.6848C33.447 16.124 25.2519 16.124 25.2519 16.124C25.2519 16.124 17.0567 16.124 15.013 16.6848C13.8854 16.9934 12.9973 17.9025 12.696 19.0571C12.1484 21.1496 12.1484 25.5157 12.1484 25.5157C12.1484 25.5157 12.1484 29.8816 12.696 31.9742C12.9973 33.1288 13.8854 34.038 15.013 34.3467C17.0567 34.9073 25.2519 34.9073 25.2519 34.9073C25.2519 34.9073 33.447 34.9073 35.4905 34.3467C36.6182 34.038 37.5062 33.1288 37.8076 31.9742C38.3553 29.8816 38.3553 25.5157 38.3553 25.5157C38.3553 25.5157 38.3553 21.1496 37.8076 19.0571Z" fill="white"/>
<path d="M37.8076 19.0571C37.5062 17.9025 36.6182 16.9934 35.4905 16.6848C33.447 16.124 25.2519 16.124 25.2519 16.124C25.2519 16.124 17.0567 16.124 15.013 16.6848C13.8854 16.9934 12.9973 17.9025 12.696 19.0571C12.1484 21.1496 12.1484 25.5157 12.1484 25.5157C12.1484 25.5157 12.1484 29.8816 12.696 31.9742C12.9973 33.1288 13.8854 34.038 15.013 34.3467C17.0567 34.9073 25.2519 34.9073 25.2519 34.9073C25.2519 34.9073 33.447 34.9073 35.4905 34.3467C36.6182 34.038 37.5062 33.1288 37.8076 31.9742C38.3553 29.8816 38.3553 25.5157 38.3553 25.5157C38.3553 25.5157 38.3553 21.1496 37.8076 19.0571" stroke="black"/>
<path fill-rule="evenodd" clip-rule="evenodd" d="M22.7969 30.0055V21.8389L29.3486 25.9223L22.7969 30.0055Z" fill="#1A1449" stroke="black"/>
</svg>
